<svg xmlns="http://www.w3.org/2000/svg" width="506" height="284.6"><defs><linearGradient id="a" x1="253" y1=".99" x2="253" y2="289.58" gradientUnits="userSpaceOnUse"><stop offset="0" stop-color="#2ab7ca" stop-opacity=".6"/><stop offset="1" stop-color="#2ab7ca"/></linearGradient></defs><path fill="url(#a)" d="M0 0h506v284.62H0z"/><g opacity=".06"><path d="M481.5 284.6h-94.9v-.2c1.1-3 2.2-6 3.2-9.1.1-.2-.1-.5-.2-.8a3.2 3.2 0 0 0-.3-.9c1.4.2 1.5-.6 1.6-1.4a20.9 20.9 0 0 0 0-2.5l.4.3c.5-.6.9-1.2 1.4-1.7l-.2-.3-.9.5-.3-.2c1.8-1.6 3.1-3.4 3-5.9l-1.4 3.6c-.3-.2-.4-.4-.4-.5l1.4-4.1c1.2-3.1 2.5-6.2 3.6-9.3s.3-2.2-1.4-2.8-5.1-1.5-7.4-2.6a73.3 73.3 0 0 1-10.3-5.7 28.5 28.5 0 0 1-5.7-5.8c-2.2-2.6-4.3-5.5-6.3-8.3a26.7 26.7 0 0 1-2.2-3.6c-1.1-2-2.4-3.9-3.3-6-2.2-4.7-4.1-9.4-6.2-14.1a1.8 1.8 0 0 0-.5-.7l-.3.2c-.7 1.6-1.3 3.2-2 4.7a66.6 66.6 0 0 1-16.1 21.1 72.8 72.8 0 0 1-27.2 14.7 87.2 87.2 0 0 1-23.8 3.4c-3.9 0-3.9 0-5.4 3.6-.4 1.2-.2 1.7.9 2.1l16.8 6.9a1.6 1.6 0 0 0 2.4-.7c6-9.3 14.6-14.6 25.3-16.7a40 40 0 0 1 17.2.5 43.6 43.6 0 0 1 20.3 10.8 38.6 38.6 0 0 1 11.8 20.3c.8 3.6.8 7.5 1.2 11.2h-6.6a11.2 11.2 0 0 0-5.4-2.5 4.5 4.5 0 0 0-5.1 2.5h-9.3c.6-1.5 1.2-3.1 1.7-4.6s.8-1 1.5-.7 2.5.9 3.7 1.5 1.3.5 1.5-.4a2.2 2.2 0 0 0-.9-1.1l-7-2.9a1.3 1.3 0 0 0-1.2.5l-3 7.7h-3.6a4.3 4.3 0 0 0 .2-1.1 1.3 1.3 0 0 0-.4-.9l-4.6-1.9a1.1 1.1 0 0 0-1 .3 1.5 1.5 0 0 0 .3 1.1c.1.2.5.3.8.4s1.7.9 1.2 2.1h-7.4a26 26 0 0 1 3.8-9.8 2.7 2.7 0 0 1 3.1-1.5 3.2 3.2 0 0 1 2.9 2.3c.6 1.7 1.4 2.2 3.5 1.6a15.7 15.7 0 0 0-.9-2.3c-1.7-2.5-4.2-3.5-7.1-3.8a4.9 4.9 0 0 0-5 2.5c-2.1 3.4-3.6 6.9-3.4 11h-2.9a14.7 14.7 0 0 1 0-2.1c.3-4.9.5-9.9.9-14.8.1-1.4-.9-1.4-1.6-1.8s-1.2 0-1.7.5c-3.2 3.8-6.5 7.5-9.8 11.2l-1.8 2.2c2 1.6 2.5 1.6 4-.1s.4-.7.7-.8a2.5 2.5 0 0 1 1.5-.3c1.2.4 2.4 1 3.6 1.5a1.4 1.4 0 0 1 1.1 1.8 24.8 24.8 0 0 0-.3 2.7h-47.2c-1.2-.6-2.4-1.4-3.6-1.9l-11-4.3a16.3 16.3 0 0 1-1.9-.9 3.6 3.6 0 0 1-.7-1h.2l.7.3a15.5 15.5 0 0 1 .4-3.2 8.4 8.4 0 0 1 1.1-2.1l.8 1.2 1.1-1.1-.3-.3-1.6.3a5.8 5.8 0 0 1 1-1.2l2.4-1.1v-.5l-3.6-1.7c-.1.4-.1.7-.2.7s-.9.5-1.3.4-1-.9-.9-.9-.3-1.5-1-2a11 11 0 0 1-1.4-.9v-.5h2l1.3.2c.6-.1 2.1-3.8 1.8-4.3l-.9-1.2a5.4 5.4 0 0 0 1.5-.2 3.7 3.7 0 0 0 1.4-.7c.6-.3 1.1-.8 1.6-.8a1.9 1.9 0 0 1 1 1.3c.3.9.8 1.2 1.6.6s1.8-1.5 2.8-2.3l-1.2-1.6c-.9.9-1.3-.1-2-.7l-.9 1.1c-.7.7-1.5.9-2.1.3s.1-1 .3-1.6l-.8-1.1-1.2-.5.2-.5a7.7 7.7 0 0 1 1.5.2c2 .7 4 1.7 6.1 2.4s4.3 2.5 6.8 3 3.9 1.6 5.8 2.4h.9v-.4l-29-11.9-.2.4.9.7c-.7 0-1.6-.1-2 .3s-.5 1.3-.8 2-2.1-.1-2.9 1.1l1.3 1.6-.4.4a3 3 0 0 0-1.5-.7c-.5-.1-1 .2-1.8.4 1-3.4 4.5-4.1 6.3-6.6l-2.1-.9c-.9-.5-1.5-.2-1.9.7l-1.5 3.4c-2.4 5.4-4.9 10.9-7.3 16.4-.2.4.1.9.1 1.4l-2.2 2.3c-1.4-2.1-2.7-4-3.9-6a2.5 2.5 0 0 1 .1-1.7c1.4-3.3 3-6.6 4.4-9.9s3.3-7.6 5-11.3a4.7 4.7 0 0 1 6.2-2.4l3.5 1.5 11.7 4.7 7.8 3.2a1.3 1.3 0 0 0 1.2-.3c.4-.8.7-1.6 1.1-2.5l-.2-.3-1.1.2c.2-.8.3-1.5.5-2.3l.8.3c.7.2 1-.1 1-.8s.4-3.1.5-4.5l-.7.3-.4-.2 1.6-3.7c.4.8.6 1.1.8 1.6l1.2-1.8.2 1.3c.9-1.8 2.2-3.5.5-5.4-.1-.1-.1-.4-.2-.6l1 .4c.5-1.5 1-3 1.6-4.6s2.5-.7 2.5-2.7l-1.7.3.6 1c-1.5.5-2.5.3-2.8-.6l-1-2.8 1.5.5c-.6-1.8-2-1.8-3.2-2.2v1.3c-.1 1.1 0 2.3-.1 3.5a6.2 6.2 0 0 1-.2 1.9 1.9 1.9 0 0 0 .8 2.6c.5.3.7.9 1.1 1.4h-.9c-2.9 0-3.9 1.1-3.6 4a5.3 5.3 0 0 0 .3 1.2c.2.7 0 1-.7 1.1s-1.7-.2-1.7-1.5 0-3.2-.1-4.8h1.2l.9-.4a1.1 1.1 0 0 0-.2-.6c-.4-.1-.9-.2-1.1 0s-.4.7-.6 1a11.1 11.1 0 0 0-1.9.9c-.9.8-1.7 1.8-2.7 2.6s-.9.1-1.3 0-.3-1-.2-1.1 1.1-2.1 1.4-3.2a3.3 3.3 0 0 1 .6-1l.7.9 1.1.8c.2-.3.7-.6.7-1a3.7 3.7 0 0 0-.4-1.8c-.7-1.2-1.2-2.2-.2-3.7a18.7 18.7 0 0 0 2-4.8c.1-.2-.3-.8-.6-1s-1.5-.2-2-.5a2.4 2.4 0 0 0-2.8-.1 5.1 5.1 0 0 1-1.3.2l1.1-2.1 5.4 2.2.2-.3-.6-.4c-3.9-1.6-7.7-3.3-11.6-4.8-2-.8-3.8-2.3-6.1-1h-.3l1.3-1.1-4.2-1.5-6-2.6c-1.4-.6-1.6-.8-.9-2.2s1.9-3.3 2.7-5 .6-1 1.4-.5 1.6-.4 2-1.2.6-1.6-.6-2.1-.8-.8-.7-1.1c1-2.3 2.1-4.6 3.2-6.9a1.8 1.8 0 0 1 .8-.7 2.3 2.3 0 0 0 1.5-3.2 1.4 1.4 0 0 1-.1-1.1c.9-1.8 1.8-3.7 2.6-5.6s.9-1 1.8-.6 1 .1 1.1-.1a4.8 4.8 0 0 0 .9-1.9 1.2 1.2 0 0 0-.7-1.2c-1.7-.7-1.7-.7-2.5 1-1.6 3.3-3.1 6.6-4.6 9.9l-5.7 12.3c-1.7 3.6-3.5 7.3-5.2 11l-8.7 18.7-4.8 10.6c-.3.6-.6 1.5-1.1 1.7s-1.4-.3-2-.5l-11-4.6a10 10 0 0 1-2.4-1.6 7.1 7.1 0 0 1-1.1-1.7c-3.1-4.9-6.3-9.7-9.3-14.8-1.4-2.4-3.1-4.7-4.5-7.1s-3-2.9-2.4-4.8a26.2 26.2 0 0 1-2.9-2.6c-1.4-1.9-2.6-3.9-3.9-5.8s-1.6-2.1-4-1.1a13.1 13.1 0 0 0 .3-1.5c.6-1.1 1.1-2.2 1.7-3.2 1.5-2.9 1.5-3 4.6-1.7 1.1.5 1.7.1 2-1l-.2-.2-11.5-4.8c-.3-.1-.9.3-1.1.7s.2.8.4.9a11.5 11.5 0 0 0 2.3 1c1.1.4 1.3 1 .8 2-1.8 3.5-3.4 7.1-5.1 10.6a6 6 0 0 1-2.8 3.3 7.2 7.2 0 0 0-2.1 1.8c-.2.2-.1.8-.1 1.2s.4.5.5.8c.6 1.9 2.2 2.3 4.3 2s2.4-1.5 2.3-3.4-.6-1.1-.8-1.7l-.6-1.5h4a3 3 0 0 0-.2 1c0 .3.1.7.1 1.1s1-.3 1.2-.6a1.9 1.9 0 0 0-1.6-3l-1.9-.2v-.5l2.4-1.1a5.9 5.9 0 0 0 1.4-.6c1.3-1 2.4-.7 2.5 1a3.5 3.5 0 0 0 1.4 2.3c1.2 1.4 3 2.5 3.3 4.5 0 .3.3.5.4.8s1.8 1.9 2.4 3.2a30.6 30.6 0 0 0 3 4.9l4.2 6.4 5.3 7.9c1.3 1.8 2 4 3.8 5.5l.5.7c.9 1.6 1.7 3.3 2.7 4.8s2 2.6 2.9 3.9l5.6 8.5c.6 1 1.5 1.8 2.1 2.8s3 5 4.6 7.4l8.2 11.6 4.2 5.9c.4.7.7 1.6 1.4 1.9 2.8 1.5 5.7 2.8 8.6 4.1l4.6 2.3H247l-2.4-1.5-.3.3.4 1.2h-75.8a17.9 17.9 0 0 0-.2-2.3c-.1-1-.6-2-.4-2.8a4.2 4.2 0 0 0-.4-3.3 3.4 3.4 0 0 1 1.2-4.4c-1.7-1.1-1.7-2.7-1.5-4.4s.4-1.2.5-1.7a4.4 4.4 0 0 0 1.8-2.5l-.4-.2-1.3 2.7-1.4 1.6-.7-3.5h-.6c.8 6.9 1.5 13.8 2.6 20.7h-5.2c-.2-1.9-.3-3.7-.5-5.6-.5-5.2-1-10.5-1.6-15.7s-1.4-11-2.1-16.5-1.7-13.4-2.3-20.1c-.1-1.6-1.1-3.4.1-4.9a4.9 4.9 0 0 1-.9-1.5c-.3-2.1-.1-4.2-.5-6.3s-.2-3.6-.6-5.4c-.8-3.9-1.2-8-1.8-12-.2-1.1-.5-2.2 1.2-2.4l.2-.5-19.2 3-12.6 2-12 1.7c-4.4.7-8.9 1.5-13.4 2.1a2.6 2.6 0 0 1-2-.8 30.8 30.8 0 0 1-3.2-4.8 45.7 45.7 0 0 1-6-19.7 39.6 39.6 0 0 1 1.2-13.3 46.4 46.4 0 0 1 8.6-17.2 50.8 50.8 0 0 1 12.2-10.9 58.5 58.5 0 0 1 30.7-9.3 62.9 62.9 0 0 1 31.5 7.2 54.2 54.2 0 0 1 19.1 16.3c5.9 8 9.3 16.9 9.4 26.9a3.2 3.2 0 0 0 3.8 3c-.3-2.7-.7-5.4-.8-8.1a55 55 0 0 1 1.5-16.2 100.2 100.2 0 0 1 3.4-11 61.5 61.5 0 0 1 11-17.5 63.5 63.5 0 0 1 17.9-14.4c3.5-2 7.2-3.4 10.7-5.1a2 2 0 0 0 1.1-1.3 10.5 10.5 0 0 0-.6-2.4c-.5-2.5-1.1-5-1.6-7.5-.3-1-.3-2.1-.7-3.1s-1-2.1-1.4-3.3.2-.6.4-.8a3.4 3.4 0 0 0 1.9-3.4 3.1 3.1 0 0 0-.8-1.1 20.6 20.6 0 0 0-2.6-1.2c-1.4-.5-1.5-.9-.4-2a1.8 1.8 0 0 0 .2-2.5l-.8-1.1c.8-.4 1.4 1.6 2.2-.1l-4.4-2.7a17.6 17.6 0 0 1 .7-2.7c.3-.8 1.1-1.8.8-2.3s-1.4-.8-2.2-1.2-2.4-1.7-2-3.1a16.4 16.4 0 0 1 .7-1.5l-9.4-4.9a.8.8 0 0 0-1.3.7c-.2 1.6-.5 3.2.7 4.5a4.2 4.2 0 0 1 1 1.7c.2.5.2 1.5-.1 1.6s-1.1 1.9-1.1 3c-.1 2.8-.8 3.6-3.4 4.1a17.8 17.8 0 0 0-7.7 3c-.3.2-.7.8-.6 1.1s.8 2.6-.6 3.8a2 2 0 0 1-1.4.4l-5.4-2.5c-.8-.4-1.7-.8-.8-2s0-.5-.1-.7l-1.6-3.4c-1.2.2-1.6 1.2-2.1 2s-.6 1.1-1.3.5-1.4-.2-1.7.7a12.3 12.3 0 0 0-.2 2c-.2 3.7-.4 7.5-.5 11.2 0 1.8-.8 3.5-.2 5.3a2.9 2.9 0 0 1-.1 1.3c-.6 2.5-.5 5.1-.9 7.7a19.3 19.3 0 0 0-.1 5.4c.4 2.2-.2 4.6-.5 6.9a47.7 47.7 0 0 1-1.5 5.4l-3 10a4.6 4.6 0 0 1-.7 1l-.3-.5c-.6-2.2-1.2-4.4-1.7-6.6a31.1 31.1 0 0 1-.4-3.2 16.4 16.4 0 0 1-.9-3.5c0-3.4.2-6.8.3-10.2s.3-6.1.4-9.1c.1-.6.1-1.3.2-1.9.3-3.9.7-7.8.7-11.7a15.3 15.3 0 0 1 .4-3.8 6.2 6.2 0 0 0 .1-1.3c.1-2.3.2-4.5.2-6.7a23.4 23.4 0 0 0-.7-4.5 18.7 18.7 0 0 0-1.7-3.1c-.1-.3-.4-.5-.6-.7s-.6.4-.7.7-.9 1-1.6.6l-6.3-3.5a2.7 2.7 0 0 1-1-1.8c-.2-.9.2-1.9-1-2.5s-.3-.8-.1-1.1 1.1-1.5 1.7-2.3c.4.8.5 1.5.9 1.8s3 1.6 4.6 2.4a4.1 4.1 0 0 0 1.5-.2 3 3 0 0 0-.7-1.1 49.3 49.3 0 0 0-4.6-2.3c-.8-.3-.8-.8-.6-1.5l1.8-4.5c1.6-4.1 3.1-8.2 4.6-12.3.2-.3-.1-1-.4-1.2l-6.8-3.4-11.1-5.4c-1.5-.8-3-1.9-4.5-2-4.4-.3-8.8-.6-12.1 3.3-.7.8-1.1 1.3-.6 2a10.5 10.5 0 0 0-1.5 1.5 9.7 9.7 0 0 0-1.1 2.3c-1.3 2.4-2.5 4.9-3.9 7.3s-2 5.1-3.6 7.4-1.2 2.6-1.9 3.8c-2 4.1-4.1 8-6.3 12s-3.7 7.1-5.7 10.5c-2.9 5-5.9 10-8.9 15-.6 1-1.3 1.9-2 2.9-1.8-1.1-2.8.5-3.8 1.1a2.8 2.8 0 0 1-.6 1.6c-.3.4-.9.6-1.3.9s-.7.9-.6 1.1-.5 1.9-1.1 2.7a6.9 6.9 0 0 0-1 1.7c-.1.2-.3.7-.4.7s-1.7 1.2-1.8 2.4-.7 1.2-1.2 1.7-.9 1.2.1 2.2l-2.4 1.2a2.6 2.6 0 0 0-1.4 2.9c.5 1-.9 4.1-1.9 4.6s-.1-1.3-.1-2.2c-1.4 1.2-1.8 2.2-1.5 3.5a6.1 6.1 0 0 1 0 1.9c0 .9-.5.9-1.1.5l-1.2-.6c-.3.6-.8 1.2-.7 1.7s-.7 1.8 0 2.7l-.8.5a6.9 6.9 0 0 0-1.3.5c-1.5.9-1.9 2.4-2.2 4.1s-.7 2.2 1 2.5l.3.8a6.4 6.4 0 0 1-1.5-.5c-1-.7-1.6-.6-2 .5a4.9 4.9 0 0 0-.6 1.7c-.1.2.1.5.2.8s.5-.3.6-.5a3 3 0 0 0 .4-1c.5.8.4 1.6.8 2.1a1.4 1.4 0 0 1-.6 2.2c-1.1.6-1.3 1.5-1.7 2.4l-1.8 4.6c-.3.9.1 1.5 1.3 1.6-1.3 2.6-2.6 5.2-4 7.8-2.1 4.2-4.3 8.3-6.5 12.4s-4.2 7.7-6.2 11.6-4.2 8-6.3 11.9-4.9 9-7.4 13.5c-.2.5-.8.9-1.2 1.3l-.7-1.4-.4-.2c-.2 1.6-.4 3.1-.5 4.6a12.3 12.3 0 0 1-.2 2c-1.3 3.7-2.5 7.5-4 11.1s-3.3 7.1-5.1 10.6-3.2 6-5 8.9-4.1 6.2-6.3 9.2a12 12 0 0 1-2.8 2.7c-1.2 1-2.2 2-2.2 3.7a20.6 20.6 0 0 0 .3 2.6c.6 3.2 2 6 5.1 7.6s5.1 2.7 7.6 4.1l16.7 8.6a20.8 20.8 0 0 1 2.9 1.9H45.3c0-.7.3-1.6-.8-1.8l-.8 1.8h-.5v-2l-1.5 2H0v-88.5c.8-.9 1.7-1.8 2.4-2.7a73.9 73.9 0 0 0 7.3-13.2 61.9 61.9 0 0 0 6-23.8 62.3 62.3 0 0 0-2.4-20.1 65.9 65.9 0 0 0-6.9-16.2 21.9 21.9 0 0 0-6.4-6.8V0h223l-3 3c-.4.3-1.3.3-.7 1.2s.7 2 2 1.1 4.1-3 5.3-5.3h21.1c.9 3.5 1.7 7 2.6 10.4.2.6 1 1.4 1.5 1.4s2 .6 2 2.1.4 3.1 3.4 2.9l13.4-.7 19-1.1 5.5-.4c1.1 0 1.4-.6 1.4-1.6-.1-2.6-1.5-4-4.2-4.6a32.8 32.8 0 0 1-3.8-1.5l1.5-1.2 2.3-2.4a1.4 1.4 0 0 0-.3-1.1c-1.3-.3-1-1.3-1-2.2h147.5c-.3 7.3-.7 14.5-1 21.8s-.7 17.2-1.1 25.8l-.6 13.7c-.5 7.5-1 15-1.4 22.4s-.7 14.1-1 21.1a28.1 28.1 0 0 0 .9 10.4c.6 1.8 2 2.9 3.9 4-.4-1.2-.6-2.1-.9-3l.4-.2.7.5c1.1 1.2 2.1 2.6 3.3 3.7a4.7 4.7 0 0 0 3.6 1.4c-.1-.5-.1-.9-.3-1.7l4.4 2.9c-.3-1.5-2-2.1-1.3-3.7l.9.7c1.2.9 2.2 2.2 3.6 2.7 5.9 2.3 12.2 3.1 18.5 4s13.3 1.6 20 2.3c4.9.6 9.9.9 14.9 1.4v154.4h-23.2c.2-1.5-.5-2.3-1.9-1.8zm-424-86.4l-2.8 4.9-1.6 3.3 1.3-.5c.1-.7.2-1.2.3-1.7v-1.1a5.8 5.8 0 0 0 2.7-4.9c1-.6 1.1-1.6 1.5-2.5l-.4-.2c-.4.9-.7 1.8-1 2.7zm379.3-40.3c-.5.2-1.1.3-1.3.6a3.6 3.6 0 0 0-.2 1.5 1.3 1.3 0 0 0 1 .4 1.7 1.7 0 0 0 .6-1.1 3.2 3.2 0 0 0-.2-1.4l.9-.2.8-.7c-.2-.2-.5-.7-.8-.6a1.4 1.4 0 0 0-1 .5c-.1.2.1.7.2 1zm-266 114.3l3 1.3h1.4v-.5a7.1 7.1 0 0 0-4.5-.9l-.9-2.8c-.1-.3-.3-.5-.3-.7s.7-1.7 1.1-2.6a11.9 11.9 0 0 1 .8-1.6l-.3-.2-1.5 2.4a3.4 3.4 0 0 0 .4 4.4 4.1 4.1 0 0 1 .8 1.2zm238.8-49.8c-.4-1-.8-1.9-1.3-2.9h-.3v1.8c0 1.6.1 1.7 1.6 1.1a20.9 20.9 0 0 0 0 2.5c.1 1.3.6 1.5 1.7.9s-.4-2.2-.7-3.4zm-223.8 40.3l2.4 4.9c-.1-2-.5-3.8-2.4-4.9l-.7-.6a11.9 11.9 0 0 0-1 2.8 12.2 12.2 0 0 0 .3 2.6h2.5c-2.4-2.2-2.6-3.3-1.1-4.8zm-11 7.3c.3.1.7.3.9.2s1.2.1 1.4.9a4.4 4.4 0 0 0 .2 1l1.7-.6-.5-.6v-.4l3.1.5.6-1.5c-1.8 1.1-3.4.5-5.1.2a10.5 10.5 0 0 0-2.4.3l-2.4-.4-.2.4c.4.6.7 1.2 1.1 1.7h.3l-.3-1zm14.7-5.7c.1.7.1 1.4.2 2s.5 1 .8 1.1a17.6 17.6 0 0 0 2.7.2c-.5-.4-.7-.8-1-.9s-2.2-1.4-1.5-3l-1.2.7a1.2 1.2 0 0 0-.5-1.7c-.6-.3-1-.8-1.5-1.1a1.5 1.5 0 0 1-.7-2c1.4-.2 2-1 2.4-2.8-1 .8-1.8 1.7-2.7 2.4s-1.2 1.2-.2 2.1zm99.5-2l-6.2-2.4v.5c2 .8 3.9 2.4 6.3 1.9 1.8 3 .1 6.6 2.1 9.8-.2-3.2-.3-6.1-.5-9.1zM184.5 244c1.8-1.1 2.7-3.1 3.9-4.9a5.1 5.1 0 0 0-4.2.7h-.6c-2.2.1-2.9 1.1-2.6 3.1a15.1 15.1 0 0 1 .1 3c1.7.4 2.7-.4 3.4-1.9zm-12.4-3a11.2 11.2 0 0 0-2.2 5.7l.9-.8v.9l2.8-2.5-.4-.3-1.1.8c0-.7.1-1.3.1-1.9s-.1-1.3-.1-2l4-5-.3-.3c-1.3 1.7-3.3 2.9-3.7 5.4zm24.7 16.8l-2.4-3.7c-.1 1.7 1.1 2.8 2.5 3.7s0 1 .2 1.2c2.4 1.3 1.3 3.5 1.2 5.3s-1 1-1.5 1.5a6.7 6.7 0 0 1-1.1-1.4 7.1 7.1 0 0 1-.4-2.1c-.2-1.4-.5-2.7-2-3.4a6.1 6.1 0 0 1 1.6 4.8c-.1 1.5.7 2.1 1.8 2.7s1.4.3 1.7-.6a35.7 35.7 0 0 0 1-3.5c.2-1.3-1.4-4-2.6-4.5zm1.4-61.7c0-.3.1-.6 0-.8a14.7 14.7 0 0 0-1-1.3c-.4.3-1 .6-1.2 1a3.7 3.7 0 0 0-.4 1.8 2.4 2.4 0 0 0 .5 1l1-.6 1.1-1.1c0 .8-.2 1.8 1 2h2.9c.4-.1 1.2-.8 1.1-1a3.9 3.9 0 0 0-1.2-1.9 1.5 1.5 0 0 0-1.3 0 2.7 2.7 0 0 1-2.5.9zm270.3 40.6l4.4 1.2v-.5l-4.5-.6a3.7 3.7 0 0 0-1.2-.7l-3.1.2c-2.9.5-5.8.9-8.7 1.5a6.5 6.5 0 0 0-1.7.8l1.1 1.3v.2c-2.1 1.9-4.7 1.3-7.2 1.6 1.6.7 3.4 1 5 1.7a3.2 3.2 0 0 0 3.3-.3 28.7 28.7 0 0 0 3.1-2.9c2.8-3.1 5.3-4.2 9.5-3.5zM377 15.2l-2.1-.7c-1.1.4-1.6 1.3-1.6 2.8s.3 4.7-2.4 6.1l.3-2.8c0-1.6-.1-3.3-.1-5s-.4-.5-.6-.7-.7.4-.7.6-.9 1.4-.1 2.2-.2.9-.5 1-1.8 1.7-3.1 1.2-.4.1-.7.2l.6.7.8 1-1.2.8-1.4.4v.2h2.4l-4.8 2.8c-1.2.6-1.1 1.4-.7 2.3s2.2 4.5 3.5 6.6a35.8 35.8 0 0 0 2.9 3.9l.5-.2a8.7 8.7 0 0 0-.7-1.7c-.9-1.6-2-3.2-2.9-4.8s-.1-3.4 2.1-3.8c.2.4.3.9.6 1.1a2.7 2.7 0 0 1 .8 2.4c-.1 1.1 0 2.1 0 3.3 2.3-.7 2.7-2.3 1.5-3.6a21.8 21.8 0 0 0 .1-2.4c0-1.7-.1-3.3-.1-5s.1-.4.4-1c.4 1.7.8 3.1 1.1 4.4h.3c.4-1 .8-2 1.2-3.2.8 1.6 1.2 3.2.5 4.6s-.4 5.1.3 7.6c0 .1.2 0 .4.1a11.3 11.3 0 0 1 .3-1.8c.5-1.9 1-2.1 2.8-1.5s1 .7.7 1.4l-.3 1.1h.4a16 16 0 0 1 1.3-3c.8-1.2.6-2.9 2.2-3.6s.7-.8-.1-1.1a2.6 2.6 0 0 1-1.3-3l1 .7c1.7-1.7 1.7-1.7 3.1-1.3a12.7 12.7 0 0 1 1.2-1 1.3 1.3 0 0 0 .6-1.9 2.2 2.2 0 0 1 0-1.6c2-2.3 3.3-5.2 6-6.3l1.5.2 1.3-.5a9.1 9.1 0 0 1-.9 1.7c-1.5 1.9-3.3 3.5-3.7 6.1-.1.7-.9 1.4-1.3 2.2a4.3 4.3 0 0 0-.5 1.6l.5.2 3-3.8c.2.8 1.1 1.2 2.3.8s.6-.4.6-.5-.3-.8-.5-.8c-2 0-1.8-.7-.8-1.9s.1-.4.2-.6 1.1-2 2-2.4a20.6 20.6 0 0 1 4.4-1.4l-2.9-.8a9.7 9.7 0 0 0-2.4-.2c.2-1-.1-1.6-1.2-1.1a23.3 23.3 0 0 0-3.3 1.4 29.5 29.5 0 0 0-3.1 2.2v.9l-4.5-.7-1.5-.4 1.3-.9.2-.2-.3-.3-.9-1.1a10.1 10.1 0 0 1 1.5-.7 25.4 25.4 0 0 1 3.9.1 7.2 7.2 0 0 1 1.9.4l1.5-1.3-3.7-.5-3.2.2c-.5 0-1.1.1-1.2-.8a1 1 0 0 0-.8-.3l-3.1 1c-.7.2-1.3.5-1.1 1.4a8.8 8.8 0 0 1 1.7.2c.4.1.6.6 1 .9l-1.1.5-1.5.8zm-43.9 39.9a9.3 9.3 0 0 0 1 .5c2.8.7 5.6 1.4 8.4 1.9a2.7 2.7 0 0 0 1.9-.6c.2-.1-.2-1-.3-1.5s-.4-.6-.4-.8c.1-1.8-.1-3.6 1.5-4.8s.2-.8.2-1.2h-1c-.4 0-.9.2-1.1 0a1.7 1.7 0 0 1-.3-1.2c-.1-.3.1-.7 0-.9s-.7-2.9-1.1-4.3.2-2.8-1.8-2.9c-.2 0-.5-.5-.5-.6s.3-.6.6-.8l1.1-.2c-.2-1-.4-1.9-.5-2.7l-3.3-.4c-.3-1.6-1-2-2.6-1.7l-1.4.2c-1.1 0-1.6.6-1.5 1.7s.2 2.2.2 3.4.1 3.1.1 4.6c-1.6.4-2.6-.4-3.4-1.6a4.8 4.8 0 0 0-1.7-1c.1-.9-.5-1.4-1.4-1.4s-.5.8-.5 1.3-.4.8-.6.8a1.2 1.2 0 0 1-1-.6c-.1-.5 0-1.1-.1-1.6l-.6-.7-.6.6a10.9 10.9 0 0 0-.5 1.4l-.8-1.4c-.1 1.2-.2 2-.3 2.9h-.4a1.4 1.4 0 0 1-.2-.7c-.4-.8-2.8-1.8-3.5-1.3s-1.3.8-1.8-.1-.7-.1-.7 0a3.7 3.7 0 0 1-3 1.2c-.2 0-.6.2-.6.5s-1 .9-1.8 1-1.4.2-1.5.5-1.7 1.6-3.1 1.5a1.6 1.6 0 0 0-2 1.4c0 .3-.6.7-1 .8h-2.8a1.8 1.8 0 0 0 1.2.8q5.1 1.5 10.2 2.7l6 1.3c2.8.6 5.6 1.5 8.4 2s5.8 2.1 8.9 2zm-48 6l.6 1a38.7 38.7 0 0 1 3.4 5.5c1.6 3.6 3 7.4 4.5 11.1s2.7 6.8 4.1 10.2a2.7 2.7 0 0 1-1 3.6l-1.4-1.5-6.1-5.8a76.6 76.6 0 0 1-5.7-5.7c-1.6-1.7-3-3.5-4.4-5.3a24.3 24.3 0 0 1-1.9-2.9 8.2 8.2 0 0 0-1 1.7c-.9 1.9-1.7 3.8-2.5 5.7s-.9 1.3-1.8.7l-2.2-1.1c-1.1-.5-1.2-1.1-.7-2.1l3.5-8.1c.6-1.3 1.1-2.6.1-4.1s-.4-1.3-1.4-1.2-1.8 0-2.3 1.2l-3.7 8.4c-1.6 3.6-.7 3.2-4.6 1.7-1.3-.5-1.4-1-.8-2.3l2.7-5.9c.7-1.5 1.6-3 .7-4.9-1.3.4-1.4 2.9-3.1 2.2a7.1 7.1 0 0 0-.7-1.5 9.7 9.7 0 0 0-2.4-1.5 4.7 4.7 0 0 0-1.7-.3c-.1 1.5-1.4 2.2-2.2 3.2s-1.1 1.2-2.2.5c1.2-1.8 1.2-1.8.2-2.3a4.2 4.2 0 0 1-.3 1.2c-1 1.3-4.4 1.9-6.1 1.2a9.5 9.5 0 0 0-2.3-.5c-.6 1.6-1 2.9.5 4a.8.8 0 0 1 0 .7c-.5.8-.7 1.4.4 1.8s.2.5.3.8l-.7.2c-.3 0-.6-.2-.9-.1s-2.4 3.2-2.3 3.8a.7.7 0 0 0 .4.6 17.1 17.1 0 0 0 3 .9 1.8 1.8 0 0 1 2 1.6c-.5.6-1 .9-1.2 1.4s.2.8.5 1 3.9 2 3.8 4.7c0 .2.4.4.6.7a4.8 4.8 0 0 1 .6 1.1l-1.3-.2c-1-.4-1.2.2-1.4.9s-.2 1.2.8 1.5a7.2 7.2 0 0 1 3.2 2.4c.9 1.4 1 3.2 1.5 4.8a18 18 0 0 0 .6 2.2c.7 2 1.8 3.9 1.5 6.3a22.5 22.5 0 0 0 2.6 0l6.2-1a81.1 81.1 0 0 1 23.6 0 1.8 1.8 0 0 0 1.5-.7 37 37 0 0 0 1.8-4 8.7 8.7 0 0 1 .9-1.1l.5.3-3.4 7c3.8 1 7.8 1.8 11.6 3a115.4 115.4 0 0 1 11.6 4.4c3.7 1.7 7.2 3.8 10.9 5.8v-.6l-2.1-10.1c-.1-.7-.3-1.8.1-2.3s.3-2.5.2-3.8-.4-2.4-.6-3.6a12.1 12.1 0 0 1 2.1-9l3.2-4.3a1.5 1.5 0 0 0 .2-1.1 26.5 26.5 0 0 0-.6-3c-.1-.6-.1-1.2-.2-1.8a29.3 29.3 0 0 1-.7-4.1 19.3 19.3 0 0 1-.1-3.4c0-.3 0-.6.2-.7s.5-1.5.1-2.3a8.8 8.8 0 0 1-1.3-5.5c0-.2-.1-.4-.1-.6a27.1 27.1 0 0 0-.1-2.9 4.4 4.4 0 0 0-1-1.6c-.1-.2-.7-.2-.9 0-1.8.7-3.6 1.5-5.4 0h-.8a8.8 8.8 0 0 1-1.7-.2c-.4-.2-.6-.7-.9-1a3.5 3.5 0 0 1 1.1-.3 15.2 15.2 0 0 0 2.1-.3c.3-.1.4-.6.6-.9l-1-.5a13.5 13.5 0 0 0-1.8.3l.5-1.4-.2-.2-.9.7c-.2.3-.4.7-.7.7s-1.6 1.2-1.5 2.5a1.7 1.7 0 0 1-.7 1.4 9.2 9.2 0 0 1-2.5.8 10.4 10.4 0 0 1-1.6-.1c.8-1.3.9-2.4.1-3.4a2.4 2.4 0 0 0-1-.5c-.3.1-.4.6-.6.9s-.8 1.1-1.2 1.1a11.7 11.7 0 0 1-3.2-.1c.3-.7.7-1.2.6-1.5a3.6 3.6 0 0 0-1.1-1.4c-.1-.1-.9.5-.9.5s-.2 1.1-.8 1.3a2 2 0 0 0-.7.9c-.4.8-.7 1.7-1.1 2.5a7.3 7.3 0 0 1-.9.8l-.7-.9a4.7 4.7 0 0 1-.3-.9l2.2-.9c-1.2-1.1-2.3-1.1-3.1-.6a2.9 2.9 0 0 0-.8 2.3c.5 1.2-.1 1.3-1 1.4zm130.3 146.6c3.3-8.6 6.6-17.1 10-25.7 1.5 1 3.5.1 4.5 2 0 0 .6-.1.7-.3a.7.7 0 0 0-.2-.7c-1.3-.8-.7-1.2.2-1.7s2.3-1.5 2.3-3.2a2.1 2.1 0 0 1 .5-1.3 3.9 3.9 0 0 0 1-3.2c0-1.2 1.2-2.6-.7-3.5-.1 0-.2-.5-.1-.8s.7-3.4 1-5.1.2-1.1 0-1.2l-3.1-1.5c.1-.3.2-.8.4-1.3s1.9-2.8.5-4.5a.9.9 0 0 1-.1-1 14.8 14.8 0 0 1 2.8-2.8c1.3-.7 1.9-1.2 1.4-2.6s-.3-1.9 1.2-2l-1.9-1a5.8 5.8 0 0 1-3-4.7c.1-1 .2-2.1 1.4-2.6a2.8 2.8 0 0 0 1.2-1.2 1.8 1.8 0 0 1 2.1-.9l8.5 2.5c.5.1 1.3.4 1.4.2a4.2 4.2 0 0 0 .4-1.6c-2-.4-4.1-.1-5.5-2 2.1-.6 1.1-1.9.8-3.1s-.8-2.9 1.1-3.5l-7.1-4.6c.1 3-3.2 4.2-3 7l-.2.2-3.9 5.9-2.4 4.4-4.7 8.5c-.8 1.3-1.4 2.8-3.1 3.5a3.6 3.6 0 0 1 1.7-3.9 2.3 2.3 0 0 0 1.5-2.2 15.2 15.2 0 0 1 .6-2c.4-1.1.8-2.4 2.1-3a1.4 1.4 0 0 0 .2-.7 11.7 11.7 0 0 0-.5-1.1 3.4 3.4 0 0 0-.8.9 10.1 10.1 0 0 0-.9 1.8l-2.6 4.3-.9 1.3c-.2.4-.6.8-.6 1.3a2.2 2.2 0 0 1-1.9 1.9c-.9.1-2.5-.3-2.6-.7a5.2 5.2 0 0 1 .7-2.9c.9-1.8 2.1-3.5 3-5.2s.7-1.7 1.1-2.4l3.1-5.3c1.1-2.1 2.2-4.3 3.2-6.5a3.3 3.3 0 0 0 0-1 7.9 7.9 0 0 0-3.6 5.3c-.2.9-.8 2.4-1.5 2.6s-1.7 1.7-2.3 2.8l-.3.5-2.5 4.1c-.4.8-.7 1.7-1.2 2.5s-.7 1-1 1.6a17.6 17.6 0 0 1-.9 2c-.3.4-.9.6-1.3.9s-.7-1.1-.6-1.6c.4-2.1.9-4.1 1.4-6.1 1.3-5.2 1.8-10.7 4.9-15.4a15.7 15.7 0 0 0 2-4.6 3.3 3.3 0 0 0 .1-1.4 3.4 3.4 0 0 0-3.4 2.3q-1.8 4.9-3.3 9.9c-.8 2.5-1.4 4.9-2.1 7.3-.2.8-.4 1.6-.5 2.3s-.7 3.1-1.1 4.6-1 .9-1.3.3-1.4-1.8-3.1-2-4.2-1.3-6.2-2.2l-3.8-2c-2.9-1.6-6.5-2-8.4-5.3a27.3 27.3 0 0 0 1 4.1l13.7 32.7c2.1 5.1 4.4 10.2 6.6 15.3l6 13.6c.7 1.5 1.2 3.1 1.9 4.7zm-401.1-89l.9-.2c.3 0 .9.1 1 .4a1.5 1.5 0 0 1-.2 1.1c-.1.3-.5.3-.8.5s-.4 1 .2 1.1 2.1.5 3.1-.6 4-4.1 6.1-6.1a1.5 1.5 0 0 1 1.4-.3.9.9 0 0 1-.2 1.5c-1.8 1-2.5 3.3-4.5 4-.1.1-.1.3-.2.5a20.9 20.9 0 0 1-2 2.2c-.7.8-.5 1.2.3 1.5a2.8 2.8 0 0 0 3-.5 3.2 3.2 0 0 1 4.9.4 20.9 20.9 0 0 0 1.4-1.7c.3-.3.7-1.1.5-1.3a7.4 7.4 0 0 0-1.7-1.2h-.9l-.3-.4 1.8-1.5a4.5 4.5 0 0 0 1 1.3 2.3 2.3 0 0 0 1.5.7 1.4 1.4 0 0 0 1.1-.9c.1-1 .8-1.3 1.5-1.7a1.3 1.3 0 0 1 1.2.5 13.5 13.5 0 0 1 .4 2.9 5.9 5.9 0 0 0 .6 2c.9 1.3 2 2.5 3.1 3.8a6 6 0 0 1 .6 1.1c.3 1 .4 2.1.8 3.1s1.4 2.2 3.4 1.8l5.8-1.1a41.2 41.2 0 0 1 14-.3 16.6 16.6 0 0 1 4.9 1.6 16.5 16.5 0 0 1 3.2 2.8v-.4c-.1-3-.3-5.9-.3-8.8a1.8 1.8 0 0 0-1.6-2.1c-1.7-.4-2.3-1.5-2.4-3.5s.4-2.7 1.9-3.1 1.6-1.3 1.6-2.6c-.3-6.6-.6-13.2-.8-19.9-.1-1.7-.1-1.9-1.9-1.8l-10.5 1.1c-.8.1-.8.6-.7 1.2s.3 3.1.6 4.6 0 1.3-1.1 1.7c-2.8 1-3.1.3-2.3 3.7s2.2 8.7 3.1 13.1c.7 2.8.2 3.5-2.1 4-1.2-1.6-2.3-3-3.3-4.6a6.5 6.5 0 0 1-.4-2c0-.3.1-.7 0-.9a20.4 20.4 0 0 0-2.1-2.8 6.8 6.8 0 0 0-3-2.3 17.3 17.3 0 0 0-3.2-1.1c-.4 0-.7-.5-1-.8a2.6 2.6 0 0 0-2.7-.9c1.8 1.4.9 2.9 1 4.5l-3.6-.6a3.7 3.7 0 0 0-1.8 0c-.9.4-1.5.3-2-.4s-1.3-1.6-2.6 0l-.8 1-2.1 2.3c-.6-.8-.6-1.4.1-2a22 22 0 0 0 2-2.3c.5-.7 1.2-1.5.2-2.4l-1.6-1.3a12.3 12.3 0 0 0 .2 1.9 1.8 1.8 0 0 1-.9 2.2c-.5.4-1.3.2-2 .2l-1.9-.2a10.9 10.9 0 0 1 .1 1.8c0 .4.2 1.1 0 1.3a1.7 1.7 0 0 1-1.4.2c-1.2-.4-1.5.1-1.3 1.1s-.2 1.1-1 1.2a2.6 2.6 0 0 0-1.4 1.1c-.3 1-.7 1.1-1.5.7s-1.7.2-2.4.9zm315.6 55.9v-.3h.8c2 .2 4 .2 5.7-1.1a10 10 0 0 0 3.6-5.4 7.5 7.5 0 0 0-.2-5.3 15.4 15.4 0 0 0-8.1-7.6c-3.1-1.2-6.1-2.5-9.1-3.9s-1.9-1.5-3 1.1c-2.7 6.2-5.2 12.4-7.9 18.5-1.9 4.4-3.9 8.7-5.8 13.1-.5 1-.4 1.7.8 2.1l5.4 2.2a96.1 96.1 0 0 0 10.3 3.5 10.2 10.2 0 0 0 5.2-.2c4-1.2 5.9-4.3 6.7-8.2a6.1 6.1 0 0 0-1.3-5.4zM69.1 41.8h-.3c0-1.6 0-3.2-.1-4.8a1.6 1.6 0 0 0-.8-1.1l-10.1.7c-.9.1-1.1.6-1 1.4s.1 2.6 0 3.9-.2 2.4-2.5 2.9-2.5.9-2.3 2.8q.3 6.8.9 13.5c.5 6.2 1.3 12.4 1.8 18.6.1 1.2.5 1.6 1.6 1.5l12.1-1.1c.7-.1 1-.4 1-1.2a47.1 47.1 0 0 1-.3-5.3zm191.2 120.7h.5l.6-1.4c1.3-2.9 2.5-5.9 3.9-8.9s3.5-6.3 4.5-9.6a124 124 0 0 0 2.7-13.5 1.2 1.2 0 0 0-.5-1.1l-5.8-2.4c-2.4 4.5-6.2 7.3-8.9 11.1s-5.7 7.4-8.7 11.1c.1-.6.2-1 .3-1.5 1.1-4.4 2.3-8.8 3.3-13.2.5-2.3.8-4.7 1.3-7s-.8-6.6-3.9-7.9l-1.1-.5c-1.6-.8-1.7-.7-2 1.1l-3.6 22.4c-.8 4.6-1.5 9.3-2.2 13.9a1.4 1.4 0 0 0 .9 1.8 36.1 36.1 0 0 1 4.2 1.6 1.7 1.7 0 0 0 2.4-.6l6.4-7.6c3.4-4.3 7.2-8.4 10-13.2.1-.3.4-.5.6-.7-2.5 8.7-2.7 17.6-4.9 26.1zm95.6-38.2l2.8 8.6 3 8.6a1.7 1.7 0 0 1-.1 1.2c-1 .9-3.7.2-4.1-1.1-2.3-6.2-4.6-12.4-6.8-18.7a5.7 5.7 0 0 0-3-3.3l-7.9-4.2a10.1 10.1 0 0 0-9.4-.7c-1.4.5-1.8 1.2-1.3 2.6s2 5.3 3.1 7.9a5.8 5.8 0 0 0 1.5 2.1 74.2 74.2 0 0 1 11.1 12.6l2.4 3.7-.2.3-2.2-.9-.2.3a14 14 0 0 0 1.7.9c4.9 1.7 10.1 1.7 15.2 1.2a50.6 50.6 0 0 0 7.5-1.7c.8-.2.6-.7.3-1.2-2-3.7-4-7.3-5.7-11.1s-3.2-5.4-6.3-6.6zm40.3-46.8l-.3.2a6.5 6.5 0 0 0 .4 1.9c1 1.6 2.1 3.1 3.2 4.7s.4.4.6.7 2.5 3 3.7 4.6c.5.9.9 1.8 1.4 2.6a27.1 27.1 0 0 1 1.6 2.7c.3 1.3 1.2 1.7 2.2 2.1l6.2 2.8.8.3 4-.7 5-.8-2.7-2.2.2-.4h1.6l1.9-.3-2.3-2.8.3-.3 1.9.5-.6-1.4 1.3-.3-2.6-3.1.2-.4a7.6 7.6 0 0 1 1.6.6c.8.4 1.4.6 2.1-.5l-1.6-.9a5.8 5.8 0 0 1 1-1.2c1.1-1.3 1-3-.5-3.8s-4.3-2-6.5-2.8l-11.2-4-5.4-1.5c-3.8-.9-7.6-1.6-11.4-2.6s-5-3.2-8.1-3.5l-3.2-.8v.5c1.5.4 3.1.8 4.7 1.4a7 7 0 0 1 2.7 1.4zM313.3 152a7.3 7.3 0 0 0 .9-.8 9.1 9.1 0 0 0 .9-1.7c.5-1 .3-1.6-.8-2.1-2.8-1.1-5.4-2.3-8.1-3.5l-10.1-4.5c-.7-.3-1.4-.5-1.8.5s-1.3 3.1-2 4.6c-4.2 9.5-8.3 18.9-12.6 28.3-.5 1.3-.1 1.7.9 2.1 6.1 2.6 12.2 5 18.2 7.7 1.3.6 1.8.2 2.3-.9l.4-1c.8-1.9.7-1.9-1.2-2.7l-10.1-4.2c-.7-.3-.9-.7-.6-1.4 1.5-3.2 2.9-6.5 4.3-9.7.3-.8.7-1 1.5-.6l9.4 4.1a1.4 1.4 0 0 0 .9.1c.6-.2 1.8-3.4 1.5-4a1.5 1.5 0 0 0-.6-.5l-8.9-3.8c-1.2-.4-1.3-.9-.8-1.9l3.6-8.4c.4-.7.7-.9 1.5-.6s4.5 2 6.7 3zm50.8 25.5a12 12 0 0 1 2-3 31.7 31.7 0 0 1 4.6-3.6c.8-.6 1.4-.5 1.6.6s1 4.5 1.4 6.8c.7 4.5 2.1 8.7 5.4 12.1a42.4 42.4 0 0 1 4.6 6.5c1.7 2.8 3.2 5.8 4.9 8.8a63.5 63.5 0 0 0 2.8-6.7 14.6 14.6 0 0 0 .6-5.1 15.8 15.8 0 0 0-1-4.9q-2.5-7-5.4-13.8c-1.4-3.3-3.1-6.4-4.7-9.6-.3-.7-.7-1.3-1.8-.9a48.6 48.6 0 0 0-15.5 10.6 7.8 7.8 0 0 0-1 1.5zm-39.4 41.9c-.5-5.9-1.1-11.9-1.6-17.8-.1-1.7-.2-3.3-2.3-3.7a8.7 8.7 0 0 1-1.7-.7c-1.7-.7-1.6-.7-2.3 1-2.7 6.2-5.3 12.4-7.9 18.6-.6 1.4-1.3 2.8-1.8 4.3a1.5 1.5 0 0 0 .2 1.3c1.3.7 2.6 1.2 4 1.8s1.3 0 1.6-.9 1-2.7 1.5-4l3.4-9.3c.4-1 .6-2 1-3.1h.4a18 18 0 0 0-.2 2.2c.5 6 1 12 1.6 18a1.2 1.2 0 0 0 .7 1.1c1.2.6 2.4 1 3.7 1.5a1.2 1.2 0 0 0 1.7-.9l5.9-14.3 3.9-8.9c.4-.9 0-1.3-.7-1.6l-3.2-1.3c-1.6-.6-1.7-.6-2.3 1.1a6.1 6.1 0 0 0-.5 1.2c-1.5 3.9-2.9 7.7-4.3 11.6a16.2 16.2 0 0 0-.8 2.8zm-87.5-50.6q0-6.6-5.1-9.3c-3.4-1.8-6.9-3.3-10.3-4.9-.9-.4-1.4 0-1.8.8-1.4 2.9-2.9 5.8-4.3 8.8l-6.9 14.4c-.5 1-.2 1.4.7 1.7s3.1 1.4 4.7 1.9a59.1 59.1 0 0 0 8.2 2.4 9.1 9.1 0 0 0 9.3-3.3 40.8 40.8 0 0 0 2.8-4.4 20.3 20.3 0 0 0 2.7-8.1zm125.5 27c3.9 10.9 8.5 21.3 15.9 30.5l.8-1c2-4.3 4.2-8.6 6.2-13a3.4 3.4 0 0 0-.3-2.2c-1.4-2.6-3.1-4.9-4.5-7.5a11.2 11.2 0 0 0-6.6-5.5 24.4 24.4 0 0 0-11.5-1.3zm-77.9 13c-.1 1.6 1.2 4 3.7 5.6a31.9 31.9 0 0 0 7 3.2c2.4.7 4.8.8 7-1.1s4.1-5.7 5.7-8.8c.4-.8-.3-1.2-1-1.5l-7.4-3c-1.6-.7-2.1-.5-2.5 1.2s-.1 1.5 1 1.8a9.1 9.1 0 0 1 2.5 1.1c.3.2.6.8.5 1a22.2 22.2 0 0 1-2.5 4.2c-1.1 1.4-2.7 1.5-4.3.9s-3.5-1.5-3.7-3.7a12.6 12.6 0 0 1 .6-3.8 47.2 47.2 0 0 1 4.5-10c1.4-2.3 2.9-3.2 5-2.8s4.5 2 4.3 4.7a1.8 1.8 0 0 0 1.1 1.3 16.7 16.7 0 0 0 3.9.6c.7.1 1.1-.2.9-.9s-.8-4-2.4-5.3c-3.4-2.8-7.2-4.7-11.8-4.6a7.5 7.5 0 0 0-4.1 1.4 20.3 20.3 0 0 0-4.4 5.7 28.1 28.1 0 0 0-3.6 12.8zm-26.4-38.9h.4c.4-.9.9-1.7 1.3-2.7s.8-.8 1.5-.5l3.6 1.6a1.8 1.8 0 0 0 1.6-.4c2.5-2.7 4.9-5.5 7.3-8.3l17.7-20.6c.6-.7.6-1.2-.4-1.6l-5.5-2.4a1.5 1.5 0 0 0-2 .6l-8.9 11.5c-2.1 2.8-4.1 5.7-6.1 8.5l-.6.8h-.2c.9-4 1.7-8 2.5-12h-.3l-11.9 24.9c-.1 0 0 .4 0 .6zm5.4 33.8h1.4c3.7-.2 7.3-2.7 6.8-7.4a10.6 10.6 0 0 0-1.2-3.4c-1.5-2.5-3.1-4.8-4.7-7.3a3.6 3.6 0 0 1-.2-4.1c.6-1.1 1.8-1.3 3-1.3a8.8 8.8 0 0 1 6.1 2.7c.7.8 1.3.7 1.7-.2s1.1-2.7-1-4l-.9-.5c-3.1-1.7-6.3-3.1-10-2.4a6.2 6.2 0 0 0-4.8 9.3c.6 1.3 1.5 2.5 2.2 3.7l2.9 4.4a3.9 3.9 0 0 1 0 4.8c-.9 1.2-2.8 1.6-4.7 1a13.6 13.6 0 0 1-5.2-3.3.9.9 0 0 0-.9-.4c-1.2.6-1.6 3.5-.5 4.3a17.5 17.5 0 0 0 10 4.1zm215.9-63.6l-.2.4 1.4.6c.4.3.8.7.8.9s-.5 1.2-1 1.3-2.8.6-3.3 2.5-.8 1.1-1.4 1.5a1.6 1.6 0 0 1-1.5-.2c-.4-.9-1-.9-1.8-.8a5 5 0 0 1-4.5-1.3 1.3 1.3 0 0 0-.9-.5l-6.6-2.3c-.5-.2-1-.8-1.6-.8s-2.5-1-2.4-2.7a1.3 1.3 0 0 0-.7-.9c-.2-.1-.6.3-1 .5l-.3.5c-.9 1.1-1.4 1.1-2.3 0l-.7-.4-2.3-.2c-.3-.1-.6.2-.9.4s.3.6.6.7l8.1 2.8 3 1.2-1 1.1a17.1 17.1 0 0 1 2.7.9c.9.5 1.5.4 1.8-.6l1.2.3c4.1 1.6 8.3 3.1 12.4 4.8a5.3 5.3 0 0 1 3.3 4.4 14.3 14.3 0 0 1-.6 2.1l-1.8-2.4-1.5 1.8-.3-.3a17.1 17.1 0 0 1 1.2-2.3c-1.3-.5-2.4-2.1-4.2-.9l-.2-.4c-.8-1.4-.8-1.3-1.9-.1s-.9 2-2.2 1-1.8-1.5-2.7-.8a10.5 10.5 0 0 0-1.5-1.5 5.6 5.6 0 0 0-1.9-.9h-1.8a6.9 6.9 0 0 1-2.5-.2c-1.4-.6-2.5-1.9-4.3-1.5-.1.1-.3 0-.4-.1s-2.6-1.2-4-1.5-.6-.3-.9-.6-.8-1-1.3-1a10.1 10.1 0 0 0-3 .1c-1.8.5-2.3.1-2.1-1.6a.4.4 0 0 0-.1-.3c-.6.5-1.2 1.3-1.8 1.4s-1.2-.9-1.5-1.5.5-1 .8-1.8l.5.7.3.5c.9-.8 1-1.1 0-1.5l-3.3-1.1a3.4 3.4 0 0 0-3.1.9c-.5 1 .1 1.7.7 2.4a4.1 4.1 0 0 0 1.3 1l6.7 2.8a1 1 0 0 0 .9-.4c.5-.8 1.1-.7 1.8-.4s3.8 1.6 5.6 2.2c4.3 1.6 8.7 3 12.9 4.6 2.3.8 4.4 2.1 6.9.8l.4.3c-.5 1-.9 2-1.4 3.2l3 1.2c1.9.6 3.8 1.7 5.8.1a1.1 1.1 0 0 1 .8.1 1.2 1.2 0 0 1 .1 1 9 9 0 0 1-.7 1.4c2.8-1.5 5.1-6.6 3.7-7.8a9.3 9.3 0 0 1-.4 1.3l-.6-.4c-.2-1.3-.9-2.5 0-3.8a5.9 5.9 0 0 0 .6-1.4c.4-2.2.1-4.5 1.4-6.5.1-.1-.1-.7-.3-.8s-2.6-.8-4-1.2zm-58.1 58.1l-.3.2 1 1.6c.2.3.4.9.3 1a2 2 0 0 1-1.1.6 5.5 5.5 0 0 1-1.8-.1c-.8-.2-1.1.2-1.3.9s-1.4 3.5-2.2 5.3a3.1 3.1 0 0 0 1.7 4.2c1.6.7 3.3 1.2 4.8 2a55.2 55.2 0 0 1 5.4 2.8l2.5 1.4.2-.3v-.7a39.5 39.5 0 0 0 4.1-2.2c1.8-1.5 3.5-3.2 5.3-4.8s1-2.2 0-2.6l-1.9.6-1 .3c-.5.1-1.1.3-1.4.1a28.6 28.6 0 0 1-4.8-3.6c-1.3-1.4-2.5-2.7-4.5-2.8l-.5-.4 1.3-.8zm-164.4-28a1.6 1.6 0 0 0-.6-.5l-1.4-.5-8.9-4.1c-.8-.3-1.3-.3-1.6.5l-2.2 4.9-8.6 18.3c-.5 1-.4 1.5.6 1.9l10.2 4.2c1.1.4 1.4-.3 1.7-1.1s.5-1.5-.6-1.9l-4.1-1.7c-.6-.3-1.3-.6-.9-1.5s2.2-4.3 3.2-6.5 1.2-1.2 2.2-.8a32.9 32.9 0 0 0 3.9 1.7 1.4 1.4 0 0 0 1.4-.4c1-1.4.6-2.1-1-2.7a25 25 0 0 1-3.8-1.5 1.2 1.2 0 0 1-.5-1.1c.9-2.2 1.9-4.5 3-6.7a1.4 1.4 0 0 1 1.3-.3l4.3 1.8c1.2.5 2.4-.4 2.4-2zM61.9 186.9h.4a25.6 25.6 0 0 0 1.6-2.5l5.4-10.6 3.1-6c.7-1.3.5-3.2-.3-3.7a42.3 42.3 0 0 0-4.7-2.5c-1.5-.6-2-.2-2.1 1.5s-.1 1-.4 1.1-2.5 1.3-4 1a1.5 1.5 0 0 0-1.2.5c-.7.9-1.1 2-2.5 2s-1 .7-1 1 .7 3.1 1.1 4.6.7 1.5 1 2.3 1 2.8 1.7 4 .1 3.1 1.7 4 .1.7.1 1.1.1 1.5.1 2.2zm215.3 23a6 6 0 0 0 .9-1.3l1.5-3.3c1.6-3.8 3.3-7.7 5-11.5s2.3-5.5 3.7-8.2c.5-1 .3-1.3-.5-1.7l-3.9-1.6c-.7-.3-1.2-.2-1.5.7-1 2.5-2.1 4.9-3.2 7.3l-6.3 14.2c-.4.9-1.2 2.1-.9 2.8s1.7 1.1 2.7 1.5zm-127.8-42a6.8 6.8 0 0 0-5.7 2.8 23.5 23.5 0 0 0-4.1 8.6 5.5 5.5 0 0 0 2.6 6.5 24.9 24.9 0 0 0 3.3 1.6 7.2 7.2 0 0 0 8.5-2.1 24.1 24.1 0 0 0 4.2-8.1c.7-2.3.7-4.6-1.3-6.3a12.3 12.3 0 0 0-7.5-3zm291 1.2c-1.9.7-2.8 0-2.6-1.8s.2-.8.1-1.2-1.1-1.4-1.5-1-1.1 3-.5 3.7a2.8 2.8 0 0 0 .9 1c1.3.9 1.4 1.3.6 2.6a11.2 11.2 0 0 0-1.1 2.5c-.5 1.6 0 3.7-1.8 4.8-.1.1-.1.4-.1.5-.7 1.7-1.3 3.4-1.9 5.2a2.5 2.5 0 0 0 0 1.9c.2.3 1.2.3 1.8.1a2.7 2.7 0 0 0 1.9-2.8 2.9 2.9 0 0 1 .3-1 17.7 17.7 0 0 0 .4-2c-.1-.9.2-1.3 1.1-1.3s1.9-.9 2.2-2.2 1.4-3 3.5-2.8 1.3-.1 1.2-1.2a7.6 7.6 0 0 1 .1-2.6c.7-1.8 1.6-3.5 2.2-5.2s.7-2.5 1.2-3.6 1.1-2.2 1.6-3.3-.1-.8-.1-1.1a2.7 2.7 0 0 0-.8.7c-.7 1-1.2 2-1.8 3s-.6-.8-.5-1.1a13.8 13.8 0 0 1 1.4-2.7c1.3-1.8 1.3-2-.8-2.5v-2.1a22.3 22.3 0 0 0-1.7 2.5 23 23 0 0 0-2.3 4c-.2.5.2 1.2.3 1.8s.2 1.2 0 1.5a5.2 5.2 0 0 1-1.7 1.6c-2.1 1.1-2.5 2.1-1.6 4.1zm-262.8 10.3l-2-1.1c-1-.5-1.6-.3-2.1.8l-5.7 11.5c-1 2.1-2.5 2.6-4.5 1.8s-2.8-2.2-1.7-4.6a2.5 2.5 0 0 0 .4-.7c1.7-3.5 3.4-7 5.2-10.5.6-1.1.4-1.7-.7-2.1l-.9-.3c-.9-.5-1.4-.3-1.8.6-2.1 4.2-4.2 8.2-6.2 12.4-.9 2-.7 3.4.8 4.6a13.7 13.7 0 0 0 8.4 3.4 4.2 4.2 0 0 0 4.1-2.3l2.3-4.4c1.5-3 2.9-6 4.4-9.1zm291.1 28.8v-.3a14.9 14.9 0 0 1-2-1.5 1.5 1.5 0 0 1-.3-1.3c0-.2.7-.3 1-.4l1.5-.4a4.4 4.4 0 0 1 1.6-.2c2.9.8 5.1 2.7 7.6 4.2l1.6.8c.1-1.5.8-2.7-.5-3.9a5.6 5.6 0 0 0-4-1.4l-9.5-.7a2.9 2.9 0 0 1-1.9-.5 16 16 0 0 1-2.5-2.7c-.8-1.5-1.8-2.6-3.5-2.5a18.9 18.9 0 0 0-4 .8c-1.9.4-3.6 1.1-4.6 2.9s-.3.6-.6.6-3.6 1.1-5.5.4l-2.2-.4v.3a4.3 4.3 0 0 0 1.3.5c2.5.2 4.9.4 7.3.4a7.3 7.3 0 0 1 4.1 1.2c2.2 1.2 4.4 2.6 7 2.8l5.7.7a21 21 0 0 1 2.4.6zm-361.5-37.3c1.5 1.7 3.1 1.8 4.5.3s1.7-1.6 3.7-.7a18.6 18.6 0 0 0 2.5 1c1.5.4 1.7 1.3 1.5 2.7s-.1 2.5 2 3 1.3 0 1.4-.9l2.4-16.8c.2-2-.1-2.5-2.1-2.8a3.6 3.6 0 0 0-1.9.8l-13.6 12.8zm95-162c-.7.6-1.3 1.4-2 1.5a38 38 0 0 1-5.8.6 30 30 0 0 1-13.8-2.8c-1.4-.6-1.9-.2-2 1.5l1-.5a20 20 0 0 0 3.5 2.2 52.1 52.1 0 0 0 14 2.9 6.5 6.5 0 0 1 5.4 2.9l-5.9.8c3.2 1.7 14.1-.3 18.6-3.3-3.6.6-7.1 2.2-10.9 1.8.5-.7 1.5-1 1.8-1.7s2.4-2 3.9-2.6.9-.7.5-1.3l-2-3.5a9.9 9.9 0 0 0 .2 1.7c-2.3.2-4.4 1.6-6.5-.2zm267.7 201.6l-1.5.3a14.5 14.5 0 0 0-3.6 0 4.9 4.9 0 0 1-4.5-1.1c-.3-.2-1 .1-1.4 0a5 5 0 0 1-1.9-.5c-.1-1.4-1.3-1.6-2.2-1.9a16.8 16.8 0 0 0-3.2-.9 26.3 26.3 0 0 0-5.6-1 9.2 9.2 0 0 1-4.8-1.6l-2.2-1.1h-.9a3.8 3.8 0 0 1-4.8-.6l-1.5-.8a4.2 4.2 0 0 0 2.3 3.2 2.5 2.5 0 0 0 1.8.6c2.1-.5 3.6.4 5 1.8a4.1 4.1 0 0 0 1.1.7l3.8 1.6c1.3.6 2.5 1.7 4.2 1.2s1 .1 1.2.8 1.5 1.6 2.4.5a2.9 2.9 0 0 1 3.4-1c1.5.4 3.1.6 4.6 1.1a4.4 4.4 0 0 0 3-.1c1.3-.6 2.6-1 3.9-.3s-.3.7-.2 1c.6 2.9 3 3.9 5.4 2.4.8-.5 1.4-.7 2.1.2s.7.4 1.1.6c-1.7-2.6-4.5-3.6-7-5.1zm-335.7-40.3l-.3-.2c0-2.1-.1-4.3 0-6.4s-.1-2.7-2.5-3.6-1.5-.2-1.4 1 .4 5.2.7 7.7a8.2 8.2 0 0 1-1 5.7 31.7 31.7 0 0 0-2.1 4.1 1.4 1.4 0 0 0 .3 1.3c2 1.5 3.1 1.1 4.1-1.1l.2-.4c1.3-2.3 2.1-4.8 4.4-6.4s4.7-3.5 7-5.3c.4-.3.6-.7 1-1-2.6-1.6-3.4-1.5-5.4.2l-1.4 1.2zm313.3 50.1c-.7-.8-1.3-1.9-2-2-2.5-.4-5.1-1.3-7.5.2-.3.1-.6.5-.9.6l-5.6 2.5a11.9 11.9 0 0 1 .9 1.5c.9 1.9 1.8 3.8 2.6 5.7a17.6 17.6 0 0 1 .7 3.3c.2 1.2 1.3 1 2 1.3s.5-.2 1.1-.5c-2.8-.5-3.1-1.3-2-3.5a5.9 5.9 0 0 0 .6-1.4l-1.9-.9c2-1.5 3.9-1.2 5.8-.5s2.2.6 2.7.2a28.9 28.9 0 0 0 3.8-4l-.3-.4-3.7 2.6c-.7.6-2.2.8-2.7.3s.3-1.5.7-2.1l.9-.5h.4a7.2 7.2 0 0 1-.1 1.3c1.8-2.8 5-2.2 7-4.1zm-81.6-52.7c.6-.2 1-.5.6-1.6-1.9-4.9-3.7-9.9-5.4-14.8-.3-.9-.7-1.4-1.7-1.3h-8.7a5.9 5.9 0 0 0 .5 1.3c.7 1.6 1.4 3.1 2 4.6a3.2 3.2 0 0 0 2.1 2 17.1 17.1 0 0 1 4.5 2.8 86.8 86.8 0 0 1 6.1 7zm-54.6 103.2a4.7 4.7 0 0 0 4.9-3.2 4 4 0 0 0-1.5-5c-2-1.2-4.3-2.1-6.4-3.2s-1.8-.3-2.1.9-.6 1.4-.8 2.1c-1.7 4-3.4 8-5 12-.5 1.1-.1 1.4 1.7 2.2s1.2-.2 1.4-.9 1.5-3.4 2.1-5.1.8-1.3 1.9-.9a23.6 23.6 0 0 0 3.8 1.1zm155-103.3c-.3.7-1 1.3-1 1.8s-.6 2.8-1.1 4.1a10.2 10.2 0 0 0-.4 1.5l2.2-2 .4.4-.8 1.2a6 6 0 0 0-.9 1.3 3.4 3.4 0 0 0 .1 1.4 10.9 10.9 0 0 0 1.1-1c.3-.3.5-1 .8-1.1s1.1-.6 1-1.6a5 5 0 0 1 .6-2.4c.1-.2 1.2.1 1.8.3l.6.2c-.2.9-.3 1.7-.5 2.5h.4c1.4-2.3 3.5-4.5 2.3-7.9l.9.4a19.6 19.6 0 0 1 1.8-2.1c.1-.1.9.4 1.4.6s.6-.8-1.4-2.2c-.1-.6-.3-1.5-.7-1.5s-1.1.4-1.7.7-.1-1.4-.4-1.7-3-.1-4.4-.6h-.2c-.2 1-.9 1.3-1.8 1.4a1 1 0 0 0-.4.8c-.2 1.5-.4 3-.6 4.7zM417.2 20.6c-.9.3-1.9.4-1.8 1.5a4 4 0 0 1-1.5 2.9 12.7 12.7 0 0 0-3.8 6.1c2.7.9.2 2.6.6 4l1-.6c.3 2.4.4 4.6-1.6 6.8l3.1-2c.6.3 1.2.8 1.4.7a3.7 3.7 0 0 0 .7-1.4c.2-.8 0-1.8.5-2.4 1.4-2.1 1.9-4.5 2.5-6.9s-.4-5.7-1.1-8.7zm-310.8 149l-1.3-1.2-3.3-1.3c-2.5-1.1-2.1-.9-1.1-3.3v-.2l6.3-11.8c.5-.9.7-1.6-.5-2.1s-2.4-1-3.1.4l-4.4 8.5c-1.1 2.2-2.3 4.4-3.5 6.6-.1.3 0 1.2.3 1.4 2.9 1.3 5.9 2.5 9 3.7.3.1.8-.4 1.6-.7zm263.5-5.6c4.3-2.2 5.5-6 3.7-9.9a7.1 7.1 0 0 0-8.7-3.9zM354.3 39.6h.4l.8-1.3a5.1 5.1 0 0 0 .7-1.5c.4-1.1.5-2.4.9-3.5s1.5-5.1 2.8-7.4c3.2-5.2 6.9-10.1 11.9-13.9 2-1.5 3.9-3.3 6.8-2.9.2.1.5-.3.8-.4s-.6-.6-.8-.6-3.3.5-4.7 1.3c-3.6 2-7.2 4.3-10.8 6.4A33.1 33.1 0 0 0 352.3 27a2.2 2.2 0 0 1 .1.6c2.5-2.9 4.6-6.1 8.3-7.3.1-1.1 1.4-2.2 3.4-2.5l-7.3 9.3 1.4-.3c-1.4 4.5-2.6 8.6-3.9 12.8zm24 193.6l.3-.2-4.2-5.2c-1.3-1.9-2.7-3.8-3.9-5.8s-2.3-4-3.4-6.1-2.2-4.1-3.2-6.2-1.9-4.2-2.8-6.3-1.6-4.2-2.4-6.4c-.5 8.3 10.9 31.7 19.6 36.2zm80.5-43.6h.5l.9-2.4c-1.6-.5-1.6-.5-1.4-1.3l-2.1-1.1-1-.2-1.7-.2c-.3 0-.7-.1-.8.1s-.2.5-.2.8a2 2 0 0 0 .3.8 6.6 6.6 0 0 0-2.1.8c-1.4.7-2.6 1.6-4 2.3a9.1 9.1 0 0 1-2.5.7l-2.1.7c-.1.8-.8 1.3-2 1.2a1.1 1.1 0 0 0-.6.3c-.9 1.6-2.7 1.5-4.2 1.9s-1.8 1-2.6 2.4l2.4-.2c.4 0 .9-.4 1.3-.3 3 .4 5.3-1.6 8.1-2.1.1 0 .2-.2.3-.3s2.1-3.5 4.5-3.4h.1c.9-.8 1.8-1.7 2.7-2.4a4.4 4.4 0 0 1 1.5-1 6.1 6.1 0 0 1 4.9 1.1c-.1.6-.1 1.2-.2 1.8zm-100.3-15l5.5-5.3a.9.9 0 0 0 .1-1 14.5 14.5 0 0 0-2.4-3.5c-1.7-1.6-3.7-2.9-5.5-4.3a2.9 2.9 0 0 0-1-.3q1.7 7.4 3.3 14.4zm72.5 57.8h.3l1.8-1.9a1.7 1.7 0 0 0 0-2.5 7.6 7.6 0 0 1-.8-2.1 13 13 0 0 0-1.4-2.6c-.1-.2-.7-.2-1-.1l-3.3 2.3c-1.3 1-3 1.6-3 3.6 0 .2-.4.5-.7.8l-1.5 1.9c2.4-.1 5 .5 7.9-.5l-2.6-.7c.9-1 .9-1 4.8.5zM396.8 208h-.3c-.6 2.3-1.2 4.6-1.7 7a3.7 3.7 0 0 0 .3 2.1c2 3.8 4.1 7.6 6.2 11.3.2.3.8.3 1.1.5a3 3 0 0 0 .2-1.3c-.4-1.2-1.1-2.4-1.5-3.7l-3-11.1c-.4-1.6-.9-3.2-1.3-4.8zm43.7 42.7l.6.5a14.9 14.9 0 0 1 2.9 2c2.1 2.1 3.1 2.2 5.8 1.1a7.4 7.4 0 0 0 4.1-4.4 11.4 11.4 0 0 1-2.5.2c-1.7-.3-3.3-.9-4.9-1.3l-2.3-.5a2.4 2.4 0 0 0-1.2.3zm-230.7-42.9a5.4 5.4 0 0 0-1.3-.7 1.3 1.3 0 0 0-1 .3 8.9 8.9 0 0 0 .3 2.8c.1.3 1.1.3 1.7.4h.5c1.2.7 1.7.1 2.1-1a10.4 10.4 0 0 1 .7-1.2l1.2 2.4c.2.4.2 1 .5 1.2a10.3 10.3 0 0 1 4.2 4.3c.2.3.7.4 1 .7l1.3 1.4.9 1.2c-.4-2.5-1.9-3.9-3.2-5.4s-.9-.8-1.3-1.3c-3.2-4.7-6.6-9.2-8.8-14.5a20.9 20.9 0 0 0-1.6-2.9l-.4.2c0 .3-.2.5-.2.8a14.5 14.5 0 0 0 2.8 6.2c1.9 2.7 2.8 3 .6 5.1zm281.6 18.8l-5.4-5.4a23.3 23.3 0 0 0-3.7-2.7c-.4-.3-1-.5-1.3-.3s-1 3.5.1 4.3l5.7 4.2c.2.2.4.3.6.2zm-275.8-33.5c-.5.9-.8 1.8-1.3 2a4.7 4.7 0 0 1-2.6-.3c-.4-.1-.5-.9-.7-1.3s-.8-1.2-1.7-.6a1.6 1.6 0 0 0-.4 2.5 3.6 3.6 0 0 0 2.3 1.5 2.5 2.5 0 0 1 1.7.6c.3.3.8.4 1.2.7s.8.5.9.8.7 1.2 1.6 1.3.9-.7 1.2-1.3a2.4 2.4 0 0 1 1.3-.9c.2 0 .6.6.9 1a11.7 11.7 0 0 1 .5 1.1c1-.9.8-1.7-.3-2.6l-1.8-1.9zm-16.3-1.7c.7 0 1.5-1 1.9.4s1.3 2.4 3.5 1.9l1 1.3a4 4 0 0 0 .1-3.2 8.3 8.3 0 0 1-.8-2.2 2.9 2.9 0 0 0-2.3-3c-1.5-.5-2.9-1.2-4.5-1.9.1.5.1.6.2.7s1.3 1.7 0 2.5a1.8 1.8 0 0 0-.1 1.3zm128.1-85.9a18.5 18.5 0 0 0-.1-2.3c-.1-.8-.4-1.6-.5-2.4s-1-2.5.1-3.7a.4.4 0 0 0-.1-.3l-1.9-3.8a18.6 18.6 0 0 0-.5 2.8c-.2 4.8 1.1 9.3 2.4 13.8.1.3.6.5.9.8a9.1 9.1 0 0 0 .7-1.4c.1-.2 0-.4-.1-.7 1.6.8 3.1-.5 3.5-2.8zm71.7 130.8h-10.4c-.2 0-.5.4-.6.6a1.8 1.8 0 0 0 .4.9 15.1 15.1 0 0 1 1 1.7c.4 1 2.9 2.4 3.8 2 2.5-1.2 4.1-3.3 5.8-5.2zm-236.8 4h.6c0-.5.3-1.1.1-1.4-1.2-2.1-.9-4.5-1-6.7s-1.6-6.5-1.3-9.9a2.1 2.1 0 0 0-.3-.7c-.1-1.2-.8-2.4.6-3.3s-.1-.8-.3-1.1a25.8 25.8 0 0 1-1.4-3.9c-.2-.9.4-1.2 1.3-.8s2.4 1.5 3.7 2.1.8.1 1.3.1-.3-.9-.6-1.1l-5-3.3 3-2.8h-.6l-3.7 2.1a1.4 1.4 0 0 0-.3 1.1l1.2 9.2c.8 6.2 1.5 12.4 2.3 18.5a11.8 11.8 0 0 0 .4 1.9zm333.1 10.8c-.6-1.4-.9-2.6-1.4-3.6s-1.3-2.1-2.1-3.4c-.6 1.9-1 3.4.3 4.7a4 4 0 0 1 1 1.2 3.3 3.3 0 0 0 2.8 1.7l1.2.6 2.1.8a9.8 9.8 0 0 0 .6-2.3 12.3 12.3 0 0 0-.3-3.3 3.6 3.6 0 0 0-.3-1.8 3.6 3.6 0 0 0-1.1-1l-.5.3.6 1.2v.5c-1.8-.5-1.7.9-2 2.1s-.5 1.3-.9 2.3zm-33.6-10.6l5.7 1.9a4.9 4.9 0 0 0 2.4.5 8.2 8.2 0 0 0 2.6-1l2.6-1.6v-.6l-4.4-.8c-.8-.2-1.7.1-2.3-.3s-2.3-.3-3.4.2zm-21-26l1.5-.2a10.4 10.4 0 0 1-.5 1.2l1.5.3 4.4.5 2.8.8 7.6 1.8c.3.1.5.3.7.2a1 1 0 0 0 .7-.4 1.2 1.2 0 0 0-.6-.6c-.3-.2-.9 0-1.2-.2s-3.6-1.3-5.4-1.4-2.4-.3-3.3-1.5c-2.2-2.8-4.8-4.2-7.8-2.3-.8.5-1.1 1-.4 1.8zm-265.9-8.2c-1.6.4-2.7.2-3.6-1s-1.2-1.6-.5-3.6l-1.2.7c-1.4 1-2.7 2.1-4.1 2.9s-2.2 2.9-2.1 4.8 1.7 2.6 3.2 2.8a3.9 3.9 0 0 0 3.2-2 4.1 4.1 0 0 0 0-1.1l-1.7 1.3a2.4 2.4 0 0 1-3.3-.9 2 2 0 0 1 .4-2.7 2.4 2.4 0 0 1 3.4.4l1 1.2.5-.2a3.8 3.8 0 0 0-.4-1.6c-.9-1.4-2.4-1.6-4-1.2 1.6-2.3 3.6-2.1 5.1.4s2.7 1.7 4.1-.2zM388 35.4l.3.2.9-1.7a1.6 1.6 0 0 1 1.8-1.2c1.8-.1 3.7-.5 5.5-.7a14.1 14.1 0 0 1 2 .1l1.3-.3.2-.5c-2.5.1-2.2-1.7-2.2-3.1h-1.3v-1.3h-.4c-.4 1.1-.9 2.1-1.2 3.2s-.9 1.2-2 .9l2-2.9-.2-.3-3.7 1.4 1.4.8-1.5 1.2a9.1 9.1 0 0 0-.6-1.6l-3.3 2.6h2.3zm31.6 187.1l.4.2 4.3-4.5c.1-.2.1-.8-.1-.9l-4.2-2.6-2.9-1.9c.1.5 0 .8.1 1s1.4 2.8 2 4.2 1.2 2 .3 3.2.1.9.1 1.3zm40.7-3.4l-.2.3 1.6 1a33.6 33.6 0 0 1 3.3 1.6c1 .6 2.1.6 3 1.4s2.6 1.4 4.4 2.2c-.6-1.7.3-2 1.5-2.2-2.7 0-4.8-1.5-6.9-2.6s-2.1-1.7-3.5-1.7zm-99.9-32.3c3.6-1.2 4.5-3.5 2.5-6.4l-.3-.5c-.8-.9-1.6-.8-1.9.3a12.3 12.3 0 0 0-.3 6.6zm-84.5 38.4c.1-1.4-2.1-3.4-3.2-3.2s-.6.4-.9.6l-1.5 1.5c-.4.4-1 .9-.2 1.3a3.2 3.2 0 0 0 2.3.4c1.1-.2 1.7-.2 1.7 1s.5.6.7.8.7-.4.8-.7.2-1.3.3-1.7zM207.4 67.5h-.3c-.2 1.7-.6 3.5-.7 5.2a2.2 2.2 0 0 0 .7 1.9c1.3 1 2.8 1.8 4.2 2.7a1.7 1.7 0 0 0 1.2.4c.5-.2 1-.7 1.6-1s-.5-.9-.9-1.1a43.4 43.4 0 0 0-5.3-2.6 1.4 1.4 0 0 1-1-1.9c.2-1.2.3-2.4.5-3.6zm194.3-46l.4-.3a1.4 1.4 0 0 0-.5-.8l-3.4-2.8a2.8 2.8 0 0 0-4.2.7c-.5.7-.7 1.2.5 1.3a1.6 1.6 0 0 1 .8.8c.1.5-.1 1.1.1 1.6s.4.7.6 1a7.6 7.6 0 0 0 .8-1.1c.1-.2-.2-.5-.2-.8a18.9 18.9 0 0 1 .5-2.3 8.5 8.5 0 0 1 1.7.6zm-41.7 9c-.4.9-.7 1.7-1.1 2.5a14.8 14.8 0 0 0-1 2.7 19.5 19.5 0 0 0 .5 3.8 10.1 10.1 0 0 1 1.6-1l2.2-1c.3-.1.5-.6.7-.9a5.3 5.3 0 0 0-1.2-.3 12.1 12.1 0 0 1-1.8.5c-.3 0-.7-.4-.9-.7a4.8 4.8 0 0 1 0-1.2h.2l.5.8c2-1.9 2-3.3.3-5.2zm76.2 224.8l-6.2 4.8h7.5c-.4-1.5-.8-3.2-1.3-4.8zm19.7-93.6l-2.3 2.4c-.2.2-.2.6-.3.9a5.6 5.6 0 0 1-.4 1.2 12.2 12.2 0 0 0-2 4.7 2.5 2.5 0 0 0 .2 1.2l.8-.8a27.5 27.5 0 0 0 2.2-2.6c.3-.3.6-.5.7-.9a48.8 48.8 0 0 0 1.2-5.5c.1-.2-.1-.5-.1-.6zm-65 69.1l5.4-.6c-1.2-2.1-2.2-4-3.5-6.2-.7 2.4-1.2 4.4-1.9 6.8zM213.8 53.4v.3l1.9 1.2 4.7 2.9c2.1 1.3 2.6 1.1 3.2-1l-3-1.8a1.8 1.8 0 0 1-1.1.2c-1.3-.4-2.5-1.1-3.8-1.6a12.3 12.3 0 0 0-1.9-.2zm130.8 25.8l-.2-.3a25.8 25.8 0 0 0-8.1 4.5 1 1 0 0 0 .9-.1l1.4-.8a4.2 4.2 0 0 1 1 1.7c.3 2.3.6 2.5 3 2a31.4 31.4 0 0 0-1.8-3.1c-.8-1.2-.8-1.3.5-2zm49.2-42.1c.5-1 1-2.3 1.6-3.5a31.8 31.8 0 0 0-4.8 2.8 2.4 2.4 0 0 1-.9.3c-1.3.1-1.8.6-1.7 2.2.3-.1.5-.3.7-.2 1.7.6 2.8-.3 3.7-1.5s.7-.1 1.4-.1zM156.4 201.3c.3 2.1.6 4.3 1 6.3.1.4.8.7 1.1 1s.7-.8.7-1.2a38.8 38.8 0 0 0-.4-4.8c-.2-1.4-.8-1.7-2.4-1.3zm15.8 50.7h-.5a2.7 2.7 0 0 1 0 .9c-1 2-.1 3.8.6 5.6s.9 2.2 1.4 3.4l.6-2.3.8 1a10.9 10.9 0 0 0-2.1 7 2.8 2.8 0 0 0 .8-1.5c0-2.1.2-4 2.4-4.9a3.7 3.7 0 0 0-2.7-2.6 1.6 1.6 0 0 1-.9-.9c-.2-1.4-.3-2.9-.4-4.3a6.5 6.5 0 0 1 0-1.4zM410.8 36.9h-.4l-.8 1.1a3.8 3.8 0 0 0-1 1.2 10.9 10.9 0 0 1-.5 1.7c-.8 1.3-1.8 2.5-2.7 3.8s-1.4 1.3-2.5.4l-2.2 2.6.2.3c1.7-1.1 3.9-1.4 5.2-3.2s3.6-4.2 4.7-6.8a3.4 3.4 0 0 0 0-1.1zM265.4 263.8c-.1-1.5-1.2-1.7-2-1.9s-1.3.1-1.5.9-.7.5-.9.9a10.4 10.4 0 0 0-.6 1.6 2.8 2.8 0 0 0 1.5.4 4.7 4.7 0 0 0 2-.6 8.7 8.7 0 0 0 1.5-1.3zm204.4-88.5l-.5-.2-2 2.8a6.8 6.8 0 0 0-.2 1.4l1.3-.2 1.9.6-1.1 3.4.4.2a8.6 8.6 0 0 1 1.3-1.4 2 2 0 0 0 .2-3.1 8.3 8.3 0 0 0-1.6-.9l.3-.4-.5 1.1-.6-.5c.3-.9.7-1.8 1.1-2.8zM382.3 152l-.5.3c.9 1.3 1.7 2.6 2.7 3.8 3.6 4.5 7.3 8.9 11 13.4l1 1.3v-.6c-4.7-6.1-9.4-12.2-14.2-18.2zm-170.5 47.6c.5 1.8.8 3.2 1.2 4.5a1.7 1.7 0 0 0 .7.9c.6-.2 1.5-.5 1.7-1s1.2-1.6 0-2.4zm253.7 62l3.1-.9c1-.2 1.1-.7.6-1.4a7.9 7.9 0 0 0-4.3-3.1c.4.8 1.1 1.4 1.4 2.1s-.5 1.5-1.4 1.9zm-7.8-35.9c-.8 0-1.6-.6-2.3.6s-1.4 1-2.1 1.4-.9.3-.9.5a3.4 3.4 0 0 0 .6 3.4zm-294.6 17h-.4a83.5 83.5 0 0 0 1.8 12.2c.5-.4.9-.8.9-1.2-.7-3.6-1.5-7.3-2.3-11zm294.7-83.6l1.5.8c1 .5 1.4.2 1.4-.9a1.9 1.9 0 0 1 1.6-2.3 24.7 24.7 0 0 0-3.9-1.6c-.2-.1-.5.2-.8.3l.8.6c.4.3 1 .4 1.1.7a2 2 0 0 1-.3 1.5c-.2.4-.8.6-1.4.9zm-255 55.7a17.9 17.9 0 0 1 .9-1.9c.5-1.2.2-1.7-1-2.1a8.8 8.8 0 0 1-1.7-1.2l-1-.9-.4.4c.3.9.4 2.3 1.1 2.7a3.6 3.6 0 0 1 2.1 3zm69 45c-.9-.1-1.5-.2-1.6.8s.8 2.9 2 2.8 1-1.6 1.1-2.5-1-.9-1.5-1.1zm72.8-205.4l.6.3a6.8 6.8 0 0 0 1.2-1.2 34.2 34.2 0 0 0 2.1-4.3c.2-.4 0-1 0-1.6-2.3 1.9-2.8 4.5-3.9 6.8zM209.2 33.5c-.3.2-.6.3-.6.5a18.4 18.4 0 0 0-.3 3.3c.4 3.3 0 6.2-2.7 8.5-.2.2-.3.6-.5.8l.3.3 2.5-3a6.4 6.4 0 0 0 1.3-5 48.6 48.6 0 0 1 0-5.4zm-14.1 207.3c-.5 1.5-.9 2.7-1.4 3.9a5 5 0 0 0 2.6 6.9 4.4 4.4 0 0 0-.8-1.1c-.7-1-2.1-1.6-1.8-3.1s.9-3.2 1.4-4.8.9-1.4 2-.7h.7v-.5zm-4.3-5.9l-.2-.2-1.2 1.7c-3.4.7-6.9.7-9.7 2.9l1.9-.5a27.8 27.8 0 0 1 7.5-1.5 1.3 1.3 0 0 0 .9-.6 14.2 14.2 0 0 0 .8-1.8zm-3.3 20c-.3-.7-.6-1.3-.8-1.9s-.8-.9-1.6-.7l-1.5.3a8 8 0 0 0-5.2 2.7c1.3-.3 2.8.5 4.1-.6l-1.8.2v-.4a7.9 7.9 0 0 1 2.8-1.3c1.3-.2 3.1-.7 3.6 1.4zm260.8-76.5a28.2 28.2 0 0 0 2.6-3.2c.3-.5-.2-1.4-.3-2.1s-1.2.1-1.3.4a23 23 0 0 0-1.2 3.4 4.7 4.7 0 0 0 .2 1.5zM237.8 64.9l-1 1.6 3.4 1.5c.3.1 1.1-.2 1.1-.4a1.5 1.5 0 0 0-.4-1.3 27.3 27.3 0 0 0-3.1-1.4zm185.9 169.2l-.2.2.7 1-2.1-1c.4 1.2.6 1.9.9 2.7s.4.2.6.1l3.8-1.2zM334.9 76.2l-.2-.4c-.9.9-2.5.6-2.9 2.2l-.5.5-5 3.2c-.3.2-.3.6-.5.9s.8.2 1 0zM176.3 257.9a13.2 13.2 0 0 1 7.6-.3c.2.1.6-.2 1-.3l-.2-.5a27.3 27.3 0 0 0-9.8.8c1.6 0 1.7 2.2 3.4 2.2zm5.4 7.5l.9.8-.6.3a2.4 2.4 0 0 1-1.7-2 18.3 18.3 0 0 0-.6-2.5l-.4.2c-.4 1.6.4 3.1 1 4.6s.9.8 1.4.8.9-.4 1-.8a12.1 12.1 0 0 0-.1-1.9h-.4zM207 22.9c3.7-.3 6.8 1.2 10 2.7a10.3 10.3 0 0 0-10-2.7zm133.7 9.9a15.8 15.8 0 0 0-.8-2.8c-.2-.3-1-.3-1.5-.3a1.1 1.1 0 0 0-.2.8 9.7 9.7 0 0 0 .8 2.2 2.2 2.2 0 0 0 1 .9c.2 0 .5-.6.7-.8zM271.1 265c-.1-.2-.2-.5-.3-.5a8.9 8.9 0 0 0-2.3.1c-.4.2-.7.9-.9 1.4a1.2 1.2 0 0 0 .5.7c.7.4 3-.9 3-1.7zm157-138.4l.5-.9c.2-.4.3-1.1.6-1.2s1.2-1.4 1.5-2.3-.2-.5-.4-.7-.5.1-.6.3-1.6 2.4-2.3 3.6a1.1 1.1 0 0 0-.1.8c0 .2.4.2.8.4zM204.2 48.4l3.3 2.1a6.6 6.6 0 0 0 1.4-.1c-.1-.4-.1-1-.4-1.3s-2.8-.9-4.3-.7zm-159.1 87c-1.2-1.1-2.3-.6-3.3-.4s-.8.7-1.1 1 1.1 1 1.5.8a18.8 18.8 0 0 0 2.9-1.4zm152.1 115.5l6.8-5-.3-.3-6.3 4.4-.9-1.1 2.2-1a1.7 1.7 0 0 0-2.2.9c-.2.7.5 1.5.7 2.1zm214.2-33.6l-.3.2a20.8 20.8 0 0 0 .1 3.5 1.3 1.3 0 0 0 1 1c.4.2.9-.1 1.4-.2l-.8-1.3-.6-1.1zM220.7 44.7c-1.8.2-3.9 1.8-5.1 3.8s-.8 1.4-1.2 2.2a3 3 0 0 0-.4 1l.5.3.7-.9c1-2.7 2.5-5.1 5.4-6.2.1 0 .1-.1.1-.2zm139.8-4.3l-.2.5c.6 1.8 1.6 2.3 4.3 2 .1-.4.1-.8.2-1.5-1.1 1.2-1.7.5-2.4 0zM176.8 240.2c-.8 1.2-1.6 2.1-2.2 3s2.8-1.7 4-3.6c-2.6 1.3-1-1.6-2.1-2l-1.7 1.9.2.2 1.2-.6zm-.6 33.3v.7c1.9.2 3.8.5 5.8.6a1.6 1.6 0 0 0 1.5-.4c.2-.3 0-1-.1-1.3s-1.1 1.1-1.7 1.2-1.5-.4-2.3-.5zm309.2-14.6h-.2a11.3 11.3 0 0 0-1.2 1.8c-.4 1.2-.8 2.5-1.1 3.8s.6.4.9.6.3-.5.4-.8a23.6 23.6 0 0 1 .4-2.8 25.8 25.8 0 0 1 .8-2.6zm-297.8 19.3a3.8 3.8 0 0 0-4.5-.5c-1.5.7-2 .5-2.5-.9l-1 .4c1 1.5 2.6 2 3.9 1.2a3.1 3.1 0 0 1 3.3-.3zm36.6-235c2-.8 2.3-1.3 1.6-3.3a10.4 10.4 0 0 0-1.1-2.4c-.5-.8-1.2-1.4-1.8-2.2A51.1 51.1 0 0 0 225 40a2.3 2.3 0 0 1-.8 3.2zm264.9 202.6c-.5-.2-1.1-.6-1.3-.5s-1.2 1.3-1.9 2c1.1.6 3.7-.2 4.1-1.2a.4.4 0 0 0 0-.5l-.3-.4zM202 266.5l-.2-.3-1.2.4c-1 .8-.9 1.4.2 2l3.2 1.7a1.1 1.1 0 0 0 1.6-.2l-4.9-2.1-.2-.6zm240-68l-.6.5-.6.8s.2.3.3.3a2.1 2.1 0 0 0 1-.4c1.3-1.3 1.2-2.3-.4-3.5l-1.2 1zm31.7 70.7l-.2-.3c-.4.1-1 0-1.1.3a13.3 13.3 0 0 0-.9 2.1 3.1 3.1 0 0 0 3-2.1 6.5 6.5 0 0 0 0-1.4c0-.1-.4-.1-.5-.1s-.1.8-.2 1.2-.1.2-.1.3zM401 17.8c.9 1.7 3.4 3.8 4.4 3.8s-2.8-3.6-4.4-3.8zm-9.9-8.3v-.6l-6.1-.5v.5c2 .2 3.9 1.3 6.1.6zM198 271.8h.4c.2-.5.5-1 .4-1.4s-.8-.5-1.2-.6h-3.8l-1 .2c1.3.8 1.3.8 3.8.6.9-.2 1.6-.1 1.4 1.2zm282.3-8.9c-.4 1.6-.8 3-1.1 4.4.6-.4.9-1 1.4-1.3s1.5-1.7-.3-3.1zm15.9-28.1v-.3l-4.1-2.6c-.1-.1-.5.1-.8.1a2.5 2.5 0 0 0 .4.9 9.6 9.6 0 0 0 2.1 1.4 18.9 18.9 0 0 0 2.4.5zM340.5 88.4a36.5 36.5 0 0 0 3.2 2.6c.3.3.9.1 1.7.1l-1.5-2.2v.3zm-52.6 18.7c-.7 1.7-1.3 3.4-1.9 4.9 2-.7 2.9-2.6 1.9-4.9zM178.8 276a17.6 17.6 0 0 1-9.3-3.4c.9 2 6 3.9 9.3 3.4zm165.5-131.5l-5.8-5.1c2.7 4.3 4.1 5.5 5.8 5.1zm-63.1-92.3h.4a21.7 21.7 0 0 0-.4-2.5 3.1 3.1 0 0 0-.9-1.2s-.6.3-.6.4a4.1 4.1 0 0 0 .2 1.6 12.6 12.6 0 0 0 1.3 1.7zm11.3 211.5l-.2.2 2.6 3.5a7 7 0 0 0 .5-1.8 1 1 0 0 0-.5-.8zm-46-179.9c0-.4.1-.6 0-.6a33.7 33.7 0 0 0-3.2-1.9c-.1-.1-.6.2-.7.4s.1.7.2.7zm194.8 74.7a.5.5 0 0 0-.3-.4c-.1 0-.5.1-.5.2a30.1 30.1 0 0 0-1.1 3.2l.7.7s.4-.2.4-.4.5-2.1.8-3.3zM190 269.8v-.3c-1.4-.6-5.9-.4-6.7.5l3.5-.3zm12.9-24.9h.3c.1-.2.3-.7.2-.8l-3.1-1.7c-.2 1.6-.3 2.9-.5 4.1h.4c.4-1-.4-2.4.6-2.9l1.9.7zm82.5-188.7h.3a6.1 6.1 0 0 0 .7-1.7c.3-1.4.5-2.8.8-4.3h.4l-.8-1.3c-.4 2.5-.9 4.9-1.4 7.3zm42.4 10.9l-.6-.5c-.9.1-1.6 0-1.9-1.1l-1.1-.2a4 4 0 0 0 0 1.1c.6 1.2 1.7 1.4 3.6.7zM191.9 250.7v-.5c-.4 0-.7-.2-1-.1s-2.6.2-3.6-.9-.7-.3-1.2-.5c.5 1.5 1.1 2.2 2.6 2a16 16 0 0 1 3.2 0zm63.3-119.9a2.3 2.3 0 0 0 .1 3.1 5.6 5.6 0 0 0 1.8 1.4c-.7-1.8-1.3-3.2-1.9-4.5zm97.2-97l.3.2 2.8-4.5c-1.4.2-3.1 2.9-3.1 4.3zm-3.3 12.5c1.4-1.7 1.4-4.1 0-5.3zM173.5 246.9c1.4.4 2.5 1.6 4 1.2l.2-.5-2.3-1v.4l-.3-1.2zm217.4-14.7l-8.4-1.7c2.5 1.6 5.4 1.6 8.4 1.7zm-206.5 15.2l2.2-2.7.5.7h.3v-2.1l-2.9 2.9c-.6.5-.6.9-.1 1.2zM338 74l.2.3 4.5-2.5-1.4-.6zm-136.3-2.4l-.6.3c.3.7.4 1.5.9 1.8s1.3.1 2 .1v-.5zm285.9 201.6c2-.6 3.7-3 3.4-4.2zM184 258.6c-1.5 1.1-1.6 1.8-.9 4h.4zm302.9 20.1h.5a13.3 13.3 0 0 0 1.4-1.9c.2-.2-.1-.7-.2-1s-.9.1-1 .4a16.8 16.8 0 0 0-.7 2.5zm-299.5-3.3l.3-.3-2.4-2.6.6-1-.2-.2-1.6 1.1zm272.5-49.5v.3a5.7 5.7 0 0 0 5.1.2zM218.1 204c-.4.9-.8 1.3-.8 1.8s.6.8.8.7a1.8 1.8 0 0 0 1-.9c0-.4-.5-.8-1-1.6zm250.1 14.5l3.7 1.3c-1-1.5-2.5-2-3.7-1.3zm-37-24.1l-2.8.6-.8.5c.3.2.5.5.8.5l2.3-.7c.3-.1.3-.6.5-.9zm-176.4-56a2.8 2.8 0 0 0 .5-3.2c-.1-.2-.4-.3-.6-.4s-.5.3-.4.4.3 1.9.5 3.2zm-79.2 106.8a7.6 7.6 0 0 0 3.8-3.5zm37.9-24.8h.7v-2.2c-.1-.2-.4-.5-.6-.5a.9.9 0 0 0-.6.6 17.4 17.4 0 0 0 .5 2.1zm264.4-56.3l1.6-1.6-.7-.8a10.7 10.7 0 0 0-1.4 1.6c-.1 0 .2.4.5.8zm-312.8 93.8h-.4l.7 5.1h.6zM296.4 50.7v.7a6.1 6.1 0 0 0 1.9.1c.4 0 .7-.4 1-.7l-.2-.5zm129.9 206.1c1.2.3 2.4 1.6 3.6-.3zM415.6 140q.8-1.5 1.5-3.3c-1.8 1-2.2 1.8-1.5 3.3zm73.7 93.7a11 11 0 0 0-2.4-.2c-.2 0-.4.2-.7.4s.3.5.6.7 1.5 0 2.5-.9zm-47.5 12.9v.4h3.8v-.6zm45.3-101.9l.5.3 1.3-1.5-1.6-.8zM408.3 35.2l-.6-.2-1.2 4.3.5.2zM197 253.1c-1 1.6-.6 2.5 1 3.2-.4-1.1-.7-2.1-1-3.2zm19.6-235.5c-2.2-.4-2.6-.1-2.3 1.5zm119.7 68.5l-.2.7 3.5 1.2.2-.6zm135 135.5l3.1 1.1a2.2 2.2 0 0 0-3.1-1.1zM395.9 50.8v-.6l-4.6 1.1v.5zm-217 181.4l-2.3 3c2.7-1.4 3-1.5 2.3-3zm24.5-26.2a2.8 2.8 0 0 0 .2-2.8c-1 1.1-1.1 2-.2 2.8zm281.4 45.5c.3 1.4.5 2.7.8 4 .4-3.8.4-3.8-.8-4zm-278.4-50l-1.1-1.1c-.3.3-.7.6-.7.9s.4.7.7 1zM353.7 75.1l-.5.3 2.3 3.7.4-.3zm90.6 76.3v.4l1.4-.4c.2-.1.3-.7.2-.7l-1.6-1-.2.4.7.8zm-183.9-23l1.2-3.1c-1.5.7-1.9 2-1.2 3.1zM365.2 45v-.5l-4.7.4v.5zm79.5 211l.2-.4-2.7-1.1-.2.4c.5 1.3 1.8.8 2.7 1.1zm-19.3-11.5c.7-.6 1.2-1.2 1.7-1.7a1.3 1.3 0 0 0 .2-.9s-.4-.2-.6-.1a1.5 1.5 0 0 0-.6.5c-.3.7-.4 1.3-.7 2.2zm68.6-14.8l-.4.3a1.8 1.8 0 0 0 2 1.8zm-22.5 34.2c1.3-.8 1.3-2.2.1-3.2zM444.9 183l.4.3a2.6 2.6 0 0 0 1-.7 2.8 2.8 0 0 0 .4-1.3 3.9 3.9 0 0 0-1.1.6 10.5 10.5 0 0 0-.7 1.1zM35 106.5v.4h2.1c.2-.1.3-.5.3-.8s-.3-.3-.5-.3zm-3.1.6l-1.3-1-.5.7a3.5 3.5 0 0 0 1 1.1zm180.3 142.8h-.6l1.2 4.5h.3zm214.8-66l-1 .9c.3.2.7.6 1 .6s.6-.3.9-.5zM349.9 59v.5l4.1.8v-.5zm49.7-25.2c-.3.8-.5 1.7-.8 2.6 1.5-.3 1.6-.7.8-2.6zM202.7 255.4c-1.7.9-2.8 2.5-2.2 3.2zm8.1 17.5v-.4l-3.3-.2c1.1 1.5 2.2 1 3.3.6zm247-29.1l.2.4 3.6-1.5-.2-.5zM342.3 70c1 1.6 1.7 1.7 3 .5zM180.1 249.3l-.8.5v.3l2-.4v-.5l-1.8-.6-.2.3zm104.6-135.6l1.5 1.5.5-.5-1.7-1.2zm71-53.5v.5l4.5.9v-.3zm41.9-24.7l.5-.2-1.5-2.2c-.7 1.6.5 1.8 1 2.4zm68.9 145.9l-.5-.2-1 1.4a1.1 1.1 0 0 0 .2.5h.6c.2-.5.5-1.1.7-1.7zm-261 79.6c.5-1.3 1.3-2.6.7-4.1-.3 1.4-.5 2.7-.7 4.1zm1.5-71.3l-.5.2.8 1.8c.8-1 .7-1.7-.3-2zm82.9-83.3l-.4.3 1.2 1.4.6-.2-1-1.4zm39.7-6.5l.3-.3-2-1.7c.3 1 .3 2.2 1.7 2zm124.5 157.4l.2.4 2.3-1.1c-1.4-.9-1.8.3-2.5.7zM450.7 153v-.7a5.8 5.8 0 0 0-1.4.3c-.1 0-.1.5-.1.9zm-78.6-43.5l.5-.2-1.7-3.5h-.3zM196.8 235.7c-2.1-1.1-2.1-1.1-2.5-.8 1.7 1.2 1.7 1.2 2.5.8zm-24.5 13h-.7l.6 2.5h.5zM405.6 37.5h.4l1-4.1h-.3zm28.2 121.3a17.1 17.1 0 0 1-.9 2.2c1.5-.6 1.5-.7.9-2.2zM364.5 63l.2-.7-2.2-.5v.5zm79.1 91l.9-1.2c0-.1-.5-.5-.5-.5l-1 1c-.1 0 .3.3.6.7zm-245.3 90.6l-.8-.3c1.3 1.5-.5 1.4-.6 2.5s1.2-.3 1.3-.6a4.3 4.3 0 0 0 .1-1.6zm53.4-105v.5a3.8 3.8 0 0 0 1.5.1c.1 0 .3-.4.4-.6h-1.9zm151.5 50.3l.3-.2-2.3-4.4h-.3zm94.8 44.5l-.2.4c.6 1.2.9 1.4 2 .8zm-310.5 22.1l-3.1-1.5h-.1l2.7 2.1zm88.7-38l-1.6-.6c-.3 0-.6.3-.9.5s.5.5.8.5a7.9 7.9 0 0 0 1.7-.4zm143.3-101.2l.7.2a22.5 22.5 0 0 1 .5-2.2h-.6zM193 239.9h-.4a3.3 3.3 0 0 1 0 1 10.4 10.4 0 0 1-.4 1l.4.2.7-1.4c.1-.2-.2-.5-.3-.8zM78.2 157.2l.4.2 1.5-3-.4-.2zM371.6 13.7l.4.6 2.5-2.1-.2-.2zm94.7 145.8h.4c0-.3.2-.8 0-1l-1.6-.7v.3zm-110-65.9c-1.1-.9-1.7-.8-2.5.4zm-23.6-8.3l.3.5 2.6-1.8-.2-.4zM204.9 257l-.3-.2-2.2 2.8.4.3zm211.2-121.9h.7l.3-1.8h-.7zM191.5 245.2h-.2l-.3 3.8h.5zm0-5.1a4.1 4.1 0 0 0-.2-.9l-2-.5v.3zm13.4 32.4l-.2.3 2.6 1.7.3-.4zm191.8-15.2l-.4-.2c-.4 1.1-.8 2.2-1.1 3.3h.3zm-190.2-11.4l-1.2-2.7a2.1 2.1 0 0 0 1.2 2.7zM398 179.5h-.3l2.3 4 .2-.2zm-3.7-139.8c1.5-.3 1.9-.9 1.3-1.9zm-5.8-20.2l.4.3 1.5-2-.4-.3zm-203 231.2l.2-.6-1.9-.5-.2.5zm-11.6 4.4l-.2.6c.5 1 1.3 0 1.9-.2zm31-5.7V247l-1.1.9z"/><path d="M506 39.3l-11-2.7-4.7-1.1c-1.6-.3-2 0-2.4 1.5s-1.3 5.6-2.1 8.4-2.2 7.1-3.2 10.7c-.4 1.1-.6 2.2-.9 3.3a7.6 7.6 0 0 1-.6 1.6h-.5a3.8 3.8 0 0 1-.3-1.8 18.8 18.8 0 0 1 .6-3.1l3.3-11.7a.7.7 0 0 0-.2-.8l-1.2 1.9c-.9 1.9-1.7 3.8-2.7 5.7s-.7.6-1 .9-.6-.9-.5-1.2a26.7 26.7 0 0 1 1.7-5c1.6-3.3 3.4-6.6 5.2-9.8.6-1.2.5-1.4-.8-1.6l-2.7-.6c-.8-.2-1.2.1-1.4 1l-4.2 19.3c-.7 3.2-1.6 6.4-2.3 9.6s-1.9 8.4-2.9 12.7-2.2 10.1-3.5 15.2c-.6 2.1-1.7 4.1-2.5 6.2s-1.5 4.1-2.3 6.1-1.6 4.6-2.5 6.8-2 4.5-3 6.7h-.5c0-.5.1-1 .1-1.5s.1-1.8.1-2.8-.3-2.3.9-3.2a1.7 1.7 0 0 0 .5-1.3c.5-4.7 1.2-9.5 1.5-14.2s2.5-11.7 3.7-17.5c.5-2.5 1.1-5 1.6-7.6s1-4.9 1.5-7.3 1.7-7 2.5-10.5 1.1-5.6 1.7-8.4l2.1-8.8a7.1 7.1 0 0 0 .4-1.7l-3 2.1c-.7.5-1.3.7-1.6-.3a1.1 1.1 0 0 0-1.6-.7l-4.3 1c-.5.1-1.5 0-1.7-.4s.3-1.2.9-1.6l5.6-3.1c1.1-.7 1.4-.5 1.9 1.6l4.4-3.3a1.5 1.5 0 0 0 .6-1.9c-.2-.5.3-1.2.5-1.8s.5-.9.4-1.3c-.7-2.6-.2-5.1.3-7.6.1-.3.3-.7.2-1-.6-2.8.6-5.4 1-8a4.3 4.3 0 0 0-.4-1.9 5.9 5.9 0 0 1 0-4.5h4.3a15.5 15.5 0 0 1-.4 2.1c0 .3-.2.9-.4.9s-1.1 1.8-1.6 2.8h2.8c-.8.8-1.7 1.3-1.9 2-.6 2.7-.9 5.3-1.4 8L476 26.1c-.7 3.1-1.5 6.3-2.1 9.5s-1.7 8.5-2.6 12.7-2.2 9.5-3.2 14.2c-2 8.4-3.9 16.8-5.8 25.2-.5 2.4-.5 2.5 2 2.6h.2a1.3 1.3 0 0 0 1.6-1.2c.4-2 .9-4 1.4-6l7.5-33.2c1.9-8.5 3.7-16.9 5.6-25.3l3.3-16c.2-1 .5-1.8-.5-2.2.8-2.2 1.5-4.3 2.3-6.4h2.1v.9c-1.1 5-2.1 10-3.1 15a6.6 6.6 0 0 0 0 1.4 10.4 10.4 0 0 0 1.3-.4 23.2 23.2 0 0 0 3-2.2 4.9 4.9 0 0 0 1.4-2.4c.5-2.5.7-5.1 1.1-7.7a6 6 0 0 1 .9-1.5c.5.3 1.2.5 1.5 1s1.3 2.3 2 3.4 1 1.4 2.3.5l7.8-4.8v2.6l-7.5 4.8c-.2.1-.2.6-.1.9a11.9 11.9 0 0 0 .8 1.6c.5.6.9.6 1.4 0s1.5-2.1 2.4-3.1 2-2.3 3-3.4V10a18.5 18.5 0 0 0-1.4 1.4c-.8 1-1.4 2.1-2.3 3.1s-1.3 1.9-.1 3.7a4.1 4.1 0 0 0 .5.9l3.3 5.1v4.3a6 6 0 0 1-.8-.8l-4.8-8.2c-.5-.8-1-.9-1.5-.1s-2.6 3.6-3.8 5.5-2.4 3.9-3.6 5.9a26.5 26.5 0 0 0-1.2 2.4l15.7 3.7zm-16.7-21.9a25 25 0 0 0-2.4 1.6c-1.5 1.2-3.5 1.9-3.9 4.2a22.1 22.1 0 0 0-.5 2.5c-.3 1.6-.7 3.1-1 4.6s.3 1.2.6 1.2a12.6 12.6 0 0 0 3.8.6 1.7 1.7 0 0 0 1.2-.8c.8-4 1.5-8 2.2-12a11.9 11.9 0 0 0 0-1.9zm.7 11a7.3 7.3 0 0 1 .9-.9l6.7-10.2c.8-1.1.3-3.2-1.2-4.5s-1.3.7-2 .8a1.3 1.3 0 0 0-.9.6 5.4 5.4 0 0 0-1.6 2.1c-.7 3.6-1.3 7.2-1.9 10.8zM493.2 8c-.2 1.3-.4 2.4-.6 3.8 2.4-1.3 2.5-2.3.6-3.8zM458 113.2h.6l.6-1.9a.7.7 0 0 0-.3-.5l-.4.2c-.2.8-.3 1.5-.5 2.2zM0 190.5v-69.3a40.5 40.5 0 0 1 6.9 10 46.3 46.3 0 0 1 5.5 19.9c.7 13-2.8 25-9.7 36-.8 1.2-1.8 2.3-2.7 3.4zm96.7 94.1c-.4-1.3-.8-2.5-1.1-3.8s.2-.7.3-.7l1.3.6.9-.6-1.1-.5v-.3l2.1-.7 4.5-1 12.5-3.4c2.1-.5 4.2-.8 6.3-1.1a1.5 1.5 0 0 1 1.2.8 40.5 40.5 0 0 1 .9 4.8 1.2 1.2 0 0 1-1.2 1.5l-4.9.9-7.3 1a31.1 31.1 0 0 0-8 1.9l-1.3.6H98l2.6-1.4q-1.6.3-1.8-1.2c-1.2.1-1.7.5-1.4 1.6a3.6 3.6 0 0 1-.2 1zm24.8-10h-.4c.5 1.2-.2 1.4-1 1.7s-.5.5-.8.8l1 .3a6.7 6.7 0 0 1 1.2.6c.7.3 1.2.2 1.2-.6a20.5 20.5 0 0 0-.5-2.4c-.1-.1-.5-.2-.7-.4z"/><path d="M506 62.2l-7.3 7c-3.3 3.3-6.5 6.7-9.7 10.2s-7.3 8.4-10.8 12.6c-1.7 2.1-3.1 4.3-4.6 6.5a2 2 0 0 0-.2.9l3-2.1 14.8-12.1c3.1-2.5 6.3-4.9 9.5-7.3s3.5-2.2 5.3-3.3v.5l-6.7 5.5c-3.7 2.9-7.6 5.8-11.3 8.8s-5.6 4.6-8.4 6.9l-5.7 4.4a1.6 1.6 0 0 1-.9.3h-1.5c.1-.6 0-1.2.3-1.6a76.7 76.7 0 0 1 10.5-14.2l9.6-10.4a.6.6 0 0 0 .1-.6l-7.4 5.6c-2.3 1.9-4.6 4-7 5.9s-4.4 4.3-7 5.8l-.4-.4a4.8 4.8 0 0 1 .9-1.1c5.6-4.9 11.3-9.7 17-14.5 3.5-2.9 7.1-5.7 10.5-8.7s4.2-4.1 6.2-6.2l1.2-1zM92 284.6c-1.5-8.2-2.9-16.4-4.3-24.6l-.3-1.3c-.5-1.7.1-2.6 1.9-2.8l17.5-2.3c3.3-.4 6.7-.6 10-.9 1.7-.2 3.4-.7 5.2-.9s1.7.3 1.7.5-.9.9-1.6 1l-16 1.8-16.2 2.1c-1 .1-1.1.6-.9 1.4.9 5.2 1.7 10.4 2.6 15.6.6 3.5 1.3 6.9 2 10.4zm17.6 0l10.6-2 4.2-1c.3 0 .7-.2 1-.1a3.6 3.6 0 0 1 1.1.4c-.2.3-.4.9-.8 1l-6.9 1.3-2.1.4zM290.7 0l-3.1 4.8c-.2.3-.8.5-.9.4s-1.2-1-1.3-1.6.6-1.3.9-1.9l1-1.7zm-34 0c-.9 1.1-1.8 2.3-2.8 3.3a9.3 9.3 0 0 1-1.5 1.3l-.3-.4 3-3.2.8-1zM91.3 251.1c-1.1 1-1.8 2.2-2.9 2.6s-4.8-1-5.2-3.6a6.7 6.7 0 0 1 1.3-5.1 2.7 2.7 0 0 1 3.4-.9 8 8 0 0 1 2.3 2.2c.1.2-.3.8-.4 1.2a3.9 3.9 0 0 1-1.1-.6c-.6-.4-1.1-1-1.7-1.5a9.6 9.6 0 0 0-1.4 2.1 3.8 3.8 0 0 0 .4 4.2c.7 1.1 1.6 1.1 2.2 0s.6-1.7 1.2-2.1 1.5-2.6 1.9-4a2.2 2.2 0 0 1 .5-.8c.4-.5 1-1.4 1.3-1.4s1.9.8 2.2 1.5a7.3 7.3 0 0 1 .9 5.6c-.6 2.3-2.7 2.9-4.5 1.2a1.5 1.5 0 0 1-.4-.6zm2.4 0c.8-1.2.8-4-.1-5-1.2 1-1.2 4 .1 5z"/><path d="M90.7 260c.4 1.3.9 2.5 1.2 3.9s.4 2.8 3.2 2.2l9.9-1.9a16 16 0 0 0 3.1-1 1.6 1.6 0 0 0 .8-1.2c-.1-1.4-.3-2.7-.5-4.1s-.4-.8-1.1-.7l-13.2 2.1c-.5 0-.9.3-1.4.3a3.2 3.2 0 0 1-1.3-.2c.3-.3.5-.8.8-.9l3.4-.8 11.7-1.9c1.4-.2 1.8-.1 2.1 1.3s.6 4 .9 6-.4 1.1-1.1 1.3l-8.1 2c-2.8.6-5.7.9-8.6 1.3-.4.1-1.2-.5-1.3-.9-.5-1.9-.9-4-1.3-6a4.1 4.1 0 0 1 .3-.8zm29.7-20c1.1 2.3.8 3.1-1.5 4.3a17.2 17.2 0 0 1 .4 2.4c0 .4-.5.8-.7 1.2s-1-.5-1.1-.9c-.6-2.1-1.1-4.2-1.7-6.3a1.5 1.5 0 0 1 1.7-1.9c2.1.3 3.8-.9 5.6-1.3a10.7 10.7 0 0 1 2.5-.3c.3 0 .6.4.9.7s-.5.6-.9.7-1.9.4-1.4 2.3.7 2.4.9 3.6-.4.8-.6 1.3-.9-.6-1.1-1a25.4 25.4 0 0 1-1-3.7c-.2-1.1-.8-1.4-2-1.1zm-2.2 2.4h.3c.2-.2.6-.5.6-.8a3.9 3.9 0 0 0-.5-1.4h-.5zm-8.2-11.6v-2.7c0-.9-.4-1.2-1.3-1.1l-14.2 1.7a16.1 16.1 0 0 1-3.1-.1c-.3 0-.5-.4-.7-.6s.5-.5.8-.5l16.9-1.9c2.4-.2 3 .3 3 2.8s.2 4.2.2 6.3a3.9 3.9 0 0 1-.5 1.4c-.3-.4-.8-.8-.9-1.2s-.2-2.7-.3-4.1zm14.7 22.2a20.5 20.5 0 0 1 .5 2.4c.7 4.9 1.3 9.8 2 14.7.5 3 .9 6 1.3 9 .1.4-.2.9-.4 1.3s-.8-.7-.9-1.1c-.4-2.1-.8-4.3-1.1-6.5-.6-3.9-1.1-7.8-1.6-11.7-.3-2.2-.5-4.4-.6-6.7-.1-.4.2-.9.3-1.4zm-5.2-35.6a15.4 15.4 0 0 1-.8 1.9c-.5.9-1.4 1-1.8.1a47.5 47.5 0 0 1-1.7-4.9c-.1-.2.4-.7.4-.7s.9.4 1 .7.6 2.2.9 3.2h.4c.4-2 2.3-2.7 3.4-4.1s1.3-.4 2 0a1.3 1.3 0 0 1 .6 1.8c-.4 1.4-.9 1.8-2.7 2-.3 1 .1 1.5 1 1.5l2.5-.4a2 2 0 0 1 1.1.1 4.2 4.2 0 0 1-.4 1c-1.1.9-4.2.8-5.2-.3s-.4-1.3-.7-1.9zm-18.9 29.1c-.2-1.1-.4-2.1-.5-3.1s.5-.9.7-1.4 1.1.7 1.2 1.2a27.8 27.8 0 0 1 1.1 5 3 3 0 0 1-.5 2.3c-.8.6-1.4-.4-1.9-1l-.7-.7a5.3 5.3 0 0 1 .2 1.6 2.2 2.2 0 0 1-.9 1 1.3 1.3 0 0 1-1-.8c-.6-1.9-1.2-3.8-1.7-5.7 0-.3.1-.9.3-.9s.9-.2 1.2.1a7.7 7.7 0 0 1 1.2 1.3l1.1 1.3zM94.5 277c1.7-.7 3.3-1.5 5-2.1l17.7-5.5.7-.2 1.6.5-1.2.8-7.3 2.4-11.1 3.4c-1.3.3-2.5.8-3.8 1.2h-1.5zm21.3-13.7c-2.2 0-2.2 0-2.5-2.2a28.3 28.3 0 0 1-.2-2.9c-.1-1.2.5-1.8 1.7-1.9l6.5-.8c.3 0 1 .5 1 .8s.3 2.6.5 3.9a2.6 2.6 0 0 0 .7 1.1 2.4 2.4 0 0 0 .8.6c-.4.2-.7.6-1 .6zm1.5-6a10.9 10.9 0 0 0-2.6.1c-.3 0-.8.5-.7.8.1 3.9.5 4.2 4.3 3.5h.2c3.1-.4 3.1-.4 2.7-3.5v-.3c-.4-.3-.7-.7-1.1-.8z"/><path d="M91.9 233.9a15.8 15.8 0 0 1 .5 2.5 3.9 3.9 0 0 1-.5 1.4c-.3-.4-.8-.6-.9-1s-.4-2.5-.6-3.8-.3-2-.4-3.1a5.4 5.4 0 0 1 .3-1c.3.2.8.2 1 .4a5.7 5.7 0 0 1 .4 1.4c.1.5.1 1 .2 1.8l9.7-1.6 5.1-1.1a2.1 2.1 0 0 1 1 .4c-.2.3-.3.8-.6.8l-3.8 1zm2.8-16.4a7.6 7.6 0 0 1 1.9-1.2 3 3 0 0 1 2.1.5c.3.2.2 1.3-.2 1.8s-1.1.8-1.7 1.2a1.1 1.1 0 0 0-.7.6c-.1 0 .1.5.2.5l.9-.3c.2-.1.3-.3.4-.4l1.1-.5c0 .5.1 1-.1 1.3a2.2 2.2 0 0 1-2.5 1.2c-1.1-.4-1.7-1.1-1.5-2.2s-.5-1.4-1.3-1.5-1.4.6-1.5 1.4a13.3 13.3 0 0 0 0 2c-.1.3-.4.8-.6.8s-.8-.3-.8-.5a28.3 28.3 0 0 1-.8-4c0-.2.3-.5.4-.6l3-.3a8 8 0 0 1 2.1.5zm9 28.9a25.2 25.2 0 0 1 1.2-3.9 2.6 2.6 0 0 1 4-1.4c.3.1.5.6.7.9a1.8 1.8 0 0 1-.9.4c-1.5-.1-2.1.2-2.4 1.6a7.8 7.8 0 0 0-.4 3 2.4 2.4 0 0 0 1.3 1.6c.6.1 1.3-.5 1.8-1s.3-.9.5-1.4.6-.7.8-.7a1.6 1.6 0 0 1 .8.8 2.8 2.8 0 0 1-1.5 3.4 4.2 4.2 0 0 1-4.2-.1 3.2 3.2 0 0 1-1.7-3.2zm10.3.4l1.6-.5c.2 0 .7.2.7.4s0 .8-.2.9a10.1 10.1 0 0 1-2.8.9c-.4 0-1-.8-1.2-1.3a42 42 0 0 1-1.7-5 1.2 1.2 0 0 1 .4-1l3.3-.6c.3 0 .7.4 1 .7l-.9.7-1.4.3v.4l1 .5a5.7 5.7 0 0 1 1.3-.1c.3 0 .5.4.8.6s-.3.6-.6.7a7.6 7.6 0 0 1-1.6.6zm-77 23.6l1.4.4L59 281.7c.3.2.4.8.5 1.1h-1.1c-1.8-1-3.4-2.1-5.2-3-3.3-1.8-6.6-3.6-10-5.3l-3.8-1.8-2.7-1.8zm60.2 1.7l2.2-.8 13.5-4a31.1 31.1 0 0 1 4.4-.8c.3 0 .6.3.9.5s-.4.7-.7.7-1.9.3-2.8.6l-13.6 3.8a22.7 22.7 0 0 1-2.5.6h-1.3zm6.5-52.9a16.6 16.6 0 0 1-1.7 2.4 2.1 2.1 0 0 1-1.7.4 1.7 1.7 0 0 1-.7-1.4 19.8 19.8 0 0 1 .8-4.1c.3-1 1.1-1.1 2.1-.9s2.6 1 2.6 2.8.4 1 .5 1.6a5.3 5.3 0 0 1-.3 1.2c-.4-.3-.8-.4-1-.7a5.2 5.2 0 0 1-.6-1.3zm-2.9 1.4h.5c.5-1 .9-2 1.3-3s-.1-.4-.2-.7-.6.1-.6.3a31.8 31.8 0 0 0-1 3.4zm-11.4 1.7c.3 2.7-1.9 4.3-4.2 3.4s-3.4-3-3-5.7a6 6 0 0 1 2.2-3.8 2.1 2.1 0 0 1 3.3 1h-.5c-.7.1-1.7-.2-2 .2a6.1 6.1 0 0 0-1.4 2.9 3.9 3.9 0 0 0 .4 2.6 3.3 3.3 0 0 0 2 1.7c.6.1 1.4-.8 2.1-1.3s.6-.5 1.1-1zm20-6.6l2 .6-1.2 1.1h-.3c.2 1 .4 2 .5 3s-.3.9-.4 1.4a5 5 0 0 1-1-1.1c-.3-.9-.4-1.9-.7-3l-1.3.6a5.7 5.7 0 0 1-1.3 0l.7-1.1.6-.2c.8-.3 1.1-.8.7-1.6a5.1 5.1 0 0 1-.3-1.7c-.1-.3.2-.6.3-.9s.8.3.9.6a13.5 13.5 0 0 1 .8 2.3zm-18.9 22.9l1.5-.4 12.3-2.5a5.9 5.9 0 0 1 2.3 0 16.2 16.2 0 0 1-1.8 1L96 239c-1.9.5-4.1.5-5.5-.4z"/><path d="M103.3 228.9l-2.1.8-6.3 1.2h-1.2c-.3 0-.6-.3-.9-.5s.5-.6.8-.7l5.6-1 2.7-.4a5.6 5.6 0 0 1 1.3 0zm-5.9 7.4l-1.2-.8a9.1 9.1 0 0 1 1.4-.7l5.7-1.4a10.3 10.3 0 0 1 1.4.4c-.3.4-.7.9-1.1 1-2 .6-4 1-6.2 1.5zm15.3-20.6a2.2 2.2 0 0 1 .6-.7c.2 0 .7.1.7.3a35.2 35.2 0 0 1 1.5 4.2c.1.2-.1.6-.2.6a1 1 0 0 1-.8-.2zm-.9-113.8c.5-1.2.6-2.6 2.2-3.2l-1.6 3.4zM474.2 11c-.9-.9-.9-.9.6-1.7zm-88.4 268.3a1.8 1.8 0 0 0 2.3-1.7l.3.2a12.2 12.2 0 0 1-1 2.4c-.1.1-1-.3-1.5-.4zm-132.9 1.2l-2-.8-8.7-3.5c-.8-.3-.9-.7-.6-1.5 1.3-2.8 2.5-5.7 3.8-8.5.3-.9.8-1.1 1.7-.7l9.6 3.9c.8.3 1.2.6.7 1.5-1.3 2.9-2.5 5.7-3.7 8.6a3.9 3.9 0 0 1-.8 1zM240.3 234a6.1 6.1 0 0 1 4.3 1.7c.9.8 3.8 1.1 4.7.5a3.1 3.1 0 0 0 .7.9 16.4 16.4 0 0 0 2.2 1.4l2.1 1.2a5 5 0 0 0 3.2.9 6.3 6.3 0 0 1 4.1 1.2 8.5 8.5 0 0 0 3.1.9 39.5 39.5 0 0 1 6 1c.6.1 1 .6 1.5.9v.5a5.5 5.5 0 0 1-1.8-.1l-7.4-1.6c-5.3-1.1-10.2-3.3-15.1-5.4-2.2-.9-4.3-1.9-6.4-3-.4-.2-.7-.7-1-1zm-9.2 22c.6-1.6.2-3.1-1-3.6s-1.9.2-2.8 2.8l-3.9-6.2c.5-.1.8-.2 1-.1l7.3 3 2.5 1c1.1.5 1.2 1.2.5 2.1s-.9.9-.3 1.8-.3.8-.8.6-1.6-.9-2.5-1.4zm-3.5-4.8a5.2 5.2 0 0 0-1.2-.7c-.2-.1-.5.4-.7.6l1.1.9zm18.2-44.2a2.3 2.3 0 0 1-1.2-.2c-.7-.4-1.1-.3-1.4.4s-2.4 3.9-2.8 6-2.1 3.6-2.7 5.6-1.3 3.1-1.9 4.6a8.9 8.9 0 0 1-.8 1.7c-.8 1.3-1.7 2.6-.9 4.2l-.2.4-1.7-.5 2.7-6.1 7-15.4c0-.2.1-.3.2-.5s.7-1.7.9-1.7a14.5 14.5 0 0 1 2.9 1.1zm-70.2-7.7a2.3 2.3 0 0 1 2.5 2.3 1.9 1.9 0 0 1-2.1 2.1c-1 0-2.4-1.1-2.4-2a2.2 2.2 0 0 1 2-2.4zm76.7 59.4c.9 0 1.5.4 1.5 1.6a12.4 12.4 0 0 1 .2 1.8 3.5 3.5 0 0 1-1.2 1.7c-.2.2-.9 0-1.3-.3a1.5 1.5 0 0 1-.3-2c.4-.9.7-1.9 1.1-2.8zm12.2-20.4l-3.1.2c-.7 0-.9-.5-.5-1.1a14.8 14.8 0 0 1 1.3-.8c.5-.5.9-1.1 1.4-1.5a3.5 3.5 0 0 1 1.1-1c.2-.1.9.4.8.5a2.4 2.4 0 0 1-.7 1.5c-1.3.8-1.4 1-.3 2.2zm-6.8 19.6c-.7.4-4 .2-4.4-.5s-.4-1.5-.1-1.7a4.3 4.3 0 0 1 2-.6c.2 0 .5.5.8.8zm10.9-18.1a20.2 20.2 0 0 1 2.9.8c.3.1.5.8.5 1.3s-.8.6-1.1.5a12.5 12.5 0 0 1-2.7-1 1.2 1.2 0 0 1-.3-1c.1-.3.5-.5.7-.6zm-29.4 29.5c.3.1.8 0 1.1.2s.9.3 1.1-.4.6-1.7 1-2.6a4.3 4.3 0 0 1 .9-1l.3.3c-.5 1.3-.8 2.6-1.4 3.8s-1.6 1.5-3.1.1z"/><path d="M240.4 234c-1.6-.2-4.3-2.1-4.6-3.3 1.4-.1 4.1 1.9 4.5 3.1v.2zm32.4 13l-.6.8-6.6-2.5v-.2zm-42.5 11.7l2.7 1.5c.1 0 0 .8-.1.9s-1.2.3-1.4.1-1-1.4-1.5-2zm30-7.5c-1.2.6-4.6-.9-5.4-2.2zm-5.4 15.3l-2.8-.8c.7-1.3 1-1.3 2.8.3zm1.2-13.3l.5-2.1c.4.3 1 .7 1 1.1s-.4.9-.7 1.4zm5.4-39.4l-1.1 1.1c-.3-.3-.7-.7-.7-1s.4-.7.7-1.1zM246.6 259c.4.4.9.7 1 1a1.6 1.6 0 0 1-.8.8 5.4 5.4 0 0 1-1.2-.9zm-.2 4c-1.5-.9-1.5.5-2 1-.2-1.3-.1-1.5 1.5-2.5l.5 1.1zm3.9-55.1l.6.8-3.1-.5v-.5l2.5.2zm13.4 7.7l.2-1.8c.3.3.8.6.7.7a2.9 2.9 0 0 1-.5 1.3zm59.4 54.1c-.2 1-.3 1.6-.4 2.3s-.6 3.8-.8 5.8-.5 1.2-1.4.7l-2.7-1.1c-.6-.3-.8-.7-.3-1.3l4.8-6.1c0-.1.3-.1.8-.3zm106.8-89.9a1.5 1.5 0 0 1 .3-.7 5.2 5.2 0 0 1 1.1-1l.3.6-1 1.2zM41.6 118.1l-.7-1.4c0-.3.3-.5.5-.8a2.3 2.3 0 0 1 .7 1c.1.2-.2.5-.5 1.2zm284.6 61.2a8.5 8.5 0 0 1-2.5 5.4c-1.6 1.6-3.5 1.1-5.4.7l-2.5-.9c-.8-.2-.9-.7-.6-1.3 1.4-3.2 2.8-6.3 4.1-9.4.5-1 1-1.1 1.9-.6l3 1.9a4.6 4.6 0 0 1 2 4.2zm6.1-15.8a7.8 7.8 0 0 1-2.3 5.3 5.2 5.2 0 0 1-3.4 1.2 20.1 20.1 0 0 1-4.1-.9c-.8-.2-.9-.6-.6-1.4l3.9-9c.4-1 1-1.3 1.9-.7a32.1 32.1 0 0 1 3.1 1.9 4.1 4.1 0 0 1 1.5 3.6zm27.2-19.5l6.2-.8v.5l-.9.2-2.6.7a2.2 2.2 0 0 1-2.7-.6zm-26.4-88.9V49c1.2.6 1.5 1.4 1.2 2.8a21.7 21.7 0 0 0-.4 2.5l.4.3-1.2.5zm65.5 24.1a144.2 144.2 0 0 1 21.8 17.9l-.4.4-21.6-18zm15.3 9.3a22.5 22.5 0 0 1-6-5.9c3.2.7 3.9 4 6 5.9zm-188.7 71.4c2.3.9 4.4 1.9 5.4 4.3s.2 3.4-.2 5a24.8 24.8 0 0 1-4.6 9c-1.8 2.2-4.1 2.6-6.7 1.9s-3.3-.9-1.9-3.9c2.4-5.2 5-10.4 7.5-15.6a1.5 1.5 0 0 1 .5-.7zm152-128.5l.4-2.2h-.2l-1.9 2.8h-.4l-.3-1.4v-2.3c0-.9.4-1.1 1.7-.7l1-1.8a4.3 4.3 0 0 1 0 5.7zm5.3-8.3a3.5 3.5 0 0 1-1.4.3.8.8 0 0 1-.7 0 .8.8 0 0 1-.1-.8l3.3-2.2.6.3c-1 .6-2.7.7-1.7 2.4zm2.1-4.7a7.6 7.6 0 0 1-1.6.3l-1.8-.2-.7-.5c.3-.2.5-.6.8-.6l3.2.4zm-7.7-3.1h1.9v.3l-3.8 1.9c.1-1.5 1.3-1.6 2-2.3zm.4 6.6c.1 1.2-.1 1.7-.9 1.7s-.5-.5-.8-.7zm0-2.4l1 1.2c-.2.1-.5.4-.6.3a4.5 4.5 0 0 1-1.2-.6zm43.3 187.2c-.1-1.3-.2-2.4-.2-3.4s.4-.5.5-.8.7.5.7.8.5 2.4-1 3.4zm-265.7-32.9c-.4.9-.6 2-1 3s-2.4 4.7-3.8 6.9a3.6 3.6 0 0 1-5.5.9 3.8 3.8 0 0 1-1.3-2.4 6.8 6.8 0 0 1 .7-3.2 65.8 65.8 0 0 1 4.2-7.3 3.8 3.8 0 0 1 6.2.5 10.3 10.3 0 0 1 .5 1.6zm290.6-8.2c-.3-.6-.6-1-.5-1.1a4.1 4.1 0 0 1 .7-1.1c.3.3.7.5.6.8s-.4.7-.8 1.4zm-323.7-4.5a2.7 2.7 0 0 1 0 .9c-.5 2.3-1.1 4.6-1.6 6.9s-.6 1.4-1.6 1-1.9-.7-2.8-1.2-.5-1-.3-1.2l6-6.5zM310 268.6h-.7c-2.2-.4-2.3-.7-1.5-2.6s.9-2.1 1.3-3.2.7-.8 1.4-.5c2.4 1.1 3.1 3.1 1.6 5.2a7.2 7.2 0 0 1-1.9 1.4zm161.2-103l-1 1.3a3.1 3.1 0 0 1-.5-1.2c0-.4.4-.7.6-1.1zm0 5.4c-.3-.5-.6-.7-.6-1a2.2 2.2 0 0 1 .7-.6c.1.3.4.5.5.8a5 5 0 0 1-.6.8zm-268.1 18.1l-2.4-2.2a7.8 7.8 0 0 1 2.3.5c.3.2.1 1.1.1 1.7zm76.6 37.3l-1.5.2c.1-.3 0-.9.1-.9h1.3zm-95.5 13.4l1.9-.3c.3 0 .8.1.9.3a1.5 1.5 0 0 1-.1.9l-2.4 3.4a5.2 5.2 0 0 1-1.3.6c-.3.1-.8.2-1 0s-.2-.6-.3-.9a2.8 2.8 0 0 0-.1-.9c0-.5-.3-1.2-.1-1.5s1-.3 1.5-.4l.2.3z"/></g></svg>