<svg xmlns="http://www.w3.org/2000/svg" width="565.7" height="145.7"><defs><style>.g{fill:#0083b3}.b{fill:#2baae2}</style></defs><text transform="translate(93.1 84.5)" fill="#0083b3" font-size="100.98" font-family="MyriadPro-Semibold,Myriad Pro" font-weight="700">cruise<tspan class="b" x="258.8" y="0">soon</tspan></text><text transform="translate(208.2 132.3)" font-size="46.8" font-family="SourceSansPro-Light,Source Sans Pro" fill="#0083b3">an o<tspan x="82.6" y="0" letter-spacing="-.02em">c</tspan><tspan x="102.8" y="0" letter-spacing="-.02em">e</tspan><tspan x="124.7" y="0">an of choi</tspan><tspan x="310.4" y="0" letter-spacing="-.02em">c</tspan><tspan x="330.6" y="0">e</tspan></text><path class="b" d="M9.8 118.8a29.2 29.2 0 0 0-9.8 1.6 50.9 50.9 0 0 1 39.3 21.4 30.4 30.4 0 0 0-29.5-23z"/><path class="g" d="M6.9 46.8A51.7 51.7 0 0 0 4 57.4a81.1 81.1 0 0 1 35.3-15.9v-8.2a79.9 79.9 0 0 0-22.7 7.6 73.8 73.8 0 0 0-9.7 5.9zm-3.5 20a81.5 81.5 0 0 0 16.1 48.7 50.4 50.4 0 0 1 19.8 16.8V45.5A81.1 81.1 0 0 0 3.4 63zm15.1-1c.6 0 1.1 1.5 1.1 3.4s-.5 3.5-1.1 3.5-1.2-1.6-1.2-3.5.5-3.4 1.2-3.4zM11.9 68c.6 0 1.1 1.4 1.1 3.2s-.5 3.3-1.1 3.3-1-1.5-1-3.3.5-3.2 1-3.2zm13.3-40.1c-.3 1.7-.6 3.4-.8 5.2a78.9 78.9 0 0 1 16-4.4V18.2A53.3 53.3 0 0 0 27.7 20a51.9 51.9 0 0 0-2.5 7.9z"/><path class="b" d="M70.1 118.8a29.2 29.2 0 0 1 9.8 1.6 50.9 50.9 0 0 0-39.3 21.4 30.5 30.5 0 0 1 29.5-23zm2.9-72a51.7 51.7 0 0 1 2.9 10.6 80.6 80.6 0 0 0-35.3-15.9v-8.2a78.9 78.9 0 0 1 22.7 7.6 73.8 73.8 0 0 1 9.7 5.9z"/><path class="b" d="M76.5 63a80.6 80.6 0 0 0-35.9-17.5v86.8a50.4 50.4 0 0 1 19.8-16.8 81.6 81.6 0 0 0 16.2-48.7c0-1.3-.1-2.6-.1-3.8zm-13.9 6.2c0 1.9-.5 3.5-1.1 3.5s-1.2-1.6-1.2-3.5.5-3.4 1.2-3.4 1.1 1.5 1.1 3.4zm6.4 2c0 1.8-.4 3.3-1 3.3s-1.1-1.5-1.1-3.3.5-3.2 1.1-3.2 1 1.4 1 3.2z"/><path class="g" d="M54.7 27.9a43.4 43.4 0 0 1 .8 5.2 78.9 78.9 0 0 0-16-4.4V18.2A53.3 53.3 0 0 1 52.2 20a51.9 51.9 0 0 1 2.5 7.9z"/></svg>