<svg xmlns="http://www.w3.org/2000/svg" xmlns:xlink="http://www.w3.org/1999/xlink" width="1667.5" height="1036.4" viewBox="0 0 1667.5 1036.4"><defs><style>.a{isolation:isolate;}.b{fill:#3fa9f5;}.c,.g{fill:none;}.d{opacity:0.15;fill:url(#a);}.d,.e,.f,.g{mix-blend-mode:screen;}.e{opacity:0.5;fill:url(#b);}.f{fill:url(#c);}.g{stroke:#fff;stroke-miterlimit:10;stroke-width:2px;opacity:0.03;}</style><radialGradient id="a" cx="827.27" cy="493.47" r="922.35" gradientUnits="userSpaceOnUse"><stop offset="0" stop-color="#200"/><stop offset="0.73" stop-color="#984023"/><stop offset="1" stop-color="#200"/></radialGradient><radialGradient id="b" cx="827.27" cy="493.47" r="461.18" gradientUnits="userSpaceOnUse"><stop offset="0.15" stop-color="#fff"/><stop offset="0.21" stop-color="#e5d3d3"/><stop offset="0.29" stop-color="#c49c9e"/><stop offset="0.36" stop-color="#ad7477"/><stop offset="0.42" stop-color="#9e5c5f"/><stop offset="0.45" stop-color="#995356"/><stop offset="0.57" stop-color="#6b3335"/><stop offset="0.69" stop-color="#431718"/><stop offset="0.79" stop-color="#2b0606"/><stop offset="0.85" stop-color="#200"/><stop offset="0.86" stop-color="#260201"/><stop offset="0.86" stop-color="#330704"/><stop offset="0.87" stop-color="#471009"/><stop offset="0.88" stop-color="#641d0f"/><stop offset="0.89" stop-color="#8a2e18"/><stop offset="0.9" stop-color="#b74223"/><stop offset="0.9" stop-color="#d34e29"/><stop offset="0.9" stop-color="#c84927"/><stop offset="0.91" stop-color="#9c361c"/><stop offset="0.93" stop-color="#772514"/><stop offset="0.94" stop-color="#58180c"/><stop offset="0.95" stop-color="#400d07"/><stop offset="0.97" stop-color="#2f0603"/><stop offset="0.98" stop-color="#250101"/><stop offset="1" stop-color="#200"/></radialGradient><radialGradient id="c" cx="827.27" cy="493.47" r="384.31" gradientUnits="userSpaceOnUse"><stop offset="0.15" stop-color="#fff"/><stop offset="0.28" stop-color="#c2c2c2"/><stop offset="0.43" stop-color="#888"/><stop offset="0.56" stop-color="#575757"/><stop offset="0.69" stop-color="#313131"/><stop offset="0.81" stop-color="#161616"/><stop offset="0.92" stop-color="#060606"/><stop offset="1"/></radialGradient></defs><title>flare-01</title><g class="a"><rect class="b" x="-31.2" y="-15.6" width="1716.9" height="1103.9"/><line class="c" x1="827.3" y1="493.5" x2="1162.3" y2="176.6"/><circle class="c" cx="827.3" cy="493.5" r="384.3"/><circle class="c" cx="827.3" cy="493.5" r="461.2"/><polyline class="c" points="827.3 493.5 2718.7 -33.3 827.3 493.5 -1064.1 1020.2 827.3 493.5 1354 2384.9 827.3 493.5 300.5 -1397.9 827.3 493.5 1460.3 507.3 827.3 493.5 194.2 479.6 827.3 493.5 813.4 1126.5 827.3 493.5 841.1 -139.6 827.3 493.5 1971.3 449.9 827.3 493.5 -316.7 537 827.3 493.5 870.8 1637.4 827.3 493.5 783.7 -650.5 827.3 493.5 1684.6 959.7 827.3 493.5 -30.1 27.3 827.3 493.5 361.1 1350.8 827.3 493.5 1293.5 -363.9 827.3 493.5 1295.8 1216.8 827.3 493.5 358.7 -229.9 827.3 493.5 103.9 962 827.3 493.5 1550.6 24.9 827.3 493.5 1394.7 1152 827.3 493.5 259.8 -165.1 827.3 493.5 168.7 1060.9 827.3 493.5 1485.8 -74 827.3 493.5 2826.4 -15.5 827.3 493.5 -1171.8 1002.4 827.3 493.5 1336.2 2492.6 827.3 493.5 318.3 -1505.7 827.3 493.5 1582.3 1014.9 827.3 493.5 72.2 -28 827.3 493.5 305.8 1248.5 827.3 493.5 1348.7 -261.6 827.3 493.5 1507.3 954.7 827.3 493.5 147.3 32.3 827.3 493.5 366.1 1173.5 827.3 493.5 1288.5 -186.5 827.3 493.5 2245.7 1307.1 827.3 493.5 -591.2 -320.2 827.3 493.5 13.6 1911.9 827.3 493.5 1640.9 -925 827.3 493.5 1072.4 553 827.3 493.5 582.1 433.9 827.3 493.5 767.7 738.6 827.3 493.5 886.8 248.3 827.3 493.5 1977.7 1507.3 827.3 493.5 -323.2 -520.3 827.3 493.5 -186.5 1643.9 827.3 493.5 1841.1 -657 827.3 493.5 2847.9 1512.4 827.3 493.5 -1193.3 -525.4 827.3 493.5 -191.6 2514.1 827.3 493.5 1846.2 -1527.1 827.3 493.5 2449.3 621.1 827.3 493.5 -794.8 365.8 827.3 493.5 699.7 2115.5 827.3 493.5 954.9 -1128.6 827.3 493.5 890.9 468.7 827.3 493.5 763.7 518.3 827.3 493.5 852.1 557.1 827.3 493.5 802.5 429.9"/><circle class="d" cx="827.3" cy="493.5" r="922.4"/><circle class="e" cx="827.3" cy="493.5" r="461.2"/><circle class="f" cx="827.3" cy="493.5" r="384.3"/><polyline class="g" points="827.3 493.5 2718.7 -33.3 827.3 493.5 -1064.1 1020.2 827.3 493.5 1354 2384.9 827.3 493.5 300.5 -1397.9 827.3 493.5 1460.3 507.3 827.3 493.5 194.2 479.6 827.3 493.5 813.4 1126.5 827.3 493.5 841.1 -139.6 827.3 493.5 1971.3 449.9 827.3 493.5 -316.7 537 827.3 493.5 870.8 1637.4 827.3 493.5 783.7 -650.5 827.3 493.5 1684.6 959.7 827.3 493.5 -30.1 27.3 827.3 493.5 361.1 1350.8 827.3 493.5 1293.5 -363.9 827.3 493.5 1295.8 1216.8 827.3 493.5 358.7 -229.9 827.3 493.5 103.9 962 827.3 493.5 1550.6 24.9 827.3 493.5 1394.7 1152 827.3 493.5 259.8 -165.1 827.3 493.5 168.7 1060.9 827.3 493.5 1485.8 -74 827.3 493.5 2826.4 -15.5 827.3 493.5 -1171.8 1002.4 827.3 493.5 1336.2 2492.6 827.3 493.5 318.3 -1505.7 827.3 493.5 1582.3 1014.9 827.3 493.5 72.2 -28 827.3 493.5 305.8 1248.5 827.3 493.5 1348.7 -261.6 827.3 493.5 1507.3 954.7 827.3 493.5 147.3 32.3 827.3 493.5 366.1 1173.5 827.3 493.5 1288.5 -186.5 827.3 493.5 2245.7 1307.1 827.3 493.5 -591.2 -320.2 827.3 493.5 13.6 1911.9 827.3 493.5 1640.9 -925 827.3 493.5 1072.4 553 827.3 493.5 582.1 433.9 827.3 493.5 767.7 738.6 827.3 493.5 886.8 248.3 827.3 493.5 1977.7 1507.3 827.3 493.5 -323.2 -520.3 827.3 493.5 -186.5 1643.9 827.3 493.5 1841.1 -657 827.3 493.5 2847.9 1512.4 827.3 493.5 -1193.3 -525.4 827.3 493.5 -191.6 2514.1 827.3 493.5 1846.2 -1527.1 827.3 493.5 2449.3 621.1 827.3 493.5 -794.8 365.8 827.3 493.5 699.7 2115.5 827.3 493.5 954.9 -1128.6 827.3 493.5 890.9 468.7 827.3 493.5 763.7 518.3 827.3 493.5 852.1 557.1 827.3 493.5 802.5 429.9"/></g></svg>