<svg xmlns="http://www.w3.org/2000/svg" width="1667.5" height="1036.4"><defs><style>.c{fill:none}</style><radialGradient id="a" cx="827.27" cy="493.47" r="922.35" gradientUnits="userSpaceOnUse"><stop offset="0" stop-color="#200"/><stop offset=".73" stop-color="#984023"/><stop offset="1" stop-color="#200"/></radialGradient><radialGradient id="b" cx="827.27" cy="493.47" r="461.18" gradientUnits="userSpaceOnUse"><stop offset=".15" stop-color="#fff"/><stop offset=".21" stop-color="#e5d3d3"/><stop offset=".29" stop-color="#c49c9e"/><stop offset=".36" stop-color="#ad7477"/><stop offset=".42" stop-color="#9e5c5f"/><stop offset=".45" stop-color="#995356"/><stop offset=".57" stop-color="#6b3335"/><stop offset=".69" stop-color="#431718"/><stop offset=".79" stop-color="#2b0606"/><stop offset=".85" stop-color="#200"/><stop offset=".86" stop-color="#260201"/><stop offset=".86" stop-color="#330704"/><stop offset=".87" stop-color="#471009"/><stop offset=".88" stop-color="#641d0f"/><stop offset=".89" stop-color="#8a2e18"/><stop offset=".9" stop-color="#b74223"/><stop offset=".9" stop-color="#d34e29"/><stop offset=".9" stop-color="#c84927"/><stop offset=".91" stop-color="#9c361c"/><stop offset=".93" stop-color="#772514"/><stop offset=".94" stop-color="#58180c"/><stop offset=".95" stop-color="#400d07"/><stop offset=".97" stop-color="#2f0603"/><stop offset=".98" stop-color="#250101"/><stop offset="1" stop-color="#200"/></radialGradient><radialGradient id="c" cx="827.27" cy="493.47" r="384.31" gradientUnits="userSpaceOnUse"><stop offset=".15" stop-color="#fff"/><stop offset=".28" stop-color="#c2c2c2"/><stop offset=".43" stop-color="#888"/><stop offset=".56" stop-color="#575757"/><stop offset=".69" stop-color="#313131"/><stop offset=".81" stop-color="#161616"/><stop offset=".92" stop-color="#060606"/><stop offset="1"/></radialGradient></defs><g style="isolation:isolate"><path fill="#3fa9f5" d="M-31.2-15.6h1716.9v1103.9H-31.2z"/><path class="c" d="M827.3 493.5l335-316.9"/><circle class="c" cx="827.3" cy="493.5" r="384.3"/><circle class="c" cx="827.3" cy="493.5" r="461.2"/><path class="c" d="M827.3 493.5L2718.7-33.3 827.3 493.5l-1891.4 526.7L827.3 493.5 1354 2384.9 827.3 493.5 300.5-1397.9 827.3 493.5l633 13.8-633-13.8-633.1-13.9 633.1 13.9-13.9 633 13.9-633 13.8-633.1-13.8 633.1 1144-43.6-1144 43.6-1144 43.5 1144-43.5 43.5 1143.9-43.5-1143.9-43.6-1144 43.6 1144 857.3 466.2-857.3-466.2L-30.1 27.3l857.4 466.2-466.2 857.3 466.2-857.3 466.2-857.4-466.2 857.4 468.5 723.3-468.5-723.3-468.6-723.4 468.6 723.4L103.9 962l723.4-468.5 723.3-468.6-723.3 468.6 567.4 658.5-567.4-658.5-567.5-658.6 567.5 658.6-658.6 567.4 658.6-567.4L1485.8-74 827.3 493.5l1999.1-509-1999.1 509-1999.1 508.9L827.3 493.5l508.9 1999.1L827.3 493.5l-509-1999.2 509 1999.2 755 521.4-755-521.4L72.2-28l755.1 521.5-521.5 755 521.5-755 521.4-755.1-521.4 755.1 680 461.2-680-461.2-680-461.2 680 461.2-461.2 680 461.2-680 461.2-680-461.2 680 1418.4 813.6L827.3 493.5-591.2-320.2 827.3 493.5 13.6 1911.9 827.3 493.5 1640.9-925 827.3 493.5l245.1 59.5-245.1-59.5-245.2-59.6 245.2 59.6-59.6 245.1 59.6-245.1 59.5-245.2-59.5 245.2 1150.4 1013.8L827.3 493.5-323.2-520.3 827.3 493.5-186.5 1643.9 827.3 493.5 1841.1-657 827.3 493.5l2020.6 1018.9L827.3 493.5-1193.3-525.4 827.3 493.5-191.6 2514.1 827.3 493.5l1018.9-2020.6L827.3 493.5l1622 127.6-1622-127.6-1622.1-127.7L827.3 493.5l-127.6 1622 127.6-1622 127.6-1622.1L827.3 493.5l63.6-24.8-63.6 24.8-63.6 24.8 63.6-24.8 24.8 63.6-24.8-63.6-24.8-63.6"/><circle cx="827.3" cy="493.5" r="922.4" style="mix-blend-mode:screen" opacity=".15" fill="url(#a)"/><circle cx="827.3" cy="493.5" r="461.2" style="mix-blend-mode:screen" opacity=".5" fill="url(#b)"/><circle cx="827.3" cy="493.5" r="384.3" style="mix-blend-mode:screen" fill="url(#c)"/><path style="mix-blend-mode:screen" stroke="#fff" stroke-miterlimit="10" stroke-width="2" opacity=".03" fill="none" d="M827.3 493.5L2718.7-33.3 827.3 493.5l-1891.4 526.7L827.3 493.5 1354 2384.9 827.3 493.5 300.5-1397.9 827.3 493.5l633 13.8-633-13.8-633.1-13.9 633.1 13.9-13.9 633 13.9-633 13.8-633.1-13.8 633.1 1144-43.6-1144 43.6-1144 43.5 1144-43.5 43.5 1143.9-43.5-1143.9-43.6-1144 43.6 1144 857.3 466.2-857.3-466.2L-30.1 27.3l857.4 466.2-466.2 857.3 466.2-857.3 466.2-857.4-466.2 857.4 468.5 723.3-468.5-723.3-468.6-723.4 468.6 723.4L103.9 962l723.4-468.5 723.3-468.6-723.3 468.6 567.4 658.5-567.4-658.5-567.5-658.6 567.5 658.6-658.6 567.4 658.6-567.4L1485.8-74 827.3 493.5l1999.1-509-1999.1 509-1999.1 508.9L827.3 493.5l508.9 1999.1L827.3 493.5l-509-1999.2 509 1999.2 755 521.4-755-521.4L72.2-28l755.1 521.5-521.5 755 521.5-755 521.4-755.1-521.4 755.1 680 461.2-680-461.2-680-461.2 680 461.2-461.2 680 461.2-680 461.2-680-461.2 680 1418.4 813.6L827.3 493.5-591.2-320.2 827.3 493.5 13.6 1911.9 827.3 493.5 1640.9-925 827.3 493.5l245.1 59.5-245.1-59.5-245.2-59.6 245.2 59.6-59.6 245.1 59.6-245.1 59.5-245.2-59.5 245.2 1150.4 1013.8L827.3 493.5-323.2-520.3 827.3 493.5-186.5 1643.9 827.3 493.5 1841.1-657 827.3 493.5l2020.6 1018.9L827.3 493.5-1193.3-525.4 827.3 493.5-191.6 2514.1 827.3 493.5l1018.9-2020.6L827.3 493.5l1622 127.6-1622-127.6-1622.1-127.7L827.3 493.5l-127.6 1622 127.6-1622 127.6-1622.1L827.3 493.5l63.6-24.8-63.6 24.8-63.6 24.8 63.6-24.8 24.8 63.6-24.8-63.6-24.8-63.6"/></g></svg>