<svg xmlns="http://www.w3.org/2000/svg" width="4042.1" height="4042.1"><defs><style>.c{fill:none}</style><radialGradient id="a" cx="2021.04" cy="2021.04" r="922.35" gradientUnits="userSpaceOnUse"><stop offset="0" stop-color="#200"/><stop offset=".73" stop-color="#984023"/><stop offset="1" stop-color="#200"/></radialGradient><radialGradient id="b" cx="2021.04" cy="2021.04" r="461.18" gradientUnits="userSpaceOnUse"><stop offset=".15" stop-color="#fff"/><stop offset=".21" stop-color="#e5d3d3"/><stop offset=".29" stop-color="#c49c9e"/><stop offset=".36" stop-color="#ad7477"/><stop offset=".42" stop-color="#9e5c5f"/><stop offset=".45" stop-color="#995356"/><stop offset=".57" stop-color="#6b3335"/><stop offset=".69" stop-color="#431718"/><stop offset=".79" stop-color="#2b0606"/><stop offset=".85" stop-color="#200"/><stop offset=".86" stop-color="#260201"/><stop offset=".86" stop-color="#330704"/><stop offset=".87" stop-color="#471009"/><stop offset=".88" stop-color="#641d0f"/><stop offset=".89" stop-color="#8a2e18"/><stop offset=".9" stop-color="#b74223"/><stop offset=".9" stop-color="#d34e29"/><stop offset=".9" stop-color="#c84927"/><stop offset=".91" stop-color="#9c361c"/><stop offset=".93" stop-color="#772514"/><stop offset=".94" stop-color="#58180c"/><stop offset=".95" stop-color="#400d07"/><stop offset=".97" stop-color="#2f0603"/><stop offset=".98" stop-color="#250101"/><stop offset="1" stop-color="#200"/></radialGradient><radialGradient id="c" cx="2021.04" cy="2021.04" r="384.31" gradientUnits="userSpaceOnUse"><stop offset=".15" stop-color="#fff"/><stop offset=".28" stop-color="#c2c2c2"/><stop offset=".43" stop-color="#888"/><stop offset=".56" stop-color="#575757"/><stop offset=".69" stop-color="#313131"/><stop offset=".81" stop-color="#161616"/><stop offset=".92" stop-color="#060606"/><stop offset="1"/></radialGradient></defs><g style="isolation:isolate"><path fill="#3fa9f5" d="M1871.2 1097.7h1716.9v1103.9H1871.2z"/><path class="c" d="M2021 2021l335.1-316.8"/><circle class="c" cx="2021" cy="2021" r="384.3"/><circle class="c" cx="2021" cy="2021" r="461.2"/><path class="c" d="M2021 2021l1891.4-526.7L2021 2021 129.6 2547.8 2021 2021l526.8 1891.4L2021 2021 1494.3 129.6 2021 2021l633.1 13.9L2021 2021l-633-13.8 633 13.8-13.8 633.1L2021 2021l13.9-633-13.9 633 1144-43.5-1144 43.5-1143.9 43.6L2021 2021l43.6 1144-43.6-1144-43.5-1143.9L2021 2021l857.4 466.2L2021 2021l-857.3-466.2L2021 2021l-466.2 857.4L2021 2021l466.2-857.3L2021 2021l468.6 723.4L2021 2021l-468.5-723.3L2021 2021l-723.3 468.6L2021 2021l723.4-468.5L2021 2021l567.5 658.6L2021 2021l-567.4-658.5L2021 2021l-658.5 567.5L2021 2021l658.6-567.4L2021 2021l1999.2-508.9L2021 2021 21.9 2530 2021 2021l509 1999.2L2021 2021 1512.1 21.9 2021 2021l755.1 521.5L2021 2021l-755-521.4 755 521.4-521.4 755.1L2021 2021l521.5-755-521.5 755 680.1 461.2L2021 2021l-680-461.2 680 461.2-461.2 680.1L2021 2021l461.2-680-461.2 680 1418.5 813.7L2021 2021 602.6 1207.4 2021 2021l-813.6 1418.5L2021 2021l813.7-1418.4L2021 2021l245.2 59.6L2021 2021l-245.1-59.5L2021 2021l-59.5 245.2L2021 2021l59.6-245.1L2021 2021l1150.5 1013.8L2021 2021 870.6 1007.3 2021 2021 1007.3 3171.5 2021 2021 3034.8 870.6 2021 2021l2020.6 1019L2021 2021 .5 1002.1 2021 2021 1002.1 4041.6 2021 2021 3040 .5 2021 2021l1622.1 127.7L2021 2021 399 1893.4 2021 2021l-127.6 1622.1L2021 2021l127.7-1622L2021 2021l63.6-24.8-63.6 24.8-63.6 24.8 63.6-24.8 24.8 63.6-24.8-63.6-24.8-63.6"/><circle cx="2021" cy="2021" r="922.4" style="mix-blend-mode:screen" opacity=".15" fill="url(#a)"/><circle cx="2021" cy="2021" r="461.2" style="mix-blend-mode:screen" opacity=".5" fill="url(#b)"/><circle cx="2021" cy="2021" r="384.3" style="mix-blend-mode:screen" fill="url(#c)"/><path style="mix-blend-mode:screen" stroke="#fff" stroke-miterlimit="10" stroke-width="2" opacity=".03" fill="none" d="M2021 2021l1891.4-526.7L2021 2021 129.6 2547.8 2021 2021l526.8 1891.4L2021 2021 1494.3 129.6 2021 2021l633.1 13.9L2021 2021l-633-13.8 633 13.8-13.8 633.1L2021 2021l13.9-633-13.9 633 1144-43.5-1144 43.5-1143.9 43.6L2021 2021l43.6 1144-43.6-1144-43.5-1143.9L2021 2021l857.4 466.2L2021 2021l-857.3-466.2L2021 2021l-466.2 857.4L2021 2021l466.2-857.3L2021 2021l468.6 723.4L2021 2021l-468.5-723.3L2021 2021l-723.3 468.6L2021 2021l723.4-468.5L2021 2021l567.5 658.6L2021 2021l-567.4-658.5L2021 2021l-658.5 567.5L2021 2021l658.6-567.4L2021 2021l1999.2-508.9L2021 2021 21.9 2530 2021 2021l509 1999.2L2021 2021 1512.1 21.9 2021 2021l755.1 521.5L2021 2021l-755-521.4 755 521.4-521.4 755.1L2021 2021l521.5-755-521.5 755 680.1 461.2L2021 2021l-680-461.2 680 461.2-461.2 680.1L2021 2021l461.2-680-461.2 680 1418.5 813.7L2021 2021 602.6 1207.4 2021 2021l-813.6 1418.5L2021 2021l813.7-1418.4L2021 2021l245.2 59.6L2021 2021l-245.1-59.5L2021 2021l-59.5 245.2L2021 2021l59.6-245.1L2021 2021l1150.5 1013.8L2021 2021 870.6 1007.3 2021 2021 1007.3 3171.5 2021 2021 3034.8 870.6 2021 2021l2020.6 1019L2021 2021 .5 1002.1 2021 2021 1002.1 4041.6 2021 2021 3040 .5 2021 2021l1622.1 127.7L2021 2021 399 1893.4 2021 2021l-127.6 1622.1L2021 2021l127.7-1622L2021 2021l63.6-24.8-63.6 24.8-63.6 24.8 63.6-24.8 24.8 63.6-24.8-63.6-24.8-63.6"/></g></svg>