<svg xmlns="http://www.w3.org/2000/svg" width="1667.5" height="1036.4" viewBox="0 0 1667.5 1036.4"><defs><style>.a{opacity:0.08;}.b{fill:#fff;}</style></defs><title>hero-fg-02-01</title><g class="a"><circle class="b" cx="1462.1" cy="701.7" r="76.5"/></g><g class="a"><circle class="b" cx="1273.4" cy="795.9" r="50.2"/></g><g class="a"><circle class="b" cx="1265.1" cy="673.1" r="21.3"/></g><g class="a"><circle class="b" cx="1318" cy="573.6" r="12.3"/></g><g class="a"><circle class="b" cx="1630.2" cy="554.9" r="21"/></g><g class="a"><circle class="b" cx="1630.7" cy="667.6" r="3.2"/></g><g class="a"><circle class="b" cx="1642" cy="727.5" r="14.5"/></g><g class="a"><circle class="b" cx="1592.9" cy="834.5" r="16.3"/></g><g class="a"><circle class="b" cx="1575.2" cy="965.3" r="28.6"/></g><g class="a"><circle class="b" cx="1447.5" cy="902" r="31.3"/></g><g class="a"><circle class="b" cx="1132.3" cy="718" r="8.3"/></g><g class="a"><circle class="b" cx="1135.7" cy="608.2" r="29"/></g><g class="a"><circle class="b" cx="944.3" cy="673.7" r="33.3"/></g><g class="a"><circle class="b" cx="953" cy="818.2" r="24.6"/></g><g class="a"><circle class="b" cx="1081.1" cy="927.6" r="9"/></g><g class="a"><circle class="b" cx="1260.3" cy="931.8" r="13.1"/></g><g class="a"><circle class="b" cx="888.7" cy="990.2" r="36.3"/></g><g class="a"><circle class="b" cx="840.5" cy="842.8" r="14.6"/></g><g class="a"><circle class="b" cx="813.9" cy="649.1" r="12"/></g><g class="a"><circle class="b" cx="895.4" cy="505.7" r="10.3"/></g><g class="a"><circle class="b" cx="678" cy="704.8" r="76.5"/></g><g class="a"><circle class="b" cx="489.3" cy="798.9" r="50.2"/></g><g class="a"><circle class="b" cx="481" cy="676.1" r="21.3"/></g><g class="a"><circle class="b" cx="533.9" cy="576.6" r="12.3"/></g><g class="a"><circle class="b" cx="846.1" cy="558" r="21"/></g><g class="a"><circle class="b" cx="846.6" cy="670.6" r="3.2"/></g><g class="a"><circle class="b" cx="857.9" cy="730.5" r="14.5"/></g><g class="a"><circle class="b" cx="808.8" cy="837.5" r="16.3"/></g><g class="a"><circle class="b" cx="791.2" cy="968.3" r="28.6"/></g><g class="a"><circle class="b" cx="663.4" cy="905.1" r="31.3"/></g><g class="a"><circle class="b" cx="348.2" cy="721.1" r="8.3"/></g><g class="a"><circle class="b" cx="351.6" cy="611.2" r="29"/></g><g class="a"><circle class="b" cx="160.2" cy="676.8" r="33.3"/></g><g class="a"><circle class="b" cx="168.9" cy="821.2" r="24.6"/></g><g class="a"><circle class="b" cx="297" cy="930.7" r="9"/></g><g class="a"><circle class="b" cx="476.2" cy="934.8" r="13.1"/></g><g class="a"><circle class="b" cx="104.7" cy="993.3" r="36.3"/></g><g class="a"><circle class="b" cx="56.4" cy="845.9" r="14.6"/></g><g class="a"><circle class="b" cx="29.8" cy="652.2" r="12"/></g><g class="a"><circle class="b" cx="111.3" cy="508.8" r="10.3"/></g><g class="a"><circle class="b" cx="1457.9" cy="217.3" r="77.1"/></g><g class="a"><circle class="b" cx="1267.9" cy="312.1" r="50.6"/></g><g class="a"><circle class="b" cx="1259.5" cy="188.5" r="21.4"/></g><g class="a"><circle class="b" cx="1312.8" cy="88.3" r="12.4"/></g><g class="a"><circle class="b" cx="1627.1" cy="69.5" r="21.1"/></g><g class="a"><circle class="b" cx="1627.6" cy="182.9" r="3.2"/></g><g class="a"><circle class="b" cx="1639" cy="243.2" r="14.6"/></g><g class="a"><circle class="b" cx="1589.6" cy="351" r="16.4"/></g><g class="a"><circle class="b" cx="1571.8" cy="482.7" r="28.8"/></g><g class="a"><circle class="b" cx="1443.1" cy="419" r="31.5"/></g><g class="a"><circle class="b" cx="1125.8" cy="233.7" r="8.4"/></g><g class="a"><circle class="b" cx="1129.1" cy="123.1" r="29.2"/></g><g class="a"><circle class="b" cx="936.4" cy="189.1" r="33.5"/></g><g class="a"><circle class="b" cx="945.1" cy="334.6" r="24.8"/></g><g class="a"><circle class="b" cx="1074.2" cy="444.8" r="9"/></g><g class="a"><circle class="b" cx="1254.7" cy="449" r="13.2"/></g><g class="a"><circle class="b" cx="880.5" cy="507.8" r="36.5"/></g><g class="a"><circle class="b" cx="831.9" cy="359.4" r="14.7"/></g><g class="a"><circle class="b" cx="805.1" cy="164.3" r="12.1"/></g><g class="a"><circle class="b" cx="887.2" cy="19.9" r="10.4"/></g><g class="a"><circle class="b" cx="668.3" cy="220.4" r="77.1"/></g><g class="a"><circle class="b" cx="478.3" cy="315.2" r="50.6"/></g><g class="a"><circle class="b" cx="469.9" cy="191.5" r="21.4"/></g><g class="a"><circle class="b" cx="523.2" cy="91.3" r="12.4"/></g><g class="a"><circle class="b" cx="837.5" cy="72.6" r="21.1"/></g><g class="a"><circle class="b" cx="838" cy="186" r="3.2"/></g><g class="a"><circle class="b" cx="849.4" cy="246.3" r="14.6"/></g><g class="a"><circle class="b" cx="800" cy="354.1" r="16.4"/></g><g class="a"><circle class="b" cx="782.2" cy="485.8" r="28.8"/></g><g class="a"><circle class="b" cx="653.5" cy="422.1" r="31.5"/></g><g class="a"><circle class="b" cx="336.2" cy="236.8" r="8.4"/></g><g class="a"><circle class="b" cx="339.5" cy="126.2" r="29.2"/></g><g class="a"><circle class="b" cx="146.8" cy="192.2" r="33.5"/></g><g class="a"><circle class="b" cx="155.5" cy="337.7" r="24.8"/></g><g class="a"><circle class="b" cx="284.6" cy="447.9" r="9"/></g><g class="a"><circle class="b" cx="465.1" cy="452.1" r="13.2"/></g><g class="a"><circle class="b" cx="90.8" cy="510.9" r="36.5"/></g><g class="a"><circle class="b" cx="42.3" cy="362.5" r="14.7"/></g><g class="a"><circle class="b" cx="15.4" cy="167.4" r="12.1"/></g><g class="a"><circle class="b" cx="97.6" cy="23" r="10.4"/></g></svg>