<svg xmlns="http://www.w3.org/2000/svg" width="1667.5" height="1036.4"><defs><style>.a{opacity:.08}.b{fill:#fff}</style></defs><g class="a"><circle class="b" cx="1288.3" cy="402.6" r="149.4"/></g><g class="a"><circle class="b" cx="920.1" cy="586.4" r="98.1"/></g><g class="a"><circle class="b" cx="903.9" cy="346.8" r="41.6"/></g><g class="a"><circle class="b" cx="1007.1" cy="152.6" r="24"/></g><g class="a"><circle class="b" cx="1616.2" cy="116.2" r="40.9"/></g><g class="a"><circle class="b" cx="1617.2" cy="336" r="6.2"/></g><g class="a"><circle class="b" cx="1639.3" cy="452.9" r="28.2"/></g><g class="a"><circle class="b" cx="1543.5" cy="661.7" r="31.8"/></g><g class="a"><circle class="b" cx="1509.1" cy="916.9" r="55.8"/></g><g class="a"><circle class="b" cx="1259.7" cy="793.5" r="61"/></g><g class="a"><circle class="b" cx="644.8" cy="434.4" r="16.2"/></g><g class="a"><circle class="b" cx="651.3" cy="220.1" r="56.5"/></g><g class="a"><circle class="b" cx="277.9" cy="348.1" r="64.9"/></g><g class="a"><circle class="b" cx="294.8" cy="629.9" r="48.1"/></g><g class="a"><circle class="b" cx="544.8" cy="843.5" r="17.5"/></g><g class="a"><circle class="b" cx="894.6" cy="851.5" r="25.6"/></g><g class="a"><circle class="b" cx="169.5" cy="965.6" r="70.8"/></g><g class="a"><circle class="b" cx="75.3" cy="677.9" r="28.6"/></g><g class="a"><circle class="b" cx="23.4" cy="300" r="23.4"/></g><g class="a"><circle class="b" cx="182.5" cy="20.1" r="20.1"/></g></svg>