<svg xmlns="http://www.w3.org/2000/svg" width="514.7" height="194.7"><path d="M0 2.4A102 102 0 0 1 19.1.7c9.6 0 18.1 1.3 24 6.6s7 11 7 18.7c0 9.6-4.6 18.3-13.8 22.5v.3c6.1 2.4 9.2 8.1 10.9 17.7s4.1 21.1 5.7 24.4H34.7c-1.1-2.5-3.1-11.6-4.4-21.5S25.9 55.1 20 55.1h-2.5v35.8H0zm17.5 39.2h3c7.6 0 12-6.1 12-14s-3-13.1-10.9-13.3a12.1 12.1 0 0 0-4.1.5zM80.1 1.1v89.8H62.7V1.1zm15.6 0h17.5v40.4h.2c1.5-3.8 3-7.8 4.4-11.6l12-28.8H149l-20.1 39 20.4 50.8h-19.1l-13-37.2-4 7.4v29.8H95.7zm61.2 0h17.5v40.4h.2c1.5-3.8 3-7.8 4.4-11.6l12-28.8h19.2l-20.1 39 20.4 50.8h-19.1l-13-37.2-4 7.4v29.8h-17.5z" fill="#2ab7ca"/><path d="M269.4 44.4c0 33.8-12 47.6-29.1 47.6C220 92 212 70.4 212 45.7S221.7 0 241.5 0c21.8 0 27.9 23.9 27.9 44.4zM230.1 46c0 20.4 3.8 30.8 10.9 30.8s10.1-13.3 10.1-31.6c0-15.7-2.4-30-10.2-30S230.1 26.7 230.1 46zm100.2 42.5c-3.8 1.6-12.1 3.2-18.6 3.2-10.3 0-18-2.9-24-8.9-7.8-7.5-11.9-20.8-11.6-36.3.4-32.6 19-46.2 38.1-46.2 6.8 0 11.9 1.3 14.7 2.6L325.8 18c-2.5-1.3-5.9-2-10.3-2-11.8 0-21.3 8.1-21.3 31.6 0 21.6 8.4 29.3 16.5 29.3a10.1 10.1 0 0 0 3.5-.4V54.8h-8V40.5h24.1zm13.1-86.1A78.5 78.5 0 0 1 361.1.7c11.3 0 19.2 2.6 24.9 8 7.8 6.9 11.8 18.8 11.8 36.2s-4.7 31.1-12.6 38c-6 5.9-14.9 8.7-27.4 8.7a127.9 127.9 0 0 1-14.4-1zM360.9 77a9.9 9.9 0 0 0 3 .3c8.4 0 15.7-8.3 15.7-33 0-18.4-4.8-29.6-15.3-29.6a9.4 9.4 0 0 0-3.4.4zm85.9-25.5h-20.5v24.2h23.2v15.2h-40.7V1.1h39.1v15.2h-21.6v20.6h20.5zm14.6 39.4V1.1h16l13.8 35.2c2.7 6.9 7.1 18.5 9.6 26.2h.3c-.5-9.4-1.7-25-1.7-41.6V1.1h15.3v89.8h-16L485 56.8c-3-7.6-7.1-18.9-9.1-27.1h-.3c.4 9.1 1.1 23 1.1 40.9v20.3z" fill="#d62246"/><path d="M117.4 190.6a59.3 59.3 0 0 1-21.7 4.1c-11.8 0-21.3-3.8-28.8-11.4s-11.1-17.5-11.1-29.8 4-24.1 12.1-32.2 18.2-12.2 30.6-12.2a56.8 56.8 0 0 1 18.9 3.1v6a47.2 47.2 0 0 0-19-3.9c-10.8 0-19.6 3.5-26.3 10.6S61.9 141.3 61.9 153s3.3 20.1 9.7 26.7 14.7 9.8 24.6 9.8a48.2 48.2 0 0 0 21.2-4.5zm46.9-50.9a10.8 10.8 0 0 0-6.5-1.9c-4.8 0-8.9 2.4-12.1 7.2s-4.9 11.6-4.9 20.5v27.8h-5.4v-59.1h5.4v13.1h.2a21.6 21.6 0 0 1 6.6-10.5 15.9 15.9 0 0 1 10.6-3.8 16.6 16.6 0 0 1 6.1 1zm10.4 24.2c0 8.2 2 14.5 5.9 19.1s9.2 6.9 16 6.9 13.6-2.5 20.1-7.4v5.7a36.9 36.9 0 0 1-21.2 6.5c-7.9 0-14.3-2.7-19.2-8.2s-7.3-13.2-7.3-23.1 2.5-15.9 7.6-21.8a25.1 25.1 0 0 1 19.9-8.9c7.6 0 13.5 2.6 17.5 7.7s6.2 12.2 6.2 21.2v2.3zm39.7-4.8q-.3-10.2-5.1-15.9c-3.1-3.8-7.5-5.6-13.1-5.6s-10.5 1.8-14.2 5.5-6.2 9.1-7 16zm57.7 34.2v-11.9h-.3a23 23 0 0 1-21 13.3c-5.8 0-10.4-1.6-13.8-4.7a15.8 15.8 0 0 1-5.1-12c0-10.3 7.1-16.5 21.3-18.7l18.9-2.7c0-12.7-5-19-14.9-19-6.8 0-13.3 2.6-19.7 7.8V139a30.3 30.3 0 0 1 9.2-4.4 34.9 34.9 0 0 1 11-1.9q9.4 0 14.7 5.7c3.4 3.7 5.2 9.2 5.2 16.4v38.5zm-16.9-29.5c-6.5.9-11 2.3-13.6 4.3s-3.9 5.2-3.9 9.7a11.5 11.5 0 0 0 3.6 8.7c2.5 2.2 5.8 3.4 10.1 3.4a19 19 0 0 0 14.8-6.4c3.9-4.2 5.9-9.6 5.9-16.3v-5.7zm65.1 28.7a19.8 19.8 0 0 1-8.1 1.9c-9.1 0-13.6-5.2-13.6-15.7V139h-11v-4.8h11v-15.4l2.8-.9 2.7-.9v17.2h16.2v4.8h-16.2v39c0 4.1.7 7.1 2 8.9s3.6 2.7 6.8 2.7a15.8 15.8 0 0 0 7.4-2.1zm14.9-73.2a4.8 4.8 0 0 1-3.2-1.3 4.3 4.3 0 0 1-1.4-3.2 4 4 0 0 1 1.4-3.1 4.9 4.9 0 0 1 3.2-1.2 5.2 5.2 0 0 1 3.2 1.1 3.7 3.7 0 0 1 1.4 3.2 4.2 4.2 0 0 1-1.3 3.1 4.9 4.9 0 0 1-3.3 1.4zm-2.7 74v-59.1h5.5v59.1zm45.3 0h-5.1L349 134.2h6.2l18.3 47a37.6 37.6 0 0 1 1.8 6.2h.3a41 41 0 0 1 1.7-6l18.9-47.2h6zm36.8-29.4c0 8.2 1.9 14.5 5.8 19.1s9.2 6.9 16 6.9 13.6-2.5 20.2-7.4v5.7a37.4 37.4 0 0 1-21.3 6.5c-7.9 0-14.3-2.7-19.2-8.2s-7.3-13.2-7.3-23.1 2.6-15.9 7.7-21.8 11.7-8.9 19.8-8.9 13.5 2.6 17.6 7.7 6.1 12.2 6.1 21.2v2.3zm39.6-4.8q-.3-10.2-5.1-15.9c-3.1-3.8-7.5-5.6-13-5.6a19.5 19.5 0 0 0-14.3 5.5c-3.8 3.7-6.1 9.1-7 16z" fill="#e6e6ea"/></svg>