<svg xmlns="http://www.w3.org/2000/svg" xmlns:xlink="http://www.w3.org/1999/xlink" width="1559.6" height="1031.2" viewBox="0 0 1559.6 1031.2"><defs><style>.a,.b{opacity:0.35;}.a{fill:url(#a);}.b{fill:url(#be);}</style><radialGradient id="a" cx="718.77" cy="971.44" r="946.75" gradientUnits="userSpaceOnUse"><stop offset="0" stop-color="#fff" stop-opacity="0.7"/><stop offset="1" stop-color="#fff" stop-opacity="0.03"/></radialGradient><radialGradient id="be" cx="718.77" cy="971.44" r="946.5" xlink:href="#a"/></defs><title>starfield</title><polygon class="a" points="127.7 404 119.6 382.6 107.5 402.1 84.7 403.2 99.5 420.7 93.4 442.7 114.6 434.1 133.8 446.6 132.1 423.8 149.9 409.5 127.7 404"/><polygon class="a" points="77.8 322.7 87.8 309.1 104.7 309.5 94.7 295.9 100.4 279.9 84.3 285.1 70.9 274.9 70.9 291.7 57 301.3 73.1 306.5 77.8 322.7"/><polygon class="a" points="154.3 291.8 149.9 308.1 165.5 301.7 179.6 311 178.3 294.1 191.5 283.6 175.1 279.5 169.1 263.8 160.2 278.1 143.4 279 154.3 291.8"/><polygon class="a" points="266.7 273.3 246.7 284.4 267.7 293.6 272 316 287.2 298.9 309.9 301.7 298.3 282 308 261.2 285.7 266.2 268.9 250.6 266.7 273.3"/><polygon class="a" points="353.9 184.1 354.3 164.9 338.8 176.3 320.5 170 326.6 188.3 315 203.7 334.3 203.5 345.3 219.4 351.1 201 369.6 195.4 353.9 184.1"/><polygon class="a" points="342.3 922.9 333.3 911.9 330 925.7 316.8 930.9 328.9 938.3 329.7 952.5 340.5 943.2 354.3 946.8 348.8 933.7 356.5 921.8 342.3 922.9"/><polygon class="a" points="205.7 42.3 213.8 54 218.2 40.5 231.8 36.3 220.2 28.1 220.5 13.8 209 22.3 195.6 17.6 200.1 31.1 191.5 42.4 205.7 42.3"/><polygon class="a" points="176 914.9 157 918.3 143.5 904.5 140.8 923.7 123.6 932.3 141 940.7 143.9 959.8 157.2 945.9 176.3 949 167.2 932 176 914.9"/><polygon class="a" points="245.9 401.2 261.5 409.3 258.5 392 271 379.7 253.6 377.3 245.8 361.5 238.1 377.3 220.7 379.9 233.3 392.1 230.4 409.4 245.9 401.2"/><polygon class="a" points="265 488.4 271.6 499.6 276.4 487.5 289 484.7 279.1 476.4 280.3 463.5 269.3 470.4 257.4 465.3 260.6 477.8 252 487.6 265 488.4"/><polygon class="a" points="348 521.5 342.3 509.9 336.6 521.6 323.7 523.5 333 532.5 330.9 545.3 342.3 539.2 353.8 545.2 351.6 532.5 360.8 523.4 348 521.5"/><polygon class="a" points="352.6 415.7 352.5 398.1 338.6 408.9 321.9 403.5 327.8 420 317.5 434.3 335.1 433.8 345.4 448 350.4 431.1 367.1 425.6 352.6 415.7"/><polygon class="a" points="119.3 119.6 135.5 103.4 158 107.6 147.6 87.2 158.6 67.1 136 70.6 120.2 54 116.6 76.6 95.9 86.4 116.3 96.9 119.3 119.6"/><polygon class="a" points="175.8 208.7 192.3 204.9 204.8 216.2 206.2 199.4 220.9 191.1 205.3 184.5 201.9 168 190.8 180.7 174.1 178.9 182.8 193.3 175.8 208.7"/><polygon class="a" points="250.6 160 262.5 148.1 279.1 151.2 271.5 136.2 279.6 121.3 262.9 123.9 251.4 111.7 248.7 128.3 233.4 135.5 248.4 143.3 250.6 160"/><polygon class="a" points="316.2 80 337.9 72.7 356.2 86.4 355.9 63.5 374.6 50.3 352.8 43.5 346.1 21.6 332.8 40.3 309.9 40 323.6 58.3 316.2 80"/><polygon class="a" points="370.8 592.6 347.9 607.5 322.7 597.1 329.8 623.5 312.1 644.2 339.3 645.7 353.6 668.9 363.4 643.4 389.9 637 368.7 619.9 370.8 592.6"/><polygon class="a" points="253.5 719.8 244.2 701.9 235.7 720.1 215.8 723.4 230.5 737.1 227.4 757 245.1 747.4 263 756.4 259.3 736.6 273.4 722.3 253.5 719.8"/><polygon class="a" points="179.5 661.9 190 679 197.2 660.2 216.8 655.5 201.1 642.8 202.7 622.8 185.8 633.7 167.2 626.1 172.4 645.5 159.4 660.9 179.5 661.9"/><polygon class="a" points="128.2 517.2 118.1 491.9 104.1 515.3 76.9 517.2 94.9 537.7 88.2 564.1 113.3 553.3 136.4 567.9 133.9 540.7 154.8 523.2 128.2 517.2"/><polygon class="a" points="285.8 552.1 264.5 560.3 245.6 547.4 246.8 570.2 228.7 584.2 250.8 590.1 258.4 611.7 270.9 592.5 293.8 591.9 279.4 574.1 285.8 552.1"/><polygon class="a" points="177.4 460.7 169.8 453.5 168.8 464 159.6 469 169.2 473.2 171.2 483.5 178.1 475.7 188.5 476.9 183.2 467.9 187.7 458.4 177.4 460.7"/><polygon class="a" points="91.1 206 93.1 216.2 100 208.4 110.4 209.7 105.1 200.6 109.5 191.2 99.3 193.4 91.6 186.3 90.6 196.7 81.5 201.8 91.1 206"/><polygon class="a" points="347.3 338.7 354.7 346 356 335.6 365.3 330.8 355.9 326.4 354.1 316 347 323.7 336.6 322.1 341.7 331.3 337 340.6 347.3 338.7"/><polygon class="a" points="228.3 835.2 213.1 845.7 195.8 839.1 201.1 856.8 189.5 871.2 208 871.7 218.1 887.1 224.2 869.7 242.1 864.8 227.4 853.6 228.3 835.2"/><polygon class="a" points="64.4 893.1 57.8 881.1 52.4 893.6 39 896.2 49.2 905.3 47.5 918.8 59.3 911.9 71.6 917.7 68.7 904.4 78 894.4 64.4 893.1"/><polygon class="a" points="108.8 828 97.6 835.8 84.9 830.9 88.8 844 80.3 854.6 93.9 854.9 101.4 866.3 105.9 853.5 119 849.9 108.2 841.6 108.8 828"/><polygon class="a" points="157.8 745.6 148.8 761.7 130.4 763.5 143 777 138.9 795.1 155.7 787.3 171.6 796.7 169.4 778.3 183.3 766.1 165.1 762.5 157.8 745.6"/><polygon class="a" points="54.2 701.1 66.7 681.9 89.6 681.3 75.2 663.5 81.7 641.5 60.3 649.7 41.4 636.8 42.6 659.6 24.5 673.6 46.6 679.5 54.2 701.1"/><polygon class="a" points="48.8 457.4 43 445.8 37.3 457.5 24.5 459.4 33.8 468.4 31.6 481.2 43.1 475.1 54.5 481.1 52.3 468.3 61.6 459.3 48.8 457.4"/><polygon class="a" points="27 135.8 38.5 129.8 50 135.8 47.7 123 57 113.9 44.2 112.1 38.4 100.5 32.7 112.1 19.9 114 29.2 123 27 135.8"/><polygon class="a" points="32.8 382.4 50 379.6 37.3 367.6 40 350.4 24.7 358.7 9.1 350.8 12.3 368 0 380.3 17.3 382.6 25.3 398.1 32.8 382.4"/><polygon class="a" points="49.2 806.5 62.2 805.5 53.5 795.8 56.5 783.2 44.7 788.5 33.6 781.8 35 794.6 25.1 803.1 37.8 805.8 42.8 817.7 49.2 806.5"/><polygon class="a" points="351.4 771.1 331.9 785.8 308.8 778 316.7 801.1 302.2 820.7 326.5 820.3 340.7 840.2 347.8 816.8 371.1 809.5 351.2 795.5 351.4 771.1"/><polygon class="a" points="50.7 33.8 59.3 49.5 66.5 33.1 84.2 29.7 70.8 17.8 73.1 0 57.6 9 41.4 1.4 45.1 18.9 32.9 31.9 50.7 33.8"/><polygon class="a" points="652.1 585.8 660.2 607.2 672.3 587.7 695.1 586.6 680.3 569.2 686.4 547.1 665.2 555.7 646 543.2 647.7 566 629.9 580.3 652.1 585.8"/><polygon class="a" points="695.5 704.7 708.9 715 708.9 698.1 722.8 688.5 706.7 683.3 702 667.1 692 680.8 675.2 680.3 685.1 694 679.4 709.9 695.5 704.7"/><polygon class="a" points="625.5 698 630 681.7 614.3 688.1 600.2 678.9 601.5 695.7 588.3 706.3 604.7 710.3 610.7 726.1 619.6 711.7 636.4 710.9 625.5 698"/><polygon class="a" points="513.1 716.5 533.1 705.4 512.1 696.3 507.8 673.8 492.6 690.9 469.9 688.1 481.5 707.9 471.8 728.6 494.2 723.7 510.9 739.3 513.1 716.5"/><polygon class="a" points="445.5 786.3 434.5 770.5 428.7 788.9 410.2 794.5 425.9 805.7 425.5 825 441 813.5 459.3 819.9 453.2 801.6 464.8 786.2 445.5 786.3"/><polygon class="a" points="437.5 66.9 446.5 78 449.8 64.1 463 59 450.9 51.6 450.1 37.4 439.3 46.6 425.6 43 431 56.1 423.3 68.1 437.5 66.9"/><polygon class="a" points="574.1 947.5 566 935.8 561.6 949.4 548 953.5 559.6 961.8 559.3 976 570.8 967.6 584.2 972.2 579.7 958.7 588.3 947.4 574.1 947.5"/><polygon class="a" points="603.8 75 622.8 71.6 636.3 85.3 639 66.2 656.2 57.5 638.8 49.1 635.9 30 622.6 43.9 603.5 40.8 612.6 57.8 603.8 75"/><polygon class="a" points="534 628.3 541.7 612.5 559.1 609.9 546.5 597.7 549.4 580.4 533.9 588.6 518.3 580.5 521.3 597.8 508.8 610.1 526.2 612.6 534 628.3"/><polygon class="a" points="510.5 519.4 522.4 524.6 519.2 512 527.8 502.3 514.8 501.4 508.2 490.3 503.4 502.3 490.8 505.1 500.7 513.4 499.5 526.3 510.5 519.4"/><polygon class="a" points="431.8 468.3 437.5 479.9 443.3 468.3 456.1 466.4 446.8 457.3 448.9 444.6 437.5 450.6 426 444.6 428.2 457.4 419 466.4 431.8 468.3"/><polygon class="a" points="427.2 574.1 427.3 591.7 441.2 581 457.9 586.3 452 569.8 462.3 555.5 444.7 556 434.4 541.9 429.4 558.7 412.7 564.2 427.2 574.1"/><polygon class="a" points="660.6 870.3 644.3 886.4 621.8 882.2 632.2 902.6 621.2 922.7 643.8 919.2 659.6 935.8 663.2 913.2 683.9 903.4 663.5 893 660.6 870.3"/><polygon class="a" points="604 781.1 587.5 785 575 773.6 573.6 790.4 558.9 798.8 574.5 805.3 577.9 821.9 589 809.1 605.7 811 597 796.5 604 781.1"/><polygon class="a" points="529.2 829.8 517.3 841.7 500.7 838.6 508.3 853.7 500.2 868.5 516.9 865.9 528.4 878.2 531.1 861.5 546.4 854.3 531.4 846.6 529.2 829.8"/><polygon class="a" points="463.6 909.9 441.9 917.2 423.6 903.4 423.9 926.3 405.2 939.5 427 946.3 433.7 968.2 447 949.5 469.9 949.9 456.2 931.5 463.6 909.9"/><polygon class="a" points="409 397.2 431.9 382.3 457.1 392.7 450 366.4 467.7 345.6 440.5 344.2 426.2 320.9 416.4 346.4 389.9 352.8 411.1 370 409 397.2"/><polygon class="a" points="526.3 270.1 535.6 287.9 544.2 269.7 564 266.5 549.4 252.7 552.4 232.8 534.8 242.5 516.8 233.4 520.5 253.2 506.4 267.5 526.3 270.1"/><polygon class="a" points="600.3 328 589.8 310.8 582.6 329.6 563 334.4 578.7 347 577.1 367.1 594 356.1 612.6 363.8 607.4 344.3 620.4 329 600.3 328"/><polygon class="a" points="651.6 472.6 661.7 498 675.7 474.5 702.9 472.7 684.9 452.2 691.6 425.7 666.5 436.5 643.4 422 645.9 449.1 625 466.6 651.6 472.6"/><polygon class="a" points="494 437.7 515.3 429.5 534.2 442.5 533 419.6 551.2 405.7 529 399.7 521.4 378.2 508.9 397.4 486.1 398 500.5 415.8 494 437.7"/><polygon class="b" points="602.4 529.1 610 536.3 611 525.9 620.2 520.8 610.6 516.6 608.6 506.3 601.7 514.2 591.3 512.9 596.6 521.9 592.1 531.4 602.4 529.1"/><polygon class="a" points="688.7 783.9 686.7 773.6 679.8 781.4 669.4 780.2 674.7 789.2 670.3 798.7 680.5 796.4 688.2 803.6 689.2 793.1 698.3 788.1 688.7 783.9"/><polygon class="a" points="432.5 651.2 425.1 643.8 423.8 654.2 414.5 659 424 663.5 425.7 673.8 432.8 666.2 443.2 667.7 438.1 658.6 442.8 649.2 432.5 651.2"/><polygon class="a" points="551.5 154.7 566.7 144.1 584 150.7 578.7 133 590.3 118.6 571.8 118.2 561.7 102.7 555.6 120.1 537.7 125 552.4 136.2 551.5 154.7"/><polygon class="a" points="715.4 96.8 722 108.7 727.4 96.2 740.8 93.6 730.6 84.6 732.3 71 720.5 77.9 708.2 72.2 711.1 85.5 701.8 95.4 715.4 96.8"/><polygon class="a" points="671 161.8 682.2 154.1 694.9 158.9 691 145.8 699.5 135.2 685.9 134.9 678.4 123.5 673.9 136.4 660.8 140 671.6 148.2 671 161.8"/><polygon class="a" points="622.1 244.3 631 228.1 649.4 226.3 636.8 212.8 640.9 194.8 624.1 202.5 608.2 193.2 610.4 211.5 596.5 223.7 614.7 227.3 622.1 244.3"/><polygon class="a" points="733.2 310.3 725.6 288.8 713.1 308 690.2 308.6 704.6 326.4 698.2 348.3 719.5 340.1 738.4 353.1 737.2 330.2 755.3 316.3 733.2 310.3"/><polygon class="a" points="736.8 544 742.5 532.4 755.3 530.5 746 521.5 748.2 508.7 736.8 514.7 725.3 508.7 727.5 521.5 718.2 530.6 731.1 532.4 736.8 544"/><polygon class="a" points="752.8 854 741.3 860.1 729.8 854.1 732.1 866.8 722.8 875.9 735.6 877.7 741.4 889.3 747.1 877.7 759.9 875.8 750.6 866.8 752.8 854"/><polygon class="a" points="762.5 607.2 754.6 591.7 747.1 607.5 729.8 610.2 742.5 622.2 739.8 639.5 755.1 631.1 770.7 639 767.5 621.9 779.8 609.5 762.5 607.2"/><polygon class="a" points="730.6 183.3 717.6 184.4 726.3 194 723.3 206.6 735.1 201.3 746.2 208.1 744.8 195.2 754.7 186.8 742 184.1 737 172.1 730.6 183.3"/><polygon class="a" points="428.4 218.7 447.9 204.1 471 211.8 463.1 188.7 477.7 169.2 453.3 169.5 439.1 149.7 432 173 408.7 180.3 428.6 194.3 428.4 218.7"/><polygon class="a" points="729.1 956.1 720.5 940.4 713.3 956.8 695.6 960.1 709 972 706.7 989.8 722.2 980.8 738.4 988.5 734.7 971 747 957.9 729.1 956.1"/><polygon class="a" points="907.5 445.4 899.4 424 887.4 443.5 864.5 444.6 879.3 462 873.2 484.1 894.4 475.5 913.6 488 911.9 465.2 929.7 450.9 907.5 445.4"/><polygon class="a" points="857.7 364.1 867.6 350.4 884.5 350.9 874.6 337.2 880.2 321.3 864.1 326.5 850.7 316.2 850.7 333.1 836.8 342.7 852.9 347.9 857.7 364.1"/><polygon class="a" points="934.1 333.2 929.7 349.5 945.3 343.1 959.4 352.3 958.1 335.5 971.3 324.9 954.9 320.9 948.9 305.1 940 319.5 923.2 320.3 934.1 333.2"/><polygon class="a" points="1046.5 314.7 1026.5 325.8 1047.5 334.9 1051.8 357.4 1067 340.3 1089.7 343.1 1078.1 323.3 1087.8 302.6 1065.5 307.5 1048.7 291.9 1046.5 314.7"/><polygon class="a" points="1133.7 225.5 1134.1 206.2 1118.6 217.7 1100.3 211.3 1106.4 229.7 1094.8 245 1114.1 244.9 1125.1 260.7 1131 242.3 1149.4 236.7 1133.7 225.5"/><polygon class="a" points="1122.1 964.3 1113.1 953.2 1109.8 967.1 1096.6 972.2 1108.7 979.6 1109.5 993.8 1120.3 984.6 1134.1 988.2 1128.6 975.1 1136.3 963.1 1122.1 964.3"/><polygon class="a" points="985.5 83.7 993.6 95.4 998 81.8 1011.6 77.7 1000 69.4 1000.3 55.2 988.9 63.6 975.4 59 979.9 72.5 971.3 83.8 985.5 83.7"/><polygon class="a" points="955.8 956.2 936.8 959.6 923.3 945.9 920.6 965 903.4 973.7 920.8 982.1 923.7 1001.2 937 987.3 956.1 990.4 947 973.4 955.8 956.2"/><polygon class="a" points="1025.8 442.6 1041.3 450.7 1038.3 433.4 1050.8 421.1 1033.5 418.6 1025.6 402.9 1017.9 418.7 1000.5 421.3 1013.1 433.5 1010.2 450.8 1025.8 442.6"/><polygon class="a" points="1044.8 529.8 1051.4 540.9 1056.2 528.9 1068.8 526.1 1058.9 517.8 1060.1 504.9 1049.1 511.8 1037.2 506.6 1040.4 519.2 1031.8 528.9 1044.8 529.8"/><polygon class="a" points="1127.8 562.9 1122.1 551.3 1116.4 562.9 1103.5 564.8 1112.8 573.9 1110.7 586.6 1122.1 580.6 1133.6 586.6 1131.4 573.8 1140.7 564.8 1127.8 562.9"/><polygon class="a" points="1132.4 457.1 1132.3 439.5 1118.4 450.2 1101.7 444.9 1107.6 461.4 1097.3 475.7 1114.9 475.2 1125.2 489.3 1130.2 472.5 1146.9 467 1132.4 457.1"/><polygon class="a" points="899.1 160.9 915.3 144.8 937.8 149 927.4 128.6 938.4 108.5 915.8 112 900.1 95.4 896.4 118 875.7 127.8 896.1 138.2 899.1 160.9"/><polygon class="a" points="955.6 250.1 972.1 246.2 984.6 257.6 986 240.8 1000.7 232.4 985.1 225.9 981.7 209.3 970.7 222.1 953.9 220.2 962.6 234.7 955.6 250.1"/><polygon class="a" points="1030.4 201.4 1042.3 189.5 1058.9 192.6 1051.3 177.5 1059.4 162.7 1042.7 165.3 1031.2 153 1028.5 169.7 1013.2 176.9 1028.2 184.6 1030.4 201.4"/><polygon class="a" points="1096 121.3 1117.7 114 1136 127.8 1135.7 104.9 1154.5 91.7 1132.6 84.9 1125.9 63 1112.6 81.7 1089.7 81.3 1103.4 99.7 1096 121.3"/><polygon class="a" points="1150.6 634 1127.7 648.9 1102.5 638.5 1109.6 664.8 1091.9 685.6 1119.1 687 1133.4 710.3 1143.2 684.8 1169.7 678.4 1148.5 661.2 1150.6 634"/><polygon class="a" points="1033.3 761.1 1024 743.3 1015.5 761.5 995.6 764.7 1010.3 778.5 1007.2 798.4 1024.9 788.7 1042.8 797.8 1039.1 778 1053.2 763.7 1033.3 761.1"/><polygon class="a" points="959.3 703.2 969.9 720.4 977 701.6 996.6 696.8 980.9 684.2 982.5 664.1 965.6 675.1 947 667.4 952.2 686.9 939.2 702.2 959.3 703.2"/><polygon class="a" points="908 558.6 897.9 533.2 883.9 556.7 856.7 558.5 874.7 579 868 605.5 893.1 594.7 916.2 609.2 913.7 582.1 934.6 564.6 908 558.6"/><polygon class="a" points="1065.6 593.5 1044.3 601.7 1025.4 588.7 1026.6 611.6 1008.5 625.5 1030.6 631.5 1038.2 653 1050.7 633.8 1073.6 633.2 1059.2 615.4 1065.6 593.5"/><polygon class="a" points="957.2 502.1 949.6 494.9 948.6 505.3 939.4 510.4 949 514.6 951 524.9 958 517 968.3 518.3 963 509.3 967.5 499.8 957.2 502.1"/><polygon class="a" points="870.9 247.3 872.9 257.6 879.8 249.8 890.2 251 884.9 242 889.3 232.5 879.1 234.8 871.4 227.6 870.4 238.1 861.3 243.1 870.9 247.3"/><polygon class="a" points="1127.1 380 1134.5 387.4 1135.8 377 1145.1 372.2 1135.7 367.7 1134 357.4 1126.8 365.1 1116.4 363.5 1121.5 372.6 1116.8 382 1127.1 380"/><polygon class="a" points="1008.1 876.5 992.9 887.1 975.6 880.5 980.9 898.2 969.3 912.6 987.8 913 997.9 928.5 1004 911.1 1021.9 906.2 1007.2 895 1008.1 876.5"/><polygon class="a" points="844.3 934.4 837.7 922.5 832.2 935 818.8 937.6 829 946.6 827.3 960.2 839.1 953.3 851.4 959 848.5 945.7 857.8 935.8 844.3 934.4"/><polygon class="a" points="888.6 869.4 877.4 877.1 864.7 872.3 868.6 885.4 860.1 896 873.7 896.3 881.2 907.7 885.7 894.8 898.8 891.2 888 883 888.6 869.4"/><polygon class="a" points="937.6 786.9 928.6 803.1 910.2 804.9 922.8 818.4 918.7 836.4 935.5 828.7 951.4 838.1 949.2 819.7 963.1 807.5 944.9 803.9 937.6 786.9"/><polygon class="a" points="834 742.4 846.5 723.2 869.4 722.6 855 704.8 861.5 682.9 840.1 691.1 821.2 678.1 822.4 701 804.3 714.9 826.4 720.9 834 742.4"/><polygon class="a" points="828.6 498.8 822.8 487.2 817.1 498.8 804.3 500.7 813.6 509.7 811.4 522.5 822.9 516.5 834.3 522.5 832.1 509.7 841.4 500.6 828.6 498.8"/><polygon class="a" points="806.8 177.2 818.3 171.1 829.8 177.1 827.6 164.4 836.8 155.3 824 153.5 818.2 141.9 812.5 153.5 799.7 155.4 809 164.4 806.8 177.2"/><polygon class="a" points="812.6 423.7 829.8 421 817.1 409 819.8 391.7 804.5 400.1 788.9 392.2 792.1 409.3 779.8 421.7 797.1 424 805.1 439.5 812.6 423.7"/><polygon class="a" points="829 847.9 842 846.8 833.3 837.2 836.3 824.6 824.5 829.9 813.4 823.1 814.8 836 804.9 844.4 817.6 847.1 822.6 859.1 829 847.9"/><polygon class="a" points="1131.2 812.5 1111.7 827.1 1088.6 819.4 1096.5 842.5 1082 862 1106.3 861.7 1120.5 881.5 1127.7 858.2 1150.9 850.9 1131 836.9 1131.2 812.5"/><polygon class="a" points="830.5 75.1 839.1 90.9 846.4 74.4 864 71.1 850.6 59.2 852.9 41.4 837.4 50.4 821.2 42.7 825 60.3 812.7 73.3 830.5 75.1"/><polygon class="a" points="1431.9 627.2 1440 648.6 1452.1 629.1 1474.9 628 1460.2 610.5 1466.2 588.5 1445 597.1 1425.8 584.6 1427.5 607.4 1409.7 621.7 1431.9 627.2"/><polygon class="a" points="1475.3 746.1 1488.7 756.3 1488.7 739.5 1502.6 729.9 1486.6 724.7 1481.8 708.5 1471.8 722.1 1455 721.7 1464.9 735.3 1459.2 751.3 1475.3 746.1"/><polygon class="a" points="1405.3 739.4 1409.8 723.1 1394.1 729.5 1380 720.2 1381.3 737.1 1368.1 747.7 1384.5 751.7 1390.5 767.4 1399.4 753.1 1416.3 752.2 1405.3 739.4"/><polygon class="a" points="1292.9 757.9 1312.9 746.8 1291.9 737.6 1287.6 715.2 1272.4 732.3 1249.7 729.5 1261.3 749.2 1251.6 770 1274 765 1290.7 780.6 1292.9 757.9"/><polygon class="a" points="1225.3 827.7 1214.3 811.8 1208.5 830.2 1190 835.8 1205.7 847.1 1205.3 866.4 1220.9 854.9 1239.1 861.2 1233 842.9 1244.6 827.5 1225.3 827.7"/><polygon class="a" points="1217.3 108.3 1226.3 119.3 1229.6 105.5 1242.8 100.3 1230.7 92.9 1229.9 78.7 1219.1 88 1205.4 84.4 1210.8 97.5 1203.1 109.4 1217.3 108.3"/><polygon class="a" points="1353.9 988.9 1345.8 977.2 1341.5 990.7 1327.8 994.9 1339.4 1003.1 1339.1 1017.4 1350.6 1008.9 1364 1013.6 1359.5 1000.1 1368.1 988.8 1353.9 988.9"/><polygon class="a" points="1383.6 116.3 1402.6 112.9 1416.1 126.7 1418.8 107.5 1436 98.9 1418.7 90.5 1415.8 71.4 1402.4 85.3 1383.4 82.2 1392.4 99.2 1383.6 116.3"/><polygon class="a" points="1313.8 669.7 1321.5 653.9 1338.9 651.3 1326.3 639.1 1329.2 621.8 1313.7 630 1298.1 621.9 1301.1 639.2 1288.6 651.5 1306 653.9 1313.8 669.7"/><polygon class="a" points="1290.3 560.8 1302.2 565.9 1299 553.4 1307.6 543.6 1294.7 542.8 1288 531.6 1283.2 543.7 1270.6 546.5 1280.5 554.8 1279.3 567.7 1290.3 560.8"/><polygon class="a" points="1211.6 509.7 1217.3 521.3 1223.1 509.6 1235.9 507.7 1226.6 498.7 1228.8 485.9 1217.3 492 1205.8 486 1208 498.7 1198.8 507.8 1211.6 509.7"/><polygon class="a" points="1207 615.5 1207.1 633.1 1221 622.3 1237.7 627.7 1231.8 611.2 1242.1 596.9 1224.5 597.4 1214.2 583.2 1209.2 600.1 1192.5 605.6 1207 615.5"/><polygon class="a" points="1440.4 911.6 1424.1 927.8 1401.6 923.6 1412 944 1401 964.1 1423.6 960.6 1439.4 977.2 1443 954.6 1463.7 944.8 1443.3 934.3 1440.4 911.6"/><polygon class="a" points="1383.8 822.5 1367.3 826.3 1354.9 815 1353.4 831.8 1338.8 840.1 1354.3 846.7 1357.7 863.2 1368.8 850.5 1385.5 852.3 1376.8 837.9 1383.8 822.5"/><polygon class="a" points="1309 871.2 1297.1 883.1 1280.5 880 1288.1 895 1280 909.9 1296.7 907.3 1308.3 919.5 1311 902.9 1326.2 895.7 1311.2 887.9 1309 871.2"/><polygon class="a" points="1243.4 951.2 1221.7 958.5 1203.4 944.8 1203.7 967.7 1185 980.9 1206.8 987.7 1213.5 1009.6 1226.8 990.9 1249.7 991.3 1236 972.9 1243.4 951.2"/><polygon class="a" points="1188.8 438.6 1211.7 423.7 1236.9 434.1 1229.8 407.7 1247.6 387 1220.3 385.5 1206 362.3 1196.2 387.8 1169.7 394.2 1190.9 411.3 1188.8 438.6"/><polygon class="a" points="1306.1 311.4 1315.4 329.3 1324 311.1 1343.8 307.8 1329.2 294.1 1332.2 274.2 1314.6 283.8 1296.6 274.8 1300.3 294.6 1286.2 308.9 1306.1 311.4"/><polygon class="a" points="1380.1 369.3 1369.6 352.2 1362.4 371 1342.8 375.7 1358.5 388.4 1356.9 408.4 1373.8 397.5 1392.4 405.1 1387.2 385.7 1400.2 370.3 1380.1 369.3"/><polygon class="a" points="1431.4 514 1441.5 539.3 1455.5 515.9 1482.7 514 1464.7 493.5 1471.4 467.1 1446.3 477.9 1423.2 463.3 1425.7 490.5 1404.8 508 1431.4 514"/><polygon class="a" points="1273.8 479.1 1295.1 470.9 1314 483.8 1312.8 461 1331 447 1308.9 441.1 1301.2 419.5 1288.7 438.7 1265.9 439.3 1280.3 457.1 1273.8 479.1"/><polygon class="a" points="1382.2 570.5 1389.8 577.7 1390.8 567.2 1400 562.2 1390.4 558 1388.4 547.7 1381.5 555.5 1371.1 554.3 1376.4 563.3 1372 572.8 1382.2 570.5"/><polygon class="a" points="1468.5 825.2 1466.5 815 1459.6 822.8 1449.2 821.5 1454.5 830.6 1450.1 840 1460.3 837.8 1468 844.9 1469 834.5 1478.1 829.4 1468.5 825.2"/><polygon class="a" points="1212.3 692.5 1204.9 685.2 1203.6 695.6 1194.3 700.4 1203.8 704.8 1205.5 715.2 1212.6 707.5 1223 709.1 1217.9 699.9 1222.6 690.6 1212.3 692.5"/><polygon class="a" points="1331.3 196 1346.5 185.5 1363.8 192.1 1358.5 174.4 1370.1 160 1351.6 159.5 1341.5 144.1 1335.4 161.5 1317.5 166.4 1332.2 177.6 1331.3 196"/><polygon class="a" points="1495.2 138.1 1501.8 150.1 1507.2 137.6 1520.6 135 1510.4 125.9 1512.1 112.4 1500.3 119.3 1488 113.5 1490.9 126.8 1481.6 136.8 1495.2 138.1"/><polygon class="a" points="1450.8 203.2 1462 195.4 1474.7 200.3 1470.8 187.2 1479.3 176.6 1465.7 176.3 1458.2 164.9 1453.7 177.8 1440.6 181.3 1451.4 189.6 1450.8 203.2"/><polygon class="a" points="1401.9 285.6 1410.8 269.5 1429.2 267.7 1416.7 254.2 1420.7 236.1 1403.9 243.9 1388 234.5 1390.2 252.9 1376.4 265.1 1394.5 268.7 1401.9 285.6"/><polygon class="a" points="1513 351.7 1505.4 330.1 1492.9 349.3 1470.1 349.9 1484.5 367.7 1478 389.7 1499.3 381.5 1518.2 394.4 1517 371.6 1535.1 357.6 1513 351.7"/><polygon class="a" points="1516.6 585.4 1522.3 573.7 1535.1 571.9 1525.9 562.8 1528 550 1516.6 556.1 1505.1 550.1 1507.3 562.9 1498 571.9 1510.9 573.8 1516.6 585.4"/><polygon class="a" points="1532.6 895.4 1521.1 901.4 1509.6 895.4 1511.9 908.2 1502.6 917.3 1515.4 919.1 1521.2 930.7 1526.9 919.1 1539.7 917.2 1530.4 908.2 1532.6 895.4"/><polygon class="a" points="1559.6 650.9 1542.3 648.6 1534.4 633.1 1526.9 648.8 1509.6 651.6 1522.3 663.6 1519.6 680.8 1534.9 672.5 1550.5 680.4 1547.3 663.2 1559.6 650.9"/><polygon class="a" points="1510.4 224.7 1497.5 225.7 1506.1 235.4 1503.1 248 1515 242.7 1526 249.5 1524.7 236.6 1534.5 228.1 1521.8 225.4 1516.8 213.5 1510.4 224.7"/><polygon class="a" points="1208.2 260.1 1227.7 245.4 1250.8 253.2 1242.9 230.1 1257.5 210.5 1233.1 210.9 1218.9 191 1211.8 214.4 1188.5 221.7 1208.5 235.7 1208.2 260.1"/><polygon class="a" points="1508.9 997.4 1500.3 981.7 1493.1 998.1 1475.4 1001.5 1488.8 1013.4 1486.5 1031.2 1502 1022.2 1518.2 1029.8 1514.5 1012.3 1526.8 999.3 1508.9 997.4"/></svg>