<svg xmlns="http://www.w3.org/2000/svg" xmlns:xlink="http://www.w3.org/1999/xlink" width="1559.6" height="1031.2"><defs><style>.a{opacity:.35;fill:url(#a)}</style><radialGradient id="a" cx="718.77" cy="971.44" r="946.75" gradientUnits="userSpaceOnUse"><stop offset="0" stop-color="#fff" stop-opacity=".7"/><stop offset="1" stop-color="#fff" stop-opacity=".03"/></radialGradient><radialGradient id="be" cx="718.77" cy="971.44" r="946.5" xlink:href="#a"/></defs><path class="a" d="M127.7 404l-8.1-21.4-12.1 19.5-22.8 1.1 14.8 17.5-6.1 22 21.2-8.6 19.2 12.5-1.7-22.8 17.8-14.3-22.2-5.5zm-49.9-81.3l10-13.6 16.9.4-10-13.6 5.7-16-16.1 5.2-13.4-10.2v16.8L57 301.3l16.1 5.2 4.7 16.2zm76.5-30.9l-4.4 16.3 15.6-6.4 14.1 9.3-1.3-16.9 13.2-10.5-16.4-4.1-6-15.7-8.9 14.3-16.8.9 10.9 12.8zm112.4-18.5l-20 11.1 21 9.2L272 316l15.2-17.1 22.7 2.8-11.6-19.7 9.7-20.8-22.3 5-16.8-15.6-2.2 22.7zm87.2-89.2l.4-19.2-15.5 11.4-18.3-6.3 6.1 18.3-11.6 15.4 19.3-.2 11 15.9 5.8-18.4 18.5-5.6-15.7-11.3zm-11.6 738.8l-9-11-3.3 13.8-13.2 5.2 12.1 7.4.8 14.2 10.8-9.3 13.8 3.6-5.5-13.1 7.7-11.9-14.2 1.1zM205.7 42.3l8.1 11.7 4.4-13.5 13.6-4.2-11.6-8.2.3-14.3-11.5 8.5-13.4-4.7 4.5 13.5-8.6 11.3 14.2-.1zM176 914.9l-19 3.4-13.5-13.8-2.7 19.2-17.2 8.6 17.4 8.4 2.9 19.1 13.3-13.9 19.1 3.1-9.1-17 8.8-17.1zm69.9-513.7l15.6 8.1-3-17.3 12.5-12.3-17.4-2.4-7.8-15.8-7.7 15.8-17.4 2.6 12.6 12.2-2.9 17.3 15.5-8.2zm19.1 87.2l6.6 11.2 4.8-12.1 12.6-2.8-9.9-8.3 1.2-12.9-11 6.9-11.9-5.1 3.2 12.5-8.6 9.8 13 .8zm83 33.1l-5.7-11.6-5.7 11.7-12.9 1.9 9.3 9-2.1 12.8 11.4-6.1 11.5 6-2.2-12.7 9.2-9.1-12.8-1.9zm4.6-105.8l-.1-17.6-13.9 10.8-16.7-5.4 5.9 16.5-10.3 14.3 17.6-.5 10.3 14.2 5-16.9 16.7-5.5-14.5-9.9zM119.3 119.6l16.2-16.2 22.5 4.2-10.4-20.4 11-20.1-22.6 3.5L120.2 54l-3.6 22.6-20.7 9.8 20.4 10.5 3 22.7zm56.5 89.1l16.5-3.8 12.5 11.3 1.4-16.8 14.7-8.3-15.6-6.6-3.4-16.5-11.1 12.7-16.7-1.8 8.7 14.4-7 15.4zm74.8-48.7l11.9-11.9 16.6 3.1-7.6-15 8.1-14.9-16.7 2.6-11.5-12.2-2.7 16.6-15.3 7.2 15 7.8 2.2 16.7zm65.6-80l21.7-7.3 18.3 13.7-.3-22.9 18.7-13.2-21.8-6.8-6.7-21.9-13.3 18.7-22.9-.3 13.7 18.3-7.4 21.7zm54.6 512.6l-22.9 14.9-25.2-10.4 7.1 26.4-17.7 20.7 27.2 1.5 14.3 23.2 9.8-25.5 26.5-6.4-21.2-17.1 2.1-27.3zM253.5 719.8l-9.3-17.9-8.5 18.2-19.9 3.3 14.7 13.7-3.1 19.9 17.7-9.6 17.9 9-3.7-19.8 14.1-14.3-19.9-2.5zm-74-57.9L190 679l7.2-18.8 19.6-4.7-15.7-12.7 1.6-20-16.9 10.9-18.6-7.6 5.2 19.4-13 15.4 20.1 1zm-51.3-144.7l-10.1-25.3-14 23.4-27.2 1.9 18 20.5-6.7 26.4 25.1-10.8 23.1 14.6-2.5-27.2 20.9-17.5-26.6-6zm157.6 34.9l-21.3 8.2-18.9-12.9 1.2 22.8-18.1 14 22.1 5.9 7.6 21.6 12.5-19.2 22.9-.6-14.4-17.8 6.4-22zm-108.4-91.4l-7.6-7.2-1 10.5-9.2 5 9.6 4.2 2 10.3 6.9-7.8 10.4 1.2-5.3-9 4.5-9.5-10.3 2.3zM91.1 206l2 10.2 6.9-7.8 10.4 1.3-5.3-9.1 4.4-9.4-10.2 2.2-7.7-7.1-1 10.4-9.1 5.1 9.6 4.2zm256.2 132.7l7.4 7.3 1.3-10.4 9.3-4.8-9.4-4.4-1.8-10.4-7.1 7.7-10.4-1.6 5.1 9.2-4.7 9.3 10.3-1.9zm-119 496.5l-15.2 10.5-17.3-6.6 5.3 17.7-11.6 14.4 18.5.5 10.1 15.4 6.1-17.4 17.9-4.9-14.7-11.2.9-18.4zM64.4 893.1l-6.6-12-5.4 12.5-13.4 2.6 10.2 9.1-1.7 13.5 11.8-6.9 12.3 5.8-2.9-13.3 9.3-10-13.6-1.3zm44.4-65.1l-11.2 7.8-12.7-4.9 3.9 13.1-8.5 10.6 13.6.3 7.5 11.4 4.5-12.8 13.1-3.6-10.8-8.3.6-13.6zm49-82.4l-9 16.1-18.4 1.8L143 777l-4.1 18.1 16.8-7.8 15.9 9.4-2.2-18.4 13.9-12.2-18.2-3.6-7.3-16.9zM54.2 701.1l12.5-19.2 22.9-.6-14.4-17.8 6.5-22-21.4 8.2-18.9-12.9 1.2 22.8-18.1 14 22.1 5.9 7.6 21.6zm-5.4-243.7L43 445.8l-5.7 11.7-12.8 1.9 9.3 9-2.2 12.8 11.5-6.1 11.4 6-2.2-12.8 9.3-9-12.8-1.9zM27 135.8l11.5-6 11.5 6-2.3-12.8 9.3-9.1-12.8-1.8-5.8-11.6-5.7 11.6-12.8 1.9 9.3 9-2.2 12.8zm5.8 246.6l17.2-2.8-12.7-12 2.7-17.2-15.3 8.3-15.6-7.9 3.2 17.2L0 380.3l17.3 2.3 8 15.5 7.5-15.7zm16.4 424.1l13-1-8.7-9.7 3-12.6-11.8 5.3-11.1-6.7 1.4 12.8-9.9 8.5 12.7 2.7 5 11.9 6.4-11.2zm302.2-35.4l-19.5 14.7-23.1-7.8 7.9 23.1-14.5 19.6 24.3-.4 14.2 19.9 7.1-23.4 23.3-7.3-19.9-14 .2-24.4zM50.7 33.8l8.6 15.7 7.2-16.4 17.7-3.4-13.4-11.9L73.1 0 57.6 9 41.4 1.4l3.7 17.5-12.2 13 17.8 1.9zm601.4 552l8.1 21.4 12.1-19.5 22.8-1.1-14.8-17.4 6.1-22.1-21.2 8.6-19.2-12.5 1.7 22.8-17.8 14.3 22.2 5.5zm43.4 118.9l13.4 10.3v-16.9l13.9-9.6-16.1-5.2-4.7-16.2-10 13.7-16.8-.5 9.9 13.7-5.7 15.9 16.1-5.2zm-70-6.7l4.5-16.3-15.7 6.4-14.1-9.2 1.3 16.8-13.2 10.6 16.4 4 6 15.8 8.9-14.4 16.8-.8-10.9-12.9zm-112.4 18.5l20-11.1-21-9.1-4.3-22.5-15.2 17.1-22.7-2.8 11.6 19.8-9.7 20.7 22.4-4.9 16.7 15.6 2.2-22.8zm-67.6 69.8l-11-15.8-5.8 18.4-18.5 5.6 15.7 11.2-.4 19.3 15.5-11.5 18.3 6.4-6.1-18.3 11.6-15.4-19.3.1zm-8-719.4l9 11.1 3.3-13.9L463 59l-12.1-7.4-.8-14.2-10.8 9.2-13.7-3.6 5.4 13.1-7.7 12 14.2-1.2zm136.6 880.6l-8.1-11.7-4.4 13.6-13.6 4.1 11.6 8.3-.3 14.2 11.5-8.4 13.4 4.6-4.5-13.5 8.6-11.3-14.2.1zM603.8 75l19-3.4 13.5 13.7 2.7-19.1 17.2-8.7-17.4-8.4-2.9-19.1-13.3 13.9-19.1-3.1 9.1 17-8.8 17.2zM534 628.3l7.7-15.8 17.4-2.6-12.6-12.2 2.9-17.3-15.5 8.2-15.6-8.1 3 17.3-12.5 12.3 17.4 2.5 7.8 15.7zm-23.5-108.9l11.9 5.2-3.2-12.6 8.6-9.7-13-.9-6.6-11.1-4.8 12-12.6 2.8 9.9 8.3-1.2 12.9 11-6.9zm-78.7-51.1l5.7 11.6 5.8-11.6 12.8-1.9-9.3-9.1 2.1-12.7-11.4 6-11.5-6 2.2 12.8-9.2 9 12.8 1.9zm-4.6 105.8l.1 17.6 13.9-10.7 16.7 5.3-5.9-16.5 10.3-14.3-17.6.5-10.3-14.1-5 16.8-16.7 5.5 14.5 9.9zm233.4 296.2l-16.3 16.1-22.5-4.2 10.4 20.4-11 20.1 22.6-3.5 15.8 16.6 3.6-22.6 20.7-9.8-20.4-10.4-2.9-22.7zM604 781.1l-16.5 3.9-12.5-11.4-1.4 16.8-14.7 8.4 15.6 6.5 3.4 16.6 11.1-12.8 16.7 1.9-8.7-14.5 7-15.4zm-74.8 48.7l-11.9 11.9-16.6-3.1 7.6 15.1-8.1 14.8 16.7-2.6 11.5 12.3 2.7-16.7 15.3-7.2-15-7.7-2.2-16.8zm-65.6 80.1l-21.7 7.3-18.3-13.8.3 22.9-18.7 13.2 21.8 6.8 6.7 21.9 13.3-18.7 22.9.4-13.7-18.4 7.4-21.6zM409 397.2l22.9-14.9 25.2 10.4-7.1-26.3 17.7-20.8-27.2-1.4-14.3-23.3-9.8 25.5-26.5 6.4 21.2 17.2-2.1 27.2zm117.3-127.1l9.3 17.8 8.6-18.2 19.8-3.2-14.6-13.8 3-19.9-17.6 9.7-18-9.1 3.7 19.8-14.1 14.3 19.9 2.6zm74 57.9l-10.5-17.2-7.2 18.8-19.6 4.8 15.7 12.6-1.6 20.1 16.9-11 18.6 7.7-5.2-19.5 13-15.3-20.1-1zm51.3 144.6l10.1 25.4 14-23.5 27.2-1.8-18-20.5 6.7-26.5-25.1 10.8-23.1-14.5 2.5 27.1-20.9 17.5 26.6 6zM494 437.7l21.3-8.2 18.9 13-1.2-22.9 18.2-13.9-22.2-6-7.6-21.5-12.5 19.2-22.8.6 14.4 17.8-6.5 21.9z"/><path fill="url(#be)" opacity=".35" d="M602.4 529.1l7.6 7.2 1-10.4 9.2-5.1-9.6-4.2-2-10.3-6.9 7.9-10.4-1.3 5.3 9-4.5 9.5 10.3-2.3z"/><path class="a" d="M688.7 783.9l-2-10.3-6.9 7.8-10.4-1.2 5.3 9-4.4 9.5 10.2-2.3 7.7 7.2 1-10.5 9.1-5-9.6-4.2zM432.5 651.2l-7.4-7.4-1.3 10.4-9.3 4.8 9.5 4.5 1.7 10.3 7.1-7.6 10.4 1.5-5.1-9.1 4.7-9.4-10.3 2zm119-496.5l15.2-10.6 17.3 6.6-5.3-17.7 11.6-14.4-18.5-.4-10.1-15.5-6.1 17.4-17.9 4.9 14.7 11.2-.9 18.5zm163.9-57.9l6.6 11.9 5.4-12.5 13.4-2.6-10.2-9 1.7-13.6-11.8 6.9-12.3-5.7 2.9 13.3-9.3 9.9 13.6 1.4zm-44.4 65l11.2-7.7 12.7 4.8-3.9-13.1 8.5-10.6-13.6-.3-7.5-11.4-4.5 12.9-13.1 3.6 10.8 8.2-.6 13.6zm-48.9 82.5l8.9-16.2 18.4-1.8-12.6-13.5 4.1-18-16.8 7.7-15.9-9.3 2.2 18.3-13.9 12.2 18.2 3.6 7.4 17zm111.1 66l-7.6-21.5-12.5 19.2-22.9.6 14.4 17.8-6.4 21.9 21.3-8.2 18.9 13-1.2-22.9 18.1-13.9-22.1-6zm3.6 233.7l5.7-11.6 12.8-1.9-9.3-9 2.2-12.8-11.4 6-11.5-6 2.2 12.8-9.3 9.1 12.9 1.8 5.7 11.6zm16 310l-11.5 6.1-11.5-6 2.3 12.7-9.3 9.1 12.8 1.8 5.8 11.6 5.7-11.6 12.8-1.9-9.3-9 2.2-12.8zm9.7-246.8l-7.9-15.5-7.5 15.8-17.3 2.7 12.7 12-2.7 17.3 15.3-8.4 15.6 7.9-3.2-17.1 12.3-12.4-17.3-2.3zm-31.9-423.9l-13 1.1 8.7 9.6-3 12.6 11.8-5.3 11.1 6.8-1.4-12.9 9.9-8.4-12.7-2.7-5-12-6.4 11.2zm-302.2 35.4l19.5-14.6 23.1 7.7-7.9-23.1 14.6-19.5-24.4.3-14.2-19.8L432 173l-23.3 7.3 19.9 14-.2 24.4zm300.7 737.4l-8.6-15.7-7.2 16.4-17.7 3.3L709 972l-2.3 17.8 15.5-9 16.2 7.7-3.7-17.5 12.3-13.1-17.9-1.8zm178.4-510.7l-8.1-21.4-12 19.5-22.9 1.1 14.8 17.4-6.1 22.1 21.2-8.6 19.2 12.5-1.7-22.8 17.8-14.3-22.2-5.5zm-49.8-81.3l9.9-13.7 16.9.5-9.9-13.7 5.6-15.9-16.1 5.2-13.4-10.3v16.9l-13.9 9.6 16.1 5.2 4.8 16.2zm76.4-30.9l-4.4 16.3 15.6-6.4 14.1 9.2-1.3-16.8 13.2-10.6-16.4-4-6-15.8-8.9 14.4-16.8.8 10.9 12.9zm112.4-18.5l-20 11.1 21 9.1 4.3 22.5 15.2-17.1 22.7 2.8-11.6-19.8 9.7-20.7-22.3 4.9-16.8-15.6-2.2 22.8zm87.2-89.2l.4-19.3-15.5 11.5-18.3-6.4 6.1 18.4-11.6 15.3 19.3-.1 11 15.8 5.9-18.4 18.4-5.6-15.7-11.2zm-11.6 738.8l-9-11.1-3.3 13.9-13.2 5.1 12.1 7.4.8 14.2 10.8-9.2 13.8 3.6-5.5-13.1 7.7-12-14.2 1.2zM985.5 83.7l8.1 11.7 4.4-13.6 13.6-4.1-11.6-8.3.3-14.2-11.4 8.4-13.5-4.6 4.5 13.5-8.6 11.3 14.2-.1zm-29.7 872.5l-19 3.4-13.5-13.7-2.7 19.1-17.2 8.7 17.4 8.4 2.9 19.1 13.3-13.9 19.1 3.1-9.1-17 8.8-17.2zm70-513.6l15.5 8.1-3-17.3 12.5-12.3-17.3-2.5-7.9-15.7-7.7 15.8-17.4 2.6 12.6 12.2-2.9 17.3 15.6-8.2zm19 87.2l6.6 11.1 4.8-12 12.6-2.8-9.9-8.3 1.2-12.9-11 6.9-11.9-5.2 3.2 12.6-8.6 9.7 13 .9zm83 33.1l-5.7-11.6-5.7 11.6-12.9 1.9 9.3 9.1-2.1 12.7 11.4-6 11.5 6-2.2-12.8 9.3-9-12.9-1.9zm4.6-105.8l-.1-17.6-13.9 10.7-16.7-5.3 5.9 16.5-10.3 14.3 17.6-.5 10.3 14.1 5-16.8 16.7-5.5-14.5-9.9zM899.1 160.9l16.2-16.1 22.5 4.2-10.4-20.4 11-20.1-22.6 3.5-15.7-16.6-3.7 22.6-20.7 9.8 20.4 10.4 3 22.7zm56.5 89.2l16.5-3.9 12.5 11.4 1.4-16.8 14.7-8.4-15.6-6.5-3.4-16.6-11 12.8-16.8-1.9 8.7 14.5-7 15.4zm74.8-48.7l11.9-11.9 16.6 3.1-7.6-15.1 8.1-14.8-16.7 2.6-11.5-12.3-2.7 16.7-15.3 7.2 15 7.7 2.2 16.8zm65.6-80.1l21.7-7.3 18.3 13.8-.3-22.9 18.8-13.2-21.9-6.8-6.7-21.9-13.3 18.7-22.9-.4 13.7 18.4-7.4 21.6zm54.6 512.7l-22.9 14.9-25.2-10.4 7.1 26.3-17.7 20.8 27.2 1.4 14.3 23.3 9.8-25.5 26.5-6.4-21.2-17.2 2.1-27.2zm-117.3 127.1l-9.3-17.8-8.5 18.2-19.9 3.2 14.7 13.8-3.1 19.9 17.7-9.7 17.9 9.1-3.7-19.8 14.1-14.3-19.9-2.6zm-74-57.9l10.6 17.2 7.1-18.8 19.6-4.8-15.7-12.6 1.6-20.1-16.9 11-18.6-7.7 5.2 19.5-13 15.3 20.1 1zM908 558.6l-10.1-25.4-14 23.5-27.2 1.8 18 20.5-6.7 26.5 25.1-10.8 23.1 14.5-2.5-27.1 20.9-17.5-26.6-6zm157.6 34.9l-21.3 8.2-18.9-13 1.2 22.9-18.1 13.9 22.1 6 7.6 21.5 12.5-19.2 22.9-.6-14.4-17.8 6.4-21.9zm-108.4-91.4l-7.6-7.2-1 10.4-9.2 5.1 9.6 4.2 2 10.3 7-7.9 10.3 1.3-5.3-9 4.5-9.5-10.3 2.3zm-86.3-254.8l2 10.3 6.9-7.8 10.4 1.2-5.3-9 4.4-9.5-10.2 2.3-7.7-7.2-1 10.5-9.1 5 9.6 4.2zM1127.1 380l7.4 7.4 1.3-10.4 9.3-4.8-9.4-4.5-1.7-10.3-7.2 7.7-10.4-1.6 5.1 9.1-4.7 9.4 10.3-2zm-119 496.5l-15.2 10.6-17.3-6.6 5.3 17.7-11.6 14.4 18.5.4 10.1 15.5 6.1-17.4 17.9-4.9-14.7-11.2.9-18.5zm-163.8 57.9l-6.6-11.9-5.5 12.5-13.4 2.6 10.2 9-1.7 13.6 11.8-6.9 12.3 5.7-2.9-13.3 9.3-9.9-13.5-1.4zm44.3-65l-11.2 7.7-12.7-4.8 3.9 13.1-8.5 10.6 13.6.3 7.5 11.4 4.5-12.9 13.1-3.6L888 883l.6-13.6zm49-82.5l-9 16.2-18.4 1.8 12.6 13.5-4.1 18 16.8-7.7 15.9 9.4-2.2-18.4 13.9-12.2-18.2-3.6-7.3-17zM834 742.4l12.5-19.2 22.9-.6-14.4-17.8 6.5-21.9-21.4 8.2-18.9-13 1.2 22.9-18.1 13.9 22.1 6 7.6 21.5zm-5.4-243.6l-5.8-11.6-5.7 11.6-12.8 1.9 9.3 9-2.2 12.8 11.5-6 11.4 6-2.2-12.8 9.3-9.1-12.8-1.8zm-21.8-321.6l11.5-6.1 11.5 6-2.2-12.7 9.2-9.1-12.8-1.8-5.8-11.6-5.7 11.6-12.8 1.9 9.3 9-2.2 12.8zm5.8 246.5l17.2-2.7-12.7-12 2.7-17.3-15.3 8.4-15.6-7.9 3.2 17.1-12.3 12.4 17.3 2.3 8 15.5 7.5-15.8zM829 847.9l13-1.1-8.7-9.6 3-12.6-11.8 5.3-11.1-6.8 1.4 12.9-9.9 8.4 12.7 2.7 5 12 6.4-11.2zm302.2-35.4l-19.5 14.6-23.1-7.7 7.9 23.1L1082 862l24.3-.3 14.2 19.8 7.2-23.3 23.2-7.3-19.9-14 .2-24.4zM830.5 75.1l8.6 15.8 7.3-16.5 17.6-3.3-13.4-11.9 2.3-17.8-15.5 9-16.2-7.7 3.8 17.6-12.3 13 17.8 1.8zm601.4 552.1l8.1 21.4 12.1-19.5 22.8-1.1-14.7-17.5 6-22-21.2 8.6-19.2-12.5 1.7 22.8-17.8 14.3 22.2 5.5zm43.4 118.9l13.4 10.2v-16.8l13.9-9.6-16-5.2-4.8-16.2-10 13.6-16.8-.4 9.9 13.6-5.7 16 16.1-5.2zm-70-6.7l4.5-16.3-15.7 6.4-14.1-9.3 1.3 16.9-13.2 10.6 16.4 4 6 15.7 8.9-14.3 16.9-.9-11-12.8zm-112.4 18.5l20-11.1-21-9.2-4.3-22.4-15.2 17.1-22.7-2.8 11.6 19.7-9.7 20.8 22.4-5 16.7 15.6 2.2-22.7zm-67.6 69.8l-11-15.9-5.8 18.4-18.5 5.6 15.7 11.3-.4 19.3 15.6-11.5 18.2 6.3-6.1-18.3 11.6-15.4-19.3.2zm-8-719.4l9 11 3.3-13.8 13.2-5.2-12.1-7.4-.8-14.2-10.8 9.3-13.7-3.6 5.4 13.1-7.7 11.9 14.2-1.1zm136.6 880.6l-8.1-11.7-4.3 13.5-13.7 4.2 11.6 8.2-.3 14.3 11.5-8.5 13.4 4.7-4.5-13.5 8.6-11.3-14.2.1zm29.7-872.6l19-3.4 13.5 13.8 2.7-19.2 17.2-8.6-17.3-8.4-2.9-19.1-13.4 13.9-19-3.1 9 17-8.8 17.1zm-69.8 553.4l7.7-15.8 17.4-2.6-12.6-12.2 2.9-17.3-15.5 8.2-15.6-8.1 3 17.3-12.5 12.3 17.4 2.4 7.8 15.8zm-23.5-108.9l11.9 5.1-3.2-12.5 8.6-9.8-12.9-.8-6.7-11.2-4.8 12.1-12.6 2.8 9.9 8.3-1.2 12.9 11-6.9zm-78.7-51.1l5.7 11.6 5.8-11.7 12.8-1.9-9.3-9 2.2-12.8-11.5 6.1-11.5-6 2.2 12.7-9.2 9.1 12.8 1.9zm-4.6 105.8l.1 17.6 13.9-10.8 16.7 5.4-5.9-16.5 10.3-14.3-17.6.5-10.3-14.2-5 16.9-16.7 5.5 14.5 9.9zm233.4 296.1l-16.3 16.2-22.5-4.2L1412 944l-11 20.1 22.6-3.5 15.8 16.6 3.6-22.6 20.7-9.8-20.4-10.5-2.9-22.7zm-56.6-89.1l-16.5 3.8-12.4-11.3-1.5 16.8-14.6 8.3 15.5 6.6 3.4 16.5 11.1-12.7 16.7 1.8-8.7-14.4 7-15.4zm-74.8 48.7l-11.9 11.9-16.6-3.1 7.6 15-8.1 14.9 16.7-2.6 11.6 12.2 2.7-16.6 15.2-7.2-15-7.8-2.2-16.7zm-65.6 80l-21.7 7.3-18.3-13.7.3 22.9-18.7 13.2 21.8 6.8 6.7 21.9 13.3-18.7 22.9.4-13.7-18.4 7.4-21.7zm-54.6-512.6l22.9-14.9 25.2 10.4-7.1-26.4 17.8-20.7-27.3-1.5-14.3-23.2-9.8 25.5-26.5 6.4 21.2 17.1-2.1 27.3zm117.3-127.2l9.3 17.9 8.6-18.2 19.8-3.3-14.6-13.7 3-19.9-17.6 9.6-18-9 3.7 19.8-14.1 14.3 19.9 2.5zm74 57.9l-10.5-17.1-7.2 18.8-19.6 4.7 15.7 12.7-1.6 20 16.9-10.9 18.6 7.6-5.2-19.4 13-15.4-20.1-1zm51.3 144.7l10.1 25.3 14-23.4 27.2-1.9-18-20.5 6.7-26.4-25.1 10.8-23.1-14.6 2.5 27.2-20.9 17.5 26.6 6zm-157.6-34.9l21.3-8.2 18.9 12.9-1.2-22.8 18.2-14-22.1-5.9-7.7-21.6-12.5 19.2-22.8.6 14.4 17.8-6.5 22zm108.4 91.4l7.6 7.2 1-10.5 9.2-5-9.6-4.2-2-10.3-6.9 7.8-10.4-1.2 5.3 9-4.4 9.5 10.2-2.3zm86.3 254.7l-2-10.2-6.9 7.8-10.4-1.3 5.3 9.1-4.4 9.4 10.2-2.2 7.7 7.1 1-10.4 9.1-5.1-9.6-4.2zm-256.2-132.7l-7.4-7.3-1.3 10.4-9.3 4.8 9.5 4.4 1.7 10.4 7.1-7.7 10.4 1.6-5.1-9.2 4.7-9.3-10.3 1.9zm119-496.5l15.2-10.5 17.3 6.6-5.3-17.7 11.6-14.4-18.5-.5-10.1-15.4-6.1 17.4-17.9 4.9 14.7 11.2-.9 18.4zm163.9-57.9l6.6 12 5.4-12.5 13.4-2.6-10.2-9.1 1.7-13.5-11.8 6.9-12.3-5.8 2.9 13.3-9.3 10 13.6 1.3zm-44.4 65.1l11.2-7.8 12.7 4.9-3.9-13.1 8.5-10.6-13.6-.3-7.5-11.4-4.5 12.9-13.1 3.5 10.8 8.3-.6 13.6zm-48.9 82.4l8.9-16.1 18.4-1.8-12.5-13.5 4-18.1-16.8 7.8-15.9-9.4 2.2 18.4-13.8 12.2 18.1 3.6 7.4 16.9zm111.1 66.1l-7.6-21.6-12.5 19.2-22.8.6 14.4 17.8-6.5 22 21.3-8.2 18.9 12.9-1.2-22.8 18.1-14-22.1-5.9zm3.6 233.7l5.7-11.7 12.8-1.8-9.2-9.1 2.1-12.8-11.4 6.1-11.5-6 2.2 12.8-9.3 9 12.9 1.9 5.7 11.6zm16 310l-11.5 6-11.5-6 2.3 12.8-9.3 9.1 12.8 1.8 5.8 11.6 5.7-11.6 12.8-1.9-9.3-9 2.2-12.8zm27-244.5l-17.3-2.3-7.9-15.5-7.5 15.7-17.3 2.8 12.7 12-2.7 17.2 15.3-8.3 15.6 7.9-3.2-17.2 12.3-12.3zm-49.2-426.2l-12.9 1 8.6 9.7-3 12.6 11.9-5.3 11 6.8-1.3-12.9 9.8-8.5-12.7-2.7-5-11.9-6.4 11.2zm-302.2 35.4l19.5-14.7 23.1 7.8-7.9-23.1 14.6-19.6-24.4.4-14.2-19.9-7.1 23.4-23.3 7.3 20 14-.3 24.4zm300.7 737.3l-8.6-15.7-7.2 16.4-17.7 3.4 13.4 11.9-2.3 17.8 15.5-9 16.2 7.6-3.7-17.5 12.3-13-17.9-1.9z"/></svg>