<svg xmlns="http://www.w3.org/2000/svg" xmlns:xlink="http://www.w3.org/1999/xlink" width="506" height="284.6" viewBox="0 0 506 284.6"><defs><style>.a{fill:url(#a);}.b{opacity:0.06;}</style><linearGradient id="a" x1="253" y1="305.91" x2="253" y2="17.86" gradientUnits="userSpaceOnUse"><stop offset="0" stop-color="#1a7682"/><stop offset="1" stop-color="#2ab7ca"/></linearGradient></defs><title>bkg-hero-lg</title><rect class="a" width="506" height="284.62"/><g class="b"><path d="M481.5,284.6H386.6v-.2c1.1-3,2.2-6,3.2-9.1.1-.2-.1-.5-.2-.8a3.2,3.2,0,0,0-.3-.9c1.4.2,1.5-.6,1.6-1.4a20.9,20.9,0,0,0,0-2.5l.4.3c.5-.6.9-1.2,1.4-1.7l-.2-.3-.9.5-.3-.2c1.8-1.6,3.1-3.4,3-5.9l-1.4,3.6c-.3-.2-.4-.4-.4-.5l1.4-4.1c1.2-3.1,2.5-6.2,3.6-9.3s.3-2.2-1.4-2.8-5.1-1.5-7.4-2.6a73.3,73.3,0,0,1-10.3-5.7,28.5,28.5,0,0,1-5.7-5.8c-2.2-2.6-4.3-5.5-6.3-8.3a26.7,26.7,0,0,1-2.2-3.6c-1.1-2-2.4-3.9-3.3-6-2.2-4.7-4.1-9.4-6.2-14.1a1.8,1.8,0,0,0-.5-.7l-.3.2c-.7,1.6-1.3,3.2-2,4.7a66.6,66.6,0,0,1-16.1,21.1,72.8,72.8,0,0,1-27.2,14.7,87.2,87.2,0,0,1-23.8,3.4c-3.9,0-3.9,0-5.4,3.6-.4,1.2-.2,1.7.9,2.1l16.8,6.9a1.6,1.6,0,0,0,2.4-.7c6-9.3,14.6-14.6,25.3-16.7a40,40,0,0,1,17.2.5,43.6,43.6,0,0,1,20.3,10.8,38.6,38.6,0,0,1,11.8,20.3c.8,3.6.8,7.5,1.2,11.2h-6.6a11.2,11.2,0,0,0-5.4-2.5,4.5,4.5,0,0,0-5.1,2.5h-9.3c.6-1.5,1.2-3.1,1.7-4.6s.8-1,1.5-.7,2.5.9,3.7,1.5,1.3.5,1.5-.4a2.2,2.2,0,0,0-.9-1.1l-7-2.9a1.3,1.3,0,0,0-1.2.5l-3,7.7h-3.6a4.3,4.3,0,0,0,.2-1.1,1.3,1.3,0,0,0-.4-.9l-4.6-1.9a1.1,1.1,0,0,0-1,.3,1.5,1.5,0,0,0,.3,1.1c.1.2.5.3.8.4s1.7.9,1.2,2.1h-7.4a26,26,0,0,1,3.8-9.8,2.7,2.7,0,0,1,3.1-1.5,3.2,3.2,0,0,1,2.9,2.3c.6,1.7,1.4,2.2,3.5,1.6a15.7,15.7,0,0,0-.9-2.3c-1.7-2.5-4.2-3.5-7.1-3.8a4.9,4.9,0,0,0-5,2.5c-2.1,3.4-3.6,6.9-3.4,11h-2.9a14.7,14.7,0,0,1,0-2.1c.3-4.9.5-9.9.9-14.8.1-1.4-.9-1.4-1.6-1.8s-1.2,0-1.7.5c-3.2,3.8-6.5,7.5-9.8,11.2l-1.8,2.2c2,1.6,2.5,1.6,4-.1s.4-.7.7-.8a2.5,2.5,0,0,1,1.5-.3c1.2.4,2.4,1,3.6,1.5a1.4,1.4,0,0,1,1.1,1.8,24.8,24.8,0,0,0-.3,2.7H274.1c-1.2-.6-2.4-1.4-3.6-1.9l-11-4.3a16.3,16.3,0,0,1-1.9-.9,3.6,3.6,0,0,1-.7-1h.2l.7.3a15.5,15.5,0,0,1,.4-3.2,8.4,8.4,0,0,1,1.1-2.1l.8,1.2,1.1-1.1-.3-.3-1.6.3a5.8,5.8,0,0,1,1-1.2l2.4-1.1v-.5l-3.6-1.7c-.1.4-.1.7-.2.7s-.9.5-1.3.4-1-.9-.9-.9-.3-1.5-1-2a11,11,0,0,1-1.4-.9v-.5h2l1.3.2c.6-.1,2.1-3.8,1.8-4.3l-.9-1.2a5.4,5.4,0,0,0,1.5-.2,3.7,3.7,0,0,0,1.4-.7c.6-.3,1.1-.8,1.6-.8a1.9,1.9,0,0,1,1,1.3c.3.9.8,1.2,1.6.6s1.8-1.5,2.8-2.3l-1.2-1.6c-.9.9-1.3-.1-2-.7l-.9,1.1c-.7.7-1.5.9-2.1.3s.1-1,.3-1.6l-.8-1.1-1.2-.5.2-.5a7.7,7.7,0,0,1,1.5.2c2,.7,4,1.7,6.1,2.4s4.3,2.5,6.8,3,3.9,1.6,5.8,2.4h.9v-.4l-29-11.9-.2.4.9.7c-.7,0-1.6-.1-2,.3s-.5,1.3-.8,2-2.1-.1-2.9,1.1l1.3,1.6-.4.4a3,3,0,0,0-1.5-.7c-.5-.1-1,.2-1.8.4,1-3.4,4.5-4.1,6.3-6.6l-2.1-.9c-.9-.5-1.5-.2-1.9.7l-1.5,3.4c-2.4,5.4-4.9,10.9-7.3,16.4-.2.4.1.9.1,1.4l-2.2,2.3c-1.4-2.1-2.7-4-3.9-6a2.5,2.5,0,0,1,.1-1.7c1.4-3.3,3-6.6,4.4-9.9s3.3-7.6,5-11.3a4.7,4.7,0,0,1,6.2-2.4l3.5,1.5,11.7,4.7,7.8,3.2a1.3,1.3,0,0,0,1.2-.3c.4-.8.7-1.6,1.1-2.5l-.2-.3-1.1.2c.2-.8.3-1.5.5-2.3l.8.3c.7.2,1-.1,1-.8s.4-3.1.5-4.5l-.7.3-.4-.2,1.6-3.7c.4.8.6,1.1.8,1.6l1.2-1.8.2,1.3c.9-1.8,2.2-3.5.5-5.4-.1-.1-.1-.4-.2-.6l1,.4c.5-1.5,1-3,1.6-4.6s2.5-.7,2.5-2.7l-1.7.3.6,1c-1.5.5-2.5.3-2.8-.6l-1-2.8,1.5.5c-.6-1.8-2-1.8-3.2-2.2v1.3c-.1,1.1,0,2.3-.1,3.5a6.2,6.2,0,0,1-.2,1.9,1.9,1.9,0,0,0,.8,2.6c.5.3.7.9,1.1,1.4h-.9c-2.9,0-3.9,1.1-3.6,4a5.3,5.3,0,0,0,.3,1.2c.2.7,0,1-.7,1.1s-1.7-.2-1.7-1.5,0-3.2-.1-4.8H273l.9-.4a1.1,1.1,0,0,0-.2-.6c-.4-.1-.9-.2-1.1,0s-.4.7-.6,1a11.1,11.1,0,0,0-1.9.9c-.9.8-1.7,1.8-2.7,2.6s-.9.1-1.3,0-.3-1-.2-1.1,1.1-2.1,1.4-3.2a3.3,3.3,0,0,1,.6-1l.7.9,1.1.8c.2-.3.7-.6.7-1a3.7,3.7,0,0,0-.4-1.8c-.7-1.2-1.2-2.2-.2-3.7a18.7,18.7,0,0,0,2-4.8c.1-.2-.3-.8-.6-1s-1.5-.2-2-.5a2.4,2.4,0,0,0-2.8-.1,5.1,5.1,0,0,1-1.3.2l1.1-2.1,5.4,2.2.2-.3-.6-.4c-3.9-1.6-7.7-3.3-11.6-4.8-2-.8-3.8-2.3-6.1-1h-.3l1.3-1.1-4.2-1.5h0l-6-2.6c-1.4-.6-1.6-.8-.9-2.2s1.9-3.3,2.7-5,.6-1,1.4-.5,1.6-.4,2-1.2.6-1.6-.6-2.1-.8-.8-.7-1.1c1-2.3,2.1-4.6,3.2-6.9a1.8,1.8,0,0,1,.8-.7,2.3,2.3,0,0,0,1.5-3.2,1.4,1.4,0,0,1-.1-1.1c.9-1.8,1.8-3.7,2.6-5.6s.9-1,1.8-.6,1,.1,1.1-.1a4.8,4.8,0,0,0,.9-1.9,1.2,1.2,0,0,0-.7-1.2c-1.7-.7-1.7-.7-2.5,1-1.6,3.3-3.1,6.6-4.6,9.9l-5.7,12.3c-1.7,3.6-3.5,7.3-5.2,11L232.6,225l-4.8,10.6c-.3.6-.6,1.5-1.1,1.7s-1.4-.3-2-.5l-11-4.6a10,10,0,0,1-2.4-1.6,7.1,7.1,0,0,1-1.1-1.7c-3.1-4.9-6.3-9.7-9.3-14.8-1.4-2.4-3.1-4.7-4.5-7.1s-3-2.9-2.4-4.8a26.2,26.2,0,0,1-2.9-2.6c-1.4-1.9-2.6-3.9-3.9-5.8s-1.6-2.1-4-1.1a13.1,13.1,0,0,0,.3-1.5c.6-1.1,1.1-2.2,1.7-3.2,1.5-2.9,1.5-3,4.6-1.7,1.1.5,1.7.1,2-1l-.2-.2-11.5-4.8c-.3-.1-.9.3-1.1.7s.2.8.4.9a11.5,11.5,0,0,0,2.3,1c1.1.4,1.3,1,.8,2-1.8,3.5-3.4,7.1-5.1,10.6a6,6,0,0,1-2.8,3.3,7.2,7.2,0,0,0-2.1,1.8c-.2.2-.1.8-.1,1.2s.4.5.5.8c.6,1.9,2.2,2.3,4.3,2s2.4-1.5,2.3-3.4-.6-1.1-.8-1.7l-.6-1.5h4a3,3,0,0,0-.2,1c0,.3.1.7.1,1.1s1-.3,1.2-.6a1.9,1.9,0,0,0-1.6-3l-1.9-.2v-.5l2.4-1.1a5.9,5.9,0,0,0,1.4-.6c1.3-1,2.4-.7,2.5,1a3.5,3.5,0,0,0,1.4,2.3c1.2,1.4,3,2.5,3.3,4.5,0,.3.3.5.4.8s1.8,1.9,2.4,3.2a30.6,30.6,0,0,0,3,4.9l4.2,6.4,5.3,7.9c1.3,1.8,2,4,3.8,5.5l.5.7c.9,1.6,1.7,3.3,2.7,4.8s2,2.6,2.9,3.9l5.6,8.5c.6,1,1.5,1.8,2.1,2.8s3,5,4.6,7.4l8.2,11.6,4.2,5.9c.4.7.7,1.6,1.4,1.9,2.8,1.5,5.7,2.8,8.6,4.1l4.6,2.3h-8.2l-2.4-1.5-.3.3.4,1.2H168.9a17.9,17.9,0,0,0-.2-2.3c-.1-1-.6-2-.4-2.8a4.2,4.2,0,0,0-.4-3.3,3.4,3.4,0,0,1,1.2-4.4c-1.7-1.1-1.7-2.7-1.5-4.4s.4-1.2.5-1.7a4.4,4.4,0,0,0,1.8-2.5l-.4-.2-1.3,2.7-1.4,1.6-.7-3.5h-.6c.8,6.9,1.5,13.8,2.6,20.7h-5.2c-.2-1.9-.3-3.7-.5-5.6-.5-5.2-1-10.5-1.6-15.7s-1.4-11-2.1-16.5-1.7-13.4-2.3-20.1c-.1-1.6-1.1-3.4.1-4.9a4.9,4.9,0,0,1-.9-1.5c-.3-2.1-.1-4.2-.5-6.3s-.2-3.6-.6-5.4c-.8-3.9-1.2-8-1.8-12-.2-1.1-.5-2.2,1.2-2.4l.2-.5-19.2,3-12.6,2-12,1.7c-4.4.7-8.9,1.5-13.4,2.1a2.6,2.6,0,0,1-2-.8,30.8,30.8,0,0,1-3.2-4.8,45.7,45.7,0,0,1-6-19.7,39.6,39.6,0,0,1,1.2-13.3,46.4,46.4,0,0,1,8.6-17.2,50.8,50.8,0,0,1,12.2-10.9,58.5,58.5,0,0,1,30.7-9.3,62.9,62.9,0,0,1,31.5,7.2A54.2,54.2,0,0,1,189,149.8c5.9,8,9.3,16.9,9.4,26.9a3.2,3.2,0,0,0,3.8,3c-.3-2.7-.7-5.4-.8-8.1a55,55,0,0,1,1.5-16.2,100.2,100.2,0,0,1,3.4-11,61.5,61.5,0,0,1,11-17.5,63.5,63.5,0,0,1,17.9-14.4c3.5-2,7.2-3.4,10.7-5.1a2,2,0,0,0,1.1-1.3,10.5,10.5,0,0,0-.6-2.4c-.5-2.5-1.1-5-1.6-7.5-.3-1-.3-2.1-.7-3.1s-1-2.1-1.4-3.3.2-.6.4-.8a3.4,3.4,0,0,0,1.9-3.4,3.1,3.1,0,0,0-.8-1.1,20.6,20.6,0,0,0-2.6-1.2c-1.4-.5-1.5-.9-.4-2a1.8,1.8,0,0,0,.2-2.5l-.8-1.1c.8-.4,1.4,1.6,2.2-.1l-4.4-2.7a17.6,17.6,0,0,1,.7-2.7c.3-.8,1.1-1.8.8-2.3s-1.4-.8-2.2-1.2-2.4-1.7-2-3.1a16.4,16.4,0,0,1,.7-1.5L227,59.2a.8.8,0,0,0-1.3.7c-.2,1.6-.5,3.2.7,4.5a4.2,4.2,0,0,1,1,1.7c.2.5.2,1.5-.1,1.6s-1.1,1.9-1.1,3c-.1,2.8-.8,3.6-3.4,4.1a17.8,17.8,0,0,0-7.7,3c-.3.2-.7.8-.6,1.1s.8,2.6-.6,3.8a2,2,0,0,1-1.4.4l-5.4-2.5c-.8-.4-1.7-.8-.8-2s0-.5-.1-.7l-1.6-3.4c-1.2.2-1.6,1.2-2.1,2s-.6,1.1-1.3.5-1.4-.2-1.7.7a12.3,12.3,0,0,0-.2,2c-.2,3.7-.4,7.5-.5,11.2,0,1.8-.8,3.5-.2,5.3a2.9,2.9,0,0,1-.1,1.3c-.6,2.5-.5,5.1-.9,7.7a19.3,19.3,0,0,0-.1,5.4c.4,2.2-.2,4.6-.5,6.9a47.7,47.7,0,0,1-1.5,5.4l-3,10a4.6,4.6,0,0,1-.7,1l-.3-.5c-.6-2.2-1.2-4.4-1.7-6.6a31.1,31.1,0,0,1-.4-3.2,16.4,16.4,0,0,1-.9-3.5c0-3.4.2-6.8.3-10.2s.3-6.1.4-9.1c.1-.6.1-1.3.2-1.9.3-3.9.7-7.8.7-11.7a15.3,15.3,0,0,1,.4-3.8,6.2,6.2,0,0,0,.1-1.3c.1-2.3.2-4.5.2-6.7a23.4,23.4,0,0,0-.7-4.5,18.7,18.7,0,0,0-1.7-3.1c-.1-.3-.4-.5-.6-.7s-.6.4-.7.7-.9,1-1.6.6l-6.3-3.5a2.7,2.7,0,0,1-1-1.8c-.2-.9.2-1.9-1-2.5s-.3-.8-.1-1.1,1.1-1.5,1.7-2.3c.4.8.5,1.5.9,1.8s3,1.6,4.6,2.4a4.1,4.1,0,0,0,1.5-.2,3,3,0,0,0-.7-1.1,49.3,49.3,0,0,0-4.6-2.3c-.8-.3-.8-.8-.6-1.5l1.8-4.5c1.6-4.1,3.1-8.2,4.6-12.3.2-.3-.1-1-.4-1.2l-6.8-3.4L168,29.5c-1.5-.8-3-1.9-4.5-2-4.4-.3-8.8-.6-12.1,3.3-.7.8-1.1,1.3-.6,2a10.5,10.5,0,0,0-1.5,1.5,9.7,9.7,0,0,0-1.1,2.3c-1.3,2.4-2.5,4.9-3.9,7.3s-2,5.1-3.6,7.4-1.2,2.6-1.9,3.8c-2,4.1-4.1,8-6.3,12s-3.7,7.1-5.7,10.5c-2.9,5-5.9,10-8.9,15-.6,1-1.3,1.9-2,2.9-1.8-1.1-2.8.5-3.8,1.1a2.8,2.8,0,0,1-.6,1.6c-.3.4-.9.6-1.3.9s-.7.9-.6,1.1-.5,1.9-1.1,2.7a6.9,6.9,0,0,0-1,1.7c-.1.2-.3.7-.4.7s-1.7,1.2-1.8,2.4-.7,1.2-1.2,1.7-.9,1.2.1,2.2l-2.4,1.2a2.6,2.6,0,0,0-1.4,2.9c.5,1-.9,4.1-1.9,4.6s-.1-1.3-.1-2.2c-1.4,1.2-1.8,2.2-1.5,3.5a6.1,6.1,0,0,1,0,1.9c0,.9-.5.9-1.1.5l-1.2-.6c-.3.6-.8,1.2-.7,1.7s-.7,1.8,0,2.7l-.8.5a6.9,6.9,0,0,0-1.3.5c-1.5.9-1.9,2.4-2.2,4.1s-.7,2.2,1,2.5l.3.8a6.4,6.4,0,0,1-1.5-.5c-1-.7-1.6-.6-2,.5a4.9,4.9,0,0,0-.6,1.7c-.1.2.1.5.2.8s.5-.3.6-.5a3,3,0,0,0,.4-1c.5.8.4,1.6.8,2.1a1.4,1.4,0,0,1-.6,2.2c-1.1.6-1.3,1.5-1.7,2.4l-1.8,4.6c-.3.9.1,1.5,1.3,1.6-1.3,2.6-2.6,5.2-4,7.8-2.1,4.2-4.3,8.3-6.5,12.4s-4.2,7.7-6.2,11.6-4.2,8-6.3,11.9-4.9,9-7.4,13.5c-.2.5-.8.9-1.2,1.3l-.7-1.4-.4-.2c-.2,1.6-.4,3.1-.5,4.6a12.3,12.3,0,0,1-.2,2c-1.3,3.7-2.5,7.5-4,11.1s-3.3,7.1-5.1,10.6-3.2,6-5,8.9-4.1,6.2-6.3,9.2a12,12,0,0,1-2.8,2.7c-1.2,1-2.2,2-2.2,3.7a20.6,20.6,0,0,0,.3,2.6c.6,3.2,2,6,5.1,7.6s5.1,2.7,7.6,4.1l16.7,8.6a20.8,20.8,0,0,1,2.9,1.9H45.3c0-.7.3-1.6-.8-1.8l-.8,1.8h-.5v-2l-1.5,2H0V196.1c.8-.9,1.7-1.8,2.4-2.7a73.9,73.9,0,0,0,7.3-13.2,61.9,61.9,0,0,0,6-23.8,62.3,62.3,0,0,0-2.4-20.1,65.9,65.9,0,0,0-6.9-16.2A21.9,21.9,0,0,0,0,113.3V0H223l-3,3c-.4.3-1.3.3-.7,1.2s.7,2,2,1.1,4.1-3,5.3-5.3h21.1c.9,3.5,1.7,7,2.6,10.4.2.6,1,1.4,1.5,1.4s2,.6,2,2.1.4,3.1,3.4,2.9l13.4-.7,19-1.1,5.5-.4c1.1,0,1.4-.6,1.4-1.6-.1-2.6-1.5-4-4.2-4.6a32.8,32.8,0,0,1-3.8-1.5L290,5.7l2.3-2.4a1.4,1.4,0,0,0-.3-1.1c-1.3-.3-1-1.3-1-2.2H438.5c-.3,7.3-.7,14.5-1,21.8s-.7,17.2-1.1,25.8l-.6,13.7c-.5,7.5-1,15-1.4,22.4s-.7,14.1-1,21.1a28.1,28.1,0,0,0,.9,10.4c.6,1.8,2,2.9,3.9,4-.4-1.2-.6-2.1-.9-3l.4-.2.7.5c1.1,1.2,2.1,2.6,3.3,3.7a4.7,4.7,0,0,0,3.6,1.4c-.1-.5-.1-.9-.3-1.7l4.4,2.9c-.3-1.5-2-2.1-1.3-3.7l.9.7c1.2.9,2.2,2.2,3.6,2.7,5.9,2.3,12.2,3.1,18.5,4s13.3,1.6,20,2.3c4.9.6,9.9.9,14.9,1.4V284.6H482.8c.2-1.5-.5-2.3-1.9-1.8Zm-424-86.4-2.8,4.9-1.6,3.3,1.3-.5c.1-.7.2-1.2.3-1.7v-1.1a5.8,5.8,0,0,0,2.7-4.9c1-.6,1.1-1.6,1.5-2.5l-.4-.2C58.1,196.4,57.8,197.3,57.5,198.2Zm379.3-40.3c-.5.2-1.1.3-1.3.6a3.6,3.6,0,0,0-.2,1.5,1.3,1.3,0,0,0,1,.4,1.7,1.7,0,0,0,.6-1.1,3.2,3.2,0,0,0-.2-1.4l.9-.2.8-.7c-.2-.2-.5-.7-.8-.6a1.4,1.4,0,0,0-1,.5C436.5,157.1,436.7,157.6,436.8,157.9Zm-266,114.3,3,1.3h1.4v-.5a7.1,7.1,0,0,0-4.5-.9l-.9-2.8c-.1-.3-.3-.5-.3-.7s.7-1.7,1.1-2.6a11.9,11.9,0,0,1,.8-1.6l-.3-.2-1.5,2.4a3.4,3.4,0,0,0,.4,4.4A4.1,4.1,0,0,1,170.8,272.2Zm238.8-49.8c-.4-1-.8-1.9-1.3-2.9H408v1.8c0,1.6.1,1.7,1.6,1.1a20.9,20.9,0,0,0,0,2.5c.1,1.3.6,1.5,1.7.9s-.4-2.2-.7-3.4ZM185.8,262.7l2.4,4.9c-.1-2-.5-3.8-2.4-4.9l-.7-.6a11.9,11.9,0,0,0-1,2.8,12.2,12.2,0,0,0,.3,2.6h2.5C184.5,265.3,184.3,264.2,185.8,262.7Zm-11,7.3c.3.1.7.3.9.2s1.2.1,1.4.9a4.4,4.4,0,0,0,.2,1l1.7-.6-.5-.6v-.4l3.1.5.6-1.5c-1.8,1.1-3.4.5-5.1.2a10.5,10.5,0,0,0-2.4.3l-2.4-.4-.2.4c.4.6.7,1.2,1.1,1.7h.3l-.3-1Zm14.7-5.7c.1.7.1,1.4.2,2s.5,1,.8,1.1a17.6,17.6,0,0,0,2.7.2c-.5-.4-.7-.8-1-.9s-2.2-1.4-1.5-3l-1.2.7a1.2,1.2,0,0,0-.5-1.7c-.6-.3-1-.8-1.5-1.1a1.5,1.5,0,0,1-.7-2c1.4-.2,2-1,2.4-2.8-1,.8-1.8,1.7-2.7,2.4s-1.2,1.2-.2,2.1Zm99.5-2-6.2-2.4v.5c2,.8,3.9,2.4,6.3,1.9,1.8,3,.1,6.6,2.1,9.8-.2-3.2-.3-6.1-.5-9.1ZM184.5,244c1.8-1.1,2.7-3.1,3.9-4.9a5.1,5.1,0,0,0-4.2.7h-.6c-2.2.1-2.9,1.1-2.6,3.1a15.1,15.1,0,0,1,.1,3C182.8,246.3,183.8,245.5,184.5,244Zm-12.4-3a11.2,11.2,0,0,0-2.2,5.7l.9-.8v.9l2.8-2.5-.4-.3-1.1.8c0-.7.1-1.3.1-1.9s-.1-1.3-.1-2l4-5-.3-.3C174.5,237.3,172.5,238.5,172.1,241Zm24.7,16.8-2.4-3.7c-.1,1.7,1.1,2.8,2.5,3.7s0,1,.2,1.2c2.4,1.3,1.3,3.5,1.2,5.3s-1,1-1.5,1.5a6.7,6.7,0,0,1-1.1-1.4,7.1,7.1,0,0,1-.4-2.1c-.2-1.4-.5-2.7-2-3.4a6.1,6.1,0,0,1,1.6,4.8c-.1,1.5.7,2.1,1.8,2.7s1.4.3,1.7-.6a35.7,35.7,0,0,0,1-3.5C199.6,261,198,258.3,196.8,257.8Zm1.4-61.7c0-.3.1-.6,0-.8a14.7,14.7,0,0,0-1-1.3c-.4.3-1,.6-1.2,1a3.7,3.7,0,0,0-.4,1.8,2.4,2.4,0,0,0,.5,1l1-.6,1.1-1.1c0,.8-.2,1.8,1,2h2.9c.4-.1,1.2-.8,1.1-1a3.9,3.9,0,0,0-1.2-1.9,1.5,1.5,0,0,0-1.3,0A2.7,2.7,0,0,1,198.2,196.1Zm270.3,40.6,4.4,1.2v-.5l-4.5-.6a3.7,3.7,0,0,0-1.2-.7l-3.1.2c-2.9.5-5.8.9-8.7,1.5a6.5,6.5,0,0,0-1.7.8l1.1,1.3v.2c-2.1,1.9-4.7,1.3-7.2,1.6,1.6.7,3.4,1,5,1.7a3.2,3.2,0,0,0,3.3-.3,28.7,28.7,0,0,0,3.1-2.9C461.8,237.1,464.3,236,468.5,236.7ZM377,15.2l-2.1-.7c-1.1.4-1.6,1.3-1.6,2.8s.3,4.7-2.4,6.1l.3-2.8c0-1.6-.1-3.3-.1-5s-.4-.5-.6-.7-.7.4-.7.6-.9,1.4-.1,2.2-.2.9-.5,1-1.8,1.7-3.1,1.2-.4.1-.7.2l.6.7.8,1-1.2.8-1.4.4v.2h2.4L361.8,26c-1.2.6-1.1,1.4-.7,2.3s2.2,4.5,3.5,6.6a35.8,35.8,0,0,0,2.9,3.9l.5-.2a8.7,8.7,0,0,0-.7-1.7c-.9-1.6-2-3.2-2.9-4.8s-.1-3.4,2.1-3.8c.2.4.3.9.6,1.1a2.7,2.7,0,0,1,.8,2.4c-.1,1.1,0,2.1,0,3.3,2.3-.7,2.7-2.3,1.5-3.6a21.8,21.8,0,0,0,.1-2.4c0-1.7-.1-3.3-.1-5s.1-.4.4-1c.4,1.7.8,3.1,1.1,4.4h.3c.4-1,.8-2,1.2-3.2.8,1.6,1.2,3.2.5,4.6s-.4,5.1.3,7.6c0,.1.2,0,.4.1a11.3,11.3,0,0,1,.3-1.8c.5-1.9,1-2.1,2.8-1.5s1,.7.7,1.4l-.3,1.1h.4a16,16,0,0,1,1.3-3c.8-1.2.6-2.9,2.2-3.6s.7-.8-.1-1.1a2.6,2.6,0,0,1-1.3-3l1,.7c1.7-1.7,1.7-1.7,3.1-1.3a12.7,12.7,0,0,1,1.2-1,1.3,1.3,0,0,0,.6-1.9,2.2,2.2,0,0,1,0-1.6c2-2.3,3.3-5.2,6-6.3l1.5.2,1.3-.5a9.1,9.1,0,0,1-.9,1.7c-1.5,1.9-3.3,3.5-3.7,6.1-.1.7-.9,1.4-1.3,2.2a4.3,4.3,0,0,0-.5,1.6l.5.2,3-3.8c.2.8,1.1,1.2,2.3.8s.6-.4.6-.5-.3-.8-.5-.8c-2,0-1.8-.7-.8-1.9s.1-.4.2-.6,1.1-2,2-2.4a20.6,20.6,0,0,1,4.4-1.4h0l-2.9-.8a9.7,9.7,0,0,0-2.4-.2c.2-1-.1-1.6-1.2-1.1a23.3,23.3,0,0,0-3.3,1.4,29.5,29.5,0,0,0-3.1,2.2V17l-4.5-.7-1.5-.4,1.3-.9.2-.2-.3-.3-.9-1.1a10.1,10.1,0,0,1,1.5-.7,25.4,25.4,0,0,1,3.9.1,7.2,7.2,0,0,1,1.9.4l1.5-1.3-3.7-.5-3.2.2c-.5,0-1.1.1-1.2-.8a1,1,0,0,0-.8-.3l-3.1,1c-.7.2-1.3.5-1.1,1.4a8.8,8.8,0,0,1,1.7.2c.4.1.6.6,1,.9l-1.1.5-1.5.8ZM333.1,55.1h0a9.3,9.3,0,0,0,1,.5c2.8.7,5.6,1.4,8.4,1.9a2.7,2.7,0,0,0,1.9-.6c.2-.1-.2-1-.3-1.5s-.4-.6-.4-.8c.1-1.8-.1-3.6,1.5-4.8s.2-.8.2-1.2h-1c-.4,0-.9.2-1.1,0a1.7,1.7,0,0,1-.3-1.2c-.1-.3.1-.7,0-.9s-.7-2.9-1.1-4.3.2-2.8-1.8-2.9c-.2,0-.5-.5-.5-.6s.3-.6.6-.8l1.1-.2c-.2-1-.4-1.9-.5-2.7l-3.3-.4c-.3-1.6-1-2-2.6-1.7l-1.4.2c-1.1,0-1.6.6-1.5,1.7s.2,2.2.2,3.4.1,3.1.1,4.6c-1.6.4-2.6-.4-3.4-1.6a4.8,4.8,0,0,0-1.7-1c.1-.9-.5-1.4-1.4-1.4s-.5.8-.5,1.3-.4.8-.6.8a1.2,1.2,0,0,1-1-.6c-.1-.5,0-1.1-.1-1.6l-.6-.7-.6.6a10.9,10.9,0,0,0-.5,1.4l-.8-1.4c-.1,1.2-.2,2-.3,2.9h-.4a1.4,1.4,0,0,1-.2-.7c-.4-.8-2.8-1.8-3.5-1.3s-1.3.8-1.8-.1-.7-.1-.7,0a3.7,3.7,0,0,1-3,1.2c-.2,0-.6.2-.6.5s-1,.9-1.8,1-1.4.2-1.5.5-1.7,1.6-3.1,1.5a1.6,1.6,0,0,0-2,1.4c0,.3-.6.7-1,.8h-2.8a1.8,1.8,0,0,0,1.2.8q5.1,1.5,10.2,2.7l6,1.3c2.8.6,5.6,1.5,8.4,2S330,55.2,333.1,55.1Zm-48,6,.6,1a38.7,38.7,0,0,1,3.4,5.5c1.6,3.6,3,7.4,4.5,11.1s2.7,6.8,4.1,10.2a2.7,2.7,0,0,1-1,3.6L295.3,91l-6.1-5.8a76.6,76.6,0,0,1-5.7-5.7c-1.6-1.7-3-3.5-4.4-5.3a24.3,24.3,0,0,1-1.9-2.9,8.2,8.2,0,0,0-1,1.7c-.9,1.9-1.7,3.8-2.5,5.7s-.9,1.3-1.8.7l-2.2-1.1c-1.1-.5-1.2-1.1-.7-2.1l3.5-8.1c.6-1.3,1.1-2.6.1-4.1s-.4-1.3-1.4-1.2-1.8,0-2.3,1.2l-3.7,8.4c-1.6,3.6-.7,3.2-4.6,1.7-1.3-.5-1.4-1-.8-2.3l2.7-5.9c.7-1.5,1.6-3,.7-4.9-1.3.4-1.4,2.9-3.1,2.2a7.1,7.1,0,0,0-.7-1.5,9.7,9.7,0,0,0-2.4-1.5,4.7,4.7,0,0,0-1.7-.3c-.1,1.5-1.4,2.2-2.2,3.2s-1.1,1.2-2.2.5c1.2-1.8,1.2-1.8.2-2.3a4.2,4.2,0,0,1-.3,1.2c-1,1.3-4.4,1.9-6.1,1.2a9.5,9.5,0,0,0-2.3-.5c-.6,1.6-1,2.9.5,4a.8.8,0,0,1,0,.7c-.5.8-.7,1.4.4,1.8s.2.5.3.8l-.7.2c-.3,0-.6-.2-.9-.1s-2.4,3.2-2.3,3.8a.7.7,0,0,0,.4.6,17.1,17.1,0,0,0,3,.9,1.8,1.8,0,0,1,2,1.6c-.5.6-1,.9-1.2,1.4s.2.8.5,1,3.9,2,3.8,4.7c0,.2.4.4.6.7a4.8,4.8,0,0,1,.6,1.1l-1.3-.2c-1-.4-1.2.2-1.4.9s-.2,1.2.8,1.5a7.2,7.2,0,0,1,3.2,2.4c.9,1.4,1,3.2,1.5,4.8a18,18,0,0,0,.6,2.2c.7,2,1.8,3.9,1.5,6.3a22.5,22.5,0,0,0,2.6,0l6.2-1a81.1,81.1,0,0,1,23.6,0,1.8,1.8,0,0,0,1.5-.7,37,37,0,0,0,1.8-4,8.7,8.7,0,0,1,.9-1.1l.5.3-3.4,7c3.8,1,7.8,1.8,11.6,3a115.4,115.4,0,0,1,11.6,4.4c3.7,1.7,7.2,3.8,10.9,5.8v-.6L320,107.3c-.1-.7-.3-1.8.1-2.3s.3-2.5.2-3.8-.4-2.4-.6-3.6a12.1,12.1,0,0,1,2.1-9l3.2-4.3a1.5,1.5,0,0,0,.2-1.1,26.5,26.5,0,0,0-.6-3c-.1-.6-.1-1.2-.2-1.8a29.3,29.3,0,0,1-.7-4.1,19.3,19.3,0,0,1-.1-3.4c0-.3,0-.6.2-.7s.5-1.5.1-2.3a8.8,8.8,0,0,1-1.3-5.5c0-.2-.1-.4-.1-.6a27.1,27.1,0,0,0-.1-2.9,4.4,4.4,0,0,0-1-1.6c-.1-.2-.7-.2-.9,0-1.8.7-3.6,1.5-5.4,0h-.8a8.8,8.8,0,0,1-1.7-.2c-.4-.2-.6-.7-.9-1a3.5,3.5,0,0,1,1.1-.3,15.2,15.2,0,0,0,2.1-.3c.3-.1.4-.6.6-.9l-1-.5a13.5,13.5,0,0,0-1.8.3l.5-1.4-.2-.2-.9.7c-.2.3-.4.7-.7.7s-1.6,1.2-1.5,2.5a1.7,1.7,0,0,1-.7,1.4,9.2,9.2,0,0,1-2.5.8,10.4,10.4,0,0,1-1.6-.1c.8-1.3.9-2.4.1-3.4a2.4,2.4,0,0,0-1-.5c-.3.1-.4.6-.6.9s-.8,1.1-1.2,1.1a11.7,11.7,0,0,1-3.2-.1c.3-.7.7-1.2.6-1.5a3.6,3.6,0,0,0-1.1-1.4c-.1-.1-.9.5-.9.5s-.2,1.1-.8,1.3a2,2,0,0,0-.7.9c-.4.8-.7,1.7-1.1,2.5a7.3,7.3,0,0,1-.9.8l-.7-.9a4.7,4.7,0,0,1-.3-.9l2.2-.9c-1.2-1.1-2.3-1.1-3.1-.6a2.9,2.9,0,0,0-.8,2.3c.5,1.2-.1,1.3-1,1.4ZM415.4,207.7c3.3-8.6,6.6-17.1,10-25.7,1.5,1,3.5.1,4.5,2,0,0,.6-.1.7-.3a.7.7,0,0,0-.2-.7c-1.3-.8-.7-1.2.2-1.7s2.3-1.5,2.3-3.2a2.1,2.1,0,0,1,.5-1.3,3.9,3.9,0,0,0,1-3.2c0-1.2,1.2-2.6-.7-3.5-.1,0-.2-.5-.1-.8s.7-3.4,1-5.1.2-1.1,0-1.2l-3.1-1.5c.1-.3.2-.8.4-1.3s1.9-2.8.5-4.5a.9.9,0,0,1-.1-1,14.8,14.8,0,0,1,2.8-2.8c1.3-.7,1.9-1.2,1.4-2.6s-.3-1.9,1.2-2l-1.9-1a5.8,5.8,0,0,1-3-4.7c.1-1,.2-2.1,1.4-2.6a2.8,2.8,0,0,0,1.2-1.2,1.8,1.8,0,0,1,2.1-.9l8.5,2.5c.5.1,1.3.4,1.4.2a4.2,4.2,0,0,0,.4-1.6c-2-.4-4.1-.1-5.5-2,2.1-.6,1.1-1.9.8-3.1s-.8-2.9,1.1-3.5l-7.1-4.6c.1,3-3.2,4.2-3,7l-.2.2-3.9,5.9-2.4,4.4-4.7,8.5c-.8,1.3-1.4,2.8-3.1,3.5a3.6,3.6,0,0,1,1.7-3.9,2.3,2.3,0,0,0,1.5-2.2,15.2,15.2,0,0,1,.6-2c.4-1.1.8-2.4,2.1-3a1.4,1.4,0,0,0,.2-.7,11.7,11.7,0,0,0-.5-1.1,3.4,3.4,0,0,0-.8.9,10.1,10.1,0,0,0-.9,1.8l-2.6,4.3-.9,1.3c-.2.4-.6.8-.6,1.3a2.2,2.2,0,0,1-1.9,1.9c-.9.1-2.5-.3-2.6-.7a5.2,5.2,0,0,1,.7-2.9c.9-1.8,2.1-3.5,3-5.2s.7-1.7,1.1-2.4l3.1-5.3c1.1-2.1,2.2-4.3,3.2-6.5a3.3,3.3,0,0,0,0-1,7.9,7.9,0,0,0-3.6,5.3c-.2.9-.8,2.4-1.5,2.6s-1.7,1.7-2.3,2.8l-.3.5-2.5,4.1c-.4.8-.7,1.7-1.2,2.5s-.7,1-1,1.6a17.6,17.6,0,0,1-.9,2c-.3.4-.9.6-1.3.9s-.7-1.1-.6-1.6c.4-2.1.9-4.1,1.4-6.1,1.3-5.2,1.8-10.7,4.9-15.4a15.7,15.7,0,0,0,2-4.6,3.3,3.3,0,0,0,.1-1.4,3.4,3.4,0,0,0-3.4,2.3q-1.8,4.9-3.3,9.9c-.8,2.5-1.4,4.9-2.1,7.3-.2.8-.4,1.6-.5,2.3s-.7,3.1-1.1,4.6-1,.9-1.3.3-1.4-1.8-3.1-2-4.2-1.3-6.2-2.2l-3.8-2c-2.9-1.6-6.5-2-8.4-5.3a27.3,27.3,0,0,0,1,4.1l13.7,32.7c2.1,5.1,4.4,10.2,6.6,15.3l6,13.6C414.2,204.5,414.7,206.1,415.4,207.7Zm-401.1-89,.9-.2c.3,0,.9.1,1,.4A1.5,1.5,0,0,1,16,120c-.1.3-.5.3-.8.5s-.4,1,.2,1.1,2.1.5,3.1-.6,4-4.1,6.1-6.1a1.5,1.5,0,0,1,1.4-.3.9.9,0,0,1-.2,1.5c-1.8,1-2.5,3.3-4.5,4-.1.1-.1.3-.2.5a20.9,20.9,0,0,1-2,2.2c-.7.8-.5,1.2.3,1.5a2.8,2.8,0,0,0,3-.5,3.2,3.2,0,0,1,4.9.4,20.9,20.9,0,0,0,1.4-1.7c.3-.3.7-1.1.5-1.3a7.4,7.4,0,0,0-1.7-1.2h-.9l-.3-.4,1.8-1.5a4.5,4.5,0,0,0,1,1.3,2.3,2.3,0,0,0,1.5.7,1.4,1.4,0,0,0,1.1-.9c.1-1,.8-1.3,1.5-1.7a1.3,1.3,0,0,1,1.2.5,13.5,13.5,0,0,1,.4,2.9,5.9,5.9,0,0,0,.6,2c.9,1.3,2,2.5,3.1,3.8a6,6,0,0,1,.6,1.1c.3,1,.4,2.1.8,3.1s1.4,2.2,3.4,1.8l5.8-1.1a41.2,41.2,0,0,1,14-.3,16.6,16.6,0,0,1,4.9,1.6,16.5,16.5,0,0,1,3.2,2.8v-.4c-.1-3-.3-5.9-.3-8.8a1.8,1.8,0,0,0-1.6-2.1c-1.7-.4-2.3-1.5-2.4-3.5s.4-2.7,1.9-3.1,1.6-1.3,1.6-2.6c-.3-6.6-.6-13.2-.8-19.9-.1-1.7-.1-1.9-1.9-1.8L57.2,94.6c-.8.1-.8.6-.7,1.2s.3,3.1.6,4.6,0,1.3-1.1,1.7c-2.8,1-3.1.3-2.3,3.7s2.2,8.7,3.1,13.1c.7,2.8.2,3.5-2.1,4-1.2-1.6-2.3-3-3.3-4.6a6.5,6.5,0,0,1-.4-2c0-.3.1-.7,0-.9a20.4,20.4,0,0,0-2.1-2.8,6.8,6.8,0,0,0-3-2.3,17.3,17.3,0,0,0-3.2-1.1c-.4,0-.7-.5-1-.8a2.6,2.6,0,0,0-2.7-.9c1.8,1.4.9,2.9,1,4.5l-3.6-.6a3.7,3.7,0,0,0-1.8,0c-.9.4-1.5.3-2-.4s-1.3-1.6-2.6,0l-.8,1-2.1,2.3c-.6-.8-.6-1.4.1-2a22,22,0,0,0,2-2.3c.5-.7,1.2-1.5.2-2.4l-1.6-1.3a12.3,12.3,0,0,0,.2,1.9,1.8,1.8,0,0,1-.9,2.2c-.5.4-1.3.2-2,.2l-1.9-.2a10.9,10.9,0,0,1,.1,1.8c0,.4.2,1.1,0,1.3a1.7,1.7,0,0,1-1.4.2c-1.2-.4-1.5.1-1.3,1.1s-.2,1.1-1,1.2a2.6,2.6,0,0,0-1.4,1.1c-.3,1-.7,1.1-1.5.7S15,118,14.3,118.7Zm315.6,55.9v-.3h.8c2,.2,4,.2,5.7-1.1a10,10,0,0,0,3.6-5.4,7.5,7.5,0,0,0-.2-5.3,15.4,15.4,0,0,0-8.1-7.6c-3.1-1.2-6.1-2.5-9.1-3.9s-1.9-1.5-3,1.1c-2.7,6.2-5.2,12.4-7.9,18.5-1.9,4.4-3.9,8.7-5.8,13.1-.5,1-.4,1.7.8,2.1l5.4,2.2a96.1,96.1,0,0,0,10.3,3.5,10.2,10.2,0,0,0,5.2-.2c4-1.2,5.9-4.3,6.7-8.2a6.1,6.1,0,0,0-1.3-5.4ZM69.1,41.8h-.3c0-1.6,0-3.2-.1-4.8a1.6,1.6,0,0,0-.8-1.1l-10.1.7c-.9.1-1.1.6-1,1.4s.1,2.6,0,3.9-.2,2.4-2.5,2.9-2.5.9-2.3,2.8q.3,6.8.9,13.5c.5,6.2,1.3,12.4,1.8,18.6.1,1.2.5,1.6,1.6,1.5l12.1-1.1c.7-.1,1-.4,1-1.2a47.1,47.1,0,0,1-.3-5.3ZM260.3,162.5h.5l.6-1.4c1.3-2.9,2.5-5.9,3.9-8.9s3.5-6.3,4.5-9.6a124,124,0,0,0,2.7-13.5,1.2,1.2,0,0,0-.5-1.1l-5.8-2.4c-2.4,4.5-6.2,7.3-8.9,11.1s-5.7,7.4-8.7,11.1c.1-.6.2-1,.3-1.5,1.1-4.4,2.3-8.8,3.3-13.2.5-2.3.8-4.7,1.3-7s-.8-6.6-3.9-7.9l-1.1-.5c-1.6-.8-1.7-.7-2,1.1l-3.6,22.4c-.8,4.6-1.5,9.3-2.2,13.9a1.4,1.4,0,0,0,.9,1.8,36.1,36.1,0,0,1,4.2,1.6,1.7,1.7,0,0,0,2.4-.6l6.4-7.6c3.4-4.3,7.2-8.4,10-13.2.1-.3.4-.5.6-.7C262.7,145.1,262.5,154,260.3,162.5Zm95.6-38.2,2.8,8.6,3,8.6a1.7,1.7,0,0,1-.1,1.2c-1,.9-3.7.2-4.1-1.1-2.3-6.2-4.6-12.4-6.8-18.7a5.7,5.7,0,0,0-3-3.3l-7.9-4.2a10.1,10.1,0,0,0-9.4-.7c-1.4.5-1.8,1.2-1.3,2.6s2,5.3,3.1,7.9a5.8,5.8,0,0,0,1.5,2.1,74.2,74.2,0,0,1,11.1,12.6l2.4,3.7-.2.3-2.2-.9-.2.3a14,14,0,0,0,1.7.9c4.9,1.7,10.1,1.7,15.2,1.2a50.6,50.6,0,0,0,7.5-1.7c.8-.2.6-.7.3-1.2-2-3.7-4-7.3-5.7-11.1s-3.2-5.4-6.3-6.6Zm40.3-46.8-.3.2a6.5,6.5,0,0,0,.4,1.9c1,1.6,2.1,3.1,3.2,4.7s.4.4.6.7,2.5,3,3.7,4.6h0c.5.9.9,1.8,1.4,2.6a27.1,27.1,0,0,1,1.6,2.7c.3,1.3,1.2,1.7,2.2,2.1l6.2,2.8.8.3,4-.7,5-.8-2.7-2.2.2-.4h1.6l1.9-.3-2.3-2.8.3-.3,1.9.5-.6-1.4,1.3-.3L424,88.3l.2-.4a7.6,7.6,0,0,1,1.6.6c.8.4,1.4.6,2.1-.5l-1.6-.9a5.8,5.8,0,0,1,1-1.2c1.1-1.3,1-3-.5-3.8s-4.3-2-6.5-2.8l-11.2-4-5.4-1.5c-3.8-.9-7.6-1.6-11.4-2.6s-5-3.2-8.1-3.5l-3.2-.8v.5c1.5.4,3.1.8,4.7,1.4a7,7,0,0,1,2.7,1.4ZM313.3,152a7.3,7.3,0,0,0,.9-.8,9.1,9.1,0,0,0,.9-1.7c.5-1,.3-1.6-.8-2.1-2.8-1.1-5.4-2.3-8.1-3.5l-10.1-4.5c-.7-.3-1.4-.5-1.8.5s-1.3,3.1-2,4.6c-4.2,9.5-8.3,18.9-12.6,28.3-.5,1.3-.1,1.7.9,2.1,6.1,2.6,12.2,5,18.2,7.7,1.3.6,1.8.2,2.3-.9l.4-1c.8-1.9.7-1.9-1.2-2.7l-10.1-4.2c-.7-.3-.9-.7-.6-1.4,1.5-3.2,2.9-6.5,4.3-9.7.3-.8.7-1,1.5-.6l9.4,4.1a1.4,1.4,0,0,0,.9.1c.6-.2,1.8-3.4,1.5-4a1.5,1.5,0,0,0-.6-.5l-8.9-3.8c-1.2-.4-1.3-.9-.8-1.9l3.6-8.4c.4-.7.7-.9,1.5-.6s4.5,2,6.7,3Zm50.8,25.5a12,12,0,0,1,2-3,31.7,31.7,0,0,1,4.6-3.6c.8-.6,1.4-.5,1.6.6s1,4.5,1.4,6.8c.7,4.5,2.1,8.7,5.4,12.1a42.4,42.4,0,0,1,4.6,6.5c1.7,2.8,3.2,5.8,4.9,8.8a63.5,63.5,0,0,0,2.8-6.7,14.6,14.6,0,0,0,.6-5.1,15.8,15.8,0,0,0-1-4.9q-2.5-7-5.4-13.8c-1.4-3.3-3.1-6.4-4.7-9.6-.3-.7-.7-1.3-1.8-.9a48.6,48.6,0,0,0-15.5,10.6,7.8,7.8,0,0,0-1,1.5Zm-39.4,41.9c-.5-5.9-1.1-11.9-1.6-17.8-.1-1.7-.2-3.3-2.3-3.7a8.7,8.7,0,0,1-1.7-.7c-1.7-.7-1.6-.7-2.3,1-2.7,6.2-5.3,12.4-7.9,18.6-.6,1.4-1.3,2.8-1.8,4.3a1.5,1.5,0,0,0,.2,1.3c1.3.7,2.6,1.2,4,1.8s1.3,0,1.6-.9,1-2.7,1.5-4l3.4-9.3c.4-1,.6-2,1-3.1h.4a18,18,0,0,0-.2,2.2c.5,6,1,12,1.6,18a1.2,1.2,0,0,0,.7,1.1c1.2.6,2.4,1,3.7,1.5a1.2,1.2,0,0,0,1.7-.9l5.9-14.3,3.9-8.9c.4-.9,0-1.3-.7-1.6l-3.2-1.3c-1.6-.6-1.7-.6-2.3,1.1a6.1,6.1,0,0,0-.5,1.2c-1.5,3.9-2.9,7.7-4.3,11.6A16.2,16.2,0,0,0,324.7,219.4Zm-87.5-50.6q0-6.6-5.1-9.3c-3.4-1.8-6.9-3.3-10.3-4.9-.9-.4-1.4,0-1.8.8-1.4,2.9-2.9,5.8-4.3,8.8l-6.9,14.4c-.5,1-.2,1.4.7,1.7s3.1,1.4,4.7,1.9a59.1,59.1,0,0,0,8.2,2.4,9.1,9.1,0,0,0,9.3-3.3,40.8,40.8,0,0,0,2.8-4.4A20.3,20.3,0,0,0,237.2,168.8Zm125.5,27c3.9,10.9,8.5,21.3,15.9,30.5l.8-1c2-4.3,4.2-8.6,6.2-13a3.4,3.4,0,0,0-.3-2.2c-1.4-2.6-3.1-4.9-4.5-7.5a11.2,11.2,0,0,0-6.6-5.5A24.4,24.4,0,0,0,362.7,195.8Zm-77.9,13c-.1,1.6,1.2,4,3.7,5.6a31.9,31.9,0,0,0,7,3.2c2.4.7,4.8.8,7-1.1s4.1-5.7,5.7-8.8c.4-.8-.3-1.2-1-1.5l-7.4-3c-1.6-.7-2.1-.5-2.5,1.2s-.1,1.5,1,1.8a9.1,9.1,0,0,1,2.5,1.1c.3.2.6.8.5,1a22.2,22.2,0,0,1-2.5,4.2c-1.1,1.4-2.7,1.5-4.3.9s-3.5-1.5-3.7-3.7a12.6,12.6,0,0,1,.6-3.8,47.2,47.2,0,0,1,4.5-10c1.4-2.3,2.9-3.2,5-2.8s4.5,2,4.3,4.7a1.8,1.8,0,0,0,1.1,1.3,16.7,16.7,0,0,0,3.9.6c.7.1,1.1-.2.9-.9s-.8-4-2.4-5.3c-3.4-2.8-7.2-4.7-11.8-4.6a7.5,7.5,0,0,0-4.1,1.4,20.3,20.3,0,0,0-4.4,5.7A28.1,28.1,0,0,0,284.8,208.8Zm-26.4-38.9h.4c.4-.9.9-1.7,1.3-2.7s.8-.8,1.5-.5l3.6,1.6a1.8,1.8,0,0,0,1.6-.4c2.5-2.7,4.9-5.5,7.3-8.3l17.7-20.6c.6-.7.6-1.2-.4-1.6l-5.5-2.4a1.5,1.5,0,0,0-2,.6L275,147.1c-2.1,2.8-4.1,5.7-6.1,8.5l-.6.8h-.2c.9-4,1.7-8,2.5-12h-.3l-11.9,24.9C258.3,169.3,258.4,169.7,258.4,169.9Zm5.4,33.8h1.4c3.7-.2,7.3-2.7,6.8-7.4a10.6,10.6,0,0,0-1.2-3.4c-1.5-2.5-3.1-4.8-4.7-7.3a3.6,3.6,0,0,1-.2-4.1c.6-1.1,1.8-1.3,3-1.3a8.8,8.8,0,0,1,6.1,2.7c.7.8,1.3.7,1.7-.2s1.1-2.7-1-4l-.9-.5c-3.1-1.7-6.3-3.1-10-2.4a6.2,6.2,0,0,0-4.8,9.3c.6,1.3,1.5,2.5,2.2,3.7l2.9,4.4a3.9,3.9,0,0,1,0,4.8c-.9,1.2-2.8,1.6-4.7,1a13.6,13.6,0,0,1-5.2-3.3.9.9,0,0,0-.9-.4c-1.2.6-1.6,3.5-.5,4.3A17.5,17.5,0,0,0,263.8,203.7Zm215.9-63.6-.2.4,1.4.6c.4.3.8.7.8.9s-.5,1.2-1,1.3-2.8.6-3.3,2.5-.8,1.1-1.4,1.5a1.6,1.6,0,0,1-1.5-.2c-.4-.9-1-.9-1.8-.8a5,5,0,0,1-4.5-1.3,1.3,1.3,0,0,0-.9-.5l-6.6-2.3c-.5-.2-1-.8-1.6-.8s-2.5-1-2.4-2.7a1.3,1.3,0,0,0-.7-.9c-.2-.1-.6.3-1,.5l-.3.5c-.9,1.1-1.4,1.1-2.3,0l-.7-.4-2.3-.2c-.3-.1-.6.2-.9.4s.3.6.6.7l8.1,2.8,3,1.2-1,1.1a17.1,17.1,0,0,1,2.7.9c.9.5,1.5.4,1.8-.6l1.2.3c4.1,1.6,8.3,3.1,12.4,4.8a5.3,5.3,0,0,1,3.3,4.4,14.3,14.3,0,0,1-.6,2.1l-1.8-2.4-1.5,1.8-.3-.3a17.1,17.1,0,0,1,1.2-2.3c-1.3-.5-2.4-2.1-4.2-.9l-.2-.4c-.8-1.4-.8-1.3-1.9-.1s-.9,2-2.2,1-1.8-1.5-2.7-.8a10.5,10.5,0,0,0-1.5-1.5,5.6,5.6,0,0,0-1.9-.9h-1.8a6.9,6.9,0,0,1-2.5-.2c-1.4-.6-2.5-1.9-4.3-1.5-.1.1-.3,0-.4-.1s-2.6-1.2-4-1.5-.6-.3-.9-.6-.8-1-1.3-1a10.1,10.1,0,0,0-3,.1c-1.8.5-2.3.1-2.1-1.6a.4.4,0,0,0-.1-.3c-.6.5-1.2,1.3-1.8,1.4s-1.2-.9-1.5-1.5.5-1,.8-1.8l.5.7.3.5c.9-.8,1-1.1,0-1.5l-3.3-1.1a3.4,3.4,0,0,0-3.1.9c-.5,1,.1,1.7.7,2.4a4.1,4.1,0,0,0,1.3,1l6.7,2.8a1,1,0,0,0,.9-.4c.5-.8,1.1-.7,1.8-.4s3.8,1.6,5.6,2.2c4.3,1.6,8.7,3,12.9,4.6,2.3.8,4.4,2.1,6.9.8l.4.3c-.5,1-.9,2-1.4,3.2l3,1.2c1.9.6,3.8,1.7,5.8.1a1.1,1.1,0,0,1,.8.1,1.2,1.2,0,0,1,.1,1,9,9,0,0,1-.7,1.4c2.8-1.5,5.1-6.6,3.7-7.8a9.3,9.3,0,0,1-.4,1.3l-.6-.4c-.2-1.3-.9-2.5,0-3.8a5.9,5.9,0,0,0,.6-1.4c.4-2.2.1-4.5,1.4-6.5.1-.1-.1-.7-.3-.8S481.1,140.5,479.7,140.1Zm-58.1,58.1-.3.2,1,1.6c.2.3.4.9.3,1a2,2,0,0,1-1.1.6,5.5,5.5,0,0,1-1.8-.1c-.8-.2-1.1.2-1.3.9s-1.4,3.5-2.2,5.3a3.1,3.1,0,0,0,1.7,4.2c1.6.7,3.3,1.2,4.8,2a55.2,55.2,0,0,1,5.4,2.8l2.5,1.4.2-.3v-.7a39.5,39.5,0,0,0,4.1-2.2c1.8-1.5,3.5-3.2,5.3-4.8s1-2.2,0-2.6l-1.9.6-1,.3c-.5.1-1.1.3-1.4.1a28.6,28.6,0,0,1-4.8-3.6c-1.3-1.4-2.5-2.7-4.5-2.8l-.5-.4,1.3-.8Zm-164.4-28a1.6,1.6,0,0,0-.6-.5l-1.4-.5-8.9-4.1c-.8-.3-1.3-.3-1.6.5l-2.2,4.9-8.6,18.3c-.5,1-.4,1.5.6,1.9l10.2,4.2c1.1.4,1.4-.3,1.7-1.1s.5-1.5-.6-1.9l-4.1-1.7c-.6-.3-1.3-.6-.9-1.5s2.2-4.3,3.2-6.5,1.2-1.2,2.2-.8a32.9,32.9,0,0,0,3.9,1.7,1.4,1.4,0,0,0,1.4-.4c1-1.4.6-2.1-1-2.7a25,25,0,0,1-3.8-1.5,1.2,1.2,0,0,1-.5-1.1c.9-2.2,1.9-4.5,3-6.7a1.4,1.4,0,0,1,1.3-.3l4.3,1.8C256,172.7,257.2,171.8,257.2,170.2ZM61.9,186.9h.4a25.6,25.6,0,0,0,1.6-2.5l5.4-10.6,3.1-6c.7-1.3.5-3.2-.3-3.7a42.3,42.3,0,0,0-4.7-2.5c-1.5-.6-2-.2-2.1,1.5s-.1,1-.4,1.1-2.5,1.3-4,1a1.5,1.5,0,0,0-1.2.5c-.7.9-1.1,2-2.5,2s-1,.7-1,1,.7,3.1,1.1,4.6.7,1.5,1,2.3,1,2.8,1.7,4,.1,3.1,1.7,4,.1.7.1,1.1S61.9,186.2,61.9,186.9Zm215.3,23a6,6,0,0,0,.9-1.3l1.5-3.3c1.6-3.8,3.3-7.7,5-11.5s2.3-5.5,3.7-8.2c.5-1,.3-1.3-.5-1.7l-3.9-1.6c-.7-.3-1.2-.2-1.5.7-1,2.5-2.1,4.9-3.2,7.3l-6.3,14.2c-.4.9-1.2,2.1-.9,2.8s1.7,1.1,2.7,1.5Zm-127.8-42a6.8,6.8,0,0,0-5.7,2.8,23.5,23.5,0,0,0-4.1,8.6,5.5,5.5,0,0,0,2.6,6.5,24.9,24.9,0,0,0,3.3,1.6,7.2,7.2,0,0,0,8.5-2.1,24.1,24.1,0,0,0,4.2-8.1c.7-2.3.7-4.6-1.3-6.3A12.3,12.3,0,0,0,149.4,167.9Zm291,1.2c-1.9.7-2.8,0-2.6-1.8s.2-.8.1-1.2-1.1-1.4-1.5-1-1.1,3-.5,3.7a2.8,2.8,0,0,0,.9,1c1.3.9,1.4,1.3.6,2.6a11.2,11.2,0,0,0-1.1,2.5c-.5,1.6,0,3.7-1.8,4.8-.1.1-.1.4-.1.5-.7,1.7-1.3,3.4-1.9,5.2a2.5,2.5,0,0,0,0,1.9c.2.3,1.2.3,1.8.1a2.7,2.7,0,0,0,1.9-2.8,2.9,2.9,0,0,1,.3-1,17.7,17.7,0,0,0,.4-2c-.1-.9.2-1.3,1.1-1.3s1.9-.9,2.2-2.2,1.4-3,3.5-2.8,1.3-.1,1.2-1.2a7.6,7.6,0,0,1,.1-2.6c.7-1.8,1.6-3.5,2.2-5.2s.7-2.5,1.2-3.6,1.1-2.2,1.6-3.3-.1-.8-.1-1.1a2.7,2.7,0,0,0-.8.7c-.7,1-1.2,2-1.8,3s-.6-.8-.5-1.1a13.8,13.8,0,0,1,1.4-2.7c1.3-1.8,1.3-2-.8-2.5v-2.1a22.3,22.3,0,0,0-1.7,2.5,23,23,0,0,0-2.3,4c-.2.5.2,1.2.3,1.8s.2,1.2,0,1.5A5.2,5.2,0,0,1,442,165C439.9,166.1,439.5,167.1,440.4,169.1ZM177.6,179.4l-2-1.1c-1-.5-1.6-.3-2.1.8l-5.7,11.5c-1,2.1-2.5,2.6-4.5,1.8s-2.8-2.2-1.7-4.6a2.5,2.5,0,0,0,.4-.7c1.7-3.5,3.4-7,5.2-10.5.6-1.1.4-1.7-.7-2.1l-.9-.3c-.9-.5-1.4-.3-1.8.6-2.1,4.2-4.2,8.2-6.2,12.4-.9,2-.7,3.4.8,4.6a13.7,13.7,0,0,0,8.4,3.4,4.2,4.2,0,0,0,4.1-2.3l2.3-4.4C174.7,185.5,176.1,182.5,177.6,179.4Zm291.1,28.8v-.3a14.9,14.9,0,0,1-2-1.5,1.5,1.5,0,0,1-.3-1.3c0-.2.7-.3,1-.4l1.5-.4a4.4,4.4,0,0,1,1.6-.2c2.9.8,5.1,2.7,7.6,4.2l1.6.8c.1-1.5.8-2.7-.5-3.9a5.6,5.6,0,0,0-4-1.4l-9.5-.7a2.9,2.9,0,0,1-1.9-.5,16,16,0,0,1-2.5-2.7c-.8-1.5-1.8-2.6-3.5-2.5a18.9,18.9,0,0,0-4,.8c-1.9.4-3.6,1.1-4.6,2.9s-.3.6-.6.6-3.6,1.1-5.5.4l-2.2-.4v.3a4.3,4.3,0,0,0,1.3.5c2.5.2,4.9.4,7.3.4a7.3,7.3,0,0,1,4.1,1.2c2.2,1.2,4.4,2.6,7,2.8l5.7.7A21,21,0,0,1,468.7,208.2ZM107.2,170.9c1.5,1.7,3.1,1.8,4.5.3s1.7-1.6,3.7-.7a18.6,18.6,0,0,0,2.5,1c1.5.4,1.7,1.3,1.5,2.7s-.1,2.5,2,3,1.3,0,1.4-.9l2.4-16.8c.2-2-.1-2.5-2.1-2.8a3.6,3.6,0,0,0-1.9.8l-13.6,12.8Zm95-162c-.7.6-1.3,1.4-2,1.5a38,38,0,0,1-5.8.6,30,30,0,0,1-13.8-2.8c-1.4-.6-1.9-.2-2,1.5l1-.5a20,20,0,0,0,3.5,2.2,52.1,52.1,0,0,0,14,2.9,6.5,6.5,0,0,1,5.4,2.9l-5.9.8c3.2,1.7,14.1-.3,18.6-3.3-3.6.6-7.1,2.2-10.9,1.8.5-.7,1.5-1,1.8-1.7s2.4-2,3.9-2.6.9-.7.5-1.3l-2-3.5a9.9,9.9,0,0,0,.2,1.7C206.4,9.3,204.3,10.7,202.2,8.9ZM469.9,210.5l-1.5.3a14.5,14.5,0,0,0-3.6,0,4.9,4.9,0,0,1-4.5-1.1c-.3-.2-1,.1-1.4,0a5,5,0,0,1-1.9-.5c-.1-1.4-1.3-1.6-2.2-1.9a16.8,16.8,0,0,0-3.2-.9,26.3,26.3,0,0,0-5.6-1,9.2,9.2,0,0,1-4.8-1.6l-2.2-1.1h-.9a3.8,3.8,0,0,1-4.8-.6l-1.5-.8a4.2,4.2,0,0,0,2.3,3.2,2.5,2.5,0,0,0,1.8.6c2.1-.5,3.6.4,5,1.8a4.1,4.1,0,0,0,1.1.7l3.8,1.6c1.3.6,2.5,1.7,4.2,1.2s1,.1,1.2.8,1.5,1.6,2.4.5a2.9,2.9,0,0,1,3.4-1c1.5.4,3.1.6,4.6,1.1a4.4,4.4,0,0,0,3-.1c1.3-.6,2.6-1,3.9-.3s-.3.7-.2,1c.6,2.9,3,3.9,5.4,2.4.8-.5,1.4-.7,2.1.2s.7.4,1.1.6C475.2,213,472.4,212,469.9,210.5ZM134.2,170.2l-.3-.2c0-2.1-.1-4.3,0-6.4s-.1-2.7-2.5-3.6-1.5-.2-1.4,1,.4,5.2.7,7.7a8.2,8.2,0,0,1-1,5.7,31.7,31.7,0,0,0-2.1,4.1,1.4,1.4,0,0,0,.3,1.3c2,1.5,3.1,1.1,4.1-1.1l.2-.4c1.3-2.3,2.1-4.8,4.4-6.4s4.7-3.5,7-5.3c.4-.3.6-.7,1-1-2.6-1.6-3.4-1.5-5.4.2l-1.4,1.2Zm313.3,50.1c-.7-.8-1.3-1.9-2-2-2.5-.4-5.1-1.3-7.5.2-.3.1-.6.5-.9.6l-5.6,2.5a11.9,11.9,0,0,1,.9,1.5c.9,1.9,1.8,3.8,2.6,5.7a17.6,17.6,0,0,1,.7,3.3c.2,1.2,1.3,1,2,1.3s.5-.2,1.1-.5c-2.8-.5-3.1-1.3-2-3.5a5.9,5.9,0,0,0,.6-1.4l-1.9-.9c2-1.5,3.9-1.2,5.8-.5s2.2.6,2.7.2a28.9,28.9,0,0,0,3.8-4l-.3-.4-3.7,2.6c-.7.6-2.2.8-2.7.3s.3-1.5.7-2.1l.9-.5h.4a7.2,7.2,0,0,1-.1,1.3c1.8-2.8,5-2.2,7-4.1Zm-81.6-52.7c.6-.2,1-.5.6-1.6-1.9-4.9-3.7-9.9-5.4-14.8-.3-.9-.7-1.4-1.7-1.3h-8.7a5.9,5.9,0,0,0,.5,1.3c.7,1.6,1.4,3.1,2,4.6a3.2,3.2,0,0,0,2.1,2,17.1,17.1,0,0,1,4.5,2.8A86.8,86.8,0,0,1,365.9,167.6ZM311.3,270.8a4.7,4.7,0,0,0,4.9-3.2,4,4,0,0,0-1.5-5c-2-1.2-4.3-2.1-6.4-3.2s-1.8-.3-2.1.9-.6,1.4-.8,2.1c-1.7,4-3.4,8-5,12-.5,1.1-.1,1.4,1.7,2.2s1.2-.2,1.4-.9,1.5-3.4,2.1-5.1.8-1.3,1.9-.9A23.6,23.6,0,0,0,311.3,270.8Zm155-103.3c-.3.7-1,1.3-1,1.8s-.6,2.8-1.1,4.1a10.2,10.2,0,0,0-.4,1.5l2.2-2,.4.4-.8,1.2a6,6,0,0,0-.9,1.3,3.4,3.4,0,0,0,.1,1.4,10.9,10.9,0,0,0,1.1-1c.3-.3.5-1,.8-1.1s1.1-.6,1-1.6a5,5,0,0,1,.6-2.4c.1-.2,1.2.1,1.8.3l.6.2c-.2.9-.3,1.7-.5,2.5h.4c1.4-2.3,3.5-4.5,2.3-7.9l.9.4a19.6,19.6,0,0,1,1.8-2.1c.1-.1.9.4,1.4.6s.6-.8-1.4-2.2c-.1-.6-.3-1.5-.7-1.5s-1.1.4-1.7.7-.1-1.4-.4-1.7-3-.1-4.4-.6h-.2c-.2,1-.9,1.3-1.8,1.4a1,1,0,0,0-.4.8c-.2,1.5-.4,3-.6,4.7ZM417.2,20.6c-.9.3-1.9.4-1.8,1.5a4,4,0,0,1-1.5,2.9,12.7,12.7,0,0,0-3.8,6.1c2.7.9.2,2.6.6,4l1-.6c.3,2.4.4,4.6-1.6,6.8l3.1-2c.6.3,1.2.8,1.4.7a3.7,3.7,0,0,0,.7-1.4c.2-.8,0-1.8.5-2.4,1.4-2.1,1.9-4.5,2.5-6.9S417.9,23.6,417.2,20.6Zm-310.8,149-1.3-1.2-3.3-1.3c-2.5-1.1-2.1-.9-1.1-3.3v-.2l6.3-11.8c.5-.9.7-1.6-.5-2.1s-2.4-1-3.1.4L99,158.6c-1.1,2.2-2.3,4.4-3.5,6.6-.1.3,0,1.2.3,1.4,2.9,1.3,5.9,2.5,9,3.7C105.1,170.4,105.6,169.9,106.4,169.6ZM369.9,164c4.3-2.2,5.5-6,3.7-9.9a7.1,7.1,0,0,0-8.7-3.9ZM354.3,39.6h.4l.8-1.3a5.1,5.1,0,0,0,.7-1.5c.4-1.1.5-2.4.9-3.5s1.5-5.1,2.8-7.4c3.2-5.2,6.9-10.1,11.9-13.9,2-1.5,3.9-3.3,6.8-2.9.2.1.5-.3.8-.4s-.6-.6-.8-.6-3.3.5-4.7,1.3c-3.6,2-7.2,4.3-10.8,6.4a33.1,33.1,0,0,0-10.8,11.2,2.2,2.2,0,0,1,.1.6c2.5-2.9,4.6-6.1,8.3-7.3.1-1.1,1.4-2.2,3.4-2.5l-7.3,9.3,1.4-.3C356.8,31.3,355.6,35.4,354.3,39.6Zm24,193.6.3-.2-4.2-5.2c-1.3-1.9-2.7-3.8-3.9-5.8s-2.3-4-3.4-6.1-2.2-4.1-3.2-6.2-1.9-4.2-2.8-6.3-1.6-4.2-2.4-6.4C358.2,205.3,369.6,228.7,378.3,233.2Zm80.5-43.6h.5l.9-2.4c-1.6-.5-1.6-.5-1.4-1.3l-2.1-1.1-1-.2-1.7-.2c-.3,0-.7-.1-.8.1s-.2.5-.2.8a2,2,0,0,0,.3.8,6.6,6.6,0,0,0-2.1.8c-1.4.7-2.6,1.6-4,2.3a9.1,9.1,0,0,1-2.5.7l-2.1.7c-.1.8-.8,1.3-2,1.2a1.1,1.1,0,0,0-.6.3c-.9,1.6-2.7,1.5-4.2,1.9s-1.8,1-2.6,2.4l2.4-.2c.4,0,.9-.4,1.3-.3,3,.4,5.3-1.6,8.1-2.1.1,0,.2-.2.3-.3s2.1-3.5,4.5-3.4h.1c.9-.8,1.8-1.7,2.7-2.4a4.4,4.4,0,0,1,1.5-1,6.1,6.1,0,0,1,4.9,1.1C458.9,188.4,458.9,189,458.8,189.6Zm-100.3-15,5.5-5.3a.9.9,0,0,0,.1-1,14.5,14.5,0,0,0-2.4-3.5c-1.7-1.6-3.7-2.9-5.5-4.3a2.9,2.9,0,0,0-1-.3Q356.9,167.6,358.5,174.6ZM431,232.4h.3l1.8-1.9a1.7,1.7,0,0,0,0-2.5,7.6,7.6,0,0,1-.8-2.1,13,13,0,0,0-1.4-2.6c-.1-.2-.7-.2-1-.1l-3.3,2.3c-1.3,1-3,1.6-3,3.6,0,.2-.4.5-.7.8l-1.5,1.9c2.4-.1,5,.5,7.9-.5l-2.6-.7c.9-1,.9-1,4.8.5ZM396.8,208h-.3c-.6,2.3-1.2,4.6-1.7,7a3.7,3.7,0,0,0,.3,2.1c2,3.8,4.1,7.6,6.2,11.3.2.3.8.3,1.1.5a3,3,0,0,0,.2-1.3c-.4-1.2-1.1-2.4-1.5-3.7l-3-11.1C397.7,211.2,397.2,209.6,396.8,208Zm43.7,42.7.6.5a14.9,14.9,0,0,1,2.9,2c2.1,2.1,3.1,2.2,5.8,1.1a7.4,7.4,0,0,0,4.1-4.4,11.4,11.4,0,0,1-2.5.2c-1.7-.3-3.3-.9-4.9-1.3l-2.3-.5a2.4,2.4,0,0,0-1.2.3ZM209.8,207.8a5.4,5.4,0,0,0-1.3-.7,1.3,1.3,0,0,0-1,.3,8.9,8.9,0,0,0,.3,2.8c.1.3,1.1.3,1.7.4h.5c1.2.7,1.7.1,2.1-1a10.4,10.4,0,0,1,.7-1.2l1.2,2.4c.2.4.2,1,.5,1.2a10.3,10.3,0,0,1,4.2,4.3c.2.3.7.4,1,.7l1.3,1.4.9,1.2c-.4-2.5-1.9-3.9-3.2-5.4s-.9-.8-1.3-1.3c-3.2-4.7-6.6-9.2-8.8-14.5a20.9,20.9,0,0,0-1.6-2.9l-.4.2c0,.3-.2.5-.2.8a14.5,14.5,0,0,0,2.8,6.2C211.1,205.4,212,205.7,209.8,207.8Zm281.6,18.8-5.4-5.4a23.3,23.3,0,0,0-3.7-2.7c-.4-.3-1-.5-1.3-.3s-1,3.5.1,4.3l5.7,4.2c.2.2.4.3.6.2ZM215.6,193.1c-.5.9-.8,1.8-1.3,2a4.7,4.7,0,0,1-2.6-.3c-.4-.1-.5-.9-.7-1.3s-.8-1.2-1.7-.6a1.6,1.6,0,0,0-.4,2.5,3.6,3.6,0,0,0,2.3,1.5,2.5,2.5,0,0,1,1.7.6c.3.3.8.4,1.2.7s.8.5.9.8.7,1.2,1.6,1.3.9-.7,1.2-1.3a2.4,2.4,0,0,1,1.3-.9c.2,0,.6.6.9,1a11.7,11.7,0,0,1,.5,1.1c1-.9.8-1.7-.3-2.6l-1.8-1.9Zm-16.3-1.7c.7,0,1.5-1,1.9.4s1.3,2.4,3.5,1.9l1,1.3a4,4,0,0,0,.1-3.2,8.3,8.3,0,0,1-.8-2.2,2.9,2.9,0,0,0-2.3-3c-1.5-.5-2.9-1.2-4.5-1.9.1.5.1.6.2.7s1.3,1.7,0,2.5a1.8,1.8,0,0,0-.1,1.3Zm128.1-85.9a18.5,18.5,0,0,0-.1-2.3c-.1-.8-.4-1.6-.5-2.4s-1-2.5.1-3.7a.4.4,0,0,0-.1-.3L324.9,93a18.6,18.6,0,0,0-.5,2.8c-.2,4.8,1.1,9.3,2.4,13.8.1.3.6.5.9.8a9.1,9.1,0,0,0,.7-1.4c.1-.2,0-.4-.1-.7,1.6.8,3.1-.5,3.5-2.8Zm71.7,130.8H388.7c-.2,0-.5.4-.6.6a1.8,1.8,0,0,0,.4.9,15.1,15.1,0,0,1,1,1.7c.4,1,2.9,2.4,3.8,2C395.8,240.3,397.4,238.2,399.1,236.3Zm-236.8,4h.6c0-.5.3-1.1.1-1.4-1.2-2.1-.9-4.5-1-6.7s-1.6-6.5-1.3-9.9a2.1,2.1,0,0,0-.3-.7c-.1-1.2-.8-2.4.6-3.3s-.1-.8-.3-1.1a25.8,25.8,0,0,1-1.4-3.9c-.2-.9.4-1.2,1.3-.8s2.4,1.5,3.7,2.1.8.1,1.3.1-.3-.9-.6-1.1l-5-3.3,3-2.8h-.6l-3.7,2.1a1.4,1.4,0,0,0-.3,1.1l1.2,9.2c.8,6.2,1.5,12.4,2.3,18.5A11.8,11.8,0,0,0,162.3,240.3Zm333.1,10.8c-.6-1.4-.9-2.6-1.4-3.6s-1.3-2.1-2.1-3.4c-.6,1.9-1,3.4.3,4.7a4,4,0,0,1,1,1.2,3.3,3.3,0,0,0,2.8,1.7l1.2.6,2.1.8a9.8,9.8,0,0,0,.6-2.3,12.3,12.3,0,0,0-.3-3.3,3.6,3.6,0,0,0-.3-1.8,3.6,3.6,0,0,0-1.1-1l-.5.3.6,1.2v.5c-1.8-.5-1.7.9-2,2.1S495.8,250.1,495.4,251.1Zm-33.6-10.6,5.7,1.9a4.9,4.9,0,0,0,2.4.5,8.2,8.2,0,0,0,2.6-1l2.6-1.6v-.6l-4.4-.8c-.8-.2-1.7.1-2.3-.3s-2.3-.3-3.4.2Zm-21-26,1.5-.2a10.4,10.4,0,0,1-.5,1.2l1.5.3,4.4.5,2.8.8,7.6,1.8c.3.1.5.3.7.2a1,1,0,0,0,.7-.4,1.2,1.2,0,0,0-.6-.6c-.3-.2-.9,0-1.2-.2s-3.6-1.3-5.4-1.4-2.4-.3-3.3-1.5c-2.2-2.8-4.8-4.2-7.8-2.3C440.4,213.2,440.1,213.7,440.8,214.5Zm-265.9-8.2c-1.6.4-2.7.2-3.6-1s-1.2-1.6-.5-3.6l-1.2.7c-1.4,1-2.7,2.1-4.1,2.9s-2.2,2.9-2.1,4.8,1.7,2.6,3.2,2.8a3.9,3.9,0,0,0,3.2-2,4.1,4.1,0,0,0,0-1.1l-1.7,1.3a2.4,2.4,0,0,1-3.3-.9,2,2,0,0,1,.4-2.7,2.4,2.4,0,0,1,3.4.4l1,1.2.5-.2a3.8,3.8,0,0,0-.4-1.6c-.9-1.4-2.4-1.6-4-1.2,1.6-2.3,3.6-2.1,5.1.4S173.5,208.2,174.9,206.3ZM388,35.4l.3.2.9-1.7a1.6,1.6,0,0,1,1.8-1.2c1.8-.1,3.7-.5,5.5-.7a14.1,14.1,0,0,1,2,.1l1.3-.3.2-.5c-2.5.1-2.2-1.7-2.2-3.1h-1.3V26.9h-.4c-.4,1.1-.9,2.1-1.2,3.2s-.9,1.2-2,.9l2-2.9-.2-.3L391,29.2l1.4.8-1.5,1.2a9.1,9.1,0,0,0-.6-1.6L387,32.2h2.3Zm31.6,187.1.4.2,4.3-4.5c.1-.2.1-.8-.1-.9l-4.2-2.6-2.9-1.9c.1.5,0,.8.1,1s1.4,2.8,2,4.2,1.2,2,.3,3.2S419.6,222.1,419.6,222.5Zm40.7-3.4-.2.3,1.6,1A33.6,33.6,0,0,1,465,222c1,.6,2.1.6,3,1.4s2.6,1.4,4.4,2.2c-.6-1.7.3-2,1.5-2.2-2.7,0-4.8-1.5-6.9-2.6s-2.1-1.7-3.5-1.7Zm-99.9-32.3c3.6-1.2,4.5-3.5,2.5-6.4l-.3-.5c-.8-.9-1.6-.8-1.9.3A12.3,12.3,0,0,0,360.4,186.8Zm-84.5,38.4c.1-1.4-2.1-3.4-3.2-3.2s-.6.4-.9.6l-1.5,1.5c-.4.4-1,.9-.2,1.3a3.2,3.2,0,0,0,2.3.4c1.1-.2,1.7-.2,1.7,1s.5.6.7.8.7-.4.8-.7S275.8,225.6,275.9,225.2ZM207.4,67.5h-.3c-.2,1.7-.6,3.5-.7,5.2a2.2,2.2,0,0,0,.7,1.9c1.3,1,2.8,1.8,4.2,2.7a1.7,1.7,0,0,0,1.2.4c.5-.2,1-.7,1.6-1s-.5-.9-.9-1.1a43.4,43.4,0,0,0-5.3-2.6,1.4,1.4,0,0,1-1-1.9C207.1,69.9,207.2,68.7,207.4,67.5Zm194.3-46,.4-.3a1.4,1.4,0,0,0-.5-.8l-3.4-2.8a2.8,2.8,0,0,0-4.2.7c-.5.7-.7,1.2.5,1.3a1.6,1.6,0,0,1,.8.8c.1.5-.1,1.1.1,1.6s.4.7.6,1a7.6,7.6,0,0,0,.8-1.1c.1-.2-.2-.5-.2-.8a18.9,18.9,0,0,1,.5-2.3,8.5,8.5,0,0,1,1.7.6Zm-41.7,9c-.4.9-.7,1.7-1.1,2.5a14.8,14.8,0,0,0-1,2.7,19.5,19.5,0,0,0,.5,3.8,10.1,10.1,0,0,1,1.6-1l2.2-1c.3-.1.5-.6.7-.9a5.3,5.3,0,0,0-1.2-.3,12.1,12.1,0,0,1-1.8.5c-.3,0-.7-.4-.9-.7a4.8,4.8,0,0,1,0-1.2h.2l.5.8C361.7,33.8,361.7,32.4,360,30.5Zm76.2,224.8-6.2,4.8h7.5C437.1,258.6,436.7,256.9,436.2,255.3Zm19.7-93.6-2.3,2.4c-.2.2-.2.6-.3.9a5.6,5.6,0,0,1-.4,1.2,12.2,12.2,0,0,0-2,4.7,2.5,2.5,0,0,0,.2,1.2l.8-.8a27.5,27.5,0,0,0,2.2-2.6c.3-.3.6-.5.7-.9a48.8,48.8,0,0,0,1.2-5.5C456.1,162.1,455.9,161.8,455.9,161.7Zm-65,69.1,5.4-.6c-1.2-2.1-2.2-4-3.5-6.2C392.1,226.4,391.6,228.4,390.9,230.8ZM213.8,53.4v.3l1.9,1.2,4.7,2.9c2.1,1.3,2.6,1.1,3.2-1L220.6,55a1.8,1.8,0,0,1-1.1.2c-1.3-.4-2.5-1.1-3.8-1.6A12.3,12.3,0,0,0,213.8,53.4ZM344.6,79.2l-.2-.3a25.8,25.8,0,0,0-8.1,4.5,1,1,0,0,0,.9-.1l1.4-.8a4.2,4.2,0,0,1,1,1.7c.3,2.3.6,2.5,3,2a31.4,31.4,0,0,0-1.8-3.1c-.8-1.2-.8-1.3.5-2Zm49.2-42.1c.5-1,1-2.3,1.6-3.5a31.8,31.8,0,0,0-4.8,2.8,2.4,2.4,0,0,1-.9.3c-1.3.1-1.8.6-1.7,2.2.3-.1.5-.3.7-.2,1.7.6,2.8-.3,3.7-1.5S393.1,37.1,393.8,37.1ZM156.4,201.3c.3,2.1.6,4.3,1,6.3.1.4.8.7,1.1,1s.7-.8.7-1.2a38.8,38.8,0,0,0-.4-4.8C158.6,201.2,158,200.9,156.4,201.3ZM172.2,252h-.5a2.7,2.7,0,0,1,0,.9c-1,2-.1,3.8.6,5.6s.9,2.2,1.4,3.4l.6-2.3.8,1a10.9,10.9,0,0,0-2.1,7,2.8,2.8,0,0,0,.8-1.5c0-2.1.2-4,2.4-4.9a3.7,3.7,0,0,0-2.7-2.6,1.6,1.6,0,0,1-.9-.9c-.2-1.4-.3-2.9-.4-4.3A6.5,6.5,0,0,1,172.2,252ZM410.8,36.9h-.4l-.8,1.1a3.8,3.8,0,0,0-1,1.2,10.9,10.9,0,0,1-.5,1.7c-.8,1.3-1.8,2.5-2.7,3.8s-1.4,1.3-2.5.4l-2.2,2.6.2.3c1.7-1.1,3.9-1.4,5.2-3.2s3.6-4.2,4.7-6.8A3.4,3.4,0,0,0,410.8,36.9ZM265.4,263.8c-.1-1.5-1.2-1.7-2-1.9s-1.3.1-1.5.9-.7.5-.9.9a10.4,10.4,0,0,0-.6,1.6,2.8,2.8,0,0,0,1.5.4,4.7,4.7,0,0,0,2-.6A8.7,8.7,0,0,0,265.4,263.8Zm204.4-88.5-.5-.2-2,2.8a6.8,6.8,0,0,0-.2,1.4l1.3-.2,1.9.6-1.1,3.4.4.2a8.6,8.6,0,0,1,1.3-1.4,2,2,0,0,0,.2-3.1,8.3,8.3,0,0,0-1.6-.9l.3-.4-.5,1.1-.6-.5C469,177.2,469.4,176.3,469.8,175.3ZM382.3,152l-.5.3c.9,1.3,1.7,2.6,2.7,3.8,3.6,4.5,7.3,8.9,11,13.4l1,1.3v-.6C391.8,164.1,387.1,158,382.3,152ZM211.8,199.6c.5,1.8.8,3.2,1.2,4.5a1.7,1.7,0,0,0,.7.9c.6-.2,1.5-.5,1.7-1s1.2-1.6,0-2.4Zm253.7,62,3.1-.9c1-.2,1.1-.7.6-1.4a7.9,7.9,0,0,0-4.3-3.1c.4.8,1.1,1.4,1.4,2.1s-.5,1.5-1.4,1.9Zm-7.8-35.9c-.8,0-1.6-.6-2.3.6s-1.4,1-2.1,1.4-.9.3-.9.5a3.4,3.4,0,0,0,.6,3.4Zm-294.6,17h-.4a83.5,83.5,0,0,0,1.8,12.2c.5-.4.9-.8.9-1.2C164.7,250.1,163.9,246.4,163.1,242.7Zm294.7-83.6,1.5.8c1,.5,1.4.2,1.4-.9a1.9,1.9,0,0,1,1.6-2.3,24.7,24.7,0,0,0-3.9-1.6c-.2-.1-.5.2-.8.3l.8.6c.4.3,1,.4,1.1.7a2,2,0,0,1-.3,1.5C459,158.6,458.4,158.8,457.8,159.1Zm-255,55.7a17.9,17.9,0,0,1,.9-1.9c.5-1.2.2-1.7-1-2.1a8.8,8.8,0,0,1-1.7-1.2l-1-.9-.4.4c.3.9.4,2.3,1.1,2.7A3.6,3.6,0,0,1,202.8,214.8Zm69,45c-.9-.1-1.5-.2-1.6.8s.8,2.9,2,2.8,1-1.6,1.1-2.5S272.3,260,271.8,259.8ZM344.6,54.4l.6.3a6.8,6.8,0,0,0,1.2-1.2,34.2,34.2,0,0,0,2.1-4.3c.2-.4,0-1,0-1.6C346.2,49.5,345.7,52.1,344.6,54.4ZM209.2,33.5c-.3.2-.6.3-.6.5a18.4,18.4,0,0,0-.3,3.3c.4,3.3,0,6.2-2.7,8.5-.2.2-.3.6-.5.8l.3.3,2.5-3a6.4,6.4,0,0,0,1.3-5A48.6,48.6,0,0,1,209.2,33.5ZM195.1,240.8c-.5,1.5-.9,2.7-1.4,3.9a5,5,0,0,0,2.6,6.9,4.4,4.4,0,0,0-.8-1.1c-.7-1-2.1-1.6-1.8-3.1s.9-3.2,1.4-4.8.9-1.4,2-.7h.7v-.5Zm-4.3-5.9-.2-.2-1.2,1.7c-3.4.7-6.9.7-9.7,2.9l1.9-.5a27.8,27.8,0,0,1,7.5-1.5,1.3,1.3,0,0,0,.9-.6A14.2,14.2,0,0,0,190.8,234.9Zm-3.3,20c-.3-.7-.6-1.3-.8-1.9s-.8-.9-1.6-.7l-1.5.3a8,8,0,0,0-5.2,2.7c1.3-.3,2.8.5,4.1-.6l-1.8.2v-.4a7.9,7.9,0,0,1,2.8-1.3c1.3-.2,3.1-.7,3.6,1.4Zm260.8-76.5a28.2,28.2,0,0,0,2.6-3.2c.3-.5-.2-1.4-.3-2.1s-1.2.1-1.3.4a23,23,0,0,0-1.2,3.4A4.7,4.7,0,0,0,448.3,178.4ZM237.8,64.9l-1,1.6,3.4,1.5c.3.1,1.1-.2,1.1-.4a1.5,1.5,0,0,0-.4-1.3A27.3,27.3,0,0,0,237.8,64.9ZM423.7,234.1l-.2.2.7,1-2.1-1c.4,1.2.6,1.9.9,2.7s.4.2.6.1l3.8-1.2ZM334.9,76.2l-.2-.4c-.9.9-2.5.6-2.9,2.2l-.5.5-5,3.2c-.3.2-.3.6-.5.9s.8.2,1,0ZM176.3,257.9a13.2,13.2,0,0,1,7.6-.3c.2.1.6-.2,1-.3l-.2-.5a27.3,27.3,0,0,0-9.8.8c1.6,0,1.7,2.2,3.4,2.2Zm5.4,7.5.9.8-.6.3a2.4,2.4,0,0,1-1.7-2,18.3,18.3,0,0,0-.6-2.5l-.4.2c-.4,1.6.4,3.1,1,4.6s.9.8,1.4.8.9-.4,1-.8a12.1,12.1,0,0,0-.1-1.9h-.4ZM207,22.9c3.7-.3,6.8,1.2,10,2.7A10.3,10.3,0,0,0,207,22.9Zm133.7,9.9a15.8,15.8,0,0,0-.8-2.8c-.2-.3-1-.3-1.5-.3a1.1,1.1,0,0,0-.2.8,9.7,9.7,0,0,0,.8,2.2,2.2,2.2,0,0,0,1,.9C340.2,33.6,340.5,33,340.7,32.8ZM271.1,265c-.1-.2-.2-.5-.3-.5a8.9,8.9,0,0,0-2.3.1c-.4.2-.7.9-.9,1.4a1.2,1.2,0,0,0,.5.7C268.8,267.1,271.1,265.8,271.1,265Zm157-138.4.5-.9c.2-.4.3-1.1.6-1.2s1.2-1.4,1.5-2.3-.2-.5-.4-.7-.5.1-.6.3-1.6,2.4-2.3,3.6a1.1,1.1,0,0,0-.1.8C427.3,126.4,427.7,126.4,428.1,126.6ZM204.2,48.4l3.3,2.1a6.6,6.6,0,0,0,1.4-.1c-.1-.4-.1-1-.4-1.3S205.7,48.2,204.2,48.4Zm-159.1,87c-1.2-1.1-2.3-.6-3.3-.4s-.8.7-1.1,1,1.1,1,1.5.8A18.8,18.8,0,0,0,45.1,135.4ZM197.2,250.9l6.8-5-.3-.3-6.3,4.4-.9-1.1,2.2-1a1.7,1.7,0,0,0-2.2.9C196.3,249.5,197,250.3,197.2,250.9Zm214.2-33.6-.3.2a20.8,20.8,0,0,0,.1,3.5,1.3,1.3,0,0,0,1,1c.4.2.9-.1,1.4-.2l-.8-1.3-.6-1.1ZM220.7,44.7c-1.8.2-3.9,1.8-5.1,3.8s-.8,1.4-1.2,2.2a3,3,0,0,0-.4,1l.5.3.7-.9c1-2.7,2.5-5.1,5.4-6.2C220.7,44.9,220.7,44.8,220.7,44.7Zm139.8-4.3-.2.5c.6,1.8,1.6,2.3,4.3,2,.1-.4.1-.8.2-1.5-1.1,1.2-1.7.5-2.4,0ZM176.8,240.2c-.8,1.2-1.6,2.1-2.2,3s2.8-1.7,4-3.6c-2.6,1.3-1-1.6-2.1-2l-1.7,1.9.2.2,1.2-.6Zm-.6,33.3v.7c1.9.2,3.8.5,5.8.6a1.6,1.6,0,0,0,1.5-.4c.2-.3,0-1-.1-1.3s-1.1,1.1-1.7,1.2-1.5-.4-2.3-.5Zm309.2-14.6h-.2a11.3,11.3,0,0,0-1.2,1.8c-.4,1.2-.8,2.5-1.1,3.8s.6.4.9.6.3-.5.4-.8a23.6,23.6,0,0,1,.4-2.8A25.8,25.8,0,0,1,485.4,258.9ZM187.6,278.2a3.8,3.8,0,0,0-4.5-.5c-1.5.7-2,.5-2.5-.9l-1,.4c1,1.5,2.6,2,3.9,1.2a3.1,3.1,0,0,1,3.3-.3Zm36.6-235c2-.8,2.3-1.3,1.6-3.3a10.4,10.4,0,0,0-1.1-2.4c-.5-.8-1.2-1.4-1.8-2.2A51.1,51.1,0,0,0,225,40,2.3,2.3,0,0,1,224.2,43.2ZM489.1,245.8c-.5-.2-1.1-.6-1.3-.5s-1.2,1.3-1.9,2c1.1.6,3.7-.2,4.1-1.2a.4.4,0,0,0,0-.5l-.3-.4ZM202,266.5l-.2-.3-1.2.4c-1,.8-.9,1.4.2,2l3.2,1.7a1.1,1.1,0,0,0,1.6-.2l-4.9-2.1-.2-.6Zm240-68-.6.5-.6.8s.2.3.3.3a2.1,2.1,0,0,0,1-.4c1.3-1.3,1.2-2.3-.4-3.5l-1.2,1Zm31.7,70.7-.2-.3c-.4.1-1,0-1.1.3a13.3,13.3,0,0,0-.9,2.1,3.1,3.1,0,0,0,3-2.1,6.5,6.5,0,0,0,0-1.4c0-.1-.4-.1-.5-.1s-.1.8-.2,1.2S473.7,269.1,473.7,269.2ZM401,17.8c.9,1.7,3.4,3.8,4.4,3.8S402.6,18,401,17.8Zm-9.9-8.3V8.9L385,8.4v.5C387,9.1,388.9,10.2,391.1,9.5ZM198,271.8h.4c.2-.5.5-1,.4-1.4s-.8-.5-1.2-.6h-3.8l-1,.2c1.3.8,1.3.8,3.8.6C197.5,270.4,198.2,270.5,198,271.8Zm282.3-8.9c-.4,1.6-.8,3-1.1,4.4.6-.4.9-1,1.4-1.3S482.1,264.3,480.3,262.9Zm15.9-28.1v-.3l-4.1-2.6c-.1-.1-.5.1-.8.1a2.5,2.5,0,0,0,.4.9,9.6,9.6,0,0,0,2.1,1.4A18.9,18.9,0,0,0,496.2,234.8ZM340.5,88.4a36.5,36.5,0,0,0,3.2,2.6c.3.3.9.1,1.7.1l-1.5-2.2v.3Zm-52.6,18.7c-.7,1.7-1.3,3.4-1.9,4.9C288,111.3,288.9,109.4,287.9,107.1ZM178.8,276a17.6,17.6,0,0,1-9.3-3.4C170.4,274.6,175.5,276.5,178.8,276ZM344.3,144.5l-5.8-5.1C341.2,143.7,342.6,144.9,344.3,144.5ZM281.2,52.2h.4a21.7,21.7,0,0,0-.4-2.5,3.1,3.1,0,0,0-.9-1.2s-.6.3-.6.4a4.1,4.1,0,0,0,.2,1.6A12.6,12.6,0,0,0,281.2,52.2Zm11.3,211.5-.2.2,2.6,3.5a7,7,0,0,0,.5-1.8,1,1,0,0,0-.5-.8Zm-46-179.9c0-.4.1-.6,0-.6a33.7,33.7,0,0,0-3.2-1.9c-.1-.1-.6.2-.7.4s.1.7.2.7Zm194.8,74.7a.5.5,0,0,0-.3-.4c-.1,0-.5.1-.5.2a30.1,30.1,0,0,0-1.1,3.2l.7.7s.4-.2.4-.4S441,159.7,441.3,158.5ZM190,269.8v-.3c-1.4-.6-5.9-.4-6.7.5l3.5-.3Zm12.9-24.9h.3c.1-.2.3-.7.2-.8l-3.1-1.7c-.2,1.6-.3,2.9-.5,4.1h.4c.4-1-.4-2.4.6-2.9l1.9.7ZM285.4,56.2h.3a6.1,6.1,0,0,0,.7-1.7c.3-1.4.5-2.8.8-4.3h.4l-.8-1.3C286.4,51.4,285.9,53.8,285.4,56.2Zm42.4,10.9-.6-.5c-.9.1-1.6,0-1.9-1.1l-1.1-.2a4,4,0,0,0,0,1.1C324.8,67.6,325.9,67.8,327.8,67.1ZM191.9,250.7v-.5c-.4,0-.7-.2-1-.1s-2.6.2-3.6-.9-.7-.3-1.2-.5c.5,1.5,1.1,2.2,2.6,2A16,16,0,0,1,191.9,250.7Zm63.3-119.9a2.3,2.3,0,0,0,.1,3.1,5.6,5.6,0,0,0,1.8,1.4C256.4,133.5,255.8,132.1,255.2,130.8Zm97.2-97,.3.2,2.8-4.5C354.1,29.7,352.4,32.4,352.4,33.8Zm-3.3,12.5c1.4-1.7,1.4-4.1,0-5.3ZM173.5,246.9c1.4.4,2.5,1.6,4,1.2l.2-.5-2.3-1v.4l-.3-1.2Zm217.4-14.7-8.4-1.7C385,232.1,387.9,232.1,390.9,232.2ZM184.4,247.4l2.2-2.7.5.7h.3v-2.1l-2.9,2.9C183.9,246.7,183.9,247.1,184.4,247.4ZM338,74l.2.3,4.5-2.5-1.4-.6ZM201.7,71.6l-.6.3c.3.7.4,1.5.9,1.8s1.3.1,2,.1v-.5ZM487.6,273.2c2-.6,3.7-3,3.4-4.2ZM184,258.6c-1.5,1.1-1.6,1.8-.9,4h.4Zm302.9,20.1h.5a13.3,13.3,0,0,0,1.4-1.9c.2-.2-.1-.7-.2-1s-.9.1-1,.4A16.8,16.8,0,0,0,486.9,278.7Zm-299.5-3.3.3-.3-2.4-2.6.6-1-.2-.2-1.6,1.1Zm272.5-49.5v.3a5.7,5.7,0,0,0,5.1.2ZM218.1,204c-.4.9-.8,1.3-.8,1.8s.6.8.8.7a1.8,1.8,0,0,0,1-.9C219.1,205.2,218.6,204.8,218.1,204Zm250.1,14.5,3.7,1.3C470.9,218.3,469.4,217.8,468.2,218.5Zm-37-24.1-2.8.6-.8.5c.3.2.5.5.8.5l2.3-.7C431,195.2,431,194.7,431.2,194.4Zm-176.4-56a2.8,2.8,0,0,0,.5-3.2c-.1-.2-.4-.3-.6-.4s-.5.3-.4.4S254.6,137.1,254.8,138.4ZM175.6,245.2a7.6,7.6,0,0,0,3.8-3.5Zm37.9-24.8h.7v-2.2c-.1-.2-.4-.5-.6-.5a.9.9,0,0,0-.6.6A17.4,17.4,0,0,0,213.5,220.4Zm264.4-56.3,1.6-1.6-.7-.8a10.7,10.7,0,0,0-1.4,1.6C477.3,163.3,477.6,163.7,477.9,164.1ZM165.1,257.9h-.4l.7,5.1h.6ZM296.4,50.7v.7a6.1,6.1,0,0,0,1.9.1c.4,0,.7-.4,1-.7l-.2-.5ZM426.3,256.8c1.2.3,2.4,1.6,3.6-.3ZM415.6,140q.8-1.5,1.5-3.3C415.3,137.7,414.9,138.5,415.6,140Zm73.7,93.7a11,11,0,0,0-2.4-.2c-.2,0-.4.2-.7.4s.3.5.6.7S488.3,234.6,489.3,233.7Zm-47.5,12.9v.4h3.8v-.6Zm45.3-101.9.5.3,1.3-1.5-1.6-.8ZM408.3,35.2l-.6-.2-1.2,4.3.5.2ZM197,253.1c-1,1.6-.6,2.5,1,3.2C197.6,255.2,197.3,254.2,197,253.1ZM216.6,17.6c-2.2-.4-2.6-.1-2.3,1.5ZM336.3,86.1l-.2.7,3.5,1.2.2-.6Zm135,135.5,3.1,1.1A2.2,2.2,0,0,0,471.3,221.6ZM395.9,50.8v-.6l-4.6,1.1v.5Zm-217,181.4-2.3,3C179.3,233.8,179.6,233.7,178.9,232.2ZM203.4,206a2.8,2.8,0,0,0,.2-2.8C202.6,204.3,202.5,205.2,203.4,206Zm281.4,45.5c.3,1.4.5,2.7.8,4C486,251.7,486,251.7,484.8,251.5Zm-278.4-50-1.1-1.1c-.3.3-.7.6-.7.9s.4.7.7,1ZM353.7,75.1l-.5.3,2.3,3.7.4-.3Zm90.6,76.3v.4l1.4-.4c.2-.1.3-.7.2-.7l-1.6-1-.2.4.7.8Zm-183.9-23,1.2-3.1C260.1,126,259.7,127.3,260.4,128.4ZM365.2,45v-.5l-4.7.4v.5Zm79.5,211,.2-.4-2.7-1.1-.2.4C442.5,256.2,443.8,255.7,444.7,256Zm-19.3-11.5c.7-.6,1.2-1.2,1.7-1.7a1.3,1.3,0,0,0,.2-.9s-.4-.2-.6-.1a1.5,1.5,0,0,0-.6.5C425.8,243,425.7,243.6,425.4,244.5ZM494,229.7l-.4.3a1.8,1.8,0,0,0,2,1.8Zm-22.5,34.2c1.3-.8,1.3-2.2.1-3.2ZM444.9,183l.4.3a2.6,2.6,0,0,0,1-.7,2.8,2.8,0,0,0,.4-1.3,3.9,3.9,0,0,0-1.1.6A10.5,10.5,0,0,0,444.9,183ZM35,106.5v.4h2.1c.2-.1.3-.5.3-.8s-.3-.3-.5-.3Zm-3.1.6-1.3-1-.5.7a3.5,3.5,0,0,0,1,1.1ZM212.2,249.9h-.6l1.2,4.5h.3Zm214.8-66-1,.9c.3.2.7.6,1,.6s.6-.3.9-.5ZM349.9,59v.5l4.1.8v-.5Zm49.7-25.2c-.3.8-.5,1.7-.8,2.6C400.3,36.1,400.4,35.7,399.6,33.8ZM202.7,255.4c-1.7.9-2.8,2.5-2.2,3.2Zm8.1,17.5v-.4l-3.3-.2C208.6,273.8,209.7,273.3,210.8,272.9Zm247-29.1.2.4,3.6-1.5-.2-.5ZM342.3,70c1,1.6,1.7,1.7,3,.5ZM180.1,249.3l-.8.5v.3l2-.4v-.5l-1.8-.6-.2.3ZM284.7,113.7l1.5,1.5.5-.5-1.7-1.2Zm71-53.5v.5l4.5.9v-.3Zm41.9-24.7.5-.2-1.5-2.2C395.9,34.7,397.1,34.9,397.6,35.5Zm68.9,145.9-.5-.2-1,1.4a1.1,1.1,0,0,0,.2.5h.6C466,182.6,466.3,182,466.5,181.4ZM205.5,261c.5-1.3,1.3-2.6.7-4.1C205.9,258.3,205.7,259.6,205.5,261Zm1.5-71.3-.5.2.8,1.8C208.1,190.7,208,190,207,189.7Zm82.9-83.3-.4.3,1.2,1.4.6-.2-1-1.4Zm39.7-6.5.3-.3-2-1.7C328.2,98.9,328.2,100.1,329.6,99.9ZM454.1,257.3l.2.4,2.3-1.1C455.2,255.7,454.8,256.9,454.1,257.3ZM450.7,153v-.7a5.8,5.8,0,0,0-1.4.3c-.1,0-.1.5-.1.9Zm-78.6-43.5.5-.2-1.7-3.5h-.3ZM196.8,235.7c-2.1-1.1-2.1-1.1-2.5-.8C196,236.1,196,236.1,196.8,235.7Zm-24.5,13h-.7l.6,2.5h.5ZM405.6,37.5h.4l1-4.1h-.3Zm28.2,121.3a17.1,17.1,0,0,1-.9,2.2C434.4,160.4,434.4,160.3,433.8,158.8ZM364.5,63l.2-.7-2.2-.5v.5Zm79.1,91,.9-1.2c0-.1-.5-.5-.5-.5l-1,1C442.9,153.3,443.3,153.6,443.6,154ZM198.3,244.6l-.8-.3c1.3,1.5-.5,1.4-.6,2.5s1.2-.3,1.3-.6A4.3,4.3,0,0,0,198.3,244.6Zm53.4-105v.5a3.8,3.8,0,0,0,1.5.1c.1,0,.3-.4.4-.6h-1.9Zm151.5,50.3.3-.2-2.3-4.4h-.3ZM498,234.4l-.2.4c.6,1.2.9,1.4,2,.8ZM187.5,256.5l-3.1-1.5h-.1l2.7,2.1Zm88.7-38-1.6-.6c-.3,0-.6.3-.9.5s.5.5.8.5A7.9,7.9,0,0,0,276.2,218.5ZM419.5,117.3l.7.2a22.5,22.5,0,0,1,.5-2.2h-.6ZM193,239.9h-.4a3.3,3.3,0,0,1,0,1,10.4,10.4,0,0,1-.4,1l.4.2.7-1.4C193.4,240.5,193.1,240.2,193,239.9ZM78.2,157.2l.4.2,1.5-3-.4-.2ZM371.6,13.7l.4.6,2.5-2.1-.2-.2Zm94.7,145.8h.4c0-.3.2-.8,0-1l-1.6-.7v.3Zm-110-65.9c-1.1-.9-1.7-.8-2.5.4Zm-23.6-8.3.3.5,2.6-1.8-.2-.4ZM204.9,257l-.3-.2-2.2,2.8.4.3ZM416.1,135.1h.7l.3-1.8h-.7ZM191.5,245.2h-.2l-.3,3.8h.5Zm0-5.1a4.1,4.1,0,0,0-.2-.9l-2-.5v.3Zm13.4,32.4-.2.3,2.6,1.7.3-.4Zm191.8-15.2-.4-.2c-.4,1.1-.8,2.2-1.1,3.3h.3ZM206.5,245.9l-1.2-2.7A2.1,2.1,0,0,0,206.5,245.9ZM398,179.5h-.3l2.3,4,.2-.2ZM394.3,39.7c1.5-.3,1.9-.9,1.3-1.9Zm-5.8-20.2.4.3,1.5-2-.4-.3Zm-203,231.2.2-.6-1.9-.5-.2.5Zm-11.6,4.4-.2.6c.5,1,1.3,0,1.9-.2Zm31-5.7V247l-1.1.9Z"/><path d="M506,39.3l-11-2.7-4.7-1.1c-1.6-.3-2,0-2.4,1.5s-1.3,5.6-2.1,8.4-2.2,7.1-3.2,10.7c-.4,1.1-.6,2.2-.9,3.3a7.6,7.6,0,0,1-.6,1.6h-.5a3.8,3.8,0,0,1-.3-1.8,18.8,18.8,0,0,1,.6-3.1l3.3-11.7a.7.7,0,0,0-.2-.8l-1.2,1.9c-.9,1.9-1.7,3.8-2.7,5.7s-.7.6-1,.9-.6-.9-.5-1.2a26.7,26.7,0,0,1,1.7-5c1.6-3.3,3.4-6.6,5.2-9.8.6-1.2.5-1.4-.8-1.6l-2.7-.6c-.8-.2-1.2.1-1.4,1l-4.2,19.3c-.7,3.2-1.6,6.4-2.3,9.6s-1.9,8.4-2.9,12.7-2.2,10.1-3.5,15.2c-.6,2.1-1.7,4.1-2.5,6.2s-1.5,4.1-2.3,6.1-1.6,4.6-2.5,6.8-2,4.5-3,6.7h-.5c0-.5.1-1,.1-1.5s.1-1.8.1-2.8-.3-2.3.9-3.2a1.7,1.7,0,0,0,.5-1.3c.5-4.7,1.2-9.5,1.5-14.2s2.5-11.7,3.7-17.5c.5-2.5,1.1-5,1.6-7.6s1-4.9,1.5-7.3,1.7-7,2.5-10.5,1.1-5.6,1.7-8.4l2.1-8.8a7.1,7.1,0,0,0,.4-1.7l-3,2.1c-.7.5-1.3.7-1.6-.3a1.1,1.1,0,0,0-1.6-.7L463,34.8c-.5.1-1.5,0-1.7-.4s.3-1.2.9-1.6l5.6-3.1c1.1-.7,1.4-.5,1.9,1.6l4.4-3.3a1.5,1.5,0,0,0,.6-1.9c-.2-.5.3-1.2.5-1.8s.5-.9.4-1.3c-.7-2.6-.2-5.1.3-7.6.1-.3.3-.7.2-1-.6-2.8.6-5.4,1-8a4.3,4.3,0,0,0-.4-1.9,5.9,5.9,0,0,1,0-4.5H481a15.5,15.5,0,0,1-.4,2.1c0,.3-.2.9-.4.9s-1.1,1.8-1.6,2.8h2.8c-.8.8-1.7,1.3-1.9,2-.6,2.7-.9,5.3-1.4,8L476,26.1c-.7,3.1-1.5,6.3-2.1,9.5s-1.7,8.5-2.6,12.7-2.2,9.5-3.2,14.2c-2,8.4-3.9,16.8-5.8,25.2-.5,2.4-.5,2.5,2,2.6h.2a1.3,1.3,0,0,0,1.6-1.2c.4-2,.9-4,1.4-6L475,49.9c1.9-8.5,3.7-16.9,5.6-25.3l3.3-16c.2-1,.5-1.8-.5-2.2.8-2.2,1.5-4.3,2.3-6.4h2.1V.9c-1.1,5-2.1,10-3.1,15a6.6,6.6,0,0,0,0,1.4,10.4,10.4,0,0,0,1.3-.4,23.2,23.2,0,0,0,3-2.2,4.9,4.9,0,0,0,1.4-2.4c.5-2.5.7-5.1,1.1-7.7a6,6,0,0,1,.9-1.5c.5.3,1.2.5,1.5,1s1.3,2.3,2,3.4,1,1.4,2.3.5L506,3.2V5.8l-7.5,4.8c-.2.1-.2.6-.1.9a11.9,11.9,0,0,0,.8,1.6c.5.6.9.6,1.4,0S502.1,11,503,10s2-2.3,3-3.4V10a18.5,18.5,0,0,0-1.4,1.4c-.8,1-1.4,2.1-2.3,3.1s-1.3,1.9-.1,3.7a4.1,4.1,0,0,0,.5.9l3.3,5.1v4.3a6,6,0,0,1-.8-.8l-4.8-8.2c-.5-.8-1-.9-1.5-.1s-2.6,3.6-3.8,5.5-2.4,3.9-3.6,5.9a26.5,26.5,0,0,0-1.2,2.4L506,36.9ZM489.3,17.4a25,25,0,0,0-2.4,1.6c-1.5,1.2-3.5,1.9-3.9,4.2a22.1,22.1,0,0,0-.5,2.5c-.3,1.6-.7,3.1-1,4.6s.3,1.2.6,1.2a12.6,12.6,0,0,0,3.8.6,1.7,1.7,0,0,0,1.2-.8c.8-4,1.5-8,2.2-12A11.9,11.9,0,0,0,489.3,17.4Zm.7,11a7.3,7.3,0,0,1,.9-.9l6.7-10.2c.8-1.1.3-3.2-1.2-4.5s-1.3.7-2,.8a1.3,1.3,0,0,0-.9.6,5.4,5.4,0,0,0-1.6,2.1c-.7,3.6-1.3,7.2-1.9,10.8ZM493.2,8c-.2,1.3-.4,2.4-.6,3.8C495,10.5,495.1,9.5,493.2,8ZM458,113.2h.6l.6-1.9a.7.7,0,0,0-.3-.5l-.4.2C458.3,111.8,458.2,112.5,458,113.2Z"/><path d="M0,190.5V121.2a40.5,40.5,0,0,1,6.9,10,46.3,46.3,0,0,1,5.5,19.9c.7,13-2.8,25-9.7,36C1.9,188.3.9,189.4,0,190.5Z"/><path d="M96.7,284.6c-.4-1.3-.8-2.5-1.1-3.8s.2-.7.3-.7l1.3.6.9-.6-1.1-.5v-.3l2.1-.7,4.5-1,12.5-3.4c2.1-.5,4.2-.8,6.3-1.1a1.5,1.5,0,0,1,1.2.8,40.5,40.5,0,0,1,.9,4.8,1.2,1.2,0,0,1-1.2,1.5l-4.9.9-7.3,1a31.1,31.1,0,0,0-8,1.9l-1.3.6H98l2.6-1.4q-1.6.3-1.8-1.2c-1.2.1-1.7.5-1.4,1.6a3.6,3.6,0,0,1-.2,1Zm24.8-10h-.4c.5,1.2-.2,1.4-1,1.7s-.5.5-.8.8l1,.3a6.7,6.7,0,0,1,1.2.6c.7.3,1.2.2,1.2-.6a20.5,20.5,0,0,0-.5-2.4C122.1,274.9,121.7,274.8,121.5,274.6Z"/><path d="M506,62.2l-7.3,7c-3.3,3.3-6.5,6.7-9.7,10.2s-7.3,8.4-10.8,12.6c-1.7,2.1-3.1,4.3-4.6,6.5a2,2,0,0,0-.2.9l3-2.1,14.8-12.1c3.1-2.5,6.3-4.9,9.5-7.3s3.5-2.2,5.3-3.3v.5l-6.7,5.5c-3.7,2.9-7.6,5.8-11.3,8.8s-5.6,4.6-8.4,6.9l-5.7,4.4a1.6,1.6,0,0,1-.9.3h-1.5c.1-.6,0-1.2.3-1.6a76.7,76.7,0,0,1,10.5-14.2l9.6-10.4a.6.6,0,0,0,.1-.6l-7.4,5.6c-2.3,1.9-4.6,4-7,5.9s-4.4,4.3-7,5.8l-.4-.4a4.8,4.8,0,0,1,.9-1.1c5.6-4.9,11.3-9.7,17-14.5,3.5-2.9,7.1-5.7,10.5-8.7s4.2-4.1,6.2-6.2l1.2-1Z"/><path d="M92,284.6c-1.5-8.2-2.9-16.4-4.3-24.6l-.3-1.3c-.5-1.7.1-2.6,1.9-2.8l17.5-2.3c3.3-.4,6.7-.6,10-.9,1.7-.2,3.4-.7,5.2-.9s1.7.3,1.7.5-.9.9-1.6,1l-16,1.8-16.2,2.1c-1,.1-1.1.6-.9,1.4.9,5.2,1.7,10.4,2.6,15.6.6,3.5,1.3,6.9,2,10.4Z"/><path d="M109.6,284.6l10.6-2,4.2-1c.3,0,.7-.2,1-.1a3.6,3.6,0,0,1,1.1.4c-.2.3-.4.9-.8,1l-6.9,1.3-2.1.4Z"/><path d="M290.7,0l-3.1,4.8c-.2.3-.8.5-.9.4s-1.2-1-1.3-1.6.6-1.3.9-1.9l1-1.7Z"/><path d="M256.7,0c-.9,1.1-1.8,2.3-2.8,3.3a9.3,9.3,0,0,1-1.5,1.3l-.3-.4,3-3.2.8-1Z"/><path d="M91.3,251.1c-1.1,1-1.8,2.2-2.9,2.6s-4.8-1-5.2-3.6a6.7,6.7,0,0,1,1.3-5.1,2.7,2.7,0,0,1,3.4-.9,8,8,0,0,1,2.3,2.2c.1.2-.3.8-.4,1.2a3.9,3.9,0,0,1-1.1-.6c-.6-.4-1.1-1-1.7-1.5a9.6,9.6,0,0,0-1.4,2.1,3.8,3.8,0,0,0,.4,4.2c.7,1.1,1.6,1.1,2.2,0s.6-1.7,1.2-2.1,1.5-2.6,1.9-4a2.2,2.2,0,0,1,.5-.8c.4-.5,1-1.4,1.3-1.4s1.9.8,2.2,1.5a7.3,7.3,0,0,1,.9,5.6c-.6,2.3-2.7,2.9-4.5,1.2A1.5,1.5,0,0,1,91.3,251.1Zm2.4,0c.8-1.2.8-4-.1-5C92.4,247.1,92.4,250.1,93.7,251.1Z"/><path d="M90.7,260c.4,1.3.9,2.5,1.2,3.9s.4,2.8,3.2,2.2l9.9-1.9a16,16,0,0,0,3.1-1,1.6,1.6,0,0,0,.8-1.2c-.1-1.4-.3-2.7-.5-4.1s-.4-.8-1.1-.7l-13.2,2.1c-.5,0-.9.3-1.4.3a3.2,3.2,0,0,1-1.3-.2c.3-.3.5-.8.8-.9l3.4-.8,11.7-1.9c1.4-.2,1.8-.1,2.1,1.3s.6,4,.9,6-.4,1.1-1.1,1.3l-8.1,2c-2.8.6-5.7.9-8.6,1.3-.4.1-1.2-.5-1.3-.9-.5-1.9-.9-4-1.3-6a4.1,4.1,0,0,1,.3-.8Z"/><path d="M120.4,240c1.1,2.3.8,3.1-1.5,4.3a17.2,17.2,0,0,1,.4,2.4c0,.4-.5.8-.7,1.2s-1-.5-1.1-.9c-.6-2.1-1.1-4.2-1.7-6.3a1.5,1.5,0,0,1,1.7-1.9c2.1.3,3.8-.9,5.6-1.3a10.7,10.7,0,0,1,2.5-.3c.3,0,.6.4.9.7s-.5.6-.9.7-1.9.4-1.4,2.3.7,2.4.9,3.6-.4.8-.6,1.3-.9-.6-1.1-1a25.4,25.4,0,0,1-1-3.7C122.2,240,121.6,239.7,120.4,240Zm-2.2,2.4h.3c.2-.2.6-.5.6-.8a3.9,3.9,0,0,0-.5-1.4h-.5Z"/><path d="M110,230.8v-2.7c0-.9-.4-1.2-1.3-1.1l-14.2,1.7a16.1,16.1,0,0,1-3.1-.1c-.3,0-.5-.4-.7-.6s.5-.5.8-.5l16.9-1.9c2.4-.2,3,.3,3,2.8s.2,4.2.2,6.3a3.9,3.9,0,0,1-.5,1.4c-.3-.4-.8-.8-.9-1.2s-.2-2.7-.3-4.1Z"/><path d="M124.7,253a20.5,20.5,0,0,1,.5,2.4c.7,4.9,1.3,9.8,2,14.7.5,3,.9,6,1.3,9,.1.4-.2.9-.4,1.3s-.8-.7-.9-1.1c-.4-2.1-.8-4.3-1.1-6.5-.6-3.9-1.1-7.8-1.6-11.7-.3-2.2-.5-4.4-.6-6.7-.1-.4.2-.9.3-1.4Z"/><path d="M119.5,217.4a15.4,15.4,0,0,1-.8,1.9c-.5.9-1.4,1-1.8.1a47.5,47.5,0,0,1-1.7-4.9c-.1-.2.4-.7.4-.7s.9.4,1,.7.6,2.2.9,3.2h.4c.4-2,2.3-2.7,3.4-4.1s1.3-.4,2,0a1.3,1.3,0,0,1,.6,1.8c-.4,1.4-.9,1.8-2.7,2-.3,1,.1,1.5,1,1.5l2.5-.4a2,2,0,0,1,1.1.1,4.2,4.2,0,0,1-.4,1c-1.1.9-4.2.8-5.2-.3S119.8,218,119.5,217.4Z"/><path d="M100.6,246.5c-.2-1.1-.4-2.1-.5-3.1s.5-.9.7-1.4,1.1.7,1.2,1.2a27.8,27.8,0,0,1,1.1,5,3,3,0,0,1-.5,2.3c-.8.6-1.4-.4-1.9-1l-.7-.7a5.3,5.3,0,0,1,.2,1.6,2.2,2.2,0,0,1-.9,1,1.3,1.3,0,0,1-1-.8c-.6-1.9-1.2-3.8-1.7-5.7,0-.3.1-.9.3-.9s.9-.2,1.2.1a7.7,7.7,0,0,1,1.2,1.3l1.1,1.3Z"/><path d="M94.5,277c1.7-.7,3.3-1.5,5-2.1l17.7-5.5.7-.2,1.6.5-1.2.8-7.3,2.4-11.1,3.4c-1.3.3-2.5.8-3.8,1.2H94.6Z"/><path d="M115.8,263.3c-2.2,0-2.2,0-2.5-2.2a28.3,28.3,0,0,1-.2-2.9c-.1-1.2.5-1.8,1.7-1.9l6.5-.8c.3,0,1,.5,1,.8s.3,2.6.5,3.9a2.6,2.6,0,0,0,.7,1.1,2.4,2.4,0,0,0,.8.6c-.4.2-.7.6-1,.6Zm1.5-6a10.9,10.9,0,0,0-2.6.1c-.3,0-.8.5-.7.8.1,3.9.5,4.2,4.3,3.5h.2c3.1-.4,3.1-.4,2.7-3.5v-.3c-.4-.3-.7-.7-1.1-.8Z"/><path d="M91.9,233.9a15.8,15.8,0,0,1,.5,2.5,3.9,3.9,0,0,1-.5,1.4c-.3-.4-.8-.6-.9-1s-.4-2.5-.6-3.8-.3-2-.4-3.1a5.4,5.4,0,0,1,.3-1c.3.2.8.2,1,.4a5.7,5.7,0,0,1,.4,1.4c.1.5.1,1,.2,1.8l9.7-1.6,5.1-1.1a2.1,2.1,0,0,1,1,.4c-.2.3-.3.8-.6.8l-3.8,1Z"/><path d="M94.7,217.5a7.6,7.6,0,0,1,1.9-1.2,3,3,0,0,1,2.1.5c.3.2.2,1.3-.2,1.8s-1.1.8-1.7,1.2a1.1,1.1,0,0,0-.7.6c-.1,0,.1.5.2.5l.9-.3c.2-.1.3-.3.4-.4l1.1-.5c0,.5.1,1-.1,1.3a2.2,2.2,0,0,1-2.5,1.2c-1.1-.4-1.7-1.1-1.5-2.2s-.5-1.4-1.3-1.5-1.4.6-1.5,1.4a13.3,13.3,0,0,0,0,2c-.1.3-.4.8-.6.8s-.8-.3-.8-.5a28.3,28.3,0,0,1-.8-4c0-.2.3-.5.4-.6l3-.3a8,8,0,0,1,2.1.5Z"/><path d="M103.7,246.4a25.2,25.2,0,0,1,1.2-3.9,2.6,2.6,0,0,1,4-1.4c.3.1.5.6.7.9a1.8,1.8,0,0,1-.9.4c-1.5-.1-2.1.2-2.4,1.6a7.8,7.8,0,0,0-.4,3,2.4,2.4,0,0,0,1.3,1.6c.6.1,1.3-.5,1.8-1s.3-.9.5-1.4.6-.7.8-.7a1.6,1.6,0,0,1,.8.8,2.8,2.8,0,0,1-1.5,3.4,4.2,4.2,0,0,1-4.2-.1A3.2,3.2,0,0,1,103.7,246.4Z"/><path d="M114,246.8l1.6-.5c.2,0,.7.2.7.4s0,.8-.2.9a10.1,10.1,0,0,1-2.8.9c-.4,0-1-.8-1.2-1.3a42,42,0,0,1-1.7-5,1.2,1.2,0,0,1,.4-1l3.3-.6c.3,0,.7.4,1,.7l-.9.7-1.4.3v.4l1,.5a5.7,5.7,0,0,1,1.3-.1c.3,0,.5.4.8.6s-.3.6-.6.7a7.6,7.6,0,0,1-1.6.6Z"/><path d="M37,270.4l1.4.4L59,281.7c.3.2.4.8.5,1.1H58.4c-1.8-1-3.4-2.1-5.2-3-3.3-1.8-6.6-3.6-10-5.3l-3.8-1.8-2.7-1.8Z"/><path d="M97.2,272.1l2.2-.8,13.5-4a31.1,31.1,0,0,1,4.4-.8c.3,0,.6.3.9.5s-.4.7-.7.7-1.9.3-2.8.6l-13.6,3.8a22.7,22.7,0,0,1-2.5.6H97.3Z"/><path d="M103.7,219.2a16.6,16.6,0,0,1-1.7,2.4,2.1,2.1,0,0,1-1.7.4,1.7,1.7,0,0,1-.7-1.4,19.8,19.8,0,0,1,.8-4.1c.3-1,1.1-1.1,2.1-.9s2.6,1,2.6,2.8.4,1,.5,1.6a5.3,5.3,0,0,1-.3,1.2c-.4-.3-.8-.4-1-.7A5.2,5.2,0,0,1,103.7,219.2Zm-2.9,1.4h.5c.5-1,.9-2,1.3-3s-.1-.4-.2-.7-.6.1-.6.3A31.8,31.8,0,0,0,100.8,220.6Z"/><path d="M89.4,222.3c.3,2.7-1.9,4.3-4.2,3.4s-3.4-3-3-5.7a6,6,0,0,1,2.2-3.8,2.1,2.1,0,0,1,3.3,1h-.5c-.7.1-1.7-.2-2,.2a6.1,6.1,0,0,0-1.4,2.9,3.9,3.9,0,0,0,.4,2.6,3.3,3.3,0,0,0,2,1.7c.6.1,1.4-.8,2.1-1.3S88.9,222.8,89.4,222.3Z"/><path d="M109.4,215.7l2,.6-1.2,1.1h-.3c.2,1,.4,2,.5,3s-.3.9-.4,1.4a5,5,0,0,1-1-1.1c-.3-.9-.4-1.9-.7-3l-1.3.6a5.7,5.7,0,0,1-1.3,0l.7-1.1.6-.2c.8-.3,1.1-.8.7-1.6a5.1,5.1,0,0,1-.3-1.7c-.1-.3.2-.6.3-.9s.8.3.9.6A13.5,13.5,0,0,1,109.4,215.7Z"/><path d="M90.5,238.6l1.5-.4,12.3-2.5a5.9,5.9,0,0,1,2.3,0,16.2,16.2,0,0,1-1.8,1L96,239C94.1,239.5,91.9,239.5,90.5,238.6Z"/><path d="M103.3,228.9l-2.1.8-6.3,1.2H93.7c-.3,0-.6-.3-.9-.5s.5-.6.8-.7l5.6-1,2.7-.4a5.6,5.6,0,0,1,1.3,0Z"/><path d="M97.4,236.3l-1.2-.8a9.1,9.1,0,0,1,1.4-.7l5.7-1.4a10.3,10.3,0,0,1,1.4.4c-.3.4-.7.9-1.1,1C101.6,235.4,99.6,235.8,97.4,236.3Z"/><path d="M112.7,215.7a2.2,2.2,0,0,1,.6-.7c.2,0,.7.1.7.3a35.2,35.2,0,0,1,1.5,4.2c.1.2-.1.6-.2.6a1,1,0,0,1-.8-.2Z"/><path d="M111.8,101.9c.5-1.2.6-2.6,2.2-3.2l-1.6,3.4Z"/><path d="M474.2,11c-.9-.9-.9-.9.6-1.7Z"/><path d="M385.8,279.3a1.8,1.8,0,0,0,2.3-1.7l.3.2a12.2,12.2,0,0,1-1,2.4c-.1.1-1-.3-1.5-.4Z"/><path d="M252.9,280.5l-2-.8-8.7-3.5c-.8-.3-.9-.7-.6-1.5,1.3-2.8,2.5-5.7,3.8-8.5.3-.9.8-1.1,1.7-.7l9.6,3.9c.8.3,1.2.6.7,1.5-1.3,2.9-2.5,5.7-3.7,8.6A3.9,3.9,0,0,1,252.9,280.5Z"/><path d="M240.3,234a6.1,6.1,0,0,1,4.3,1.7c.9.8,3.8,1.1,4.7.5a3.1,3.1,0,0,0,.7.9,16.4,16.4,0,0,0,2.2,1.4l2.1,1.2a5,5,0,0,0,3.2.9,6.3,6.3,0,0,1,4.1,1.2,8.5,8.5,0,0,0,3.1.9,39.5,39.5,0,0,1,6,1c.6.1,1,.6,1.5.9v.5a5.5,5.5,0,0,1-1.8-.1l-7.4-1.6c-5.3-1.1-10.2-3.3-15.1-5.4-2.2-.9-4.3-1.9-6.4-3-.4-.2-.7-.7-1-1Z"/><path d="M231.1,256c.6-1.6.2-3.1-1-3.6s-1.9.2-2.8,2.8l-3.9-6.2c.5-.1.8-.2,1-.1l7.3,3,2.5,1c1.1.5,1.2,1.2.5,2.1s-.9.9-.3,1.8-.3.8-.8.6S232,256.5,231.1,256Zm-3.5-4.8a5.2,5.2,0,0,0-1.2-.7c-.2-.1-.5.4-.7.6l1.1.9Z"/><path d="M245.8,207a2.3,2.3,0,0,1-1.2-.2c-.7-.4-1.1-.3-1.4.4s-2.4,3.9-2.8,6-2.1,3.6-2.7,5.6-1.3,3.1-1.9,4.6a8.9,8.9,0,0,1-.8,1.7c-.8,1.3-1.7,2.6-.9,4.2l-.2.4-1.7-.5,2.7-6.1,7-15.4c0-.2.1-.3.2-.5s.7-1.7.9-1.7a14.5,14.5,0,0,1,2.9,1.1Z"/><path d="M175.6,199.3a2.3,2.3,0,0,1,2.5,2.3,1.9,1.9,0,0,1-2.1,2.1c-1,0-2.4-1.1-2.4-2A2.2,2.2,0,0,1,175.6,199.3Z"/><path d="M252.3,258.7c.9,0,1.5.4,1.5,1.6a12.4,12.4,0,0,1,.2,1.8,3.5,3.5,0,0,1-1.2,1.7c-.2.2-.9,0-1.3-.3a1.5,1.5,0,0,1-.3-2C251.6,260.6,251.9,259.6,252.3,258.7Z"/><path d="M264.5,238.3l-3.1.2c-.7,0-.9-.5-.5-1.1a14.8,14.8,0,0,1,1.3-.8c.5-.5.9-1.1,1.4-1.5a3.5,3.5,0,0,1,1.1-1c.2-.1.9.4.8.5a2.4,2.4,0,0,1-.7,1.5C263.5,236.9,263.4,237.1,264.5,238.3Z"/><path d="M257.7,257.9c-.7.4-4,.2-4.4-.5s-.4-1.5-.1-1.7a4.3,4.3,0,0,1,2-.6c.2,0,.5.5.8.8Z"/><path d="M268.6,239.8a20.2,20.2,0,0,1,2.9.8c.3.1.5.8.5,1.3s-.8.6-1.1.5a12.5,12.5,0,0,1-2.7-1,1.2,1.2,0,0,1-.3-1C268,240.1,268.4,239.9,268.6,239.8Z"/><path d="M239.2,269.3c.3.1.8,0,1.1.2s.9.3,1.1-.4.6-1.7,1-2.6a4.3,4.3,0,0,1,.9-1l.3.3c-.5,1.3-.8,2.6-1.4,3.8s-1.6,1.5-3.1.1Z"/><path d="M240.4,234c-1.6-.2-4.3-2.1-4.6-3.3,1.4-.1,4.1,1.9,4.5,3.1v.2Z"/><path d="M272.8,247l-.6.8-6.6-2.5v-.2Z"/><path d="M230.3,258.7l2.7,1.5c.1,0,0,.8-.1.9s-1.2.3-1.4.1-1-1.4-1.5-2Z"/><path d="M260.3,251.2c-1.2.6-4.6-.9-5.4-2.2Z"/><path d="M254.9,266.5l-2.8-.8c.7-1.3,1-1.3,2.8.3Z"/><path d="M256.1,253.2l.5-2.1c.4.3,1,.7,1,1.1s-.4.9-.7,1.4Z"/><path d="M261.5,213.8l-1.1,1.1c-.3-.3-.7-.7-.7-1s.4-.7.7-1.1Z"/><path d="M246.6,259c.4.4.9.7,1,1a1.6,1.6,0,0,1-.8.8,5.4,5.4,0,0,1-1.2-.9Z"/><path d="M246.4,263c-1.5-.9-1.5.5-2,1-.2-1.3-.1-1.5,1.5-2.5l.5,1.1Z"/><path d="M250.3,207.9l.6.8-3.1-.5v-.5l2.5.2Z"/><path d="M263.7,215.6l.2-1.8c.3.3.8.6.7.7a2.9,2.9,0,0,1-.5,1.3Z"/><path d="M323.1,269.7c-.2,1-.3,1.6-.4,2.3s-.6,3.8-.8,5.8-.5,1.2-1.4.7l-2.7-1.1c-.6-.3-.8-.7-.3-1.3l4.8-6.1C322.3,269.9,322.6,269.9,323.1,269.7Z"/><path d="M429.9,179.8a1.5,1.5,0,0,1,.3-.7,5.2,5.2,0,0,1,1.1-1l.3.6-1,1.2Z"/><path d="M41.6,118.1l-.7-1.4c0-.3.3-.5.5-.8a2.3,2.3,0,0,1,.7,1C42.2,117.1,41.9,117.4,41.6,118.1Z"/><path d="M326.2,179.3a8.5,8.5,0,0,1-2.5,5.4c-1.6,1.6-3.5,1.1-5.4.7l-2.5-.9c-.8-.2-.9-.7-.6-1.3,1.4-3.2,2.8-6.3,4.1-9.4.5-1,1-1.1,1.9-.6l3,1.9A4.6,4.6,0,0,1,326.2,179.3Z"/><path d="M332.3,163.5a7.8,7.8,0,0,1-2.3,5.3,5.2,5.2,0,0,1-3.4,1.2,20.1,20.1,0,0,1-4.1-.9c-.8-.2-.9-.6-.6-1.4l3.9-9c.4-1,1-1.3,1.9-.7a32.1,32.1,0,0,1,3.1,1.9A4.1,4.1,0,0,1,332.3,163.5Z"/><path d="M359.5,144l6.2-.8v.5l-.9.2-2.6.7A2.2,2.2,0,0,1,359.5,144Z"/><path d="M333.1,55.1V49c1.2.6,1.5,1.4,1.2,2.8a21.7,21.7,0,0,0-.4,2.5l.4.3-1.2.5Z"/><path d="M398.6,79.2a144.2,144.2,0,0,1,21.8,17.9l-.4.4-21.6-18Z"/><path d="M413.9,88.5a22.5,22.5,0,0,1-6-5.9C411.1,83.3,411.8,86.6,413.9,88.5Z"/><path d="M225.2,159.9c2.3.9,4.4,1.9,5.4,4.3s.2,3.4-.2,5a24.8,24.8,0,0,1-4.6,9c-1.8,2.2-4.1,2.6-6.7,1.9s-3.3-.9-1.9-3.9c2.4-5.2,5-10.4,7.5-15.6A1.5,1.5,0,0,1,225.2,159.9Z"/><path d="M377.2,31.4l.4-2.2h-.2L375.5,32h-.4l-.3-1.4V28.3c0-.9.4-1.1,1.7-.7l1-1.8a4.3,4.3,0,0,1,0,5.7Z"/><path d="M382.5,23.1a3.5,3.5,0,0,1-1.4.3.8.8,0,0,1-.7,0,.8.8,0,0,1-.1-.8l3.3-2.2.6.3C383.2,21.3,381.5,21.4,382.5,23.1Z"/><path d="M384.6,18.4a7.6,7.6,0,0,1-1.6.3l-1.8-.2-.7-.5c.3-.2.5-.6.8-.6l3.2.4Z"/><path d="M376.9,15.3h1.9v.3L375,17.5c.1-1.5,1.3-1.6,2-2.3Z"/><path d="M377.3,21.9c.1,1.2-.1,1.7-.9,1.7s-.5-.5-.8-.7Z"/><path d="M377.3,19.5l1,1.2c-.2.1-.5.4-.6.3a4.5,4.5,0,0,1-1.2-.6Z"/><path d="M420.6,206.7c-.1-1.3-.2-2.4-.2-3.4s.4-.5.5-.8.7.5.7.8S422.1,205.7,420.6,206.7Z"/><path d="M154.9,173.8c-.4.9-.6,2-1,3s-2.4,4.7-3.8,6.9a3.6,3.6,0,0,1-5.5.9,3.8,3.8,0,0,1-1.3-2.4,6.8,6.8,0,0,1,.7-3.2,65.8,65.8,0,0,1,4.2-7.3,3.8,3.8,0,0,1,6.2.5A10.3,10.3,0,0,1,154.9,173.8Z"/><path d="M445.5,165.6c-.3-.6-.6-1-.5-1.1a4.1,4.1,0,0,1,.7-1.1c.3.3.7.5.6.8S445.9,164.9,445.5,165.6Z"/><path d="M121.8,161.1a2.7,2.7,0,0,1,0,.9c-.5,2.3-1.1,4.6-1.6,6.9s-.6,1.4-1.6,1-1.9-.7-2.8-1.2-.5-1-.3-1.2l6-6.5Z"/><path d="M310,268.6h-.7c-2.2-.4-2.3-.7-1.5-2.6s.9-2.1,1.3-3.2.7-.8,1.4-.5c2.4,1.1,3.1,3.1,1.6,5.2a7.2,7.2,0,0,1-1.9,1.4Z"/><path d="M471.2,165.6l-1,1.3a3.1,3.1,0,0,1-.5-1.2c0-.4.4-.7.6-1.1Z"/><path d="M471.2,171c-.3-.5-.6-.7-.6-1a2.2,2.2,0,0,1,.7-.6c.1.3.4.5.5.8A5,5,0,0,1,471.2,171Z"/><path d="M203.1,189.1l-2.4-2.2a7.8,7.8,0,0,1,2.3.5C203.3,187.6,203.1,188.5,203.1,189.1Z"/><path d="M279.7,226.4l-1.5.2c.1-.3,0-.9.1-.9h1.3Z"/><path d="M184.2,239.8l1.9-.3c.3,0,.8.1.9.3a1.5,1.5,0,0,1-.1.9l-2.4,3.4a5.2,5.2,0,0,1-1.3.6c-.3.1-.8.2-1,0s-.2-.6-.3-.9a2.8,2.8,0,0,0-.1-.9c0-.5-.3-1.2-.1-1.5s1-.3,1.5-.4l.2.3Z"/></g></svg>