<svg xmlns="http://www.w3.org/2000/svg" width="462.5" height="240.1" viewBox="0 0 462.5 240.1"><defs><style>.a{fill:#0083b3;}.b{fill:#2baae2;}</style></defs><title>cs-sm_cruisesoon</title><path class="a" d="M39.3,191.7a36.4,36.4,0,0,1-14,2.5C10,194.2,0,184.4,0,169.2s10.1-26.3,27.4-26.3a29.4,29.4,0,0,1,12,2.4l-2.2,9.2a22.6,22.6,0,0,0-9.4-1.9c-9.5,0-15.2,7-15.1,16s6.6,15.8,15.1,15.8a25,25,0,0,0,9.8-1.9Z"/><path class="a" d="M48.5,159.9c0-6.7-.1-11.4-.4-15.9H58.9l.4,9.4h.4c2.4-6.9,8.2-10.5,13.4-10.5a12.9,12.9,0,0,1,2.9.3v11.7a17.1,17.1,0,0,0-3.6-.4c-6,0-10,3.9-11.1,9.4a22.3,22.3,0,0,0-.4,3.9v25.4H48.5Z"/><path class="a" d="M128.4,178.5c0,5.8.2,10.7.4,14.7H117.9l-.6-7.5h-.2c-2.1,3.6-6.9,8.6-15.7,8.6S84.2,189,84.2,172.9V144H96.6v26.8c0,8.2,2.7,13.4,9.2,13.4a10.4,10.4,0,0,0,9.5-6.6,11.8,11.8,0,0,0,.7-3.9V144h12.4Z"/><path class="a" d="M155.1,130.3c0,3.7-2.7,6.7-7.1,6.7a6.5,6.5,0,0,1-6.8-6.7,7,7,0,0,1,13.9,0Zm-13.2,62.9V144h12.5v49.2Z"/><path class="a" d="M167.1,181.8a27.9,27.9,0,0,0,12.6,3.5c5.5,0,7.9-2.2,7.9-5.4s-2-5.1-8.1-7.2c-9.6-3.3-13.6-8.6-13.5-14.3,0-8.7,7.2-15.5,18.6-15.5a27.7,27.7,0,0,1,13,3l-2.4,8.7a22.3,22.3,0,0,0-10.4-2.8c-4.5,0-6.9,2.1-6.9,5.2s2.3,4.6,8.6,6.8c8.9,3.3,13,7.8,13.1,15.1,0,8.9-6.9,15.3-20,15.3a31.9,31.9,0,0,1-14.9-3.4Z"/><path class="a" d="M218.6,172.1c.3,8.9,7.3,12.7,15.2,12.7a37.2,37.2,0,0,0,13.6-2.2l1.8,8.6a46.6,46.6,0,0,1-17.2,3c-15.9,0-25.3-9.8-25.3-24.8s8.3-26.5,24-26.5,21.2,13.2,21.2,24a30.3,30.3,0,0,1-.4,5.2Zm21.6-8.7c.1-4.5-1.9-12-10.2-12s-10.9,7-11.4,12Z"/><path class="b" d="M261.3,181.8a28.3,28.3,0,0,0,12.7,3.5c5.4,0,7.8-2.2,7.8-5.4s-2-5.1-8-7.2c-9.6-3.3-13.7-8.6-13.6-14.3,0-8.7,7.2-15.5,18.6-15.5a27.4,27.4,0,0,1,13,3l-2.4,8.7a22.3,22.3,0,0,0-10.4-2.8c-4.4,0-6.9,2.1-6.9,5.2s2.4,4.6,8.6,6.8c8.9,3.3,13,7.8,13.1,15.1,0,8.9-6.9,15.3-19.9,15.3a32,32,0,0,1-15-3.4Z"/><path class="b" d="M350.8,168.2c0,18.1-12.7,26.1-25.2,26.1s-24.7-9.6-24.7-25.3,10.6-26.1,25.5-26.1S350.8,153.2,350.8,168.2Zm-37.1.5c0,9.5,4.7,16.6,12.3,16.6s12-6.9,12-16.8c0-7.7-3.5-16.5-11.9-16.5S313.7,160.5,313.7,168.7Z"/><path class="b" d="M407.8,168.2c0,18.1-12.8,26.1-25.3,26.1s-24.6-9.6-24.6-25.3,10.6-26.1,25.4-26.1S407.8,153.2,407.8,168.2Zm-37.1.5c0,9.5,4.6,16.6,12.2,16.6s12-6.9,12-16.8c0-7.7-3.4-16.5-11.9-16.5S370.7,160.5,370.7,168.7Z"/><path class="b" d="M418,158.7c0-5.7-.2-10.4-.5-14.7h11l.6,7.4h.3a17.7,17.7,0,0,1,15.6-8.5c8.6,0,17.5,5.6,17.5,21.1v29.2H450.1V165.5c0-7.1-2.7-12.5-9.4-12.5a10.4,10.4,0,0,0-9.7,7.3,12.5,12.5,0,0,0-.5,4v28.9H418Z"/><path class="a" d="M58.4,233.9a6.2,6.2,0,0,1,3.5-5.6c2.3-1.3,6-2.3,11-2.8a11.4,11.4,0,0,0-.2-2.6,6.3,6.3,0,0,0-.8-2.3,3.5,3.5,0,0,0-1.6-1.6,5.4,5.4,0,0,0-2.7-.7,9.1,9.1,0,0,0-4.1.9,13.1,13.1,0,0,0-3,1.8l-1-1.6,1.5-.9a6.6,6.6,0,0,1,1.9-.9l2.3-.8a11.5,11.5,0,0,1,2.6-.3,6.9,6.9,0,0,1,3.4.7,6.7,6.7,0,0,1,2.2,1.8,6.5,6.5,0,0,1,1.2,2.8,17.6,17.6,0,0,1,.4,3.4v14.3H73.2l-.2-2.9h-.1a30,30,0,0,1-3.7,2.5,9.1,9.1,0,0,1-4.3,1,6.9,6.9,0,0,1-2.5-.4,5.3,5.3,0,0,1-2.1-1.1,5.5,5.5,0,0,1-1.4-1.9A7.8,7.8,0,0,1,58.4,233.9Zm2.1-.1a3.9,3.9,0,0,0,1.5,3.5,5.2,5.2,0,0,0,3.3,1,8.1,8.1,0,0,0,3.7-.9,19.7,19.7,0,0,0,3.9-2.7v-7.6a36.3,36.3,0,0,0-5.8,1,16.1,16.1,0,0,0-3.8,1.4,5.6,5.6,0,0,0-2.1,1.9A5.5,5.5,0,0,0,60.5,233.8Z"/><path class="a" d="M83,217.1h1.8l.2,3.4h.1a22,22,0,0,1,3.6-2.8,7.3,7.3,0,0,1,4.1-1.2c2.4,0,4.1.7,5.2,2.1s1.6,3.6,1.6,6.5v14.4h-2V225.4c0-2.4-.4-4.2-1.2-5.3a4.6,4.6,0,0,0-4-1.7,6.5,6.5,0,0,0-3.6,1,19.9,19.9,0,0,0-3.7,3.2v16.9H83Z"/><path class="a" d="M115.3,228.4a13.6,13.6,0,0,1,.9-5.1,9.1,9.1,0,0,1,2.2-3.7,9,9,0,0,1,3.2-2.3,10,10,0,0,1,3.8-.8,10.5,10.5,0,0,1,3.9.8,9,9,0,0,1,3.2,2.3,10.4,10.4,0,0,1,2.2,3.7,16,16,0,0,1,.8,5.1,14.8,14.8,0,0,1-.8,4.9,10.4,10.4,0,0,1-2.2,3.7,9,9,0,0,1-3.2,2.3,10.5,10.5,0,0,1-3.9.8,10,10,0,0,1-3.8-.8,9,9,0,0,1-3.2-2.3,9.1,9.1,0,0,1-2.2-3.7A12.6,12.6,0,0,1,115.3,228.4Zm2.2,0a12.9,12.9,0,0,0,.6,4,10.3,10.3,0,0,0,1.7,3.1,7.2,7.2,0,0,0,2.5,2.1,7.8,7.8,0,0,0,3.1.7,8.8,8.8,0,0,0,3.2-.7,7.2,7.2,0,0,0,2.5-2.1,10.3,10.3,0,0,0,1.7-3.1,12.9,12.9,0,0,0,.6-4,13.1,13.1,0,0,0-.6-4.1,10.9,10.9,0,0,0-1.7-3.2,6.9,6.9,0,0,0-2.5-2,7.2,7.2,0,0,0-3.2-.8,6.5,6.5,0,0,0-3.1.8,6.9,6.9,0,0,0-2.5,2,10.9,10.9,0,0,0-1.7,3.2A13.1,13.1,0,0,0,117.5,228.4Z"/><path class="a" d="M140.4,228.4a16,16,0,0,1,.8-5.1,10.6,10.6,0,0,1,2.3-3.7,9,9,0,0,1,3.2-2.3,10.9,10.9,0,0,1,3.9-.8,7.5,7.5,0,0,1,3.9.9,9.3,9.3,0,0,1,2.7,1.9l-1.2,1.4a10.4,10.4,0,0,0-2.4-1.7,6.5,6.5,0,0,0-2.9-.7,6.9,6.9,0,0,0-3.2.8,7.3,7.3,0,0,0-2.6,2,10.9,10.9,0,0,0-1.7,3.2,10.7,10.7,0,0,0-.7,4.1,12.9,12.9,0,0,0,.6,4,10.3,10.3,0,0,0,1.7,3.1,7.2,7.2,0,0,0,2.5,2.1,9.4,9.4,0,0,0,3.4.7,7.3,7.3,0,0,0,3.3-.8,12.7,12.7,0,0,0,2.7-1.8l1,1.4a12.1,12.1,0,0,1-3.2,2.2,10.1,10.1,0,0,1-3.9.8,11.1,11.1,0,0,1-4.1-.8,9,9,0,0,1-3.2-2.3,10.2,10.2,0,0,1-2.1-3.7A12.6,12.6,0,0,1,140.4,228.4Z"/><path class="a" d="M160.6,228.4a15.4,15.4,0,0,1,.8-5,12.1,12.1,0,0,1,2.2-3.7,10.8,10.8,0,0,1,3.2-2.4,8.6,8.6,0,0,1,3.6-.8,7.7,7.7,0,0,1,6.3,2.7c1.5,1.8,2.3,4.4,2.3,7.7v.9a2.5,2.5,0,0,1-.1.8H162.7a12.3,12.3,0,0,0,.7,3.9,8.5,8.5,0,0,0,1.7,3.1,8.6,8.6,0,0,0,2.6,2,7.8,7.8,0,0,0,3.5.7,8.8,8.8,0,0,0,3.3-.5,11.7,11.7,0,0,0,2.7-1.5l.9,1.6-3,1.5a10,10,0,0,1-4.1.7,11.5,11.5,0,0,1-4.1-.8,10.4,10.4,0,0,1-3.3-2.3,13.4,13.4,0,0,1-2.2-3.7A15.3,15.3,0,0,1,160.6,228.4ZM177,227c0-2.9-.6-5.1-1.8-6.5a5.5,5.5,0,0,0-4.8-2.2,6.3,6.3,0,0,0-2.7.6,8.1,8.1,0,0,0-2.4,1.7,8.8,8.8,0,0,0-1.7,2.8,10.6,10.6,0,0,0-.9,3.6Z"/><path class="a" d="M183.1,233.9a6.2,6.2,0,0,1,3.5-5.6c2.4-1.3,6-2.3,11-2.8a22.6,22.6,0,0,0-.1-2.6,15.5,15.5,0,0,0-.8-2.3A4.4,4.4,0,0,0,195,219a5.4,5.4,0,0,0-2.7-.7,9.1,9.1,0,0,0-4.1.9,13.1,13.1,0,0,0-3,1.8l-1-1.6,1.5-.9a6.6,6.6,0,0,1,1.9-.9l2.3-.8a12.4,12.4,0,0,1,2.7-.3,6.6,6.6,0,0,1,5.5,2.5,6.5,6.5,0,0,1,1.2,2.8,12.2,12.2,0,0,1,.4,3.4v14.3h-1.8l-.2-2.9h-.1a24,24,0,0,1-3.7,2.5,8.7,8.7,0,0,1-4.2,1,7.5,7.5,0,0,1-2.6-.4,5.6,5.6,0,0,1-2-1.1,4.7,4.7,0,0,1-1.5-1.9A7.8,7.8,0,0,1,183.1,233.9Zm2.2-.1c0,1.7.4,2.8,1.4,3.5a5.2,5.2,0,0,0,3.3,1,8.1,8.1,0,0,0,3.7-.9,19.7,19.7,0,0,0,3.9-2.7v-7.6a36.3,36.3,0,0,0-5.8,1,16.1,16.1,0,0,0-3.8,1.4,5.6,5.6,0,0,0-2.1,1.9A5.3,5.3,0,0,0,185.3,233.8Z"/><path class="a" d="M207.7,217.1h1.8l.2,3.4h.1a22,22,0,0,1,3.6-2.8,7.4,7.4,0,0,1,4.2-1.2,6.1,6.1,0,0,1,5.1,2.1c1.1,1.4,1.6,3.6,1.6,6.5v14.4h-2V225.4c0-2.4-.4-4.2-1.2-5.3a4.6,4.6,0,0,0-4-1.7,6.5,6.5,0,0,0-3.6,1,23.7,23.7,0,0,0-3.7,3.2v16.9h-2.1Z"/><path class="a" d="M240.1,228.4a13.7,13.7,0,0,1,.8-5.1,10.4,10.4,0,0,1,2.2-3.7,9,9,0,0,1,3.2-2.3,10,10,0,0,1,3.8-.8,10.1,10.1,0,0,1,3.9.8,9,9,0,0,1,3.2,2.3,10.4,10.4,0,0,1,2.2,3.7,13.7,13.7,0,0,1,.8,5.1,12.6,12.6,0,0,1-.8,4.9,10.4,10.4,0,0,1-2.2,3.7,9,9,0,0,1-3.2,2.3,10.1,10.1,0,0,1-3.9.8,10,10,0,0,1-3.8-.8,9,9,0,0,1-3.2-2.3,10.4,10.4,0,0,1-2.2-3.7A12.6,12.6,0,0,1,240.1,228.4Zm2.1,0a12.9,12.9,0,0,0,.6,4,10.3,10.3,0,0,0,1.7,3.1,7.2,7.2,0,0,0,2.5,2.1,8.2,8.2,0,0,0,3.1.7,8.8,8.8,0,0,0,3.2-.7,7.2,7.2,0,0,0,2.5-2.1,10.3,10.3,0,0,0,1.7-3.1,12.9,12.9,0,0,0,.6-4,13.1,13.1,0,0,0-.6-4.1,10.9,10.9,0,0,0-1.7-3.2,6.9,6.9,0,0,0-2.5-2,7.2,7.2,0,0,0-3.2-.8,6.8,6.8,0,0,0-3.1.8,6.9,6.9,0,0,0-2.5,2,10.9,10.9,0,0,0-1.7,3.2A13.1,13.1,0,0,0,242.2,228.4Z"/><path class="a" d="M275.6,207.8a2.7,2.7,0,0,0-1.4-.5l-1.3-.2a3.2,3.2,0,0,0-2.7,1.3,6.9,6.9,0,0,0-.8,3.8v4.9h5.2v1.8h-5.2v20.6h-2.1V218.9h-3.1v-1.6l3.1-.2v-5a8,8,0,0,1,1.4-5.1,5.4,5.4,0,0,1,4.2-1.7,7.6,7.6,0,0,1,3.2.8Z"/><path class="a" d="M286.7,228.4a13.6,13.6,0,0,1,.9-5.1,10.4,10.4,0,0,1,2.2-3.7,8.6,8.6,0,0,1,3.3-2.3,10.1,10.1,0,0,1,3.9-.8,8,8,0,0,1,3.9.9,13.1,13.1,0,0,1,2.7,1.9l-1.3,1.4A12.4,12.4,0,0,0,300,219a7.3,7.3,0,0,0-3-.7,7.2,7.2,0,0,0-3.2.8,8.2,8.2,0,0,0-2.6,2,10.9,10.9,0,0,0-1.7,3.2,13.1,13.1,0,0,0-.6,4.1,12.9,12.9,0,0,0,.6,4,8.3,8.3,0,0,0,1.6,3.1,7.5,7.5,0,0,0,2.6,2.1,8.8,8.8,0,0,0,3.3.7,7.3,7.3,0,0,0,3.3-.8,12.7,12.7,0,0,0,2.7-1.8l1.1,1.4a14.6,14.6,0,0,1-3.3,2.2,9.3,9.3,0,0,1-3.9.8,10.6,10.6,0,0,1-4-.8,9.4,9.4,0,0,1-3.3-2.3,10.2,10.2,0,0,1-2.1-3.7A14.8,14.8,0,0,1,286.7,228.4Z"/><path class="a" d="M309.6,205.9h2.1v14.7a13.9,13.9,0,0,1,3.6-2.9,7.3,7.3,0,0,1,4.1-1.2c2.4,0,4.1.7,5.2,2.1s1.6,3.6,1.6,6.5v14.4h-2V225.4c0-2.4-.4-4.2-1.2-5.3a4.7,4.7,0,0,0-4-1.7,6.3,6.3,0,0,0-3.6,1,19.9,19.9,0,0,0-3.7,3.2v16.9h-2.1Z"/><path class="a" d="M332.4,228.4a13.6,13.6,0,0,1,.9-5.1,9.1,9.1,0,0,1,2.2-3.7,8.2,8.2,0,0,1,3.2-2.3,10,10,0,0,1,3.8-.8,10.9,10.9,0,0,1,3.9.8,9,9,0,0,1,3.2,2.3,12.1,12.1,0,0,1,2.2,3.7,16,16,0,0,1,.8,5.1,14.8,14.8,0,0,1-.8,4.9,12.1,12.1,0,0,1-2.2,3.7,9,9,0,0,1-3.2,2.3,10.9,10.9,0,0,1-3.9.8,10,10,0,0,1-3.8-.8,8.2,8.2,0,0,1-3.2-2.3,9.1,9.1,0,0,1-2.2-3.7A12.6,12.6,0,0,1,332.4,228.4Zm2.2,0a12.9,12.9,0,0,0,.6,4,10.3,10.3,0,0,0,1.7,3.1,7.2,7.2,0,0,0,2.5,2.1,7.8,7.8,0,0,0,3.1.7,8.8,8.8,0,0,0,3.2-.7,8.2,8.2,0,0,0,2.5-2.1,10.1,10.1,0,0,0,1.6-3.1,10.5,10.5,0,0,0,.7-4,13.2,13.2,0,0,0-2.3-7.3,7.9,7.9,0,0,0-2.5-2,7.2,7.2,0,0,0-3.2-.8,6.5,6.5,0,0,0-3.1.8,6.9,6.9,0,0,0-2.5,2,10.9,10.9,0,0,0-1.7,3.2A13.1,13.1,0,0,0,334.6,228.4Z"/><path class="a" d="M360.4,211.7a1.6,1.6,0,0,1-1.3-.6,1.5,1.5,0,0,1-.6-1.3,1.8,1.8,0,0,1,.6-1.4,1.8,1.8,0,0,1,1.3-.4,2.1,2.1,0,0,1,1.4.4,2.2,2.2,0,0,1,.5,1.4,1.7,1.7,0,0,1-.5,1.3A1.8,1.8,0,0,1,360.4,211.7Zm-1.1,5.4h2.1v22.4h-2.1Z"/><path class="a" d="M368.2,228.4a16,16,0,0,1,.8-5.1,10.6,10.6,0,0,1,2.3-3.7,9,9,0,0,1,3.2-2.3,10.9,10.9,0,0,1,3.9-.8,7.5,7.5,0,0,1,3.9.9,9.3,9.3,0,0,1,2.7,1.9l-1.2,1.4a10.4,10.4,0,0,0-2.4-1.7,6.5,6.5,0,0,0-2.9-.7,6.9,6.9,0,0,0-3.2.8,7.3,7.3,0,0,0-2.6,2,10.9,10.9,0,0,0-1.7,3.2,13,13,0,0,0-.7,4.1,12.9,12.9,0,0,0,.6,4,10.3,10.3,0,0,0,1.7,3.1,7.2,7.2,0,0,0,2.5,2.1,9.8,9.8,0,0,0,3.4.7,7.3,7.3,0,0,0,3.3-.8,12.7,12.7,0,0,0,2.7-1.8l1.1,1.4a14.6,14.6,0,0,1-3.3,2.2,10.1,10.1,0,0,1-3.9.8,11.1,11.1,0,0,1-4.1-.8,9,9,0,0,1-3.2-2.3,10.2,10.2,0,0,1-2.1-3.7A12.6,12.6,0,0,1,368.2,228.4Z"/><path class="a" d="M388.4,228.4a15.4,15.4,0,0,1,.8-5,12.1,12.1,0,0,1,2.2-3.7,10.8,10.8,0,0,1,3.2-2.4,8.6,8.6,0,0,1,3.6-.8,7.7,7.7,0,0,1,6.3,2.7c1.5,1.8,2.3,4.4,2.3,7.7v.9a2.5,2.5,0,0,1-.1.8H390.5a12.3,12.3,0,0,0,.7,3.9,8.5,8.5,0,0,0,1.7,3.1,8.6,8.6,0,0,0,2.6,2,7.8,7.8,0,0,0,3.5.7,8.8,8.8,0,0,0,3.3-.5,11.7,11.7,0,0,0,2.7-1.5l.9,1.6-3,1.5a10,10,0,0,1-4.1.7,11.5,11.5,0,0,1-4.1-.8,10.4,10.4,0,0,1-3.3-2.3,13.4,13.4,0,0,1-2.2-3.7A15.3,15.3,0,0,1,388.4,228.4Zm16.4-1.4c0-2.9-.6-5.1-1.7-6.5a5.9,5.9,0,0,0-4.9-2.2,6.3,6.3,0,0,0-2.7.6,8.1,8.1,0,0,0-2.4,1.7,8.8,8.8,0,0,0-1.7,2.8,10.6,10.6,0,0,0-.9,3.6Z"/><path class="b" d="M201.8,100.5a31,31,0,0,0-9.8,1.6,50.7,50.7,0,0,1,39.2,21.4A30.3,30.3,0,0,0,201.8,100.5Z"/><path class="a" d="M198.9,28.5A47.5,47.5,0,0,0,196,39.1a80.6,80.6,0,0,1,35.2-15.8V15.1a79.3,79.3,0,0,0-22.6,7.6A67.2,67.2,0,0,0,198.9,28.5Z"/><path class="a" d="M195.3,48.5a80.7,80.7,0,0,0,16.2,48.7A50.1,50.1,0,0,1,231.2,114V27.3a81.6,81.6,0,0,0-35.8,17.4C195.3,46,195.3,47.3,195.3,48.5Zm15.1-1c.7,0,1.2,1.6,1.2,3.5s-.5,3.4-1.2,3.4-1.1-1.5-1.1-3.4S209.8,47.5,210.4,47.5Zm-6.5,2.2c.6,0,1,1.5,1,3.3s-.4,3.2-1,3.2-1-1.4-1-3.2S203.3,49.7,203.9,49.7Z"/><path class="a" d="M217.2,9.7a45.4,45.4,0,0,0-.9,5.1,86.8,86.8,0,0,1,16.1-4.3V0a48.1,48.1,0,0,0-12.7,1.7A43.7,43.7,0,0,0,217.2,9.7Z"/><path class="b" d="M262.1,100.5a31.9,31.9,0,0,1,9.8,1.6,50.9,50.9,0,0,0-39.3,21.4A30.4,30.4,0,0,1,262.1,100.5Z"/><path class="b" d="M265,28.5a47.3,47.3,0,0,1,2.8,10.6,80.6,80.6,0,0,0-35.2-15.8V15.1a79.9,79.9,0,0,1,22.7,7.6A73.1,73.1,0,0,1,265,28.5Z"/><path class="b" d="M268.4,44.7a81.1,81.1,0,0,0-35.8-17.4V114a50.8,50.8,0,0,1,19.7-16.8,80.7,80.7,0,0,0,16.2-48.7C268.5,47.3,268.5,46,268.4,44.7ZM254.6,51c0,1.9-.5,3.4-1.2,3.4s-1.2-1.5-1.2-3.4.6-3.5,1.2-3.5S254.6,49.1,254.6,51Zm6.4,2c0,1.8-.5,3.2-1.1,3.2s-1-1.4-1-3.2.5-3.3,1-3.3S261,51.2,261,53Z"/><path class="a" d="M246.6,9.7a45.4,45.4,0,0,1,.9,5.1,84.7,84.7,0,0,0-16.1-4.3V0a49.4,49.4,0,0,1,12.8,1.7A52.9,52.9,0,0,1,246.6,9.7Z"/></svg>