<svg xmlns="http://www.w3.org/2000/svg" width="565.7" height="145.7" viewBox="0 0 565.7 145.7"><defs><style>.a{font-size:100.98px;font-family:MyriadPro-Semibold, Myriad Pro;font-weight:700;}.a,.c,.g{fill:#0083b3;}.b{fill:#2baae2;}.c{font-size:46.8px;font-family:SourceSansPro-Light, Source Sans Pro;}.d{letter-spacing:-0.02em;}.e{letter-spacing:-0.02em;}.f{letter-spacing:-0.02em;}</style></defs><title>cs-sm</title><text class="a" transform="translate(93.1 84.5)">cruise<tspan class="b" x="258.8" y="0">soon</tspan></text><text class="c" transform="translate(208.2 132.3)">an o<tspan class="d" x="82.6" y="0">c</tspan><tspan class="e" x="102.8" y="0">e</tspan><tspan x="124.7" y="0">an of choi</tspan><tspan class="f" x="310.4" y="0">c</tspan><tspan x="330.6" y="0">e</tspan></text><path class="b" d="M9.8,118.8A29.2,29.2,0,0,0,0,120.4a50.9,50.9,0,0,1,39.3,21.4A30.4,30.4,0,0,0,9.8,118.8Z"/><path class="g" d="M6.9,46.8A51.7,51.7,0,0,0,4,57.4,81.1,81.1,0,0,1,39.3,41.5V33.3a79.9,79.9,0,0,0-22.7,7.6A73.8,73.8,0,0,0,6.9,46.8Z"/><path class="g" d="M3.4,66.8a81.5,81.5,0,0,0,16.1,48.7,50.4,50.4,0,0,1,19.8,16.8V45.5A81.1,81.1,0,0,0,3.4,63Zm15.1-1c.6,0,1.1,1.5,1.1,3.4s-.5,3.5-1.1,3.5-1.2-1.6-1.2-3.5S17.8,65.8,18.5,65.8ZM11.9,68c.6,0,1.1,1.4,1.1,3.2s-.5,3.3-1.1,3.3-1-1.5-1-3.3S11.4,68,11.9,68Z"/><path class="g" d="M25.2,27.9c-.3,1.7-.6,3.4-.8,5.2a78.9,78.9,0,0,1,16-4.4V18.2A53.3,53.3,0,0,0,27.7,20,51.9,51.9,0,0,0,25.2,27.9Z"/><path class="b" d="M70.1,118.8a29.2,29.2,0,0,1,9.8,1.6,50.9,50.9,0,0,0-39.3,21.4A30.5,30.5,0,0,1,70.1,118.8Z"/><path class="b" d="M73,46.8a51.7,51.7,0,0,1,2.9,10.6A80.6,80.6,0,0,0,40.6,41.5V33.3a78.9,78.9,0,0,1,22.7,7.6A73.8,73.8,0,0,1,73,46.8Z"/><path class="b" d="M76.5,63A80.6,80.6,0,0,0,40.6,45.5v86.8a50.4,50.4,0,0,1,19.8-16.8A81.6,81.6,0,0,0,76.6,66.8C76.6,65.5,76.5,64.2,76.5,63ZM62.6,69.2c0,1.9-.5,3.5-1.1,3.5s-1.2-1.6-1.2-3.5.5-3.4,1.2-3.4S62.6,67.3,62.6,69.2Zm6.4,2c0,1.8-.4,3.3-1,3.3s-1.1-1.5-1.1-3.3S67.4,68,68,68,69,69.4,69,71.2Z"/><path class="g" d="M54.7,27.9a43.4,43.4,0,0,1,.8,5.2,78.9,78.9,0,0,0-16-4.4V18.2A53.3,53.3,0,0,1,52.2,20,51.9,51.9,0,0,1,54.7,27.9Z"/></svg>