<svg xmlns="http://www.w3.org/2000/svg" xmlns:xlink="http://www.w3.org/1999/xlink" width="4042.1" height="4042.1" viewBox="0 0 4042.1 4042.1"><defs><style>.a{isolation:isolate;}.b{fill:#3fa9f5;}.c,.g{fill:none;}.d{opacity:0.15;fill:url(#a);}.d,.e,.f,.g{mix-blend-mode:screen;}.e{opacity:0.5;fill:url(#b);}.f{fill:url(#c);}.g{stroke:#fff;stroke-miterlimit:10;stroke-width:2px;opacity:0.03;}</style><radialGradient id="a" cx="2021.04" cy="2021.04" r="922.35" gradientUnits="userSpaceOnUse"><stop offset="0" stop-color="#200"/><stop offset="0.73" stop-color="#984023"/><stop offset="1" stop-color="#200"/></radialGradient><radialGradient id="b" cx="2021.04" cy="2021.04" r="461.18" gradientUnits="userSpaceOnUse"><stop offset="0.15" stop-color="#fff"/><stop offset="0.21" stop-color="#e5d3d3"/><stop offset="0.29" stop-color="#c49c9e"/><stop offset="0.36" stop-color="#ad7477"/><stop offset="0.42" stop-color="#9e5c5f"/><stop offset="0.45" stop-color="#995356"/><stop offset="0.57" stop-color="#6b3335"/><stop offset="0.69" stop-color="#431718"/><stop offset="0.79" stop-color="#2b0606"/><stop offset="0.85" stop-color="#200"/><stop offset="0.86" stop-color="#260201"/><stop offset="0.86" stop-color="#330704"/><stop offset="0.87" stop-color="#471009"/><stop offset="0.88" stop-color="#641d0f"/><stop offset="0.89" stop-color="#8a2e18"/><stop offset="0.9" stop-color="#b74223"/><stop offset="0.9" stop-color="#d34e29"/><stop offset="0.9" stop-color="#c84927"/><stop offset="0.91" stop-color="#9c361c"/><stop offset="0.93" stop-color="#772514"/><stop offset="0.94" stop-color="#58180c"/><stop offset="0.95" stop-color="#400d07"/><stop offset="0.97" stop-color="#2f0603"/><stop offset="0.98" stop-color="#250101"/><stop offset="1" stop-color="#200"/></radialGradient><radialGradient id="c" cx="2021.04" cy="2021.04" r="384.31" gradientUnits="userSpaceOnUse"><stop offset="0.15" stop-color="#fff"/><stop offset="0.28" stop-color="#c2c2c2"/><stop offset="0.43" stop-color="#888"/><stop offset="0.56" stop-color="#575757"/><stop offset="0.69" stop-color="#313131"/><stop offset="0.81" stop-color="#161616"/><stop offset="0.92" stop-color="#060606"/><stop offset="1"/></radialGradient></defs><title>flare-01</title><g class="a"><rect class="b" x="1871.2" y="1097.7" width="1716.9" height="1103.9"/><line class="c" x1="2021" y1="2021" x2="2356.1" y2="1704.2"/><circle class="c" cx="2021" cy="2021" r="384.3"/><circle class="c" cx="2021" cy="2021" r="461.2"/><polyline class="c" points="2021 2021 3912.4 1494.3 2021 2021 129.6 2547.8 2021 2021 2547.8 3912.4 2021 2021 1494.3 129.6 2021 2021 2654.1 2034.9 2021 2021 1388 2007.2 2021 2021 2007.2 2654.1 2021 2021 2034.9 1388 2021 2021 3165 1977.5 2021 2021 877.1 2064.6 2021 2021 2064.6 3165 2021 2021 1977.5 877.1 2021 2021 2878.4 2487.2 2021 2021 1163.7 1554.8 2021 2021 1554.8 2878.4 2021 2021 2487.2 1163.7 2021 2021 2489.6 2744.4 2021 2021 1552.5 1297.7 2021 2021 1297.7 2489.6 2021 2021 2744.4 1552.5 2021 2021 2588.5 2679.6 2021 2021 1453.6 1362.5 2021 2021 1362.5 2588.5 2021 2021 2679.6 1453.6 2021 2021 4020.2 1512.1 2021 2021 21.9 2530 2021 2021 2530 4020.2 2021 2021 1512.1 21.9 2021 2021 2776.1 2542.5 2021 2021 1266 1499.6 2021 2021 1499.6 2776.1 2021 2021 2542.5 1266 2021 2021 2701.1 2482.2 2021 2021 1341 1559.8 2021 2021 1559.8 2701.1 2021 2021 2482.2 1341 2021 2021 3439.5 2834.7 2021 2021 602.6 1207.4 2021 2021 1207.4 3439.5 2021 2021 2834.7 602.6 2021 2021 2266.2 2080.6 2021 2021 1775.9 1961.5 2021 2021 1961.5 2266.2 2021 2021 2080.6 1775.9 2021 2021 3171.5 3034.8 2021 2021 870.6 1007.3 2021 2021 1007.3 3171.5 2021 2021 3034.8 870.6 2021 2021 4041.6 3040 2021 2021 0.5 1002.1 2021 2021 1002.1 4041.6 2021 2021 3040 0.5 2021 2021 3643.1 2148.7 2021 2021 399 1893.4 2021 2021 1893.4 3643.1 2021 2021 2148.7 399 2021 2021 2084.6 1996.2 2021 2021 1957.4 2045.8 2021 2021 2045.8 2084.6 2021 2021 1996.2 1957.4"/><circle class="d" cx="2021" cy="2021" r="922.4"/><circle class="e" cx="2021" cy="2021" r="461.2"/><circle class="f" cx="2021" cy="2021" r="384.3"/><polyline class="g" points="2021 2021 3912.4 1494.3 2021 2021 129.6 2547.8 2021 2021 2547.8 3912.4 2021 2021 1494.3 129.6 2021 2021 2654.1 2034.9 2021 2021 1388 2007.2 2021 2021 2007.2 2654.1 2021 2021 2034.9 1388 2021 2021 3165 1977.5 2021 2021 877.1 2064.6 2021 2021 2064.6 3165 2021 2021 1977.5 877.1 2021 2021 2878.4 2487.2 2021 2021 1163.7 1554.8 2021 2021 1554.8 2878.4 2021 2021 2487.2 1163.7 2021 2021 2489.6 2744.4 2021 2021 1552.5 1297.7 2021 2021 1297.7 2489.6 2021 2021 2744.4 1552.5 2021 2021 2588.5 2679.6 2021 2021 1453.6 1362.5 2021 2021 1362.5 2588.5 2021 2021 2679.6 1453.6 2021 2021 4020.2 1512.1 2021 2021 21.9 2530 2021 2021 2530 4020.2 2021 2021 1512.1 21.9 2021 2021 2776.1 2542.5 2021 2021 1266 1499.6 2021 2021 1499.6 2776.1 2021 2021 2542.5 1266 2021 2021 2701.1 2482.2 2021 2021 1341 1559.8 2021 2021 1559.8 2701.1 2021 2021 2482.2 1341 2021 2021 3439.5 2834.7 2021 2021 602.6 1207.4 2021 2021 1207.4 3439.5 2021 2021 2834.7 602.6 2021 2021 2266.2 2080.6 2021 2021 1775.9 1961.5 2021 2021 1961.5 2266.2 2021 2021 2080.6 1775.9 2021 2021 3171.5 3034.8 2021 2021 870.6 1007.3 2021 2021 1007.3 3171.5 2021 2021 3034.8 870.6 2021 2021 4041.6 3040 2021 2021 0.5 1002.1 2021 2021 1002.1 4041.6 2021 2021 3040 0.5 2021 2021 3643.1 2148.7 2021 2021 399 1893.4 2021 2021 1893.4 3643.1 2021 2021 2148.7 399 2021 2021 2084.6 1996.2 2021 2021 1957.4 2045.8 2021 2021 2045.8 2084.6 2021 2021 1996.2 1957.4"/></g></svg>