<svg xmlns="http://www.w3.org/2000/svg" width="1667.5" height="1036.4" viewBox="0 0 1667.5 1036.4"><defs><style>.a{opacity:0.08;}.b{fill:#fff;}</style></defs><title>hero-fg</title><g class="a"><circle class="b" cx="379.2" cy="402.6" r="149.4"/></g><g class="a"><circle class="b" cx="747.4" cy="586.4" r="98.1"/></g><g class="a"><circle class="b" cx="763.6" cy="346.8" r="41.6"/></g><g class="a"><circle class="b" cx="660.4" cy="152.6" r="24"/></g><g class="a"><circle class="b" cx="51.3" cy="116.2" r="40.9"/></g><g class="a"><circle class="b" cx="50.3" cy="336" r="6.2"/></g><g class="a"><circle class="b" cx="28.2" cy="452.9" r="28.2"/></g><g class="a"><circle class="b" cx="124" cy="661.7" r="31.8"/></g><g class="a"><circle class="b" cx="158.4" cy="916.9" r="55.8"/></g><g class="a"><circle class="b" cx="407.8" cy="793.5" r="61"/></g><g class="a"><circle class="b" cx="1022.7" cy="434.4" r="16.2"/></g><g class="a"><circle class="b" cx="1016.2" cy="220.1" r="56.5"/></g><g class="a"><circle class="b" cx="1389.6" cy="348.1" r="64.9"/></g><g class="a"><circle class="b" cx="1372.7" cy="629.9" r="48.1"/></g><g class="a"><circle class="b" cx="1122.7" cy="843.5" r="17.5"/></g><g class="a"><circle class="b" cx="773" cy="851.5" r="25.6"/></g><g class="a"><circle class="b" cx="1498.1" cy="965.6" r="70.8"/></g><g class="a"><circle class="b" cx="1592.2" cy="677.9" r="28.6"/></g><g class="a"><circle class="b" cx="1644.2" cy="300" r="23.4"/></g><g class="a"><circle class="b" cx="1485.1" cy="20.1" r="20.1"/></g></svg>