<svg xmlns="http://www.w3.org/2000/svg" width="256" height="256" viewBox="0 0 256 256"><defs><style>.a{fill:#264de4;}.b{fill:#010101;}.c{fill:#2965f1;}.d{fill:#ebebeb;}.e{fill:#eaebeb;}.f{fill:#2a66f1;}.g{fill:#2a65f1;}.h{fill:#fff;}</style></defs><title>css3</title><path class="a" d="M44.6,57.4v-.8H211.2v.8c-.3,2.7-.5,5.5-.8,8.3s-.5,5.6-.7,8.4-.6,6.8-1,10.2-.4,5.6-.7,8.5l-.9,10.2c-.3,2.8-.5,5.6-.8,8.4l-.9,10.2c-.2,2.8-.5,5.6-.7,8.5s-.8,8-1.1,12l-.9,10.3c-.4,4.6-.9,9.3-1.3,13.9s-.7,8.6-1.1,12.9-.9,10-1.4,15-.8,8.7-1.1,13.1-1,10.6-1.4,15.9c-.1,1.1-.2,2.2-.4,3.3l-.9.3-17.9,4.9-48.4,13.4-.7.3h-.3l-.9-.3L62.5,227.3l-2.6-.7c-.1-.7-.1-1.4-.2-2-.2-2.9-.5-5.8-.8-8.7s-.3-4.2-.5-6.3-.5-5.7-.8-8.5-.3-4.2-.5-6.4-.6-5.6-.8-8.5-.5-5.5-.7-8.3-.6-5.7-.8-8.5-.5-5.6-.7-8.3-.6-5.9-.8-8.8-.5-5.4-.7-8-.6-5.8-.8-8.7-.5-5.5-.7-8.2-.6-5.8-.8-8.7l-.6-6.3c-.2-2.8-.5-5.6-.7-8.4s-.5-5.6-.8-8.3l-.9-10.3c-.3-2.8-.5-5.6-.7-8.4s-.7-6.8-1-10.2-.4-5.6-.7-8.3A4.5,4.5,0,0,0,44.6,57.4Zm83.3,76.2H79.5l1.8,20.8h46.6v33.2h-.6l-17.7-4.8-4.9-1.3-1.5-16.6H82.3v.7c.3,2.8.5,5.6.8,8.3s.5,5.6.7,8.4.7,7.2,1,10.8l.3,4c.1.4.2.6.6.6l.5.2,15.4,4.2,26.3,7.4v20.8c0,.2.1.4.1.7l1.8-.5,7.8-2.1,7.8-2.2,8.2-2.3,8.7-2.4,7.3-2,7.8-2.1,5-1.4a.8.8,0,0,0,.7-.8,13.6,13.6,0,0,1,.2-2l.3-2.7c0-.9.1-1.9.1-2.8s.1-1.3.2-1.9l.3-2.5c.1-.9.1-1.9.2-2.8s.1-1.4.2-2.2l.3-2.5c.1-.9.1-1.9.2-2.8a18,18,0,0,1,.2-2.2,21.3,21.3,0,0,1,.3-2.5c0-.9.1-1.8.1-2.8s.1-1.3.2-2l.3-2.8c.1-.9.1-1.8.2-2.7s.1-1.4.2-2.1l.3-2.7c.1-.9.1-1.9.2-2.8a13.6,13.6,0,0,1,.2-2l.3-2.7c0-.9.1-1.9.1-2.8s.4-3,.5-4.4.3-3.2.4-4.8a14.9,14.9,0,0,1,.2-2.1l.3-2.5c0-.9.1-1.9.1-2.8a16.4,16.4,0,0,0,.2-2.2l.3-2.5c.1-.9.1-1.9.2-2.8s.1-1.3.2-2l.3-3.1c.1-.8.1-1.7.2-2.5a11.1,11.1,0,0,1,.2-1.9l.3-3c0-.9.1-1.7.1-2.6a13.7,13.7,0,0,0,.2-1.9l.3-2.7c.1-1,.1-1.9.2-2.8s.4-3,.5-4.5l.3-4.8c.1-.6.1-1.3.2-2s.4-3,.5-4.5.1-1.8.2-2.8a13.6,13.6,0,0,1,.2-2,23,23,0,0,1,.3-2.6c0-.9.1-1.8.1-2.7s.1-1.5.2-2.2l.3-2.6c.1-.9.1-1.8.2-2.7s.1-1.5.2-2.3l.3-2.6c.1-.9.1-1.8.2-2.8s.3-3,.4-4.5-67.3-.1-68.1.1V91.4H75.7l1.9,20.9h50.3Z"/><path class="b" d="M139.4,10.5v8.9c0,.1,0,.1-.1.3H124.8v1.8h14.6V42.6H114.3V33h14.6V31.2H114.2V11a.7.7,0,0,1,.1-.5Z"/><path class="b" d="M169.7,10.5v9.2H155.1v1.8h14.6v21c-.6.2-22.9.2-25.1.1V33h14.6V31.2H144.5V11.2c0-.2.1-.5.1-.7Z"/><path class="b" d="M109.1,10.5a4.3,4.3,0,0,1,.1.5v9.4c0,.2-.1.4-.1.7H94.5V31.6h14.6V42.1H84a.9.9,0,0,1-.1-.5V10.5Z"/><path class="c" d="M127.9,91.4V70.8c.8-.2,67.4-.3,68.1-.1s-.3,3-.4,4.5-.1,1.9-.2,2.8l-.3,2.6c-.1.8-.1,1.5-.2,2.3s-.1,1.8-.2,2.7l-.3,2.6c-.1.7-.1,1.5-.2,2.2s-.1,1.8-.1,2.7a23,23,0,0,0-.3,2.6,13.6,13.6,0,0,0-.2,2c-.1,1-.1,1.9-.2,2.8s-.3,3-.5,4.5-.1,1.4-.2,2l-.3,4.8c-.1,1.5-.3,3-.5,4.5s-.1,1.8-.2,2.8l-.3,2.7a13.7,13.7,0,0,1-.2,1.9c0,.9-.1,1.7-.1,2.6l-.3,3a11.1,11.1,0,0,0-.2,1.9c-.1.8-.1,1.7-.2,2.5l-.3,3.1c-.1.7-.1,1.4-.2,2s-.1,1.9-.2,2.8l-.3,2.5a16.4,16.4,0,0,1-.2,2.2c0,.9-.1,1.9-.1,2.8l-.3,2.5a14.9,14.9,0,0,0-.2,2.1c-.1,1.6-.2,3.2-.4,4.8s-.3,2.9-.5,4.4-.1,1.9-.1,2.8l-.3,2.7a13.6,13.6,0,0,0-.2,2c-.1.9-.1,1.9-.2,2.8l-.3,2.7c-.1.7-.1,1.4-.2,2.1s-.1,1.8-.2,2.7l-.3,2.8c-.1.7-.1,1.4-.2,2s-.1,1.9-.1,2.8a21.3,21.3,0,0,0-.3,2.5,18,18,0,0,0-.2,2.2c-.1.9-.1,1.9-.2,2.8l-.3,2.5c-.1.8-.1,1.5-.2,2.2s-.1,1.9-.2,2.8l-.3,2.5c-.1.6-.1,1.3-.2,1.9s-.1,1.9-.1,2.8l-.3,2.7a13.6,13.6,0,0,0-.2,2,.8.8,0,0,1-.7.8l-5,1.4-7.8,2.1-7.3,2-8.7,2.4-8.2,2.3-7.8,2.2-7.8,2.1-1.8.5c0-.3-.1-.5-.1-.7V209.5h.6l15.2-4.2,26.1-7.3c.9-.2.9-.2.9-1.1l.6-6.6c.2-2.8.5-5.6.8-8.4s.4-5.5.7-8.3.5-5.9.8-8.8.5-5.3.7-8,.5-5.9.8-8.8.3-4.2.5-6.2.6-5.7.8-8.6l.6-6.3c.2-2.8.5-5.7.7-8.5l.6-6.4c.2-2.9.5-5.8.8-8.7l.6-6.5c.1-1.7.2-3.3.4-5H127.9Z"/><path class="d" d="M127.9,209.5l-26.3-7.4-15.4-4.2-.5-.2c-.4,0-.5-.2-.6-.6l-.3-4c-.3-3.6-.7-7.2-1-10.8s-.5-5.6-.7-8.4-.5-5.5-.8-8.3v-.7h20.9l1.5,16.6,4.9,1.3,17.7,4.8h.6v21.6Z"/><path class="d" d="M127.9,112.3H77.6L75.7,91.4h52.2v20.7Z"/><path class="e" d="M127.9,154.5H81.3l-1.8-20.8h48.4v20.8Z"/><path class="f" d="M127.9,187.7V154.5h25.7l-2.4,27.1-5.3,1.4-18,4.9Z"/><path class="g" d="M127.9,133.6V112.3h29.4c-.7,7.1-1.3,14.2-1.9,21.3H127.9Z"/><path class="h" d="M127.9,133.6h27.5c.6-7.1,1.2-14.2,1.9-21.3H127.9V91.5h52.2c-.2,1.7-.3,3.3-.4,5l-.6,6.5c-.3,2.9-.6,5.8-.8,8.7l-.6,6.4c-.2,2.8-.5,5.7-.7,8.5l-.6,6.3c-.2,2.9-.5,5.7-.8,8.6s-.3,4.1-.5,6.2-.5,5.8-.8,8.8-.5,5.3-.7,8-.6,5.9-.8,8.8-.5,5.5-.7,8.3-.6,5.6-.8,8.4l-.6,6.6c0,.9,0,.9-.9,1.1l-26.1,7.3-15.2,4.2h-.6V187.8l18-4.9,5.3-1.4,2.4-27.1H127.9Z"/><path class="d" d="M180.1,91.6h0Z"/></svg>