<svg xmlns="http://www.w3.org/2000/svg" width="256" height="256"><defs><style>.c{fill:#050505}</style></defs><path d="M127.1 246c-5-1.5-10.1-3.1-15.2-4.5l-49.7-13.8c-1.6-.4-2-1.1-2.1-2.6-1.4-16.6-2.9-33.2-4.4-49.8-1.3-14.5-2.5-29.1-3.8-43.6-1.5-16.2-3-32.4-4.4-48.6-.8-8.5-1.5-17.1-2.3-25.8h166.4a12.1 12.1 0 0 1 0 1.9c-1.1 13.1-2.3 26.1-3.4 39.1s-2.3 25.9-3.5 38.8l-3.9 43.8c-1.1 12.7-2.3 25.5-3.4 38.2-.2 2-.5 4.1-.5 6.1s-.6 2.1-2 2.5q-26.6 7.2-53 14.7c-4.2 1.1-8.3 2.4-12.5 3.6zm1.4-57.9l-22-5.9a2.4 2.4 0 0 1-1.3-1.9c-.6-5-1-9.9-1.4-14.8h-21c.2 3.1.5 5.9.7 8.8.7 7.4 1.3 14.8 2 22.1a2.9 2.9 0 0 0 1.6 2.1l41.4 11.5v21.4l2-.4 26.6-7.3 25.1-7c.5-.2 1.3-.9 1.3-1.4.6-4.6 1-9.3 1.5-14s.6-8.3 1-12.5c.5-6.3 1.1-12.5 1.7-18.8.4-4 .6-8 1-12l1.8-17.7c.5-5.8.9-11.7 1.4-17.5l1.8-19.9c.3-3.8.6-7.6 1-11.4.5-6 1.2-11.9 1.7-17.9.2-1.5.1-2.5-2-2.5q-32 .2-63.8 0c-1.9 0-2.1.7-2.1 2.3.1 6.1 0 12.2 0 18.4H76.2c1.9 21.2 3.7 42.1 5.6 63.2h46.7z" fill="#e34e27"/><path d="M140.7 42.7h-10.5V11c3.5 0 6.8-.1 10.1.1.7 0 1.4.8 1.8 1.4 2 3 3.9 6.2 5.9 9.5 2-3.3 3.9-6.3 5.7-9.4a2.4 2.4 0 0 1 2.7-1.6h9.2v31.6h-10.3V28.1l-.5-.2-6.9 10.6-7.2-11z" fill="#030303"/><path class="c" d="M71.3 11.2v10.1H81V11.1h10.6v31.5H81.1V32.3h-9.8v10.4H60.8V11.2z"/><path d="M125.4 21.6h-9.2v21h-10.6V21.7h-9.3V11.2h29.1z" fill="#020202"/><path class="c" d="M171 42.6V11.2h10.7V32h14.8v10.6z"/><path d="M128.5 91.8c0-6.2.1-12.3 0-18.4 0-1.6.2-2.3 2.1-2.3q31.8.2 63.8 0c2.1 0 2.2 1 2 2.5-.5 6-1.2 11.9-1.7 17.9-.4 3.8-.7 7.6-1 11.4l-1.8 19.9c-.5 5.8-.9 11.7-1.4 17.5l-1.8 17.7c-.4 4-.6 8-1 12-.6 6.3-1.2 12.5-1.7 18.8-.4 4.2-.7 8.3-1 12.5s-.9 9.4-1.5 14c0 .5-.8 1.2-1.3 1.4l-25.1 7-26.6 7.3-2 .4v-21.6l2-.4c12.6-3.4 25.2-7 37.8-10.3 2.4-.7 3.1-1.8 3.3-4.2l4.5-51.3c.3-3.1.6-6.3.8-9.5h-48.4v-21.4h48.8l1.6-.2c.6-6.9 1.2-13.7 1.8-20.7h-52.2z" fill="#f06529"/><path d="M128.5 155.2H81.8c-1.9-21.1-3.7-42-5.6-63.2h52.3v21H99.1c.7 7.1 1.3 14 1.9 20.9h27.5v21.3z" fill="#eae8e8"/><path d="M128.5 210l-41.4-11.5a2.9 2.9 0 0 1-1.6-2.1c-.7-7.3-1.3-14.7-2-22.1-.2-2.9-.5-5.7-.7-8.8h21c.4 4.9.8 9.8 1.4 14.8a2.4 2.4 0 0 0 1.3 1.9l22 5.9V210z" fill="#eae9e8"/><path d="M128.5 188.1V155h25.4v1.3l-2.1 24.1a2.9 2.9 0 0 1-1.7 1.9l-21.6 5.9z" fill="#f0652a"/><path d="M128.5 188.2l21.6-5.9a2.9 2.9 0 0 0 1.7-1.9l2.1-24.1V155h-25.4v-20.9h48.4c-.2 3.2-.5 6.4-.8 9.5l-4.5 51.3c-.2 2.4-.9 3.5-3.3 4.2-12.6 3.3-25.2 6.9-37.8 10.3l-2 .4z" fill="#fefdfd"/><path d="M128.5 112.7V92h52.2c-.6 7-1.2 13.8-1.8 20.7l-1.6.2h-48.8z" fill="#fefefe"/><path d="M128.5 133.9H101c-.6-6.9-1.2-13.8-1.9-20.9h29.4z" fill="#e34d26"/></svg>