<svg xmlns="http://www.w3.org/2000/svg" width="256" height="256" viewBox="0 0 256 256"><defs><style>.a{fill:#e34e27;}.b{fill:#030303;}.c{fill:#050505;}.d{fill:#020202;}.e{fill:#f06529;}.f{fill:#eae8e8;}.g{fill:#eae9e8;}.h{fill:#f0652a;}.i{fill:#fefdfd;}.j{fill:#fefefe;}.k{fill:#e34d26;}</style></defs><title>html5</title><path class="a" d="M127.1,246c-5-1.5-10.1-3.1-15.2-4.5L62.2,227.7c-1.6-.4-2-1.1-2.1-2.6-1.4-16.6-2.9-33.2-4.4-49.8-1.3-14.5-2.5-29.1-3.8-43.6-1.5-16.2-3-32.4-4.4-48.6C46.7,74.6,46,66,45.2,57.3H211.6a12.1,12.1,0,0,1,0,1.9c-1.1,13.1-2.3,26.1-3.4,39.1s-2.3,25.9-3.5,38.8l-3.9,43.8c-1.1,12.7-2.3,25.5-3.4,38.2-.2,2-.5,4.1-.5,6.1s-.6,2.1-2,2.5q-26.6,7.2-53,14.7c-4.2,1.1-8.3,2.4-12.5,3.6Zm1.4-57.9-22-5.9a2.4,2.4,0,0,1-1.3-1.9c-.6-5-1-9.9-1.4-14.8h-21c.2,3.1.5,5.9.7,8.8.7,7.4,1.3,14.8,2,22.1a2.9,2.9,0,0,0,1.6,2.1L128.5,210v21.4l2-.4,26.6-7.3,25.1-7c.5-.2,1.3-.9,1.3-1.4.6-4.6,1-9.3,1.5-14s.6-8.3,1-12.5c.5-6.3,1.1-12.5,1.7-18.8.4-4,.6-8,1-12l1.8-17.7c.5-5.8.9-11.7,1.4-17.5l1.8-19.9c.3-3.8.6-7.6,1-11.4.5-6,1.2-11.9,1.7-17.9.2-1.5.1-2.5-2-2.5q-32,.2-63.8,0c-1.9,0-2.1.7-2.1,2.3.1,6.1,0,12.2,0,18.4H76.2c1.9,21.2,3.7,42.1,5.6,63.2h46.7Z"/><path class="b" d="M140.7,42.7H130.2V11c3.5,0,6.8-.1,10.1.1.7,0,1.4.8,1.8,1.4,2,3,3.9,6.2,5.9,9.5,2-3.3,3.9-6.3,5.7-9.4a2.4,2.4,0,0,1,2.7-1.6h9.2V42.6H155.3V28.1l-.5-.2-6.9,10.6-7.2-11Z"/><path class="c" d="M71.3,11.2V21.3H81V11.1H91.6V42.6H81.1V32.3H71.3V42.7H60.8V11.2Z"/><path class="d" d="M125.4,21.6h-9.2v21H105.6V21.7H96.3V11.2h29.1Z"/><path class="c" d="M171,42.6V11.2h10.7V32h14.8V42.6Z"/><path class="e" d="M128.5,91.8c0-6.2.1-12.3,0-18.4,0-1.6.2-2.3,2.1-2.3q31.8.2,63.8,0c2.1,0,2.2,1,2,2.5-.5,6-1.2,11.9-1.7,17.9-.4,3.8-.7,7.6-1,11.4l-1.8,19.9c-.5,5.8-.9,11.7-1.4,17.5L188.7,158c-.4,4-.6,8-1,12-.6,6.3-1.2,12.5-1.7,18.8-.4,4.2-.7,8.3-1,12.5s-.9,9.4-1.5,14c0,.5-.8,1.2-1.3,1.4l-25.1,7L130.5,231l-2,.4V209.8l2-.4c12.6-3.4,25.2-7,37.8-10.3,2.4-.7,3.1-1.8,3.3-4.2l4.5-51.3c.3-3.1.6-6.3.8-9.5H128.5V112.7h48.8l1.6-.2c.6-6.9,1.2-13.7,1.8-20.7H128.5Z"/><path class="f" d="M128.5,155.2H81.8c-1.9-21.1-3.7-42-5.6-63.2h52.3V113H99.1c.7,7.1,1.3,14,1.9,20.9h27.5v21.3Z"/><path class="g" d="M128.5,210,87.1,198.5a2.9,2.9,0,0,1-1.6-2.1c-.7-7.3-1.3-14.7-2-22.1-.2-2.9-.5-5.7-.7-8.8h21c.4,4.9.8,9.8,1.4,14.8a2.4,2.4,0,0,0,1.3,1.9l22,5.9h0V210Z"/><path class="h" d="M128.5,188.1V155h25.4v1.3l-2.1,24.1a2.9,2.9,0,0,1-1.7,1.9l-21.6,5.9Z"/><path class="i" d="M128.5,188.2l21.6-5.9a2.9,2.9,0,0,0,1.7-1.9l2.1-24.1V155H128.5V134.1h48.4c-.2,3.2-.5,6.4-.8,9.5l-4.5,51.3c-.2,2.4-.9,3.5-3.3,4.2-12.6,3.3-25.2,6.9-37.8,10.3l-2,.4Z"/><path class="j" d="M128.5,112.7V92h52.2c-.6,7-1.2,13.8-1.8,20.7l-1.6.2H128.5Z"/><path class="k" d="M128.5,133.9H101c-.6-6.9-1.2-13.8-1.9-20.9h29.4Z"/></svg>