<svg width="696" height="588" xmlns="http://www.w3.org/2000/svg" xmlns:xlink="http://www.w3.org/1999/xlink"><svg width="258" height="258" viewBox="-1 -1 258 258" id="css3" y="250.4" xmlns="http://www.w3.org/2000/svg"><path d="M44.6 57.4v-.8h166.6v.8c-.3 2.7-.5 5.5-.8 8.3s-.5 5.6-.7 8.4-.6 6.8-1 10.2-.4 5.6-.7 8.5l-.9 10.2c-.3 2.8-.5 5.6-.8 8.4l-.9 10.2c-.2 2.8-.5 5.6-.7 8.5s-.8 8-1.1 12l-.9 10.3c-.4 4.6-.9 9.3-1.3 13.9s-.7 8.6-1.1 12.9-.9 10-1.4 15-.8 8.7-1.1 13.1-1 10.6-1.4 15.9c-.1 1.1-.2 2.2-.4 3.3l-.9.3-17.9 4.9-48.4 13.4-.7.3h-.3l-.9-.3-64.4-17.8-2.6-.7c-.1-.7-.1-1.4-.2-2-.2-2.9-.5-5.8-.8-8.7s-.3-4.2-.5-6.3-.5-5.7-.8-8.5-.3-4.2-.5-6.4-.6-5.6-.8-8.5-.5-5.5-.7-8.3-.6-5.7-.8-8.5-.5-5.6-.7-8.3-.6-5.9-.8-8.8-.5-5.4-.7-8-.6-5.8-.8-8.7-.5-5.5-.7-8.2-.6-5.8-.8-8.7l-.6-6.3c-.2-2.8-.5-5.6-.7-8.4s-.5-5.6-.8-8.3l-.9-10.3c-.3-2.8-.5-5.6-.7-8.4s-.7-6.8-1-10.2-.4-5.6-.7-8.3a4.5 4.5 0 0 0-.3-1.1zm83.3 76.2H79.5l1.8 20.8h46.6v33.2h-.6l-17.7-4.8-4.9-1.3-1.5-16.6H82.3v.7c.3 2.8.5 5.6.8 8.3s.5 5.6.7 8.4.7 7.2 1 10.8l.3 4c.1.4.2.6.6.6l.5.2 15.4 4.2 26.3 7.4v20.8c0 .2.1.4.1.7l1.8-.5 7.8-2.1 7.8-2.2 8.2-2.3 8.7-2.4 7.3-2 7.8-2.1 5-1.4a.8.8 0 0 0 .7-.8 13.6 13.6 0 0 1 .2-2l.3-2.7c0-.9.1-1.9.1-2.8s.1-1.3.2-1.9l.3-2.5c.1-.9.1-1.9.2-2.8s.1-1.4.2-2.2l.3-2.5c.1-.9.1-1.9.2-2.8a18 18 0 0 1 .2-2.2 21.3 21.3 0 0 1 .3-2.5c0-.9.1-1.8.1-2.8s.1-1.3.2-2l.3-2.8c.1-.9.1-1.8.2-2.7s.1-1.4.2-2.1l.3-2.7c.1-.9.1-1.9.2-2.8a13.6 13.6 0 0 1 .2-2l.3-2.7c0-.9.1-1.9.1-2.8s.4-3 .5-4.4.3-3.2.4-4.8a14.9 14.9 0 0 1 .2-2.1l.3-2.5c0-.9.1-1.9.1-2.8a16.4 16.4 0 0 0 .2-2.2l.3-2.5c.1-.9.1-1.9.2-2.8s.1-1.3.2-2l.3-3.1c.1-.8.1-1.7.2-2.5a11.1 11.1 0 0 1 .2-1.9l.3-3c0-.9.1-1.7.1-2.6a13.7 13.7 0 0 0 .2-1.9l.3-2.7c.1-1 .1-1.9.2-2.8s.4-3 .5-4.5l.3-4.8c.1-.6.1-1.3.2-2s.4-3 .5-4.5.1-1.8.2-2.8a13.6 13.6 0 0 1 .2-2 23 23 0 0 1 .3-2.6c0-.9.1-1.8.1-2.7s.1-1.5.2-2.2l.3-2.6c.1-.9.1-1.8.2-2.7s.1-1.5.2-2.3l.3-2.6c.1-.9.1-1.8.2-2.8s.3-3 .4-4.5-67.3-.1-68.1.1v20.6H75.7l1.9 20.9h50.3z" fill="#264de4"/><path d="M139.4 10.5v8.9c0 .1 0 .1-.1.3h-14.5v1.8h14.6v21.1h-25.1V33h14.6v-1.8h-14.7V11a.7.7 0 0 1 .1-.5zm30.3 0v9.2h-14.6v1.8h14.6v21c-.6.2-22.9.2-25.1.1V33h14.6v-1.8h-14.7v-20c0-.2.1-.5.1-.7zm-60.6 0a4.3 4.3 0 0 1 .1.5v9.4c0 .2-.1.4-.1.7H94.5v10.5h14.6v10.5H84a.9.9 0 0 1-.1-.5V10.5z" fill="#010101"/><path d="M127.9 91.4V70.8c.8-.2 67.4-.3 68.1-.1s-.3 3-.4 4.5-.1 1.9-.2 2.8l-.3 2.6c-.1.8-.1 1.5-.2 2.3s-.1 1.8-.2 2.7l-.3 2.6c-.1.7-.1 1.5-.2 2.2s-.1 1.8-.1 2.7a23 23 0 0 0-.3 2.6 13.6 13.6 0 0 0-.2 2c-.1 1-.1 1.9-.2 2.8s-.3 3-.5 4.5-.1 1.4-.2 2l-.3 4.8c-.1 1.5-.3 3-.5 4.5s-.1 1.8-.2 2.8l-.3 2.7a13.7 13.7 0 0 1-.2 1.9c0 .9-.1 1.7-.1 2.6l-.3 3a11.1 11.1 0 0 0-.2 1.9c-.1.8-.1 1.7-.2 2.5l-.3 3.1c-.1.7-.1 1.4-.2 2s-.1 1.9-.2 2.8l-.3 2.5a16.4 16.4 0 0 1-.2 2.2c0 .9-.1 1.9-.1 2.8l-.3 2.5a14.9 14.9 0 0 0-.2 2.1c-.1 1.6-.2 3.2-.4 4.8s-.3 2.9-.5 4.4-.1 1.9-.1 2.8l-.3 2.7a13.6 13.6 0 0 0-.2 2c-.1.9-.1 1.9-.2 2.8l-.3 2.7c-.1.7-.1 1.4-.2 2.1s-.1 1.8-.2 2.7l-.3 2.8c-.1.7-.1 1.4-.2 2s-.1 1.9-.1 2.8a21.3 21.3 0 0 0-.3 2.5 18 18 0 0 0-.2 2.2c-.1.9-.1 1.9-.2 2.8l-.3 2.5c-.1.8-.1 1.5-.2 2.2s-.1 1.9-.2 2.8l-.3 2.5c-.1.6-.1 1.3-.2 1.9s-.1 1.9-.1 2.8l-.3 2.7a13.6 13.6 0 0 0-.2 2 .8.8 0 0 1-.7.8l-5 1.4-7.8 2.1-7.3 2-8.7 2.4-8.2 2.3-7.8 2.2-7.8 2.1-1.8.5c0-.3-.1-.5-.1-.7v-20.8h.6l15.2-4.2 26.1-7.3c.9-.2.9-.2.9-1.1l.6-6.6c.2-2.8.5-5.6.8-8.4s.4-5.5.7-8.3.5-5.9.8-8.8.5-5.3.7-8 .5-5.9.8-8.8.3-4.2.5-6.2.6-5.7.8-8.6l.6-6.3c.2-2.8.5-5.7.7-8.5l.6-6.4c.2-2.9.5-5.8.8-8.7l.6-6.5c.1-1.7.2-3.3.4-5h-52.2z" fill="#2965f1"/><path d="M127.9 209.5l-26.3-7.4-15.4-4.2-.5-.2c-.4 0-.5-.2-.6-.6l-.3-4c-.3-3.6-.7-7.2-1-10.8s-.5-5.6-.7-8.4-.5-5.5-.8-8.3v-.7h20.9l1.5 16.6 4.9 1.3 17.7 4.8h.6v21.6zm0-97.2H77.6l-1.9-20.9h52.2v20.7z" fill="#ebebeb"/><path d="M127.9 154.5H81.3l-1.8-20.8h48.4v20.8z" fill="#eaebeb"/><path d="M127.9 187.7v-33.2h25.7l-2.4 27.1-5.3 1.4-18 4.9z" fill="#2a66f1"/><path d="M127.9 133.6v-21.3h29.4c-.7 7.1-1.3 14.2-1.9 21.3h-27.5z" fill="#2a65f1"/><path d="M127.9 133.6h27.5c.6-7.1 1.2-14.2 1.9-21.3h-29.4V91.5h52.2c-.2 1.7-.3 3.3-.4 5l-.6 6.5c-.3 2.9-.6 5.8-.8 8.7l-.6 6.4c-.2 2.8-.5 5.7-.7 8.5l-.6 6.3c-.2 2.9-.5 5.7-.8 8.6s-.3 4.1-.5 6.2-.5 5.8-.8 8.8-.5 5.3-.7 8-.6 5.9-.8 8.8-.5 5.5-.7 8.3-.6 5.6-.8 8.4l-.6 6.6c0 .9 0 .9-.9 1.1l-26.1 7.3-15.2 4.2h-.6v-21.4l18-4.9 5.3-1.4 2.4-27.1h-25.7z" fill="#fff"/></svg><svg width="258" height="258" viewBox="-1 -1 258 258" id="html5" x="258" y="250.4" xmlns="http://www.w3.org/2000/svg"><defs><style>.bc{fill:#050505}</style></defs><path d="M127.1 246c-5-1.5-10.1-3.1-15.2-4.5l-49.7-13.8c-1.6-.4-2-1.1-2.1-2.6-1.4-16.6-2.9-33.2-4.4-49.8-1.3-14.5-2.5-29.1-3.8-43.6-1.5-16.2-3-32.4-4.4-48.6-.8-8.5-1.5-17.1-2.3-25.8h166.4a12.1 12.1 0 0 1 0 1.9c-1.1 13.1-2.3 26.1-3.4 39.1s-2.3 25.9-3.5 38.8l-3.9 43.8c-1.1 12.7-2.3 25.5-3.4 38.2-.2 2-.5 4.1-.5 6.1s-.6 2.1-2 2.5q-26.6 7.2-53 14.7c-4.2 1.1-8.3 2.4-12.5 3.6zm1.4-57.9l-22-5.9a2.4 2.4 0 0 1-1.3-1.9c-.6-5-1-9.9-1.4-14.8h-21c.2 3.1.5 5.9.7 8.8.7 7.4 1.3 14.8 2 22.1a2.9 2.9 0 0 0 1.6 2.1l41.4 11.5v21.4l2-.4 26.6-7.3 25.1-7c.5-.2 1.3-.9 1.3-1.4.6-4.6 1-9.3 1.5-14s.6-8.3 1-12.5c.5-6.3 1.1-12.5 1.7-18.8.4-4 .6-8 1-12l1.8-17.7c.5-5.8.9-11.7 1.4-17.5l1.8-19.9c.3-3.8.6-7.6 1-11.4.5-6 1.2-11.9 1.7-17.9.2-1.5.1-2.5-2-2.5q-32 .2-63.8 0c-1.9 0-2.1.7-2.1 2.3.1 6.1 0 12.2 0 18.4H76.2c1.9 21.2 3.7 42.1 5.6 63.2h46.7z" fill="#e34e27"/><path d="M140.7 42.7h-10.5V11c3.5 0 6.8-.1 10.1.1.7 0 1.4.8 1.8 1.4 2 3 3.9 6.2 5.9 9.5 2-3.3 3.9-6.3 5.7-9.4a2.4 2.4 0 0 1 2.7-1.6h9.2v31.6h-10.3V28.1l-.5-.2-6.9 10.6-7.2-11z" fill="#030303"/><path class="bc" d="M71.3 11.2v10.1H81V11.1h10.6v31.5H81.1V32.3h-9.8v10.4H60.8V11.2z"/><path d="M125.4 21.6h-9.2v21h-10.6V21.7h-9.3V11.2h29.1z" fill="#020202"/><path class="bc" d="M171 42.6V11.2h10.7V32h14.8v10.6z"/><path d="M128.5 91.8c0-6.2.1-12.3 0-18.4 0-1.6.2-2.3 2.1-2.3q31.8.2 63.8 0c2.1 0 2.2 1 2 2.5-.5 6-1.2 11.9-1.7 17.9-.4 3.8-.7 7.6-1 11.4l-1.8 19.9c-.5 5.8-.9 11.7-1.4 17.5l-1.8 17.7c-.4 4-.6 8-1 12-.6 6.3-1.2 12.5-1.7 18.8-.4 4.2-.7 8.3-1 12.5s-.9 9.4-1.5 14c0 .5-.8 1.2-1.3 1.4l-25.1 7-26.6 7.3-2 .4v-21.6l2-.4c12.6-3.4 25.2-7 37.8-10.3 2.4-.7 3.1-1.8 3.3-4.2l4.5-51.3c.3-3.1.6-6.3.8-9.5h-48.4v-21.4h48.8l1.6-.2c.6-6.9 1.2-13.7 1.8-20.7h-52.2z" fill="#f06529"/><path d="M128.5 155.2H81.8c-1.9-21.1-3.7-42-5.6-63.2h52.3v21H99.1c.7 7.1 1.3 14 1.9 20.9h27.5v21.3z" fill="#eae8e8"/><path d="M128.5 210l-41.4-11.5a2.9 2.9 0 0 1-1.6-2.1c-.7-7.3-1.3-14.7-2-22.1-.2-2.9-.5-5.7-.7-8.8h21c.4 4.9.8 9.8 1.4 14.8a2.4 2.4 0 0 0 1.3 1.9l22 5.9V210z" fill="#eae9e8"/><path d="M128.5 188.1V155h25.4v1.3l-2.1 24.1a2.9 2.9 0 0 1-1.7 1.9l-21.6 5.9z" fill="#f0652a"/><path d="M128.5 188.2l21.6-5.9a2.9 2.9 0 0 0 1.7-1.9l2.1-24.1V155h-25.4v-20.9h48.4c-.2 3.2-.5 6.4-.8 9.5l-4.5 51.3c-.2 2.4-.9 3.5-3.3 4.2-12.6 3.3-25.2 6.9-37.8 10.3l-2 .4z" fill="#fefdfd"/><path d="M128.5 112.7V92h52.2c-.6 7-1.2 13.8-1.8 20.7l-1.6.2h-48.8z" fill="#fefefe"/><path d="M128.5 133.9H101c-.6-6.9-1.2-13.8-1.9-20.9h29.4z" fill="#e34d26"/></svg><svg width="199.8" height="79.4" viewBox="-1 -1 199.8 79.4" id="logo" y="508.4" xmlns="http://www.w3.org/2000/svg"><path d="M0 6.3a54.6 54.6 0 0 1 7.3-.5c3.7 0 7 .4 9.2 2.1a7.2 7.2 0 0 1 2.8 6.2 7.9 7.9 0 0 1-5.4 7.4c2.4.7 3.6 2.6 4.2 5.8a45.4 45.4 0 0 0 2.2 8h-7a34.4 34.4 0 0 1-1.7-7.1c-.6-3.6-1.7-4.7-3.9-4.7h-1v11.9H0zm6.7 12.9h1.2a4.4 4.4 0 0 0 4.6-4.6c0-2.5-1.2-4.3-4.2-4.4l-1.6.2zM30.8 5.9v29.5h-6.7V5.9zm6 0h6.7v13.2h.1l1.7-3.8 4.6-9.4h7.4l-7.8 12.8 7.9 16.7H50l-5-12.2-1.5 2.4v9.8h-6.7zm23.5 0H67v13.2h.1c.6-1.2 1.1-2.5 1.7-3.8l4.6-9.4h7.4L73 18.7l7.9 16.7h-7.4l-5-12.2-1.5 2.4v9.8h-6.7z" fill="#2ab7ca"/><path d="M103.5 20.1c0 11.1-4.6 15.6-11.2 15.6s-10.9-7.1-10.9-15.2 3.8-15 11.4-15 10.7 7.9 10.7 14.6zm-15.1.5c0 6.7 1.5 10.1 4.2 10.1s3.9-4.3 3.9-10.3-.9-9.9-3.9-9.9-4.2 3.8-4.2 10.1zm38.5 14a27.1 27.1 0 0 1-7.2 1c-3.9 0-6.9-.9-9.2-2.9s-4.5-6.8-4.4-11.9c.1-10.7 7.3-15.2 14.6-15.2a17.2 17.2 0 0 1 5.7.9l-1.2 4.9a10.9 10.9 0 0 0-4-.6c-4.5 0-8.2 2.7-8.2 10.4s3.3 9.6 6.4 9.6h1.3v-7.3h-3.1v-4.7h9.3zm5-28.3a42.1 42.1 0 0 1 6.8-.5c4.4 0 7.4.8 9.6 2.6s4.5 6.2 4.5 11.9-1.8 10.2-4.8 12.5-5.7 2.8-10.5 2.8c-2.1 0-4.2-.2-5.6-.3zm6.7 24.5h1.2c3.3 0 6.1-2.7 6.1-10.8 0-6.1-1.9-9.7-5.9-9.7h-1.4zm33.1-8.4h-7.9v8h8.9v5h-15.6V5.9h15v5h-8.3v6.8h7.9zm5.6 13V5.9h6.1l5.3 11.5c1.1 2.3 2.8 6.1 3.7 8.7h.1c-.2-3.1-.6-8.3-.6-13.7V5.9h5.9v29.5h-6.2l-5.3-11.2a86.6 86.6 0 0 1-3.5-8.9h-.1c.2 3 .5 7.5.5 13.4v6.7zM0 60.8a14 14 0 0 1 .8-4.7 9.3 9.3 0 0 1 2.1-3.5A8.4 8.4 0 0 1 6 50.4a8.9 8.9 0 0 1 3.6-.7 7 7 0 0 1 3.7.8 12 12 0 0 1 2.6 1.8l-1.2 1.3-2.2-1.6a6.7 6.7 0 0 0-2.8-.6 6 6 0 0 0-3 .7A6.7 6.7 0 0 0 4.2 54a10.6 10.6 0 0 0-1.6 3 12.3 12.3 0 0 0 0 7.6 10.5 10.5 0 0 0 1.5 3 8.8 8.8 0 0 0 2.4 1.9 8.3 8.3 0 0 0 3.2.6 6.7 6.7 0 0 0 3.1-.7 8.5 8.5 0 0 0 2.5-1.7l1 1.3a12.5 12.5 0 0 1-3 2.1 9.1 9.1 0 0 1-3.7.8 9.2 9.2 0 0 1-3.8-.8 8.1 8.1 0 0 1-3-2.1 10.2 10.2 0 0 1-2.1-3.5 13.7 13.7 0 0 1-.7-4.7zm30.3-10.6H32l.2 3.9h.1a10.4 10.4 0 0 1 2.6-3.2 5.2 5.2 0 0 1 3.4-1.2h1.1a1.9 1.9 0 0 1 1 .3l-.4 1.9-.9-.3H38a4.8 4.8 0 0 0-2.9 1.2 9.3 9.3 0 0 0-2.8 4.2v14.3h-2zm20.6 10.6a14 14 0 0 1 .8-4.7 13.3 13.3 0 0 1 2-3.5 12.9 12.9 0 0 1 3-2.2 8 8 0 0 1 3.4-.7 7.2 7.2 0 0 1 5.9 2.5c1.5 1.7 2.2 4.1 2.2 7.2v.8a1.9 1.9 0 0 1-.1.8H52.9a10.6 10.6 0 0 0 .6 3.7 9 9 0 0 0 1.6 2.9 6.7 6.7 0 0 0 2.5 1.9 7 7 0 0 0 3.3.7 10.6 10.6 0 0 0 3.1-.5 12.3 12.3 0 0 0 2.5-1.4l.8 1.5-2.8 1.4a10.3 10.3 0 0 1-3.8.7 9.6 9.6 0 0 1-3.8-.8 7.7 7.7 0 0 1-3.1-2.2 9.8 9.8 0 0 1-2.1-3.4 14 14 0 0 1-.8-4.7zm15.5-1.3a9.6 9.6 0 0 0-1.7-6.1 5.5 5.5 0 0 0-4.6-2.1 5.4 5.4 0 0 0-2.5.6 7.3 7.3 0 0 0-2.3 1.6 11.3 11.3 0 0 0-1.6 2.6 12.1 12.1 0 0 0-.8 3.4zm14.5 6.6a5.9 5.9 0 0 1 3.3-5.4c2.2-1.2 5.6-2.1 10.3-2.6a9.7 9.7 0 0 0-.1-2.4 5.8 5.8 0 0 0-.8-2.2 3.6 3.6 0 0 0-1.5-1.5 4.9 4.9 0 0 0-2.5-.6 10.2 10.2 0 0 0-4 .8 17.2 17.2 0 0 0-2.8 1.7l-.9-1.5 1.4-.9 1.8-.9 2.2-.6a10.1 10.1 0 0 1 2.5-.3 7.9 7.9 0 0 1 3.2.6 4.9 4.9 0 0 1 2 1.8 5.2 5.2 0 0 1 1.1 2.5 11.2 11.2 0 0 1 .4 3.2v13.5h-1.7l-.2-2.7h-.1a17.7 17.7 0 0 1-3.5 2.3 8.7 8.7 0 0 1-3.9 1 8.6 8.6 0 0 1-2.4-.4 6.3 6.3 0 0 1-2-1 4.6 4.6 0 0 1-1.3-1.8 5.5 5.5 0 0 1-.5-2.6zm2-.1a3.8 3.8 0 0 0 1.3 3.2 5.1 5.1 0 0 0 3.2 1 7.3 7.3 0 0 0 3.5-.9 21.5 21.5 0 0 0 3.6-2.5v-7.2a46.4 46.4 0 0 0-5.4.9 15.9 15.9 0 0 0-3.6 1.4 5.1 5.1 0 0 0-2 1.8 4.4 4.4 0 0 0-.6 2.3zm30.4-14.1H110v-1.5l3.4-.2.2-6.1h1.7v6.1h6.1v1.7h-6.1v13.8a11 11 0 0 0 .2 1.8 5.8 5.8 0 0 0 .5 1.4 3.1 3.1 0 0 0 1.1.9 4.8 4.8 0 0 0 1.8.3h1.3l1.3-.5.6 1.6-1.9.5-1.6.3a5.8 5.8 0 0 1-2.5-.5 4.3 4.3 0 0 1-1.7-1.3 4.4 4.4 0 0 1-.8-2 10.9 10.9 0 0 1-.3-2.6zm23.1-6.8a1.7 1.7 0 0 1-1.2-.5 1.3 1.3 0 0 1-.5-1.2 1.4 1.4 0 0 1 .5-1.3 1.7 1.7 0 0 1 1.2-.5 2.1 2.1 0 0 1 1.3.5 1.7 1.7 0 0 1 .5 1.3 1.7 1.7 0 0 1-.5 1.2 2.1 2.1 0 0 1-1.3.5zm-1 5.1h1.9v21.1h-1.9zm15.4 0h2.1l4.7 13.3 1.1 3c.4 1.1.7 2.1 1.1 3h.1c.4-.9.7-1.9 1.1-3l1.1-3 4.7-13.3h2L161 71.3h-2.3zm29.6 10.6a14 14 0 0 1 .8-4.7 11.3 11.3 0 0 1 2.1-3.5 12.3 12.3 0 0 1 2.9-2.2 8.4 8.4 0 0 1 3.5-.7 7.2 7.2 0 0 1 5.9 2.5 11 11 0 0 1 2.2 7.2v.8c0 .3-.1.6-.1.8h-15.3a19.1 19.1 0 0 0 .6 3.7 9.2 9.2 0 0 0 1.7 2.9 6.3 6.3 0 0 0 2.4 1.9 7.2 7.2 0 0 0 3.3.7 10.1 10.1 0 0 0 3.1-.5 13 13 0 0 0 2.6-1.4l.8 1.5-2.8 1.4a10.5 10.5 0 0 1-3.9.7 10 10 0 0 1-3.8-.8 8.4 8.4 0 0 1-3.1-2.2 9.8 9.8 0 0 1-2.1-3.4 14 14 0 0 1-.8-4.7zm15.5-1.3a9.6 9.6 0 0 0-1.7-6.1 5.4 5.4 0 0 0-4.5-2.1 5.8 5.8 0 0 0-2.6.6 6.9 6.9 0 0 0-2.2 1.6 11.7 11.7 0 0 0-1.7 2.6 12.1 12.1 0 0 0-.8 3.4z" fill="#e6e6ea"/></svg><svg width="695.7" height="250.4" viewBox="-1 -1 695.7 250.4" id="roc-logo" xmlns="http://www.w3.org/2000/svg"><defs><style>.da{fill:#1282a2}</style></defs><path class="da" d="M0 2.8a182.5 182.5 0 0 1 25.6-1.7c13 0 24.6 1.4 32.3 7.3a25.3 25.3 0 0 1 9.8 21.8 27.6 27.6 0 0 1-18.9 25.9c8.4 2.5 12.6 9.1 14.7 20.4a161.4 161.4 0 0 0 7.7 28H46.6a123.7 123.7 0 0 1-5.9-24.9C38.6 67 34.7 63.1 27 63.1h-3.5v41.8H0zm23.5 45.3h4.2a15.5 15.5 0 0 0 16.1-14.7 3.8 3.8 0 0 0 0-1.5c0-8.8-4.2-15.1-14.7-15.4l-5.6.7zM108 1.4v103.5H84.5V1.4zm21.1 0h23.5v46.3h.3l6-13.3 16.1-33h26l-27.4 44.9 27.7 58.6h-25.9l-17.6-42.8-5.2 8.4v34.4h-23.5zm82.4 0H235v46.3h.3c2.1-4.2 3.9-8.8 6-13.3l16.1-33h26L256 46.3l27.7 58.6h-25.9l-17.5-42.8-5.3 8.4v34.4h-23.5z"/><path d="M363 51.2c0 38.9-16.1 54.7-39.3 54.7S285.5 81 285.5 52.6 298.8 0 325.5 0 363 27.7 363 51.2zM310 53c0 23.5 5.3 35.4 14.8 35.4s13.7-15.1 13.7-36.1-3.2-34.8-13.7-34.8S310 30.9 310 53zm135.1 49.1a97.8 97.8 0 0 1-25.3 3.5c-13.7 0-24.2-3.2-32.2-10.2s-15.8-23.9-15.5-41.7C372.5 16.1 397.7.4 423.3.4a58.9 58.9 0 0 1 20 3.1l-4.2 17.2a37 37 0 0 0-14-2.1c-15.8 0-28.8 9.5-28.8 36.5s11.6 33.6 22.5 33.6h4.5V63.1h-10.8V46.6h32.6zm17.5-99.3a147 147 0 0 1 23.9-1.7c15.4 0 25.9 2.8 33.6 9.1s15.8 21.7 15.8 41.7-6.3 35.8-16.8 43.8-20 9.9-36.8 9.9c-7.4 0-14.8-.7-19.7-1.1zm23.5 85.9h4.2c11.6 0 21.4-9.4 21.4-37.8 0-21.4-6.6-34.1-20.7-34.1h-4.9zm116.1-29.4h-27.7v28h31.2v17.6H551V1.4h52.6v17.5h-29.1v23.9h27.7zm19.6 45.6V1.4h21.4l18.6 40.3c3.9 8.1 9.8 21.4 13 30.6h.4c-.7-10.9-2.1-29.2-2.1-48.1V1.4h20.6v103.5H672l-18.6-39.3a297.1 297.1 0 0 1-12.3-31.2h-.3c.7 10.5 1.7 26.3 1.7 47v23.5z" fill="#e6e6ea"/><path class="da" d="M2.2 200.6v-4.7l42.6-29.2v5.5L7.3 198v.5l37.5 25.8v5.5z"/><path d="M61.1 198.4c0-18.6 13.8-29.2 30.5-29.2 9.3 0 15.5 4 20.1 8.4l-3 3.5c-4.8-4.4-10.2-7.4-17-7.4-15 0-25.2 10.1-25.2 24.7s10 24.4 25.1 24.4c7.6 0 13.8-3.3 18.8-7.9l2.7 3.5a31 31 0 0 1-21.7 8.9c-17.4 0-30.3-10.6-30.3-28.9zm74.1-27.8h4.4l.6 13.6h.2c6-8.8 15.1-15 26.3-15a24.9 24.9 0 0 1 11.3 2.3l-1.5 4.6c-4.1-1.5-6.1-2.1-10.5-2.1-9.4 0-17.9 4.7-25.6 17.3V226h-5.2zm55.2 27.7c0-18.1 13.4-29.1 28-29.1s25 9.7 25 25.6a21.2 21.2 0 0 1-.3 4.3H193v-4.4h47.9l-2.2 2.1c0-15.7-8.2-23.2-20.2-23.2s-22.8 9-22.8 24.5 11.2 24.8 24.5 24.8a32.2 32.2 0 0 0 18.8-6l2.1 3.9a36.5 36.5 0 0 1-21.2 6.5c-16.2 0-29.5-10.8-29.5-29zm66.9 13.9c0-12.4 12.6-18.3 43-20.9-.1-9.2-3.9-17.6-16.7-17.6-8.4 0-16.6 4.3-21.1 7.5l-2.4-3.8c4.4-3.2 14.1-8.2 24.1-8.2 15 0 21.2 9.5 21.2 21.4V226H301l-.5-8.3h-.3c-6.4 5.1-15.1 9.6-23.3 9.6-10 0-19.6-4.8-19.6-15.1zm43 .7v-17.7c-28.5 2.5-37.6 7.8-37.6 16.7s7.5 11 15 11 14.7-3.4 22.6-10zm37.8-7.7V175h-16.9v-4l17-.4.7-18.4h4.4v18.4h29.8v4.4h-29.8v30.6c0 10.8 3.1 17.3 15.6 17.3a40.3 40.3 0 0 0 14.9-2.9l1.4 3.9a44 44 0 0 1-17 3.4c-15.4 0-20.1-8.9-20.1-22.1zm78.4-30.2h-28v-4.4h33.2V226h-5.2zm-4.1-23.4a5.5 5.5 0 1 1 11 0 5.5 5.5 0 1 1-11 0zm37.2 19h5.4l15.4 34.6c2.5 5.6 4.8 11 7 16h.5c2.1-5 4.2-10.4 6.7-16l15.5-34.6h5L480.2 226h-5.4zm67 27.7c0-18.1 13.4-29.1 28.1-29.1s25 9.7 25 25.6a32.2 32.2 0 0 1-.3 4.3h-50.2v-4.4h47.9l-2.2 2.1c0-15.7-8.2-23.2-20.2-23.2s-22.8 9-22.8 24.5 11.3 24.8 24.5 24.8a31.9 31.9 0 0 0 18.8-6l2.1 3.9a36 36 0 0 1-21.2 6.5c-16.2 0-29.5-10.8-29.5-29z" fill="#fff"/><path class="da" d="M622.1 148.1h5.2l-38 100.3h-5.2zm27.2 76.2l37.5-25.8v-.5l-37.5-25.8v-5.5l42.5 29.2v4.7l-42.5 29.2z"/></svg></svg>