<svg width="200" height="80" xmlns="http://www.w3.org/2000/svg" xmlns:xlink="http://www.w3.org/1999/xlink"><svg width="199.8" height="79.4" viewBox="-1 -1 199.8 79.4" xmlns="http://www.w3.org/2000/svg"><path d="M0 6.3a54.6 54.6 0 0 1 7.3-.5c3.7 0 7 .4 9.2 2.1a7.2 7.2 0 0 1 2.8 6.2 7.9 7.9 0 0 1-5.4 7.4c2.4.7 3.6 2.6 4.2 5.8a45.4 45.4 0 0 0 2.2 8h-7a34.4 34.4 0 0 1-1.7-7.1c-.6-3.6-1.7-4.7-3.9-4.7h-1v11.9H0zm6.7 12.9h1.2a4.4 4.4 0 0 0 4.6-4.6c0-2.5-1.2-4.3-4.2-4.4l-1.6.2zM30.8 5.9v29.5h-6.7V5.9zm6 0h6.7v13.2h.1l1.7-3.8 4.6-9.4h7.4l-7.8 12.8 7.9 16.7H50l-5-12.2-1.5 2.4v9.8h-6.7zm23.5 0H67v13.2h.1c.6-1.2 1.1-2.5 1.7-3.8l4.6-9.4h7.4L73 18.7l7.9 16.7h-7.4l-5-12.2-1.5 2.4v9.8h-6.7z" fill="#2ab7ca"/><path d="M103.5 20.1c0 11.1-4.6 15.6-11.2 15.6s-10.9-7.1-10.9-15.2 3.8-15 11.4-15 10.7 7.9 10.7 14.6zm-15.1.5c0 6.7 1.5 10.1 4.2 10.1s3.9-4.3 3.9-10.3-.9-9.9-3.9-9.9-4.2 3.8-4.2 10.1zm38.5 14a27.1 27.1 0 0 1-7.2 1c-3.9 0-6.9-.9-9.2-2.9s-4.5-6.8-4.4-11.9c.1-10.7 7.3-15.2 14.6-15.2a17.2 17.2 0 0 1 5.7.9l-1.2 4.9a10.9 10.9 0 0 0-4-.6c-4.5 0-8.2 2.7-8.2 10.4s3.3 9.6 6.4 9.6h1.3v-7.3h-3.1v-4.7h9.3zm5-28.3a42.1 42.1 0 0 1 6.8-.5c4.4 0 7.4.8 9.6 2.6s4.5 6.2 4.5 11.9-1.8 10.2-4.8 12.5-5.7 2.8-10.5 2.8c-2.1 0-4.2-.2-5.6-.3zm6.7 24.5h1.2c3.3 0 6.1-2.7 6.1-10.8 0-6.1-1.9-9.7-5.9-9.7h-1.4zm33.1-8.4h-7.9v8h8.9v5h-15.6V5.9h15v5h-8.3v6.8h7.9zm5.6 13V5.9h6.1l5.3 11.5c1.1 2.3 2.8 6.1 3.7 8.7h.1c-.2-3.1-.6-8.3-.6-13.7V5.9h5.9v29.5h-6.2l-5.3-11.2a86.6 86.6 0 0 1-3.5-8.9h-.1c.2 3 .5 7.5.5 13.4v6.7zM0 60.8a14 14 0 0 1 .8-4.7 9.3 9.3 0 0 1 2.1-3.5A8.4 8.4 0 0 1 6 50.4a8.9 8.9 0 0 1 3.6-.7 7 7 0 0 1 3.7.8 12 12 0 0 1 2.6 1.8l-1.2 1.3-2.2-1.6a6.7 6.7 0 0 0-2.8-.6 6 6 0 0 0-3 .7A6.7 6.7 0 0 0 4.2 54a10.6 10.6 0 0 0-1.6 3 12.3 12.3 0 0 0 0 7.6 10.5 10.5 0 0 0 1.5 3 8.8 8.8 0 0 0 2.4 1.9 8.3 8.3 0 0 0 3.2.6 6.7 6.7 0 0 0 3.1-.7 8.5 8.5 0 0 0 2.5-1.7l1 1.3a12.5 12.5 0 0 1-3 2.1 9.1 9.1 0 0 1-3.7.8 9.2 9.2 0 0 1-3.8-.8 8.1 8.1 0 0 1-3-2.1 10.2 10.2 0 0 1-2.1-3.5 13.7 13.7 0 0 1-.7-4.7zm30.3-10.6H32l.2 3.9h.1a10.4 10.4 0 0 1 2.6-3.2 5.2 5.2 0 0 1 3.4-1.2h1.1a1.9 1.9 0 0 1 1 .3l-.4 1.9-.9-.3H38a4.8 4.8 0 0 0-2.9 1.2 9.3 9.3 0 0 0-2.8 4.2v14.3h-2zm20.6 10.6a14 14 0 0 1 .8-4.7 13.3 13.3 0 0 1 2-3.5 12.9 12.9 0 0 1 3-2.2 8 8 0 0 1 3.4-.7 7.2 7.2 0 0 1 5.9 2.5c1.5 1.7 2.2 4.1 2.2 7.2v.8a1.9 1.9 0 0 1-.1.8H52.9a10.6 10.6 0 0 0 .6 3.7 9 9 0 0 0 1.6 2.9 6.7 6.7 0 0 0 2.5 1.9 7 7 0 0 0 3.3.7 10.6 10.6 0 0 0 3.1-.5 12.3 12.3 0 0 0 2.5-1.4l.8 1.5-2.8 1.4a10.3 10.3 0 0 1-3.8.7 9.6 9.6 0 0 1-3.8-.8 7.7 7.7 0 0 1-3.1-2.2 9.8 9.8 0 0 1-2.1-3.4 14 14 0 0 1-.8-4.7zm15.5-1.3a9.6 9.6 0 0 0-1.7-6.1 5.5 5.5 0 0 0-4.6-2.1 5.4 5.4 0 0 0-2.5.6 7.3 7.3 0 0 0-2.3 1.6 11.3 11.3 0 0 0-1.6 2.6 12.1 12.1 0 0 0-.8 3.4zm14.5 6.6a5.9 5.9 0 0 1 3.3-5.4c2.2-1.2 5.6-2.1 10.3-2.6a9.7 9.7 0 0 0-.1-2.4 5.8 5.8 0 0 0-.8-2.2 3.6 3.6 0 0 0-1.5-1.5 4.9 4.9 0 0 0-2.5-.6 10.2 10.2 0 0 0-4 .8 17.2 17.2 0 0 0-2.8 1.7l-.9-1.5 1.4-.9 1.8-.9 2.2-.6a10.1 10.1 0 0 1 2.5-.3 7.9 7.9 0 0 1 3.2.6 4.9 4.9 0 0 1 2 1.8 5.2 5.2 0 0 1 1.1 2.5 11.2 11.2 0 0 1 .4 3.2v13.5h-1.7l-.2-2.7h-.1a17.7 17.7 0 0 1-3.5 2.3 8.7 8.7 0 0 1-3.9 1 8.6 8.6 0 0 1-2.4-.4 6.3 6.3 0 0 1-2-1 4.6 4.6 0 0 1-1.3-1.8 5.5 5.5 0 0 1-.5-2.6zm2-.1a3.8 3.8 0 0 0 1.3 3.2 5.1 5.1 0 0 0 3.2 1 7.3 7.3 0 0 0 3.5-.9 21.5 21.5 0 0 0 3.6-2.5v-7.2a46.4 46.4 0 0 0-5.4.9 15.9 15.9 0 0 0-3.6 1.4 5.1 5.1 0 0 0-2 1.8 4.4 4.4 0 0 0-.6 2.3zm30.4-14.1H110v-1.5l3.4-.2.2-6.1h1.7v6.1h6.1v1.7h-6.1v13.8a11 11 0 0 0 .2 1.8 5.8 5.8 0 0 0 .5 1.4 3.1 3.1 0 0 0 1.1.9 4.8 4.8 0 0 0 1.8.3h1.3l1.3-.5.6 1.6-1.9.5-1.6.3a5.8 5.8 0 0 1-2.5-.5 4.3 4.3 0 0 1-1.7-1.3 4.4 4.4 0 0 1-.8-2 10.9 10.9 0 0 1-.3-2.6zm23.1-6.8a1.7 1.7 0 0 1-1.2-.5 1.3 1.3 0 0 1-.5-1.2 1.4 1.4 0 0 1 .5-1.3 1.7 1.7 0 0 1 1.2-.5 2.1 2.1 0 0 1 1.3.5 1.7 1.7 0 0 1 .5 1.3 1.7 1.7 0 0 1-.5 1.2 2.1 2.1 0 0 1-1.3.5zm-1 5.1h1.9v21.1h-1.9zm15.4 0h2.1l4.7 13.3 1.1 3c.4 1.1.7 2.1 1.1 3h.1c.4-.9.7-1.9 1.1-3l1.1-3 4.7-13.3h2L161 71.3h-2.3zm29.6 10.6a14 14 0 0 1 .8-4.7 11.3 11.3 0 0 1 2.1-3.5 12.3 12.3 0 0 1 2.9-2.2 8.4 8.4 0 0 1 3.5-.7 7.2 7.2 0 0 1 5.9 2.5 11 11 0 0 1 2.2 7.2v.8c0 .3-.1.6-.1.8h-15.3a19.1 19.1 0 0 0 .6 3.7 9.2 9.2 0 0 0 1.7 2.9 6.3 6.3 0 0 0 2.4 1.9 7.2 7.2 0 0 0 3.3.7 10.1 10.1 0 0 0 3.1-.5 13 13 0 0 0 2.6-1.4l.8 1.5-2.8 1.4a10.5 10.5 0 0 1-3.9.7 10 10 0 0 1-3.8-.8 8.4 8.4 0 0 1-3.1-2.2 9.8 9.8 0 0 1-2.1-3.4 14 14 0 0 1-.8-4.7zm15.5-1.3a9.6 9.6 0 0 0-1.7-6.1 5.4 5.4 0 0 0-4.5-2.1 5.8 5.8 0 0 0-2.6.6 6.9 6.9 0 0 0-2.2 1.6 11.7 11.7 0 0 0-1.7 2.6 12.1 12.1 0 0 0-.8 3.4z" fill="#e6e6ea"/></svg></svg>