<svg width="522" height="473" xmlns="http://www.w3.org/2000/svg" xmlns:xlink="http://www.w3.org/1999/xlink"><svg width="244.9" height="67.4" viewBox="-1 -1 244.9 67.4" id="Artboard_1" y="325.4" xmlns="http://www.w3.org/2000/svg"><defs><style>.aa{fill:#1282a2}</style></defs><path class="aa" d="M19.2.8a53.4 53.4 0 0 1 6.9-.5c3.5 0 6.6.4 8.7 2a6.7 6.7 0 0 1 2.6 5.9 7.4 7.4 0 0 1-5.1 7c2.3.7 3.4 2.5 4 5.5a50.4 50.4 0 0 0 2.1 7.6h-6.6a31.1 31.1 0 0 1-1.6-6.7c-.6-3.4-1.6-4.4-3.7-4.4h-.9v11.3h-6.3V.8zM25.6 13h1.1a4.3 4.3 0 0 0 4.4-4v-.4c0-2.4-1.1-4.1-4-4.2l-1.5.2zM48.4.4v27.9H42V.4zm5.7 0h6.3v12.5h.1l1.6-3.6L66.5.4h7l-7.4 12.1 7.5 15.8h-7l-4.7-11.5-1.5 2.2v9.3h-6.3zm22.2 0h6.3v12.5h.1c.6-1.1 1-2.4 1.6-3.6L88.7.4h7l-7.4 12.1 7.5 15.8h-7L84 16.7 82.6 19v9.3h-6.3z"/><path d="M117.2 13.8c0 10.5-4.4 14.8-10.6 14.8s-10.3-6.7-10.3-14.4S99.8 0 107 0s10.2 7.5 10.2 13.8zm-14.3.5c0 6.3 1.4 9.6 4 9.6s3.7-4.1 3.7-9.7-.9-9.4-3.7-9.4-4 3.5-4 9.5zm36.4 13.2a25.9 25.9 0 0 1-6.8.9c-3.7 0-6.5-.9-8.7-2.7s-4.3-6.4-4.2-11.3C119.7 4.3 126.5 0 133.4 0a16.5 16.5 0 0 1 5.4.9l-1.1 4.6a12.1 12.1 0 0 0-3.8-.6c-4.3 0-7.8 2.6-7.8 9.8s3.1 9.1 6.1 9.1h1.2V17h-2.9v-4.4h8.8zM144 .8a46 46 0 0 1 6.4-.5c4.2 0 7 .8 9.1 2.5s4.3 5.9 4.3 11.3-1.7 9.7-4.5 11.8-5.4 2.6-9.9 2.6c-2 0-4-.2-5.3-.3V.8zm6.4 23.1h1.1c3.1 0 5.8-2.6 5.8-10.2 0-5.8-1.8-9.2-5.6-9.2h-1.3zm31.3-7.9h-7.5v7.6h8.4v4.7h-14.8V.4H182v4.7h-7.9v6.4h7.5V16zm5.3 12.3V.4h5.8l5 10.9c1 2.2 2.6 5.8 3.5 8.2h.1c-.2-2.9-.6-7.9-.6-13V.4h5.6v27.9h-5.9l-5-10.6a66.5 66.5 0 0 1-3.3-8.4h-.1c.2 2.8.5 7.1.5 12.7v6.3zM19.2 53.6c0-4.2 2.2-6.8 4.5-6.8a3.1 3.1 0 0 1 2.6 1.4h.1v-6.4h3.1V60h-2.6l-.2-1.3h-.1a4.1 4.1 0 0 1-2.9 1.6c-2.7 0-4.5-2.5-4.5-6.7zm7 2.4v-5.2a2.4 2.4 0 0 0-1.7-.9c-1.1 0-2.1 1.1-2.1 3.6s.8 3.7 2 3.7a2.1 2.1 0 0 0 1.8-1.2zm9.7-5.9h-4.2v-3H39V60h-3.1zm-.7-7.3a2.1 2.1 0 1 1 4.2 0 2.1 2.1 0 1 1-4.2 0zm7.7 19.4a3.3 3.3 0 0 1 1.6-2.6 2.5 2.5 0 0 1-1.1-2.2 3.1 3.1 0 0 1 1.3-2.4 4.1 4.1 0 0 1-1.4-3.3 4.4 4.4 0 0 1 4.5-4.7 4.7 4.7 0 0 1 1.7.3h4.2v2.8h-2.1a3.8 3.8 0 0 1 .5 1.7 3.9 3.9 0 0 1-4.3 4.3l-1.4-.3c-.3.3-.5.5-.5.9s.6 1 1.8 1h1.9c2.7 0 4.2.9 4.2 3.3s-2.4 4.6-6.2 4.6-4.7-1.1-4.7-3.4zm8-.7c0-.8-.6-1-1.8-1h-1.3a5.7 5.7 0 0 1-1.6-.2 1.6 1.6 0 0 0-.7 1.3c0 1 1 1.5 2.6 1.5s2.8-.7 2.8-1.6zm-1.5-10c0-1.4-.7-2.1-1.6-2.1s-1.6.7-1.6 2.1.7 2.1 1.6 2.1 1.6-.7 1.6-2.1zm10-1.4h-4.2v-3h7.3V60h-3.1zm-.6-7.3a2.1 2.1 0 1 1 4.2 0 2.1 2.1 0 0 1-2.1 2.3 2.1 2.1 0 0 1-2.1-2.3zM69 54.7v-4.5h-2.6v-2.8h2.8l.4-3.9h2.6v3.9h4.4v3h-4.4v4.5c0 2 .7 2.7 2.2 2.7a5 5 0 0 0 2.1-.5l.6 2.8a10.2 10.2 0 0 1-3.4.7c-3.5-.3-4.7-2.6-4.7-5.9zm9.4 1.7c0-2.9 1.9-4.4 6.9-4.7a1.9 1.9 0 0 0-2.2-1.9 6.7 6.7 0 0 0-3.2 1.2l-1.1-2.5a8.5 8.5 0 0 1 4.9-1.7c2.9 0 4.7 1.9 4.7 5.8V60h-2.5l-.2-1.5h-.1a5.9 5.9 0 0 1-3.7 1.8c-2.2 0-3.5-1.7-3.5-3.9zm6.9-.3V54c-3.1.2-3.9 1-3.9 2.1s.6 1.2 1.4 1.2a3.7 3.7 0 0 0 2.5-1.2zm7.9-1.1V44.8h-3.3v-3h6.4v13.3c0 1.6.8 2.1 1.7 2.1a3.4 3.4 0 0 0 1.6-.4l.7 2.8a7.8 7.8 0 0 1-3.1.7c-2.6 0-4-2.1-4-5.3zm20.7-1.4c0-4.3 2.8-6.8 6-6.8a5.3 5.3 0 0 1 3.9 1.7l-1.4 2.4a3.4 3.4 0 0 0-2.3-1c-1.8 0-3 1.4-3 3.7s1.2 3.7 2.9 3.7a4.2 4.2 0 0 0 2.7-1.2l1.2 2.4a6.2 6.2 0 0 1-4.3 1.9c-3.2-.1-5.7-2.6-5.7-6.8zm12.8-6.5h2.5l.2 2.8h.1c1-2.1 2.6-3.1 4.2-3.1a3.9 3.9 0 0 1 2 .5l-.6 3.2a5.8 5.8 0 0 0-1.8-.4c-1.3 0-2.6.8-3.5 3.1V60h-3.1V47.1zm10.5 6.4c0-4.2 2.6-6.7 5.4-6.7s4.9 2.7 4.9 6.2c0 .7-.1 1.4-.1 1.7h-7.9v-2.6h5.8l-.5.7c0-2.1-.7-3.2-2.1-3.2s-2.5 1.3-2.5 3.8 1.2 3.8 3.2 3.8a4.8 4.8 0 0 0 2.7-.9l1 2.3a7.1 7.1 0 0 1-4.1 1.5c-3.3.2-5.8-2.3-5.8-6.6zm11.9 2.9c0-2.9 1.9-4.4 6.9-4.7a1.9 1.9 0 0 0-2.2-1.9 6.7 6.7 0 0 0-3.2 1.2l-1.1-2.5a8.5 8.5 0 0 1 4.9-1.7c2.9 0 4.7 1.9 4.7 5.8V60h-2.5l-.2-1.5h-.1a5.9 5.9 0 0 1-3.7 1.8c-2.2 0-3.5-1.7-3.5-3.9zm6.8-.3V54c-3.1.2-3.9 1-3.9 2.1s.6 1.2 1.4 1.2a3.5 3.5 0 0 0 2.5-1.2zm7.3-1.4v-4.5h-2.6v-2.8h2.8l.4-3.9h2.6v3.9h4.4v3h-4.4v4.5c0 2 .7 2.7 2.2 2.7a5 5 0 0 0 2.1-.5l.6 2.8a10.2 10.2 0 0 1-3.4.7c-3.5-.3-4.7-2.6-4.7-5.9zm14-4.6H173v-3h7.3V60h-3.1zm-.7-7.3a2.1 2.1 0 1 1 4.2 0 2.1 2.1 0 1 1-4.2 0zm7.3 4.3h3.1l1.6 6.1.9 4h.1l.9-4 1.6-6.1h3L191.3 60h-3.5zm12.3 6.4c0-4.2 2.6-6.7 5.4-6.7s4.9 2.7 4.9 6.2c0 .7-.1 1.4-.1 1.7h-7.9v-2.6h5.8l-.5.7c0-2.1-.7-3.2-2.1-3.2s-2.5 1.3-2.5 3.8 1.2 3.8 3.2 3.8a4.8 4.8 0 0 0 2.7-.9l1 2.3a7.1 7.1 0 0 1-4.1 1.5c-3.3.2-5.8-2.3-5.8-6.6z" fill="#e6e6ea"/><path class="aa" d="M0 55.2v-3.7l13.9-9v4.8l-9.6 6 9.6 6v4.8zm222.3-12.7h4.4l-11.9 21.7h-4.4zm6.7 16.9l9.6-6-9.6-6v-4.9l13.9 9v3.7l-13.9 9z"/></svg><svg width="258" height="258" viewBox="-1 -1 258 258" id="css3" y="67.4" xmlns="http://www.w3.org/2000/svg"><path d="M44.6 57.4v-.8h166.6v.8c-.3 2.7-.5 5.5-.8 8.3s-.5 5.6-.7 8.4-.6 6.8-1 10.2-.4 5.6-.7 8.5l-.9 10.2c-.3 2.8-.5 5.6-.8 8.4l-.9 10.2c-.2 2.8-.5 5.6-.7 8.5s-.8 8-1.1 12l-.9 10.3c-.4 4.6-.9 9.3-1.3 13.9s-.7 8.6-1.1 12.9-.9 10-1.4 15-.8 8.7-1.1 13.1-1 10.6-1.4 15.9c-.1 1.1-.2 2.2-.4 3.3l-.9.3-17.9 4.9-48.4 13.4-.7.3h-.3l-.9-.3-64.4-17.8-2.6-.7c-.1-.7-.1-1.4-.2-2-.2-2.9-.5-5.8-.8-8.7s-.3-4.2-.5-6.3-.5-5.7-.8-8.5-.3-4.2-.5-6.4-.6-5.6-.8-8.5-.5-5.5-.7-8.3-.6-5.7-.8-8.5-.5-5.6-.7-8.3-.6-5.9-.8-8.8-.5-5.4-.7-8-.6-5.8-.8-8.7-.5-5.5-.7-8.2-.6-5.8-.8-8.7l-.6-6.3c-.2-2.8-.5-5.6-.7-8.4s-.5-5.6-.8-8.3l-.9-10.3c-.3-2.8-.5-5.6-.7-8.4s-.7-6.8-1-10.2-.4-5.6-.7-8.3a4.5 4.5 0 0 0-.3-1.1zm83.3 76.2H79.5l1.8 20.8h46.6v33.2h-.6l-17.7-4.8-4.9-1.3-1.5-16.6H82.3v.7c.3 2.8.5 5.6.8 8.3s.5 5.6.7 8.4.7 7.2 1 10.8l.3 4c.1.4.2.6.6.6l.5.2 15.4 4.2 26.3 7.4v20.8c0 .2.1.4.1.7l1.8-.5 7.8-2.1 7.8-2.2 8.2-2.3 8.7-2.4 7.3-2 7.8-2.1 5-1.4a.8.8 0 0 0 .7-.8 13.6 13.6 0 0 1 .2-2l.3-2.7c0-.9.1-1.9.1-2.8s.1-1.3.2-1.9l.3-2.5c.1-.9.1-1.9.2-2.8s.1-1.4.2-2.2l.3-2.5c.1-.9.1-1.9.2-2.8a18 18 0 0 1 .2-2.2 21.3 21.3 0 0 1 .3-2.5c0-.9.1-1.8.1-2.8s.1-1.3.2-2l.3-2.8c.1-.9.1-1.8.2-2.7s.1-1.4.2-2.1l.3-2.7c.1-.9.1-1.9.2-2.8a13.6 13.6 0 0 1 .2-2l.3-2.7c0-.9.1-1.9.1-2.8s.4-3 .5-4.4.3-3.2.4-4.8a14.9 14.9 0 0 1 .2-2.1l.3-2.5c0-.9.1-1.9.1-2.8a16.4 16.4 0 0 0 .2-2.2l.3-2.5c.1-.9.1-1.9.2-2.8s.1-1.3.2-2l.3-3.1c.1-.8.1-1.7.2-2.5a11.1 11.1 0 0 1 .2-1.9l.3-3c0-.9.1-1.7.1-2.6a13.7 13.7 0 0 0 .2-1.9l.3-2.7c.1-1 .1-1.9.2-2.8s.4-3 .5-4.5l.3-4.8c.1-.6.1-1.3.2-2s.4-3 .5-4.5.1-1.8.2-2.8a13.6 13.6 0 0 1 .2-2 23 23 0 0 1 .3-2.6c0-.9.1-1.8.1-2.7s.1-1.5.2-2.2l.3-2.6c.1-.9.1-1.8.2-2.7s.1-1.5.2-2.3l.3-2.6c.1-.9.1-1.8.2-2.8s.3-3 .4-4.5-67.3-.1-68.1.1v20.6H75.7l1.9 20.9h50.3z" fill="#264de4"/><path d="M139.4 10.5v8.9c0 .1 0 .1-.1.3h-14.5v1.8h14.6v21.1h-25.1V33h14.6v-1.8h-14.7V11a.7.7 0 0 1 .1-.5zm30.3 0v9.2h-14.6v1.8h14.6v21c-.6.2-22.9.2-25.1.1V33h14.6v-1.8h-14.7v-20c0-.2.1-.5.1-.7zm-60.6 0a4.3 4.3 0 0 1 .1.5v9.4c0 .2-.1.4-.1.7H94.5v10.5h14.6v10.5H84a.9.9 0 0 1-.1-.5V10.5z" fill="#010101"/><path d="M127.9 91.4V70.8c.8-.2 67.4-.3 68.1-.1s-.3 3-.4 4.5-.1 1.9-.2 2.8l-.3 2.6c-.1.8-.1 1.5-.2 2.3s-.1 1.8-.2 2.7l-.3 2.6c-.1.7-.1 1.5-.2 2.2s-.1 1.8-.1 2.7a23 23 0 0 0-.3 2.6 13.6 13.6 0 0 0-.2 2c-.1 1-.1 1.9-.2 2.8s-.3 3-.5 4.5-.1 1.4-.2 2l-.3 4.8c-.1 1.5-.3 3-.5 4.5s-.1 1.8-.2 2.8l-.3 2.7a13.7 13.7 0 0 1-.2 1.9c0 .9-.1 1.7-.1 2.6l-.3 3a11.1 11.1 0 0 0-.2 1.9c-.1.8-.1 1.7-.2 2.5l-.3 3.1c-.1.7-.1 1.4-.2 2s-.1 1.9-.2 2.8l-.3 2.5a16.4 16.4 0 0 1-.2 2.2c0 .9-.1 1.9-.1 2.8l-.3 2.5a14.9 14.9 0 0 0-.2 2.1c-.1 1.6-.2 3.2-.4 4.8s-.3 2.9-.5 4.4-.1 1.9-.1 2.8l-.3 2.7a13.6 13.6 0 0 0-.2 2c-.1.9-.1 1.9-.2 2.8l-.3 2.7c-.1.7-.1 1.4-.2 2.1s-.1 1.8-.2 2.7l-.3 2.8c-.1.7-.1 1.4-.2 2s-.1 1.9-.1 2.8a21.3 21.3 0 0 0-.3 2.5 18 18 0 0 0-.2 2.2c-.1.9-.1 1.9-.2 2.8l-.3 2.5c-.1.8-.1 1.5-.2 2.2s-.1 1.9-.2 2.8l-.3 2.5c-.1.6-.1 1.3-.2 1.9s-.1 1.9-.1 2.8l-.3 2.7a13.6 13.6 0 0 0-.2 2 .8.8 0 0 1-.7.8l-5 1.4-7.8 2.1-7.3 2-8.7 2.4-8.2 2.3-7.8 2.2-7.8 2.1-1.8.5c0-.3-.1-.5-.1-.7v-20.8h.6l15.2-4.2 26.1-7.3c.9-.2.9-.2.9-1.1l.6-6.6c.2-2.8.5-5.6.8-8.4s.4-5.5.7-8.3.5-5.9.8-8.8.5-5.3.7-8 .5-5.9.8-8.8.3-4.2.5-6.2.6-5.7.8-8.6l.6-6.3c.2-2.8.5-5.7.7-8.5l.6-6.4c.2-2.9.5-5.8.8-8.7l.6-6.5c.1-1.7.2-3.3.4-5h-52.2z" fill="#2965f1"/><path d="M127.9 209.5l-26.3-7.4-15.4-4.2-.5-.2c-.4 0-.5-.2-.6-.6l-.3-4c-.3-3.6-.7-7.2-1-10.8s-.5-5.6-.7-8.4-.5-5.5-.8-8.3v-.7h20.9l1.5 16.6 4.9 1.3 17.7 4.8h.6v21.6zm0-97.2H77.6l-1.9-20.9h52.2v20.7z" fill="#ebebeb"/><path d="M127.9 154.5H81.3l-1.8-20.8h48.4v20.8z" fill="#eaebeb"/><path d="M127.9 187.7v-33.2h25.7l-2.4 27.1-5.3 1.4-18 4.9z" fill="#2a66f1"/><path d="M127.9 133.6v-21.3h29.4c-.7 7.1-1.3 14.2-1.9 21.3h-27.5z" fill="#2a65f1"/><path d="M127.9 133.6h27.5c.6-7.1 1.2-14.2 1.9-21.3h-29.4V91.5h52.2c-.2 1.7-.3 3.3-.4 5l-.6 6.5c-.3 2.9-.6 5.8-.8 8.7l-.6 6.4c-.2 2.8-.5 5.7-.7 8.5l-.6 6.3c-.2 2.9-.5 5.7-.8 8.6s-.3 4.1-.5 6.2-.5 5.8-.8 8.8-.5 5.3-.7 8-.6 5.9-.8 8.8-.5 5.5-.7 8.3-.6 5.6-.8 8.4l-.6 6.6c0 .9 0 .9-.9 1.1l-26.1 7.3-15.2 4.2h-.6v-21.4l18-4.9 5.3-1.4 2.4-27.1h-25.7z" fill="#fff"/></svg><svg width="258" height="258" viewBox="-1 -1 258 258" id="html5" x="263.9" xmlns="http://www.w3.org/2000/svg"><defs><style>.cc{fill:#050505}</style></defs><path d="M127.1 246c-5-1.5-10.1-3.1-15.2-4.5l-49.7-13.8c-1.6-.4-2-1.1-2.1-2.6-1.4-16.6-2.9-33.2-4.4-49.8-1.3-14.5-2.5-29.1-3.8-43.6-1.5-16.2-3-32.4-4.4-48.6-.8-8.5-1.5-17.1-2.3-25.8h166.4a12.1 12.1 0 0 1 0 1.9c-1.1 13.1-2.3 26.1-3.4 39.1s-2.3 25.9-3.5 38.8l-3.9 43.8c-1.1 12.7-2.3 25.5-3.4 38.2-.2 2-.5 4.1-.5 6.1s-.6 2.1-2 2.5q-26.6 7.2-53 14.7c-4.2 1.1-8.3 2.4-12.5 3.6zm1.4-57.9l-22-5.9a2.4 2.4 0 0 1-1.3-1.9c-.6-5-1-9.9-1.4-14.8h-21c.2 3.1.5 5.9.7 8.8.7 7.4 1.3 14.8 2 22.1a2.9 2.9 0 0 0 1.6 2.1l41.4 11.5v21.4l2-.4 26.6-7.3 25.1-7c.5-.2 1.3-.9 1.3-1.4.6-4.6 1-9.3 1.5-14s.6-8.3 1-12.5c.5-6.3 1.1-12.5 1.7-18.8.4-4 .6-8 1-12l1.8-17.7c.5-5.8.9-11.7 1.4-17.5l1.8-19.9c.3-3.8.6-7.6 1-11.4.5-6 1.2-11.9 1.7-17.9.2-1.5.1-2.5-2-2.5q-32 .2-63.8 0c-1.9 0-2.1.7-2.1 2.3.1 6.1 0 12.2 0 18.4H76.2c1.9 21.2 3.7 42.1 5.6 63.2h46.7z" fill="#e34e27"/><path d="M140.7 42.7h-10.5V11c3.5 0 6.8-.1 10.1.1.7 0 1.4.8 1.8 1.4 2 3 3.9 6.2 5.9 9.5 2-3.3 3.9-6.3 5.7-9.4a2.4 2.4 0 0 1 2.7-1.6h9.2v31.6h-10.3V28.1l-.5-.2-6.9 10.6-7.2-11z" fill="#030303"/><path class="cc" d="M71.3 11.2v10.1H81V11.1h10.6v31.5H81.1V32.3h-9.8v10.4H60.8V11.2z"/><path d="M125.4 21.6h-9.2v21h-10.6V21.7h-9.3V11.2h29.1z" fill="#020202"/><path class="cc" d="M171 42.6V11.2h10.7V32h14.8v10.6z"/><path d="M128.5 91.8c0-6.2.1-12.3 0-18.4 0-1.6.2-2.3 2.1-2.3q31.8.2 63.8 0c2.1 0 2.2 1 2 2.5-.5 6-1.2 11.9-1.7 17.9-.4 3.8-.7 7.6-1 11.4l-1.8 19.9c-.5 5.8-.9 11.7-1.4 17.5l-1.8 17.7c-.4 4-.6 8-1 12-.6 6.3-1.2 12.5-1.7 18.8-.4 4.2-.7 8.3-1 12.5s-.9 9.4-1.5 14c0 .5-.8 1.2-1.3 1.4l-25.1 7-26.6 7.3-2 .4v-21.6l2-.4c12.6-3.4 25.2-7 37.8-10.3 2.4-.7 3.1-1.8 3.3-4.2l4.5-51.3c.3-3.1.6-6.3.8-9.5h-48.4v-21.4h48.8l1.6-.2c.6-6.9 1.2-13.7 1.8-20.7h-52.2z" fill="#f06529"/><path d="M128.5 155.2H81.8c-1.9-21.1-3.7-42-5.6-63.2h52.3v21H99.1c.7 7.1 1.3 14 1.9 20.9h27.5v21.3z" fill="#eae8e8"/><path d="M128.5 210l-41.4-11.5a2.9 2.9 0 0 1-1.6-2.1c-.7-7.3-1.3-14.7-2-22.1-.2-2.9-.5-5.7-.7-8.8h21c.4 4.9.8 9.8 1.4 14.8a2.4 2.4 0 0 0 1.3 1.9l22 5.9V210z" fill="#eae9e8"/><path d="M128.5 188.1V155h25.4v1.3l-2.1 24.1a2.9 2.9 0 0 1-1.7 1.9l-21.6 5.9z" fill="#f0652a"/><path d="M128.5 188.2l21.6-5.9a2.9 2.9 0 0 0 1.7-1.9l2.1-24.1V155h-25.4v-20.9h48.4c-.2 3.2-.5 6.4-.8 9.5l-4.5 51.3c-.2 2.4-.9 3.5-3.3 4.2-12.6 3.3-25.2 6.9-37.8 10.3l-2 .4z" fill="#fefdfd"/><path d="M128.5 112.7V92h52.2c-.6 7-1.2 13.8-1.8 20.7l-1.6.2h-48.8z" fill="#fefefe"/><path d="M128.5 133.9H101c-.6-6.9-1.2-13.8-1.9-20.9h29.4z" fill="#e34d26"/></svg><svg width="199.8" height="79.4" viewBox="-1 -1 199.8 79.4" id="logo" y="392.8" xmlns="http://www.w3.org/2000/svg"><path d="M0 6.3a54.6 54.6 0 0 1 7.3-.5c3.7 0 7 .4 9.2 2.1a7.2 7.2 0 0 1 2.8 6.2 7.9 7.9 0 0 1-5.4 7.4c2.4.7 3.6 2.6 4.2 5.8a45.4 45.4 0 0 0 2.2 8h-7a34.4 34.4 0 0 1-1.7-7.1c-.6-3.6-1.7-4.7-3.9-4.7h-1v11.9H0zm6.7 12.9h1.2a4.4 4.4 0 0 0 4.6-4.6c0-2.5-1.2-4.3-4.2-4.4l-1.6.2zM30.8 5.9v29.5h-6.7V5.9zm6 0h6.7v13.2h.1l1.7-3.8 4.6-9.4h7.4l-7.8 12.8 7.9 16.7H50l-5-12.2-1.5 2.4v9.8h-6.7zm23.5 0H67v13.2h.1c.6-1.2 1.1-2.5 1.7-3.8l4.6-9.4h7.4L73 18.7l7.9 16.7h-7.4l-5-12.2-1.5 2.4v9.8h-6.7z" fill="#2ab7ca"/><path d="M103.5 20.1c0 11.1-4.6 15.6-11.2 15.6s-10.9-7.1-10.9-15.2 3.8-15 11.4-15 10.7 7.9 10.7 14.6zm-15.1.5c0 6.7 1.5 10.1 4.2 10.1s3.9-4.3 3.9-10.3-.9-9.9-3.9-9.9-4.2 3.8-4.2 10.1zm38.5 14a27.1 27.1 0 0 1-7.2 1c-3.9 0-6.9-.9-9.2-2.9s-4.5-6.8-4.4-11.9c.1-10.7 7.3-15.2 14.6-15.2a17.2 17.2 0 0 1 5.7.9l-1.2 4.9a10.9 10.9 0 0 0-4-.6c-4.5 0-8.2 2.7-8.2 10.4s3.3 9.6 6.4 9.6h1.3v-7.3h-3.1v-4.7h9.3zm5-28.3a42.1 42.1 0 0 1 6.8-.5c4.4 0 7.4.8 9.6 2.6s4.5 6.2 4.5 11.9-1.8 10.2-4.8 12.5-5.7 2.8-10.5 2.8c-2.1 0-4.2-.2-5.6-.3zm6.7 24.5h1.2c3.3 0 6.1-2.7 6.1-10.8 0-6.1-1.9-9.7-5.9-9.7h-1.4zm33.1-8.4h-7.9v8h8.9v5h-15.6V5.9h15v5h-8.3v6.8h7.9zm5.6 13V5.9h6.1l5.3 11.5c1.1 2.3 2.8 6.1 3.7 8.7h.1c-.2-3.1-.6-8.3-.6-13.7V5.9h5.9v29.5h-6.2l-5.3-11.2a86.6 86.6 0 0 1-3.5-8.9h-.1c.2 3 .5 7.5.5 13.4v6.7zM0 60.8a14 14 0 0 1 .8-4.7 9.3 9.3 0 0 1 2.1-3.5A8.4 8.4 0 0 1 6 50.4a8.9 8.9 0 0 1 3.6-.7 7 7 0 0 1 3.7.8 12 12 0 0 1 2.6 1.8l-1.2 1.3-2.2-1.6a6.7 6.7 0 0 0-2.8-.6 6 6 0 0 0-3 .7A6.7 6.7 0 0 0 4.2 54a10.6 10.6 0 0 0-1.6 3 12.3 12.3 0 0 0 0 7.6 10.5 10.5 0 0 0 1.5 3 8.8 8.8 0 0 0 2.4 1.9 8.3 8.3 0 0 0 3.2.6 6.7 6.7 0 0 0 3.1-.7 8.5 8.5 0 0 0 2.5-1.7l1 1.3a12.5 12.5 0 0 1-3 2.1 9.1 9.1 0 0 1-3.7.8 9.2 9.2 0 0 1-3.8-.8 8.1 8.1 0 0 1-3-2.1 10.2 10.2 0 0 1-2.1-3.5 13.7 13.7 0 0 1-.7-4.7zm30.3-10.6H32l.2 3.9h.1a10.4 10.4 0 0 1 2.6-3.2 5.2 5.2 0 0 1 3.4-1.2h1.1a1.9 1.9 0 0 1 1 .3l-.4 1.9-.9-.3H38a4.8 4.8 0 0 0-2.9 1.2 9.3 9.3 0 0 0-2.8 4.2v14.3h-2zm20.6 10.6a14 14 0 0 1 .8-4.7 13.3 13.3 0 0 1 2-3.5 12.9 12.9 0 0 1 3-2.2 8 8 0 0 1 3.4-.7 7.2 7.2 0 0 1 5.9 2.5c1.5 1.7 2.2 4.1 2.2 7.2v.8a1.9 1.9 0 0 1-.1.8H52.9a10.6 10.6 0 0 0 .6 3.7 9 9 0 0 0 1.6 2.9 6.7 6.7 0 0 0 2.5 1.9 7 7 0 0 0 3.3.7 10.6 10.6 0 0 0 3.1-.5 12.3 12.3 0 0 0 2.5-1.4l.8 1.5-2.8 1.4a10.3 10.3 0 0 1-3.8.7 9.6 9.6 0 0 1-3.8-.8 7.7 7.7 0 0 1-3.1-2.2 9.8 9.8 0 0 1-2.1-3.4 14 14 0 0 1-.8-4.7zm15.5-1.3a9.6 9.6 0 0 0-1.7-6.1 5.5 5.5 0 0 0-4.6-2.1 5.4 5.4 0 0 0-2.5.6 7.3 7.3 0 0 0-2.3 1.6 11.3 11.3 0 0 0-1.6 2.6 12.1 12.1 0 0 0-.8 3.4zm14.5 6.6a5.9 5.9 0 0 1 3.3-5.4c2.2-1.2 5.6-2.1 10.3-2.6a9.7 9.7 0 0 0-.1-2.4 5.8 5.8 0 0 0-.8-2.2 3.6 3.6 0 0 0-1.5-1.5 4.9 4.9 0 0 0-2.5-.6 10.2 10.2 0 0 0-4 .8 17.2 17.2 0 0 0-2.8 1.7l-.9-1.5 1.4-.9 1.8-.9 2.2-.6a10.1 10.1 0 0 1 2.5-.3 7.9 7.9 0 0 1 3.2.6 4.9 4.9 0 0 1 2 1.8 5.2 5.2 0 0 1 1.1 2.5 11.2 11.2 0 0 1 .4 3.2v13.5h-1.7l-.2-2.7h-.1a17.7 17.7 0 0 1-3.5 2.3 8.7 8.7 0 0 1-3.9 1 8.6 8.6 0 0 1-2.4-.4 6.3 6.3 0 0 1-2-1 4.6 4.6 0 0 1-1.3-1.8 5.5 5.5 0 0 1-.5-2.6zm2-.1a3.8 3.8 0 0 0 1.3 3.2 5.1 5.1 0 0 0 3.2 1 7.3 7.3 0 0 0 3.5-.9 21.5 21.5 0 0 0 3.6-2.5v-7.2a46.4 46.4 0 0 0-5.4.9 15.9 15.9 0 0 0-3.6 1.4 5.1 5.1 0 0 0-2 1.8 4.4 4.4 0 0 0-.6 2.3zm30.4-14.1H110v-1.5l3.4-.2.2-6.1h1.7v6.1h6.1v1.7h-6.1v13.8a11 11 0 0 0 .2 1.8 5.8 5.8 0 0 0 .5 1.4 3.1 3.1 0 0 0 1.1.9 4.8 4.8 0 0 0 1.8.3h1.3l1.3-.5.6 1.6-1.9.5-1.6.3a5.8 5.8 0 0 1-2.5-.5 4.3 4.3 0 0 1-1.7-1.3 4.4 4.4 0 0 1-.8-2 10.9 10.9 0 0 1-.3-2.6zm23.1-6.8a1.7 1.7 0 0 1-1.2-.5 1.3 1.3 0 0 1-.5-1.2 1.4 1.4 0 0 1 .5-1.3 1.7 1.7 0 0 1 1.2-.5 2.1 2.1 0 0 1 1.3.5 1.7 1.7 0 0 1 .5 1.3 1.7 1.7 0 0 1-.5 1.2 2.1 2.1 0 0 1-1.3.5zm-1 5.1h1.9v21.1h-1.9zm15.4 0h2.1l4.7 13.3 1.1 3c.4 1.1.7 2.1 1.1 3h.1c.4-.9.7-1.9 1.1-3l1.1-3 4.7-13.3h2L161 71.3h-2.3zm29.6 10.6a14 14 0 0 1 .8-4.7 11.3 11.3 0 0 1 2.1-3.5 12.3 12.3 0 0 1 2.9-2.2 8.4 8.4 0 0 1 3.5-.7 7.2 7.2 0 0 1 5.9 2.5 11 11 0 0 1 2.2 7.2v.8c0 .3-.1.6-.1.8h-15.3a19.1 19.1 0 0 0 .6 3.7 9.2 9.2 0 0 0 1.7 2.9 6.3 6.3 0 0 0 2.4 1.9 7.2 7.2 0 0 0 3.3.7 10.1 10.1 0 0 0 3.1-.5 13 13 0 0 0 2.6-1.4l.8 1.5-2.8 1.4a10.5 10.5 0 0 1-3.9.7 10 10 0 0 1-3.8-.8 8.4 8.4 0 0 1-3.1-2.2 9.8 9.8 0 0 1-2.1-3.4 14 14 0 0 1-.8-4.7zm15.5-1.3a9.6 9.6 0 0 0-1.7-6.1 5.4 5.4 0 0 0-4.5-2.1 5.8 5.8 0 0 0-2.6.6 6.9 6.9 0 0 0-2.2 1.6 11.7 11.7 0 0 0-1.7 2.6 12.1 12.1 0 0 0-.8 3.4z" fill="#e6e6ea"/></svg><svg width="219.6" height="67.4" viewBox="-1 -1 219.6 67.4" id="roc-logo" x="244.9" y="325.4" xmlns="http://www.w3.org/2000/svg"><defs><style>.ea{fill:#1282a2}</style></defs><path class="ea" d="M11.5.8a53.4 53.4 0 0 1 6.9-.5c3.5 0 6.6.4 8.7 2a6.7 6.7 0 0 1 2.6 5.9 7.4 7.4 0 0 1-5.1 7c2.3.7 3.4 2.5 4 5.5a50.4 50.4 0 0 0 2.1 7.6h-6.6a31.1 31.1 0 0 1-1.6-6.7c-.6-3.4-1.6-4.4-3.7-4.4h-.9v11.3h-6.3V.8zM17.9 13H19a4.3 4.3 0 0 0 4.4-4v-.4c0-2.4-1.1-4.1-4-4.2l-1.5.2zM40.7.4v27.9h-6.4V.4zm5.7 0h6.3v12.5h.1l1.6-3.6L58.8.4h7l-7.4 12.1 7.5 15.8h-7l-4.7-11.5-1.5 2.2v9.3h-6.3zm22.2 0h6.3v12.5h.1c.6-1.1 1-2.4 1.6-3.6L81 .4h7l-7.4 12.1 7.5 15.8h-7l-4.8-11.6-1.4 2.3v9.3h-6.3z"/><path d="M109.5 13.8c0 10.5-4.4 14.8-10.6 14.8s-10.3-6.7-10.3-14.4S92.1 0 99.3 0s10.2 7.5 10.2 13.8zm-14.3.5c0 6.3 1.4 9.6 4 9.6s3.7-4.1 3.7-9.7-.9-9.4-3.7-9.4-4 3.5-4 9.5zm36.4 13.2a25.9 25.9 0 0 1-6.8.9c-3.7 0-6.5-.9-8.7-2.7s-4.3-6.4-4.2-11.3C112 4.3 118.8 0 125.7 0a16.5 16.5 0 0 1 5.4.9L130 5.5a12.1 12.1 0 0 0-3.8-.6c-4.3 0-7.8 2.6-7.8 9.8s3.1 9.1 6.1 9.1h1.2V17h-2.9v-4.4h8.8zM136.3.8a46 46 0 0 1 6.4-.5c4.2 0 7 .8 9.1 2.5s4.3 5.9 4.3 11.3-1.7 9.7-4.5 11.8-5.4 2.6-9.9 2.6c-2 0-4-.2-5.3-.3V.8zm6.4 23.1h1.1c3.1 0 5.8-2.6 5.8-10.2 0-5.8-1.8-9.2-5.6-9.2h-1.3zM174 16h-7.5v7.6h8.4v4.7h-14.8V.4h14.2v4.7h-7.9v6.4h7.5V16zm5.3 12.3V.4h5.8l5 10.9c1 2.2 2.6 5.8 3.5 8.2h.1c-.2-2.9-.6-7.9-.6-13V.4h5.6v27.9h-5.9l-5-10.6a66.5 66.5 0 0 1-3.3-8.4h-.1c.2 2.8.5 7.1.5 12.7v6.3zM11.5 53.6c0-4.2 2.2-6.8 4.5-6.8a3.1 3.1 0 0 1 2.6 1.4h.1v-6.4h3.1V60h-2.6l-.2-1.3h-.1a4.1 4.1 0 0 1-2.9 1.6c-2.7 0-4.5-2.5-4.5-6.7zm7 2.4v-5.2a2.4 2.4 0 0 0-1.7-.9c-1.1 0-2.1 1.1-2.1 3.6s.8 3.7 2 3.7a2.1 2.1 0 0 0 1.8-1.2zm9.7-5.9H24v-3h7.3V60h-3.1zm-.7-7.3a2.1 2.1 0 1 1 4.2 0 2.1 2.1 0 1 1-4.2 0zm7.7 19.4a3.3 3.3 0 0 1 1.6-2.6 2.5 2.5 0 0 1-1.1-2.2 3.1 3.1 0 0 1 1.3-2.5 4.1 4.1 0 0 1-1.4-3.3 4.4 4.4 0 0 1 4.5-4.7 4.7 4.7 0 0 1 1.7.3H46V50h-2.1a3.8 3.8 0 0 1 .5 1.7 3.9 3.9 0 0 1-4.3 4.3l-1.4-.3c-.3.3-.5.5-.5.9s.6 1 1.8 1h1.9c2.7 0 4.2.9 4.2 3.3s-2.4 4.6-6.2 4.6-4.7-1-4.7-3.3zm8-.7c0-.8-.6-1-1.8-1h-1.3a5.7 5.7 0 0 1-1.6-.2 1.6 1.6 0 0 0-.7 1.3c0 1 1 1.5 2.6 1.5s2.8-.7 2.8-1.6zm-1.5-10c0-1.4-.7-2.1-1.6-2.1s-1.6.7-1.6 2.1.7 2.1 1.6 2.1 1.6-.7 1.6-2.1zm10-1.4h-4.2v-3h7.3V60h-3.1zm-.6-7.3a2.1 2.1 0 1 1 4.2 0 2.1 2.1 0 0 1-2.1 2.3 2.1 2.1 0 0 1-2.1-2.3zm10.2 11.9v-4.5h-2.6v-2.8h2.8l.4-3.9h2.6v3.9h4.4v3h-4.4v4.5c0 2 .7 2.7 2.2 2.7a5 5 0 0 0 2.1-.5l.6 2.8a10.2 10.2 0 0 1-3.4.7c-3.5-.3-4.7-2.6-4.7-5.9zm9.4 1.7c0-2.9 1.9-4.4 6.9-4.7a1.9 1.9 0 0 0-2.2-1.9 6.7 6.7 0 0 0-3.2 1.2l-1.1-2.5a8.5 8.5 0 0 1 4.9-1.7c2.9 0 4.7 1.9 4.7 5.8V60h-2.5l-.2-1.5h-.1a5.9 5.9 0 0 1-3.7 1.8c-2.2 0-3.5-1.7-3.5-3.9zm6.9-.3V54c-3.1.2-3.9 1-3.9 2.1s.6 1.2 1.4 1.2a3.7 3.7 0 0 0 2.5-1.2zm7.9-1.1V44.8h-3.3v-3h6.4v13.3c0 1.6.8 2.1 1.7 2.1a3.4 3.4 0 0 0 1.6-.4l.7 2.8a7.8 7.8 0 0 1-3.1.7c-2.6 0-4-2.1-4-5.3zm20.7-1.4c0-4.3 2.8-6.8 6-6.8a5.3 5.3 0 0 1 3.9 1.7l-1.4 2.4a3.4 3.4 0 0 0-2.3-1c-1.8 0-3 1.4-3 3.7s1.2 3.7 2.9 3.7a4.2 4.2 0 0 0 2.7-1.2l1.2 2.4a6.2 6.2 0 0 1-4.3 1.9c-3.2-.1-5.7-2.6-5.7-6.8zm12.8-6.5h2.5l.2 2.8h.1c1-2.1 2.6-3.1 4.2-3.1a3.9 3.9 0 0 1 2 .5l-.6 3.2a5.8 5.8 0 0 0-1.8-.4c-1.3 0-2.6.8-3.5 3.1V60H119V47.1zm10.5 6.4c0-4.2 2.6-6.7 5.4-6.7s4.9 2.7 4.9 6.2c0 .7-.1 1.4-.1 1.7h-7.9v-2.6h5.8l-.5.7c0-2.1-.7-3.2-2.1-3.2s-2.5 1.3-2.5 3.8 1.2 3.8 3.2 3.8a4.8 4.8 0 0 0 2.7-.9l1 2.3a7.1 7.1 0 0 1-4.1 1.5c-3.3.2-5.8-2.3-5.8-6.6zm11.9 2.9c0-2.9 1.9-4.4 6.9-4.7a1.9 1.9 0 0 0-2.2-1.9 6.7 6.7 0 0 0-3.2 1.2l-1.1-2.5a8.5 8.5 0 0 1 4.9-1.7c2.9 0 4.7 1.9 4.7 5.8V60h-2.5l-.2-1.5h-.1a5.9 5.9 0 0 1-3.7 1.8c-2.2 0-3.5-1.7-3.5-3.9zm6.8-.3V54c-3.1.2-3.9 1-3.9 2.1s.6 1.2 1.4 1.2a3.5 3.5 0 0 0 2.5-1.2zm7.3-1.4v-4.5h-2.6v-2.8h2.8l.4-3.9h2.6v3.9h4.4v3h-4.4v4.5c0 2 .7 2.7 2.2 2.7a5 5 0 0 0 2.1-.6l.6 2.8a10.2 10.2 0 0 1-3.4.7c-3.5-.2-4.7-2.5-4.7-5.8zm14-4.6h-4.2v-3h7.3V60h-3.1zm-.7-7.3a2.1 2.1 0 1 1 4.2 0 2.1 2.1 0 1 1-4.2 0zm7.3 4.3h3.1l1.6 6.1.9 4h.1l.9-4 1.6-6.1h3L183.6 60h-3.5zm12.3 6.4c0-4.2 2.6-6.7 5.4-6.7s4.9 2.7 4.9 6.2c0 .7-.1 1.4-.1 1.7h-7.9v-2.6h5.8l-.5.7c0-2.1-.7-3.2-2.1-3.2s-2.5 1.3-2.5 3.8 1.2 3.8 3.2 3.8a4.8 4.8 0 0 0 2.7-.9l1 2.3a7.1 7.1 0 0 1-4.1 1.5c-3.3.2-5.8-2.3-5.8-6.6z" fill="#e6e6ea"/><path class="ea" d="M0 52.9l8.4-4.3v1.3l-7.1 3.5 7.1 3.5v1.3L0 53.9zm201.9 7.2l5-13h1.2l-5 13zm15.7-5l-8.3 4.3v-1.2l7-3.6-7-3.5v-1.3l8.3 4.3z"/></svg><svg width="263.9" height="67.4" viewBox="-1 -1 263.9 67.4" id="roc-logo-01" xmlns="http://www.w3.org/2000/svg"><defs><style>.fa{fill:#1282a2}</style></defs><path class="fa" d="M33.2.8a53.4 53.4 0 0 1 6.9-.5c3.5 0 6.6.4 8.7 2a6.7 6.7 0 0 1 2.6 5.9 7.4 7.4 0 0 1-5.1 7c2.3.7 3.4 2.5 4 5.5a50.4 50.4 0 0 0 2.1 7.6h-6.6a31.1 31.1 0 0 1-1.6-6.7c-.6-3.4-1.6-4.4-3.7-4.4h-.9v11.3h-6.3V.8zM39.6 13h1.1a4.3 4.3 0 0 0 4.4-4v-.4c0-2.4-1.1-4.1-4-4.2l-1.5.2zM62.4.4v27.9H56V.4zm5.7 0h6.3v12.5h.1l1.6-3.6L80.5.4h7l-7.4 12.1 7.5 15.8h-7l-4.7-11.5-1.5 2.2v9.3h-6.3zm22.2 0h6.3v12.5h.1c.6-1.1 1-2.4 1.6-3.6l4.4-8.9h7l-7.4 12.1 7.5 15.8h-7L98 16.7 96.6 19v9.3h-6.3z"/><path d="M131.2 13.8c0 10.5-4.4 14.8-10.6 14.8s-10.3-6.7-10.3-14.4S113.8 0 121 0s10.2 7.5 10.2 13.8zm-14.3.5c0 6.3 1.4 9.6 4 9.6s3.7-4.1 3.7-9.7-.9-9.4-3.7-9.4-4 3.5-4 9.5zm36.4 13.2a25.9 25.9 0 0 1-6.8.9c-3.7 0-6.5-.9-8.7-2.7s-4.3-6.4-4.2-11.3C133.7 4.3 140.5 0 147.4 0a16.5 16.5 0 0 1 5.4.9l-1.1 4.6a12.1 12.1 0 0 0-3.8-.6c-4.3 0-7.8 2.6-7.8 9.8s3.1 9.1 6.1 9.1h1.2V17h-2.9v-4.4h8.8zM158 .8a46 46 0 0 1 6.4-.5c4.2 0 7 .8 9.1 2.5s4.3 5.9 4.3 11.3-1.7 9.7-4.5 11.8-5.4 2.6-9.9 2.6c-2 0-4-.2-5.3-.3V.8zm6.4 23.1h1.1c3.1 0 5.8-2.6 5.8-10.2 0-5.8-1.8-9.2-5.6-9.2h-1.3zm31.3-7.9h-7.5v7.6h8.4v4.7h-14.8V.4H196v4.7h-7.9v6.4h7.5V16zm5.3 12.3V.4h5.8l5 10.9c1 2.2 2.6 5.8 3.5 8.2h.1c-.2-2.9-.6-7.9-.6-13V.4h5.6v27.9h-5.9l-5-10.6a66.5 66.5 0 0 1-3.3-8.4h-.1c.2 2.8.5 7.1.5 12.7v6.3zM33.2 53.6c0-4.2 2.2-6.8 4.5-6.8a3.1 3.1 0 0 1 2.6 1.4h.1v-6.4h3.1V60h-2.6l-.2-1.3h-.1a4.1 4.1 0 0 1-2.9 1.6c-2.7 0-4.5-2.5-4.5-6.7zm7 2.4v-5.2a2.4 2.4 0 0 0-1.7-.9c-1.1 0-2.1 1.1-2.1 3.6s.8 3.7 2 3.7a2.1 2.1 0 0 0 1.8-1.2zm9.7-5.9h-4.2v-3H53V60h-3.1zm-.7-7.3a2.1 2.1 0 1 1 4.2 0 2.1 2.1 0 1 1-4.2 0zm7.7 19.4a3.3 3.3 0 0 1 1.6-2.6 2.5 2.5 0 0 1-1.1-2.2 3.1 3.1 0 0 1 1.3-2.4 4.1 4.1 0 0 1-1.4-3.3 4.4 4.4 0 0 1 4.5-4.7 4.7 4.7 0 0 1 1.7.3h4.2v2.8h-2.1a3.8 3.8 0 0 1 .5 1.7 3.9 3.9 0 0 1-4.3 4.3l-1.4-.3c-.3.3-.5.5-.5.9s.6 1 1.8 1h1.9c2.7 0 4.2.9 4.2 3.3s-2.4 4.6-6.2 4.6-4.7-1.1-4.7-3.4zm8-.7c0-.8-.6-1-1.8-1h-1.3a5.7 5.7 0 0 1-1.6-.2 1.6 1.6 0 0 0-.7 1.3c0 1 1 1.5 2.6 1.5s2.8-.7 2.8-1.6zm-1.5-10c0-1.4-.7-2.1-1.6-2.1s-1.6.7-1.6 2.1.7 2.1 1.6 2.1 1.6-.7 1.6-2.1zm10-1.4h-4.2v-3h7.3V60h-3.1zm-.6-7.3a2.1 2.1 0 1 1 4.2 0 2.1 2.1 0 0 1-2.1 2.3 2.1 2.1 0 0 1-2.1-2.3zM83 54.7v-4.5h-2.6v-2.8h2.8l.4-3.9h2.6v3.9h4.4v3h-4.4v4.5c0 2 .7 2.7 2.2 2.7a5 5 0 0 0 2.1-.5l.6 2.8a10.2 10.2 0 0 1-3.4.7c-3.5-.3-4.7-2.6-4.7-5.9zm9.4 1.7c0-2.9 1.9-4.4 6.9-4.7a1.9 1.9 0 0 0-2.2-1.9 6.7 6.7 0 0 0-3.2 1.2l-1.1-2.5a8.5 8.5 0 0 1 4.9-1.7c2.9 0 4.7 1.9 4.7 5.8V60h-2.5l-.2-1.5h-.1a5.9 5.9 0 0 1-3.7 1.8c-2.2 0-3.5-1.7-3.5-3.9zm6.9-.3V54c-3.1.2-3.9 1-3.9 2.1s.6 1.2 1.4 1.2a3.7 3.7 0 0 0 2.5-1.2zm7.9-1.1V44.8h-3.3v-3h6.4v13.3c0 1.6.8 2.1 1.7 2.1a3.4 3.4 0 0 0 1.6-.4l.7 2.8a7.8 7.8 0 0 1-3.1.7c-2.6 0-4-2.1-4-5.3zm20.7-1.4c0-4.3 2.8-6.8 6-6.8a5.3 5.3 0 0 1 3.9 1.7l-1.4 2.4a3.4 3.4 0 0 0-2.3-1c-1.8 0-3 1.4-3 3.7s1.2 3.7 2.9 3.7a4.2 4.2 0 0 0 2.7-1.2l1.2 2.4a6.2 6.2 0 0 1-4.3 1.9c-3.2-.1-5.7-2.6-5.7-6.8zm12.8-6.5h2.5l.2 2.8h.1c1-2.1 2.6-3.1 4.2-3.1a3.9 3.9 0 0 1 2 .5l-.6 3.2a5.8 5.8 0 0 0-1.8-.4c-1.3 0-2.6.8-3.5 3.1V60h-3.1V47.1zm10.5 6.4c0-4.2 2.6-6.7 5.4-6.7s4.9 2.7 4.9 6.2c0 .7-.1 1.4-.1 1.7h-7.9v-2.6h5.8l-.5.7c0-2.1-.7-3.2-2.1-3.2s-2.5 1.3-2.5 3.8 1.2 3.8 3.2 3.8a4.8 4.8 0 0 0 2.7-.9l1 2.3a7.1 7.1 0 0 1-4.1 1.5c-3.3.2-5.8-2.3-5.8-6.6zm11.9 2.9c0-2.9 1.9-4.4 6.9-4.7a1.9 1.9 0 0 0-2.2-1.9 6.7 6.7 0 0 0-3.2 1.2l-1.1-2.5a8.5 8.5 0 0 1 4.9-1.7c2.9 0 4.7 1.9 4.7 5.8V60h-2.5l-.2-1.5h-.1a5.9 5.9 0 0 1-3.7 1.8c-2.2 0-3.5-1.7-3.5-3.9zm6.8-.3V54c-3.1.2-3.9 1-3.9 2.1s.6 1.2 1.4 1.2a3.5 3.5 0 0 0 2.5-1.2zm7.3-1.4v-4.5h-2.6v-2.8h2.8l.4-3.9h2.6v3.9h4.4v3h-4.4v4.5c0 2 .7 2.7 2.2 2.7a5 5 0 0 0 2.1-.5l.6 2.8a10.2 10.2 0 0 1-3.4.7c-3.5-.3-4.7-2.6-4.7-5.9zm14-4.6H187v-3h7.3V60h-3.1zm-.7-7.3a2.1 2.1 0 1 1 4.2 0 2.1 2.1 0 1 1-4.2 0zm7.3 4.3h3.1l1.6 6.1.9 4h.1l.9-4 1.6-6.1h3L205.3 60h-3.5zm12.3 6.4c0-4.2 2.6-6.7 5.4-6.7s4.9 2.7 4.9 6.2c0 .7-.1 1.4-.1 1.7h-7.9v-2.6h5.8l-.5.7c0-2.1-.7-3.2-2.1-3.2s-2.5 1.3-2.5 3.8 1.2 3.8 3.2 3.8a4.8 4.8 0 0 0 2.7-.9l1 2.3a7.1 7.1 0 0 1-4.1 1.5c-3.3.2-5.8-2.3-5.8-6.6z" fill="#e6e6ea"/><path class="fa" d="M0 55.2v-3.7l13.9-9v4.8l-9.6 6 9.6 6v4.8zm241.3-12.7h4.4l-11.9 21.7h-4.4zm6.7 16.9l9.6-6-9.6-6v-4.9l13.9 9v3.7l-13.9 9z"/></svg></svg>