<svg width="200" height="80" xmlns="http://www.w3.org/2000/svg" xmlns:xlink="http://www.w3.org/1999/xlink"><svg width="199.8" height="79.4" viewBox="-1 -1 199.8 79.4" xmlns="http://www.w3.org/2000/svg"><path d="M0 .9A41.5 41.5 0 0 1 7.3.3c3.7 0 7 .5 9.2 2.5s2.8 4.3 2.8 7.3a9.4 9.4 0 0 1-5.4 8.8c2.4.9 3.6 3.1 4.2 6.8a62.4 62.4 0 0 0 2.2 9.5h-7a48.6 48.6 0 0 1-1.7-8.2c-.6-4.4-1.7-5.6-3.9-5.6h-1v13.9H0zm6.7 15.3h1.2c2.9 0 4.6-2.4 4.6-5.5s-1.2-5.1-4.2-5.2l-1.6.2zM30.8.4v34.9h-6.7V.4zm6 0h6.7v15.7h.1l1.7-4.5L49.9.4h7.4l-7.8 15.2 7.9 19.7H50l-5-14.4-1.5 2.8v11.6h-6.7zm23.5 0H67v15.7h.1c.6-1.4 1.1-3 1.7-4.5L73.4.4h7.4L73 15.6l7.9 19.7h-7.4l-5-14.4-1.5 2.8v11.6h-6.7z" fill="#2ab7ca"/><path d="M103.5 17.2c0 13.2-4.6 18.5-11.2 18.5s-10.9-8.4-10.9-17.9S85.2 0 92.8 0s10.7 9.3 10.7 17.2zm-15.1.7c0 7.9 1.5 11.9 4.2 11.9s3.9-5.1 3.9-12.2-.9-11.7-3.9-11.7-4.2 4.5-4.2 12zm38.5 16.5a22.9 22.9 0 0 1-7.2 1.2c-3.9 0-6.9-1.1-9.2-3.4s-4.5-8.1-4.4-14.1c.1-12.7 7.3-18 14.6-18a14.5 14.5 0 0 1 5.7 1L125.2 7a8.9 8.9 0 0 0-4-.8c-4.5 0-8.2 3.2-8.2 12.3s3.3 11.4 6.4 11.4l1.3-.2v-8.4h-3.1v-5.6h9.3zm5-33.5a32.3 32.3 0 0 1 6.8-.6c4.4 0 7.4 1 9.6 3.1s4.5 7.3 4.5 14.1-1.8 12-4.8 14.7-5.7 3.4-10.5 3.4a41.8 41.8 0 0 1-5.6-.4zm6.7 29h1.2c3.3 0 6.1-3.2 6.1-12.8 0-7.2-1.9-11.5-5.9-11.5a3.4 3.4 0 0 0-1.4.2zm33.1-9.9h-7.9v9.4h8.9v5.9h-15.6V.4h15v5.9h-8.3v8h7.9zm5.6 15.3V.4h6.1l5.3 13.7c1.1 2.7 2.8 7.2 3.7 10.2h.1c-.2-3.7-.6-9.7-.6-16.2V.4h5.9v34.9h-6.2l-5.3-13.2c-1.1-3-2.7-7.4-3.5-10.6h-.1c.2 3.6.5 9 .5 15.9v7.9zM45.1 75.8a23.1 23.1 0 0 1-8.3 1.6A15.1 15.1 0 0 1 25.7 73a16.4 16.4 0 0 1-4.2-11.6c0-5.2 1.5-9.4 4.6-12.6a15.9 15.9 0 0 1 11.7-4.7 21.9 21.9 0 0 1 7.3 1.2v2.4a16.6 16.6 0 0 0-7.3-1.6 13.5 13.5 0 0 0-10.1 4.1c-2.6 2.8-3.9 6.4-3.9 11S25 69 27.5 71.5a12.4 12.4 0 0 0 9.4 3.8 18 18 0 0 0 8.2-1.7zm18-19.8a4.1 4.1 0 0 0-2.5-.7 5.3 5.3 0 0 0-4.6 2.8c-1.3 1.8-1.9 4.5-1.9 7.9v10.8H52V53.9h2.1v5h.1a8.1 8.1 0 0 1 2.5-4 6.1 6.1 0 0 1 4.1-1.5 5.6 5.6 0 0 1 2.3.4zm4 9.4a11.1 11.1 0 0 0 2.3 7.4 7.5 7.5 0 0 0 6.1 2.7 12.8 12.8 0 0 0 7.8-2.9v2.2a14.3 14.3 0 0 1-8.2 2.6 9.6 9.6 0 0 1-7.4-3.2c-1.8-2.1-2.8-5.1-2.8-9a12.6 12.6 0 0 1 3-8.5 9.4 9.4 0 0 1 7.6-3.4 7.9 7.9 0 0 1 6.7 3c1.6 2 2.4 4.7 2.4 8.2v.9zm15.3-1.9a9.9 9.9 0 0 0-2-6.1 6.1 6.1 0 0 0-5-2.2 7.7 7.7 0 0 0-5.5 2.1 11.4 11.4 0 0 0-2.7 6.2zm22.1 13.3v-4.6h-.1a9.1 9.1 0 0 1-3.2 3.8 9.2 9.2 0 0 1-4.8 1.4 7 7 0 0 1-5.3-1.9 6 6 0 0 1-2-4.6c0-4 2.7-6.4 8.2-7.3l7.2-1c0-5-1.9-7.4-5.7-7.4a12 12 0 0 0-7.6 3v-2.5a15.2 15.2 0 0 1 3.6-1.7 13.2 13.2 0 0 1 4.2-.7 7.2 7.2 0 0 1 5.7 2.2c1.3 1.5 1.9 3.6 1.9 6.4v14.9zM98 65.4a10.9 10.9 0 0 0-5.2 1.7 4.3 4.3 0 0 0-1.5 3.7 4.6 4.6 0 0 0 1.4 3.4 5.6 5.6 0 0 0 3.9 1.3 7.2 7.2 0 0 0 5.7-2.5 8.8 8.8 0 0 0 2.2-6.3v-2.2zm25.1 11.1a7.9 7.9 0 0 1-3.1.8c-3.5 0-5.3-2.1-5.3-6.1V55.7h-4.2v-1.8h4.2v-6l1.1-.4 1-.3v6.7h6.3v1.8h-6.3v15.2a5.8 5.8 0 0 0 .8 3.4 2.8 2.8 0 0 0 2.6 1.1 6.7 6.7 0 0 0 2.9-.8zm5.7-28.4a1.7 1.7 0 0 1-1.2-.5 1.8 1.8 0 0 1-.6-1.3 1.4 1.4 0 0 1 .6-1.2 2 2 0 0 1 2.4 0 1.4 1.4 0 0 1 .6 1.2 1.8 1.8 0 0 1-.6 1.3 1.7 1.7 0 0 1-1.2.5zm-1.1 28.7V53.9h2.2v22.9zm17.4 0h-1.9l-9.1-22.9h2.4l7 18.2a15.3 15.3 0 0 1 .7 2.4h.1a10.5 10.5 0 0 1 .7-2.3l7.2-18.3h2.3zm14.2-11.4c0 3.2.7 5.6 2.2 7.4a7.7 7.7 0 0 0 6.2 2.7 12.8 12.8 0 0 0 7.7-2.9v2.2a13.7 13.7 0 0 1-8.1 2.6 9.5 9.5 0 0 1-7.4-3.2c-1.9-2.1-2.8-5.1-2.8-9a13.1 13.1 0 0 1 2.9-8.5 9.5 9.5 0 0 1 7.6-3.4 8.1 8.1 0 0 1 6.8 3c1.6 2 2.3 4.7 2.3 8.2v.9zm15.2-1.9a9.8 9.8 0 0 0-1.9-6.1 6.1 6.1 0 0 0-5-2.2 7.4 7.4 0 0 0-5.5 2.1 10.2 10.2 0 0 0-2.7 6.2z" fill="#e6e6ea"/></svg></svg>