<?xml version="1.0" encoding="utf-8"?><svg width="516" height="411" viewBox="0 0 516 411" xmlns="http://www.w3.org/2000/svg" xmlns:xlink="http://www.w3.org/1999/xlink"><svg width="258" height="258" viewBox="-1 -1 258 258" id="css3" xmlns="http://www.w3.org/2000/svg"><defs><style>.aa{fill:#264de4}.ab{fill:#010101}.ac{fill:#2965f1}.ad{fill:#ebebeb}.ae{fill:#eaebeb}.af{fill:#2a66f1}.ag{fill:#2a65f1}.ah{fill:#fff}</style></defs><title>css3</title><path class="aa" d="M44.6 57.4v-.8h166.6v.8c-.3 2.7-.5 5.5-.8 8.3s-.5 5.6-.7 8.4-.6 6.8-1 10.2-.4 5.6-.7 8.5l-.9 10.2c-.3 2.8-.5 5.6-.8 8.4l-.9 10.2c-.2 2.8-.5 5.6-.7 8.5s-.8 8-1.1 12l-.9 10.3c-.4 4.6-.9 9.3-1.3 13.9s-.7 8.6-1.1 12.9-.9 10-1.4 15-.8 8.7-1.1 13.1-1 10.6-1.4 15.9c-.1 1.1-.2 2.2-.4 3.3l-.9.3-17.9 4.9-48.4 13.4-.7.3h-.3l-.9-.3-64.4-17.8-2.6-.7c-.1-.7-.1-1.4-.2-2-.2-2.9-.5-5.8-.8-8.7s-.3-4.2-.5-6.3-.5-5.7-.8-8.5-.3-4.2-.5-6.4-.6-5.6-.8-8.5-.5-5.5-.7-8.3-.6-5.7-.8-8.5-.5-5.6-.7-8.3-.6-5.9-.8-8.8-.5-5.4-.7-8-.6-5.8-.8-8.7-.5-5.5-.7-8.2-.6-5.8-.8-8.7l-.6-6.3c-.2-2.8-.5-5.6-.7-8.4s-.5-5.6-.8-8.3l-.9-10.3c-.3-2.8-.5-5.6-.7-8.4s-.7-6.8-1-10.2-.4-5.6-.7-8.3a4.5 4.5 0 0 0-.3-1.1zm83.3 76.2H79.5l1.8 20.8h46.6v33.2h-.6l-17.7-4.8-4.9-1.3-1.5-16.6H82.3v.7c.3 2.8.5 5.6.8 8.3s.5 5.6.7 8.4.7 7.2 1 10.8l.3 4c.1.4.2.6.6.6l.5.2 15.4 4.2 26.3 7.4v20.8c0 .2.1.4.1.7l1.8-.5 7.8-2.1 7.8-2.2 8.2-2.3 8.7-2.4 7.3-2 7.8-2.1 5-1.4a.8.8 0 0 0 .7-.8 13.6 13.6 0 0 1 .2-2l.3-2.7c0-.9.1-1.9.1-2.8s.1-1.3.2-1.9l.3-2.5c.1-.9.1-1.9.2-2.8s.1-1.4.2-2.2l.3-2.5c.1-.9.1-1.9.2-2.8a18 18 0 0 1 .2-2.2 21.3 21.3 0 0 1 .3-2.5c0-.9.1-1.8.1-2.8s.1-1.3.2-2l.3-2.8c.1-.9.1-1.8.2-2.7s.1-1.4.2-2.1l.3-2.7c.1-.9.1-1.9.2-2.8a13.6 13.6 0 0 1 .2-2l.3-2.7c0-.9.1-1.9.1-2.8s.4-3 .5-4.4.3-3.2.4-4.8a14.9 14.9 0 0 1 .2-2.1l.3-2.5c0-.9.1-1.9.1-2.8a16.4 16.4 0 0 0 .2-2.2l.3-2.5c.1-.9.1-1.9.2-2.8s.1-1.3.2-2l.3-3.1c.1-.8.1-1.7.2-2.5a11.1 11.1 0 0 1 .2-1.9l.3-3c0-.9.1-1.7.1-2.6a13.7 13.7 0 0 0 .2-1.9l.3-2.7c.1-1 .1-1.9.2-2.8s.4-3 .5-4.5l.3-4.8c.1-.6.1-1.3.2-2s.4-3 .5-4.5.1-1.8.2-2.8a13.6 13.6 0 0 1 .2-2 23 23 0 0 1 .3-2.6c0-.9.1-1.8.1-2.7s.1-1.5.2-2.2l.3-2.6c.1-.9.1-1.8.2-2.7s.1-1.5.2-2.3l.3-2.6c.1-.9.1-1.8.2-2.8s.3-3 .4-4.5-67.3-.1-68.1.1v20.6H75.7l1.9 20.9h50.3z"/><path class="ab" d="M139.4 10.5v8.9c0 .1 0 .1-.1.3h-14.5v1.8h14.6v21.1h-25.1V33h14.6v-1.8h-14.7V11a.7.7 0 0 1 .1-.5zM169.7 10.5v9.2h-14.6v1.8h14.6v21c-.6.2-22.9.2-25.1.1V33h14.6v-1.8h-14.7v-20c0-.2.1-.5.1-.7zM109.1 10.5a4.3 4.3 0 0 1 .1.5v9.4c0 .2-.1.4-.1.7H94.5v10.5h14.6v10.5H84a.9.9 0 0 1-.1-.5V10.5z"/><path class="ac" d="M127.9 91.4V70.8c.8-.2 67.4-.3 68.1-.1s-.3 3-.4 4.5-.1 1.9-.2 2.8l-.3 2.6c-.1.8-.1 1.5-.2 2.3s-.1 1.8-.2 2.7l-.3 2.6c-.1.7-.1 1.5-.2 2.2s-.1 1.8-.1 2.7a23 23 0 0 0-.3 2.6 13.6 13.6 0 0 0-.2 2c-.1 1-.1 1.9-.2 2.8s-.3 3-.5 4.5-.1 1.4-.2 2l-.3 4.8c-.1 1.5-.3 3-.5 4.5s-.1 1.8-.2 2.8l-.3 2.7a13.7 13.7 0 0 1-.2 1.9c0 .9-.1 1.7-.1 2.6l-.3 3a11.1 11.1 0 0 0-.2 1.9c-.1.8-.1 1.7-.2 2.5l-.3 3.1c-.1.7-.1 1.4-.2 2s-.1 1.9-.2 2.8l-.3 2.5a16.4 16.4 0 0 1-.2 2.2c0 .9-.1 1.9-.1 2.8l-.3 2.5a14.9 14.9 0 0 0-.2 2.1c-.1 1.6-.2 3.2-.4 4.8s-.3 2.9-.5 4.4-.1 1.9-.1 2.8l-.3 2.7a13.6 13.6 0 0 0-.2 2c-.1.9-.1 1.9-.2 2.8l-.3 2.7c-.1.7-.1 1.4-.2 2.1s-.1 1.8-.2 2.7l-.3 2.8c-.1.7-.1 1.4-.2 2s-.1 1.9-.1 2.8a21.3 21.3 0 0 0-.3 2.5 18 18 0 0 0-.2 2.2c-.1.9-.1 1.9-.2 2.8l-.3 2.5c-.1.8-.1 1.5-.2 2.2s-.1 1.9-.2 2.8l-.3 2.5c-.1.6-.1 1.3-.2 1.9s-.1 1.9-.1 2.8l-.3 2.7a13.6 13.6 0 0 0-.2 2 .8.8 0 0 1-.7.8l-5 1.4-7.8 2.1-7.3 2-8.7 2.4-8.2 2.3-7.8 2.2-7.8 2.1-1.8.5c0-.3-.1-.5-.1-.7v-20.8h.6l15.2-4.2 26.1-7.3c.9-.2.9-.2.9-1.1l.6-6.6c.2-2.8.5-5.6.8-8.4s.4-5.5.7-8.3.5-5.9.8-8.8.5-5.3.7-8 .5-5.9.8-8.8.3-4.2.5-6.2.6-5.7.8-8.6l.6-6.3c.2-2.8.5-5.7.7-8.5l.6-6.4c.2-2.9.5-5.8.8-8.7l.6-6.5c.1-1.7.2-3.3.4-5h-52.2z"/><path class="ad" d="M127.9 209.5l-26.3-7.4-15.4-4.2-.5-.2c-.4 0-.5-.2-.6-.6l-.3-4c-.3-3.6-.7-7.2-1-10.8s-.5-5.6-.7-8.4-.5-5.5-.8-8.3v-.7h20.9l1.5 16.6 4.9 1.3 17.7 4.8h.6v21.6zM127.9 112.3H77.6l-1.9-20.9h52.2v20.7z"/><path class="ae" d="M127.9 154.5H81.3l-1.8-20.8h48.4v20.8z"/><path class="af" d="M127.9 187.7v-33.2h25.7l-2.4 27.1-5.3 1.4-18 4.9z"/><path class="ag" d="M127.9 133.6v-21.3h29.4c-.7 7.1-1.3 14.2-1.9 21.3h-27.5z"/><path class="ah" d="M127.9 133.6h27.5c.6-7.1 1.2-14.2 1.9-21.3h-29.4V91.5h52.2c-.2 1.7-.3 3.3-.4 5l-.6 6.5c-.3 2.9-.6 5.8-.8 8.7l-.6 6.4c-.2 2.8-.5 5.7-.7 8.5l-.6 6.3c-.2 2.9-.5 5.7-.8 8.6s-.3 4.1-.5 6.2-.5 5.8-.8 8.8-.5 5.3-.7 8-.6 5.9-.8 8.8-.5 5.5-.7 8.3-.6 5.6-.8 8.4l-.6 6.6c0 .9 0 .9-.9 1.1l-26.1 7.3-15.2 4.2h-.6v-21.4l18-4.9 5.3-1.4 2.4-27.1h-25.7z"/><path class="ad" d="M180.1 91.6z"/></svg><svg width="258" height="258" viewBox="-1 -1 258 258" id="html5" x="258" xmlns="http://www.w3.org/2000/svg"><defs><style>.ba{fill:#e34e27}.bb{fill:#030303}.bc{fill:#050505}.bd{fill:#020202}.be{fill:#f06529}.bf{fill:#eae8e8}.bg{fill:#eae9e8}.bh{fill:#f0652a}.bi{fill:#fefdfd}.bj{fill:#fefefe}.bk{fill:#e34d26}</style></defs><title>html5</title><path class="ba" d="M127.1 246c-5-1.5-10.1-3.1-15.2-4.5l-49.7-13.8c-1.6-.4-2-1.1-2.1-2.6-1.4-16.6-2.9-33.2-4.4-49.8-1.3-14.5-2.5-29.1-3.8-43.6-1.5-16.2-3-32.4-4.4-48.6-.8-8.5-1.5-17.1-2.3-25.8h166.4a12.1 12.1 0 0 1 0 1.9c-1.1 13.1-2.3 26.1-3.4 39.1s-2.3 25.9-3.5 38.8l-3.9 43.8c-1.1 12.7-2.3 25.5-3.4 38.2-.2 2-.5 4.1-.5 6.1s-.6 2.1-2 2.5q-26.6 7.2-53 14.7c-4.2 1.1-8.3 2.4-12.5 3.6zm1.4-57.9l-22-5.9a2.4 2.4 0 0 1-1.3-1.9c-.6-5-1-9.9-1.4-14.8h-21c.2 3.1.5 5.9.7 8.8.7 7.4 1.3 14.8 2 22.1a2.9 2.9 0 0 0 1.6 2.1l41.4 11.5v21.4l2-.4 26.6-7.3 25.1-7c.5-.2 1.3-.9 1.3-1.4.6-4.6 1-9.3 1.5-14s.6-8.3 1-12.5c.5-6.3 1.1-12.5 1.7-18.8.4-4 .6-8 1-12l1.8-17.7c.5-5.8.9-11.7 1.4-17.5l1.8-19.9c.3-3.8.6-7.6 1-11.4.5-6 1.2-11.9 1.7-17.9.2-1.5.1-2.5-2-2.5q-32 .2-63.8 0c-1.9 0-2.1.7-2.1 2.3.1 6.1 0 12.2 0 18.4H76.2c1.9 21.2 3.7 42.1 5.6 63.2h46.7z"/><path class="bb" d="M140.7 42.7h-10.5V11c3.5 0 6.8-.1 10.1.1.7 0 1.4.8 1.8 1.4 2 3 3.9 6.2 5.9 9.5 2-3.3 3.9-6.3 5.7-9.4a2.4 2.4 0 0 1 2.7-1.6h9.2v31.6h-10.3V28.1l-.5-.2-6.9 10.6-7.2-11z"/><path class="bc" d="M71.3 11.2v10.1H81V11.1h10.6v31.5H81.1V32.3h-9.8v10.4H60.8V11.2z"/><path class="bd" d="M125.4 21.6h-9.2v21h-10.6V21.7h-9.3V11.2h29.1z"/><path class="bc" d="M171 42.6V11.2h10.7V32h14.8v10.6z"/><path class="be" d="M128.5 91.8c0-6.2.1-12.3 0-18.4 0-1.6.2-2.3 2.1-2.3q31.8.2 63.8 0c2.1 0 2.2 1 2 2.5-.5 6-1.2 11.9-1.7 17.9-.4 3.8-.7 7.6-1 11.4l-1.8 19.9c-.5 5.8-.9 11.7-1.4 17.5l-1.8 17.7c-.4 4-.6 8-1 12-.6 6.3-1.2 12.5-1.7 18.8-.4 4.2-.7 8.3-1 12.5s-.9 9.4-1.5 14c0 .5-.8 1.2-1.3 1.4l-25.1 7-26.6 7.3-2 .4v-21.6l2-.4c12.6-3.4 25.2-7 37.8-10.3 2.4-.7 3.1-1.8 3.3-4.2l4.5-51.3c.3-3.1.6-6.3.8-9.5h-48.4v-21.4h48.8l1.6-.2c.6-6.9 1.2-13.7 1.8-20.7h-52.2z"/><path class="bf" d="M128.5 155.2H81.8c-1.9-21.1-3.7-42-5.6-63.2h52.3v21H99.1c.7 7.1 1.3 14 1.9 20.9h27.5v21.3z"/><path class="bg" d="M128.5 210l-41.4-11.5a2.9 2.9 0 0 1-1.6-2.1c-.7-7.3-1.3-14.7-2-22.1-.2-2.9-.5-5.7-.7-8.8h21c.4 4.9.8 9.8 1.4 14.8a2.4 2.4 0 0 0 1.3 1.9l22 5.9V210z"/><path class="bh" d="M128.5 188.1V155h25.4v1.3l-2.1 24.1a2.9 2.9 0 0 1-1.7 1.9l-21.6 5.9z"/><path class="bi" d="M128.5 188.2l21.6-5.9a2.9 2.9 0 0 0 1.7-1.9l2.1-24.1V155h-25.4v-20.9h48.4c-.2 3.2-.5 6.4-.8 9.5l-4.5 51.3c-.2 2.4-.9 3.5-3.3 4.2-12.6 3.3-25.2 6.9-37.8 10.3l-2 .4z"/><path class="bj" d="M128.5 112.7V92h52.2c-.6 7-1.2 13.8-1.8 20.7l-1.6.2h-48.8z"/><path class="bk" d="M128.5 133.9H101c-.6-6.9-1.2-13.8-1.9-20.9h29.4z"/></svg><svg width="199.8" height="79.4" viewBox="-1 -1 199.8 79.4" id="logo" y="331.4" xmlns="http://www.w3.org/2000/svg"><defs><style>.ca{fill:#2ab7ca}.cb{fill:#e6e6ea}</style></defs><title>logo</title><path class="ca" d="M0 6.3a54.6 54.6 0 0 1 7.3-.5c3.7 0 7 .4 9.2 2.1a7.2 7.2 0 0 1 2.8 6.2 7.9 7.9 0 0 1-5.4 7.4c2.4.7 3.6 2.6 4.2 5.8a45.4 45.4 0 0 0 2.2 8h-7a34.4 34.4 0 0 1-1.7-7.1c-.6-3.6-1.7-4.7-3.9-4.7h-1v11.9H0zm6.7 12.9h1.2a4.4 4.4 0 0 0 4.6-4.6c0-2.5-1.2-4.3-4.2-4.4l-1.6.2zM30.8 5.9v29.5h-6.7V5.9zM36.8 5.9h6.7v13.2h.1l1.7-3.8 4.6-9.4h7.4l-7.8 12.8 7.9 16.7H50l-5-12.2-1.5 2.4v9.8h-6.7zM60.3 5.9H67v13.2h.1c.6-1.2 1.1-2.5 1.7-3.8l4.6-9.4h7.4L73 18.7l7.9 16.7h-7.4l-5-12.2-1.5 2.4v9.8h-6.7z"/><path class="cb" d="M103.5 20.1c0 11.1-4.6 15.6-11.2 15.6s-10.9-7.1-10.9-15.2 3.8-15 11.4-15 10.7 7.9 10.7 14.6zm-15.1.5c0 6.7 1.5 10.1 4.2 10.1s3.9-4.3 3.9-10.3-.9-9.9-3.9-9.9-4.2 3.8-4.2 10.1zM126.9 34.6a27.1 27.1 0 0 1-7.2 1c-3.9 0-6.9-.9-9.2-2.9s-4.5-6.8-4.4-11.9c.1-10.7 7.3-15.2 14.6-15.2a17.2 17.2 0 0 1 5.7.9l-1.2 4.9a10.9 10.9 0 0 0-4-.6c-4.5 0-8.2 2.7-8.2 10.4s3.3 9.6 6.4 9.6h1.3v-7.3h-3.1v-4.7h9.3zM131.9 6.3a42.1 42.1 0 0 1 6.8-.5c4.4 0 7.4.8 9.6 2.6s4.5 6.2 4.5 11.9-1.8 10.2-4.8 12.5-5.7 2.8-10.5 2.8c-2.1 0-4.2-.2-5.6-.3zm6.7 24.5h1.2c3.3 0 6.1-2.7 6.1-10.8 0-6.1-1.9-9.7-5.9-9.7h-1.4zM171.7 22.4h-7.9v8h8.9v5h-15.6V5.9h15v5h-8.3v6.8h7.9zM177.3 35.4V5.9h6.1l5.3 11.5c1.1 2.3 2.8 6.1 3.7 8.7h.1c-.2-3.1-.6-8.3-.6-13.7V5.9h5.9v29.5h-6.2l-5.3-11.2a86.6 86.6 0 0 1-3.5-8.9h-.1c.2 3 .5 7.5.5 13.4v6.7zM0 60.8a14 14 0 0 1 .8-4.7 9.3 9.3 0 0 1 2.1-3.5A8.4 8.4 0 0 1 6 50.4a8.9 8.9 0 0 1 3.6-.7 7 7 0 0 1 3.7.8 12 12 0 0 1 2.6 1.8l-1.2 1.3-2.2-1.6a6.7 6.7 0 0 0-2.8-.6 6 6 0 0 0-3 .7A6.7 6.7 0 0 0 4.2 54a10.6 10.6 0 0 0-1.6 3 12.3 12.3 0 0 0 0 7.6 10.5 10.5 0 0 0 1.5 3 8.8 8.8 0 0 0 2.4 1.9 8.3 8.3 0 0 0 3.2.6 6.7 6.7 0 0 0 3.1-.7 8.5 8.5 0 0 0 2.5-1.7l1 1.3a12.5 12.5 0 0 1-3 2.1 9.1 9.1 0 0 1-3.7.8 9.2 9.2 0 0 1-3.8-.8 8.1 8.1 0 0 1-3-2.1 10.2 10.2 0 0 1-2.1-3.5 13.7 13.7 0 0 1-.7-4.7zM30.3 50.2H32l.2 3.9h.1a10.4 10.4 0 0 1 2.6-3.2 5.2 5.2 0 0 1 3.4-1.2h1.1a1.9 1.9 0 0 1 1 .3l-.4 1.9-.9-.3H38a4.8 4.8 0 0 0-2.9 1.2 9.3 9.3 0 0 0-2.8 4.2v14.3h-2zM50.9 60.8a14 14 0 0 1 .8-4.7 13.3 13.3 0 0 1 2-3.5 12.9 12.9 0 0 1 3-2.2 8 8 0 0 1 3.4-.7 7.2 7.2 0 0 1 5.9 2.5c1.5 1.7 2.2 4.1 2.2 7.2v.8a1.9 1.9 0 0 1-.1.8H52.9a10.6 10.6 0 0 0 .6 3.7 9 9 0 0 0 1.6 2.9 6.7 6.7 0 0 0 2.5 1.9 7 7 0 0 0 3.3.7 10.6 10.6 0 0 0 3.1-.5 12.3 12.3 0 0 0 2.5-1.4l.8 1.5-2.8 1.4a10.3 10.3 0 0 1-3.8.7 9.6 9.6 0 0 1-3.8-.8 7.7 7.7 0 0 1-3.1-2.2 9.8 9.8 0 0 1-2.1-3.4 14 14 0 0 1-.8-4.7zm15.5-1.3a9.6 9.6 0 0 0-1.7-6.1 5.5 5.5 0 0 0-4.6-2.1 5.4 5.4 0 0 0-2.5.6 7.3 7.3 0 0 0-2.3 1.6 11.3 11.3 0 0 0-1.6 2.6 12.1 12.1 0 0 0-.8 3.4zM80.9 66.1a5.9 5.9 0 0 1 3.3-5.4c2.2-1.2 5.6-2.1 10.3-2.6a9.7 9.7 0 0 0-.1-2.4 5.8 5.8 0 0 0-.8-2.2 3.6 3.6 0 0 0-1.5-1.5 4.9 4.9 0 0 0-2.5-.6 10.2 10.2 0 0 0-4 .8 17.2 17.2 0 0 0-2.8 1.7l-.9-1.5 1.4-.9 1.8-.9 2.2-.6a10.1 10.1 0 0 1 2.5-.3 7.9 7.9 0 0 1 3.2.6 4.9 4.9 0 0 1 2 1.8 5.2 5.2 0 0 1 1.1 2.5 11.2 11.2 0 0 1 .4 3.2v13.5h-1.7l-.2-2.7h-.1a17.7 17.7 0 0 1-3.5 2.3 8.7 8.7 0 0 1-3.9 1 8.6 8.6 0 0 1-2.4-.4 6.3 6.3 0 0 1-2-1 4.6 4.6 0 0 1-1.3-1.8 5.5 5.5 0 0 1-.5-2.6zm2-.1a3.8 3.8 0 0 0 1.3 3.2 5.1 5.1 0 0 0 3.2 1 7.3 7.3 0 0 0 3.5-.9 21.5 21.5 0 0 0 3.6-2.5v-7.2a46.4 46.4 0 0 0-5.4.9 15.9 15.9 0 0 0-3.6 1.4 5.1 5.1 0 0 0-2 1.8 4.4 4.4 0 0 0-.6 2.3zM113.3 51.9H110v-1.5l3.4-.2.2-6.1h1.7v6.1h6.1v1.7h-6.1v13.8a11 11 0 0 0 .2 1.8 5.8 5.8 0 0 0 .5 1.4 3.1 3.1 0 0 0 1.1.9 4.8 4.8 0 0 0 1.8.3h1.3l1.3-.5.6 1.6-1.9.5-1.6.3a5.8 5.8 0 0 1-2.5-.5 4.3 4.3 0 0 1-1.7-1.3 4.4 4.4 0 0 1-.8-2 10.9 10.9 0 0 1-.3-2.6zM136.4 45.1a1.7 1.7 0 0 1-1.2-.5 1.3 1.3 0 0 1-.5-1.2 1.4 1.4 0 0 1 .5-1.3 1.7 1.7 0 0 1 1.2-.5 2.1 2.1 0 0 1 1.3.5 1.7 1.7 0 0 1 .5 1.3 1.7 1.7 0 0 1-.5 1.2 2.1 2.1 0 0 1-1.3.5zm-1 5.1h1.9v21.1h-1.9zM150.8 50.2h2.1l4.7 13.3 1.1 3c.4 1.1.7 2.1 1.1 3h.1c.4-.9.7-1.9 1.1-3l1.1-3 4.7-13.3h2L161 71.3h-2.3zM180.4 60.8a14 14 0 0 1 .8-4.7 11.3 11.3 0 0 1 2.1-3.5 12.3 12.3 0 0 1 2.9-2.2 8.4 8.4 0 0 1 3.5-.7 7.2 7.2 0 0 1 5.9 2.5 11 11 0 0 1 2.2 7.2v.8c0 .3-.1.6-.1.8h-15.3a19.1 19.1 0 0 0 .6 3.7 9.2 9.2 0 0 0 1.7 2.9 6.3 6.3 0 0 0 2.4 1.9 7.2 7.2 0 0 0 3.3.7 10.1 10.1 0 0 0 3.1-.5 13 13 0 0 0 2.6-1.4l.8 1.5-2.8 1.4a10.5 10.5 0 0 1-3.9.7 10 10 0 0 1-3.8-.8 8.4 8.4 0 0 1-3.1-2.2 9.8 9.8 0 0 1-2.1-3.4 14 14 0 0 1-.8-4.7zm15.5-1.3a9.6 9.6 0 0 0-1.7-6.1 5.4 5.4 0 0 0-4.5-2.1 5.8 5.8 0 0 0-2.6.6 6.9 6.9 0 0 0-2.2 1.6 11.7 11.7 0 0 0-1.7 2.6 12.1 12.1 0 0 0-.8 3.4z"/></svg><svg width="201.3" height="73.4" viewBox="-1 -1 201.3 73.4" id="roc-logo" y="258" xmlns="http://www.w3.org/2000/svg"><defs><style>.da{fill:#1282a2}.db{fill:#e6e6ea}.dc{fill:#fff}</style></defs><title>roc-logo</title><path class="da" d="M0 .8A60 60 0 0 1 7.4.3c3.7 0 7 .4 9.2 2.1a7 7 0 0 1 2.8 6.3 7.7 7.7 0 0 1-5.4 7.4c2.4.7 3.6 2.6 4.2 5.9a45.5 45.5 0 0 0 2.3 8h-7.1a35 35 0 0 1-1.7-7.1c-.6-3.7-1.7-4.8-3.9-4.8h-1v12H0zm6.8 13H8a4.4 4.4 0 0 0 4.6-4.2v-.4c0-2.5-1.2-4.4-4.2-4.5l-1.6.2zM31 .4v29.7h-6.7V.4zM37.1.4h6.7v13.3h.1l1.8-3.8L50.3.4h7.4l-7.8 12.9 7.9 16.8h-7.4l-5.1-12.3-1.5 2.5v9.8h-6.7zM60.8.4h6.7v13.3h.1c.6-1.2 1.1-2.5 1.7-3.8L74 .4h7.4l-7.8 12.9 7.9 16.8h-7.4L69 17.8l-1.5 2.5v9.8h-6.7z"/><path class="db" d="M104.3 14.7c0 11.2-4.6 15.7-11.3 15.7s-11-7.1-11-15.3S85.9 0 93.5 0s10.8 8 10.8 14.7zm-15.2.5c0 6.8 1.5 10.2 4.2 10.2s3.9-4.3 3.9-10.4-.9-10-3.9-10-4.2 3.9-4.2 10.2zM127.9 29.3a25.7 25.7 0 0 1-7.3 1c-3.9 0-6.9-.9-9.2-2.9s-4.6-6.8-4.5-12C107 4.6 114.3.1 121.6.1a19 19 0 0 1 5.8.9l-1.2 4.9a14 14 0 0 0-4.1-.6c-4.5 0-8.2 2.8-8.2 10.5s3.3 9.7 6.4 9.7h1.3v-7.4h-3.1v-4.7h9.4zM132.9.8a53.4 53.4 0 0 1 6.9-.5c4.4 0 7.4.8 9.6 2.6s4.6 6.3 4.6 12-1.8 10.3-4.9 12.6-5.7 2.8-10.5 2.8c-2.2 0-4.3-.2-5.7-.3zm6.8 24.7h1.2c3.3 0 6.1-2.7 6.1-10.9 0-6.1-1.9-9.8-5.9-9.8h-1.4zM173 17h-7.9v8.1h8.9v5h-15.7V.4h15.1v5h-8.3v6.9h7.9zM178.7 30.1V.4h6.1l5.4 11.6a89.5 89.5 0 0 1 3.7 8.8h.1c-.2-3.2-.6-8.4-.6-13.8V.4h5.9v29.7h-6.2l-5.4-11.3c-1.3-2.9-2.5-5.9-3.5-8.9h-.1c.2 3 .5 7.5.5 13.5v6.7z"/><path class="da" d="M.6 57.6v-1.3l12.3-8.4v1.6L2.1 56.9l10.8 7.5V66z"/><path class="dc" d="M17.6 57c0-5.3 3.9-8.4 8.7-8.4a8.2 8.2 0 0 1 5.8 2.4l-.9 1a7.1 7.1 0 0 0-4.9-2.1 6.9 6.9 0 0 0-7.2 7.1c0 4.2 2.9 7 7.2 7a7.5 7.5 0 0 0 5.4-2.3l.8 1.1a9.1 9.1 0 0 1-6.2 2.5c-5 0-8.7-3-8.7-8.3zM38.8 49h1.3l.2 3.9a9.4 9.4 0 0 1 7.6-4.3 6 6 0 0 1 3.2.7l-.4 1.3a7.7 7.7 0 0 0-3-.6c-2.7 0-5.1 1.4-7.4 5v9.9h-1.5zM54.7 57a8.1 8.1 0 0 1 8.1-8.4c4.4 0 7.1 2.8 7.1 7.4v1.2H55.4v-1.3h13.8l-.6.6c0-4.5-2.4-6.6-5.8-6.6a6.6 6.6 0 0 0-6.6 7 6.8 6.8 0 0 0 7.1 7.2 8.8 8.8 0 0 0 5.4-1.8l.6 1.1a10.3 10.3 0 0 1-6.1 1.9c-4.7 0-8.5-3.1-8.5-8.3zM73.9 61c0-3.6 3.7-5.3 12.4-6-.1-2.7-1.1-5.1-4.8-5.1a10.8 10.8 0 0 0-6.1 2.2l-.7-1.1a13.4 13.4 0 0 1 7-2.4c4.3 0 6.1 2.7 6.1 6.2v10.1h-1.3l-.2-2.4c-1.9 1.5-4.4 2.8-6.7 2.8s-5.7-1.4-5.7-4.3zm12.4.2v-5.1c-8.2.7-10.8 2.2-10.8 4.8s2.1 3.1 4.3 3.1 4.2-.9 6.5-2.8zM97.2 59v-8.7h-4.9v-1.2h4.9l.2-5.3h1.2V49h8.6v1.3h-8.6v8.8c0 3.1.9 4.9 4.5 4.9a11.4 11.4 0 0 0 4.3-.8l.4 1.1a12.2 12.2 0 0 1-4.9 1c-4.4 0-5.7-2.5-5.7-6.3zM119.7 50.3h-8.1V49h9.6v15.9h-1.5zm-1.2-6.7a1.5 1.5 0 0 1 1.6-1.6 1.4 1.4 0 0 1 1.5 1.6 1.4 1.4 0 0 1-1.5 1.5 1.5 1.5 0 0 1-1.6-1.5zM129.2 49h1.5l4.5 10 2 4.5h.1c.6-1.4 1.2-2.9 2-4.5l4.4-10h1.4L138 64.9h-1.6zM148.4 57a8.1 8.1 0 0 1 8.1-8.4c4.4 0 7.2 2.8 7.2 7.4a4.9 4.9 0 0 1-.1 1.2h-14.4v-1.3H163l-.7.6c0-4.5-2.3-6.6-5.8-6.6a6.6 6.6 0 0 0-6.5 7 6.8 6.8 0 0 0 7 7.2 8.8 8.8 0 0 0 5.4-1.8l.6 1.1a10 10 0 0 1-6.1 1.9c-4.6 0-8.5-3.1-8.5-8.3z"/><path class="da" d="M178.8 42.5h1.5l-11 28.9h-1.5zM186.6 64.5l10.7-7.5-10.7-7.4v-1.7l12.2 8.4v1.3L186.6 66z"/></svg></svg>