<?xml version="1.0" encoding="utf-8"?><svg width="516" height="405" viewBox="0 0 516 405" xmlns="http://www.w3.org/2000/svg" xmlns:xlink="http://www.w3.org/1999/xlink"><svg width="258" height="258" viewBox="-1 -1 258 258" id="css3" xmlns="http://www.w3.org/2000/svg"><defs><style>.aa{fill:#264de4}.ab{fill:#010101}.ac{fill:#2965f1}.ad{fill:#ebebeb}.ae{fill:#eaebeb}.af{fill:#2a66f1}.ag{fill:#2a65f1}.ah{fill:#fff}</style></defs><title>css3</title><path class="aa" d="M44.6 57.4v-.8h166.6v.8c-.3 2.7-.5 5.5-.8 8.3s-.5 5.6-.7 8.4-.6 6.8-1 10.2-.4 5.6-.7 8.5l-.9 10.2c-.3 2.8-.5 5.6-.8 8.4l-.9 10.2c-.2 2.8-.5 5.6-.7 8.5s-.8 8-1.1 12l-.9 10.3c-.4 4.6-.9 9.3-1.3 13.9s-.7 8.6-1.1 12.9-.9 10-1.4 15-.8 8.7-1.1 13.1-1 10.6-1.4 15.9c-.1 1.1-.2 2.2-.4 3.3l-.9.3-17.9 4.9-48.4 13.4-.7.3h-.3l-.9-.3-64.4-17.8-2.6-.7c-.1-.7-.1-1.4-.2-2-.2-2.9-.5-5.8-.8-8.7s-.3-4.2-.5-6.3-.5-5.7-.8-8.5-.3-4.2-.5-6.4-.6-5.6-.8-8.5-.5-5.5-.7-8.3-.6-5.7-.8-8.5-.5-5.6-.7-8.3-.6-5.9-.8-8.8-.5-5.4-.7-8-.6-5.8-.8-8.7-.5-5.5-.7-8.2-.6-5.8-.8-8.7l-.6-6.3c-.2-2.8-.5-5.6-.7-8.4s-.5-5.6-.8-8.3l-.9-10.3c-.3-2.8-.5-5.6-.7-8.4s-.7-6.8-1-10.2-.4-5.6-.7-8.3a4.5 4.5 0 0 0-.3-1.1zm83.3 76.2H79.5l1.8 20.8h46.6v33.2h-.6l-17.7-4.8-4.9-1.3-1.5-16.6H82.3v.7c.3 2.8.5 5.6.8 8.3s.5 5.6.7 8.4.7 7.2 1 10.8l.3 4c.1.4.2.6.6.6l.5.2 15.4 4.2 26.3 7.4v20.8c0 .2.1.4.1.7l1.8-.5 7.8-2.1 7.8-2.2 8.2-2.3 8.7-2.4 7.3-2 7.8-2.1 5-1.4a.8.8 0 0 0 .7-.8 13.6 13.6 0 0 1 .2-2l.3-2.7c0-.9.1-1.9.1-2.8s.1-1.3.2-1.9l.3-2.5c.1-.9.1-1.9.2-2.8s.1-1.4.2-2.2l.3-2.5c.1-.9.1-1.9.2-2.8a18 18 0 0 1 .2-2.2 21.3 21.3 0 0 1 .3-2.5c0-.9.1-1.8.1-2.8s.1-1.3.2-2l.3-2.8c.1-.9.1-1.8.2-2.7s.1-1.4.2-2.1l.3-2.7c.1-.9.1-1.9.2-2.8a13.6 13.6 0 0 1 .2-2l.3-2.7c0-.9.1-1.9.1-2.8s.4-3 .5-4.4.3-3.2.4-4.8a14.9 14.9 0 0 1 .2-2.1l.3-2.5c0-.9.1-1.9.1-2.8a16.4 16.4 0 0 0 .2-2.2l.3-2.5c.1-.9.1-1.9.2-2.8s.1-1.3.2-2l.3-3.1c.1-.8.1-1.7.2-2.5a11.1 11.1 0 0 1 .2-1.9l.3-3c0-.9.1-1.7.1-2.6a13.7 13.7 0 0 0 .2-1.9l.3-2.7c.1-1 .1-1.9.2-2.8s.4-3 .5-4.5l.3-4.8c.1-.6.1-1.3.2-2s.4-3 .5-4.5.1-1.8.2-2.8a13.6 13.6 0 0 1 .2-2 23 23 0 0 1 .3-2.6c0-.9.1-1.8.1-2.7s.1-1.5.2-2.2l.3-2.6c.1-.9.1-1.8.2-2.7s.1-1.5.2-2.3l.3-2.6c.1-.9.1-1.8.2-2.8s.3-3 .4-4.5-67.3-.1-68.1.1v20.6H75.7l1.9 20.9h50.3z"/><path class="ab" d="M139.4 10.5v8.9c0 .1 0 .1-.1.3h-14.5v1.8h14.6v21.1h-25.1V33h14.6v-1.8h-14.7V11a.7.7 0 0 1 .1-.5zM169.7 10.5v9.2h-14.6v1.8h14.6v21c-.6.2-22.9.2-25.1.1V33h14.6v-1.8h-14.7v-20c0-.2.1-.5.1-.7zM109.1 10.5a4.3 4.3 0 0 1 .1.5v9.4c0 .2-.1.4-.1.7H94.5v10.5h14.6v10.5H84a.9.9 0 0 1-.1-.5V10.5z"/><path class="ac" d="M127.9 91.4V70.8c.8-.2 67.4-.3 68.1-.1s-.3 3-.4 4.5-.1 1.9-.2 2.8l-.3 2.6c-.1.8-.1 1.5-.2 2.3s-.1 1.8-.2 2.7l-.3 2.6c-.1.7-.1 1.5-.2 2.2s-.1 1.8-.1 2.7a23 23 0 0 0-.3 2.6 13.6 13.6 0 0 0-.2 2c-.1 1-.1 1.9-.2 2.8s-.3 3-.5 4.5-.1 1.4-.2 2l-.3 4.8c-.1 1.5-.3 3-.5 4.5s-.1 1.8-.2 2.8l-.3 2.7a13.7 13.7 0 0 1-.2 1.9c0 .9-.1 1.7-.1 2.6l-.3 3a11.1 11.1 0 0 0-.2 1.9c-.1.8-.1 1.7-.2 2.5l-.3 3.1c-.1.7-.1 1.4-.2 2s-.1 1.9-.2 2.8l-.3 2.5a16.4 16.4 0 0 1-.2 2.2c0 .9-.1 1.9-.1 2.8l-.3 2.5a14.9 14.9 0 0 0-.2 2.1c-.1 1.6-.2 3.2-.4 4.8s-.3 2.9-.5 4.4-.1 1.9-.1 2.8l-.3 2.7a13.6 13.6 0 0 0-.2 2c-.1.9-.1 1.9-.2 2.8l-.3 2.7c-.1.7-.1 1.4-.2 2.1s-.1 1.8-.2 2.7l-.3 2.8c-.1.7-.1 1.4-.2 2s-.1 1.9-.1 2.8a21.3 21.3 0 0 0-.3 2.5 18 18 0 0 0-.2 2.2c-.1.9-.1 1.9-.2 2.8l-.3 2.5c-.1.8-.1 1.5-.2 2.2s-.1 1.9-.2 2.8l-.3 2.5c-.1.6-.1 1.3-.2 1.9s-.1 1.9-.1 2.8l-.3 2.7a13.6 13.6 0 0 0-.2 2 .8.8 0 0 1-.7.8l-5 1.4-7.8 2.1-7.3 2-8.7 2.4-8.2 2.3-7.8 2.2-7.8 2.1-1.8.5c0-.3-.1-.5-.1-.7v-20.8h.6l15.2-4.2 26.1-7.3c.9-.2.9-.2.9-1.1l.6-6.6c.2-2.8.5-5.6.8-8.4s.4-5.5.7-8.3.5-5.9.8-8.8.5-5.3.7-8 .5-5.9.8-8.8.3-4.2.5-6.2.6-5.7.8-8.6l.6-6.3c.2-2.8.5-5.7.7-8.5l.6-6.4c.2-2.9.5-5.8.8-8.7l.6-6.5c.1-1.7.2-3.3.4-5h-52.2z"/><path class="ad" d="M127.9 209.5l-26.3-7.4-15.4-4.2-.5-.2c-.4 0-.5-.2-.6-.6l-.3-4c-.3-3.6-.7-7.2-1-10.8s-.5-5.6-.7-8.4-.5-5.5-.8-8.3v-.7h20.9l1.5 16.6 4.9 1.3 17.7 4.8h.6v21.6zM127.9 112.3H77.6l-1.9-20.9h52.2v20.7z"/><path class="ae" d="M127.9 154.5H81.3l-1.8-20.8h48.4v20.8z"/><path class="af" d="M127.9 187.7v-33.2h25.7l-2.4 27.1-5.3 1.4-18 4.9z"/><path class="ag" d="M127.9 133.6v-21.3h29.4c-.7 7.1-1.3 14.2-1.9 21.3h-27.5z"/><path class="ah" d="M127.9 133.6h27.5c.6-7.1 1.2-14.2 1.9-21.3h-29.4V91.5h52.2c-.2 1.7-.3 3.3-.4 5l-.6 6.5c-.3 2.9-.6 5.8-.8 8.7l-.6 6.4c-.2 2.8-.5 5.7-.7 8.5l-.6 6.3c-.2 2.9-.5 5.7-.8 8.6s-.3 4.1-.5 6.2-.5 5.8-.8 8.8-.5 5.3-.7 8-.6 5.9-.8 8.8-.5 5.5-.7 8.3-.6 5.6-.8 8.4l-.6 6.6c0 .9 0 .9-.9 1.1l-26.1 7.3-15.2 4.2h-.6v-21.4l18-4.9 5.3-1.4 2.4-27.1h-25.7z"/><path class="ad" d="M180.1 91.6z"/></svg><svg width="258" height="258" viewBox="-1 -1 258 258" id="html5" x="258" xmlns="http://www.w3.org/2000/svg"><defs><style>.ba{fill:#e34e27}.bb{fill:#030303}.bc{fill:#050505}.bd{fill:#020202}.be{fill:#f06529}.bf{fill:#eae8e8}.bg{fill:#eae9e8}.bh{fill:#f0652a}.bi{fill:#fefdfd}.bj{fill:#fefefe}.bk{fill:#e34d26}</style></defs><title>html5</title><path class="ba" d="M127.1 246c-5-1.5-10.1-3.1-15.2-4.5l-49.7-13.8c-1.6-.4-2-1.1-2.1-2.6-1.4-16.6-2.9-33.2-4.4-49.8-1.3-14.5-2.5-29.1-3.8-43.6-1.5-16.2-3-32.4-4.4-48.6-.8-8.5-1.5-17.1-2.3-25.8h166.4a12.1 12.1 0 0 1 0 1.9c-1.1 13.1-2.3 26.1-3.4 39.1s-2.3 25.9-3.5 38.8l-3.9 43.8c-1.1 12.7-2.3 25.5-3.4 38.2-.2 2-.5 4.1-.5 6.1s-.6 2.1-2 2.5q-26.6 7.2-53 14.7c-4.2 1.1-8.3 2.4-12.5 3.6zm1.4-57.9l-22-5.9a2.4 2.4 0 0 1-1.3-1.9c-.6-5-1-9.9-1.4-14.8h-21c.2 3.1.5 5.9.7 8.8.7 7.4 1.3 14.8 2 22.1a2.9 2.9 0 0 0 1.6 2.1l41.4 11.5v21.4l2-.4 26.6-7.3 25.1-7c.5-.2 1.3-.9 1.3-1.4.6-4.6 1-9.3 1.5-14s.6-8.3 1-12.5c.5-6.3 1.1-12.5 1.7-18.8.4-4 .6-8 1-12l1.8-17.7c.5-5.8.9-11.7 1.4-17.5l1.8-19.9c.3-3.8.6-7.6 1-11.4.5-6 1.2-11.9 1.7-17.9.2-1.5.1-2.5-2-2.5q-32 .2-63.8 0c-1.9 0-2.1.7-2.1 2.3.1 6.1 0 12.2 0 18.4H76.2c1.9 21.2 3.7 42.1 5.6 63.2h46.7z"/><path class="bb" d="M140.7 42.7h-10.5V11c3.5 0 6.8-.1 10.1.1.7 0 1.4.8 1.8 1.4 2 3 3.9 6.2 5.9 9.5 2-3.3 3.9-6.3 5.7-9.4a2.4 2.4 0 0 1 2.7-1.6h9.2v31.6h-10.3V28.1l-.5-.2-6.9 10.6-7.2-11z"/><path class="bc" d="M71.3 11.2v10.1H81V11.1h10.6v31.5H81.1V32.3h-9.8v10.4H60.8V11.2z"/><path class="bd" d="M125.4 21.6h-9.2v21h-10.6V21.7h-9.3V11.2h29.1z"/><path class="bc" d="M171 42.6V11.2h10.7V32h14.8v10.6z"/><path class="be" d="M128.5 91.8c0-6.2.1-12.3 0-18.4 0-1.6.2-2.3 2.1-2.3q31.8.2 63.8 0c2.1 0 2.2 1 2 2.5-.5 6-1.2 11.9-1.7 17.9-.4 3.8-.7 7.6-1 11.4l-1.8 19.9c-.5 5.8-.9 11.7-1.4 17.5l-1.8 17.7c-.4 4-.6 8-1 12-.6 6.3-1.2 12.5-1.7 18.8-.4 4.2-.7 8.3-1 12.5s-.9 9.4-1.5 14c0 .5-.8 1.2-1.3 1.4l-25.1 7-26.6 7.3-2 .4v-21.6l2-.4c12.6-3.4 25.2-7 37.8-10.3 2.4-.7 3.1-1.8 3.3-4.2l4.5-51.3c.3-3.1.6-6.3.8-9.5h-48.4v-21.4h48.8l1.6-.2c.6-6.9 1.2-13.7 1.8-20.7h-52.2z"/><path class="bf" d="M128.5 155.2H81.8c-1.9-21.1-3.7-42-5.6-63.2h52.3v21H99.1c.7 7.1 1.3 14 1.9 20.9h27.5v21.3z"/><path class="bg" d="M128.5 210l-41.4-11.5a2.9 2.9 0 0 1-1.6-2.1c-.7-7.3-1.3-14.7-2-22.1-.2-2.9-.5-5.7-.7-8.8h21c.4 4.9.8 9.8 1.4 14.8a2.4 2.4 0 0 0 1.3 1.9l22 5.9V210z"/><path class="bh" d="M128.5 188.1V155h25.4v1.3l-2.1 24.1a2.9 2.9 0 0 1-1.7 1.9l-21.6 5.9z"/><path class="bi" d="M128.5 188.2l21.6-5.9a2.9 2.9 0 0 0 1.7-1.9l2.1-24.1V155h-25.4v-20.9h48.4c-.2 3.2-.5 6.4-.8 9.5l-4.5 51.3c-.2 2.4-.9 3.5-3.3 4.2-12.6 3.3-25.2 6.9-37.8 10.3l-2 .4z"/><path class="bj" d="M128.5 112.7V92h52.2c-.6 7-1.2 13.8-1.8 20.7l-1.6.2h-48.8z"/><path class="bk" d="M128.5 133.9H101c-.6-6.9-1.2-13.8-1.9-20.9h29.4z"/></svg><svg width="199.8" height="79.4" viewBox="-1 -1 199.8 79.4" id="logo" y="325.5" xmlns="http://www.w3.org/2000/svg"><defs><style>.ca{fill:#2ab7ca}.cb{fill:#e6e6ea}</style></defs><title>logo</title><path class="ca" d="M0 6.3a54.6 54.6 0 0 1 7.3-.5c3.7 0 7 .4 9.2 2.1a7.2 7.2 0 0 1 2.8 6.2 7.9 7.9 0 0 1-5.4 7.4c2.4.7 3.6 2.6 4.2 5.8a45.4 45.4 0 0 0 2.2 8h-7a34.4 34.4 0 0 1-1.7-7.1c-.6-3.6-1.7-4.7-3.9-4.7h-1v11.9H0zm6.7 12.9h1.2a4.4 4.4 0 0 0 4.6-4.6c0-2.5-1.2-4.3-4.2-4.4l-1.6.2zM30.8 5.9v29.5h-6.7V5.9zM36.8 5.9h6.7v13.2h.1l1.7-3.8 4.6-9.4h7.4l-7.8 12.8 7.9 16.7H50l-5-12.2-1.5 2.4v9.8h-6.7zM60.3 5.9H67v13.2h.1c.6-1.2 1.1-2.5 1.7-3.8l4.6-9.4h7.4L73 18.7l7.9 16.7h-7.4l-5-12.2-1.5 2.4v9.8h-6.7z"/><path class="cb" d="M103.5 20.1c0 11.1-4.6 15.6-11.2 15.6s-10.9-7.1-10.9-15.2 3.8-15 11.4-15 10.7 7.9 10.7 14.6zm-15.1.5c0 6.7 1.5 10.1 4.2 10.1s3.9-4.3 3.9-10.3-.9-9.9-3.9-9.9-4.2 3.8-4.2 10.1zM126.9 34.6a27.1 27.1 0 0 1-7.2 1c-3.9 0-6.9-.9-9.2-2.9s-4.5-6.8-4.4-11.9c.1-10.7 7.3-15.2 14.6-15.2a17.2 17.2 0 0 1 5.7.9l-1.2 4.9a10.9 10.9 0 0 0-4-.6c-4.5 0-8.2 2.7-8.2 10.4s3.3 9.6 6.4 9.6h1.3v-7.3h-3.1v-4.7h9.3zM131.9 6.3a42.1 42.1 0 0 1 6.8-.5c4.4 0 7.4.8 9.6 2.6s4.5 6.2 4.5 11.9-1.8 10.2-4.8 12.5-5.7 2.8-10.5 2.8c-2.1 0-4.2-.2-5.6-.3zm6.7 24.5h1.2c3.3 0 6.1-2.7 6.1-10.8 0-6.1-1.9-9.7-5.9-9.7h-1.4zM171.7 22.4h-7.9v8h8.9v5h-15.6V5.9h15v5h-8.3v6.8h7.9zM177.3 35.4V5.9h6.1l5.3 11.5c1.1 2.3 2.8 6.1 3.7 8.7h.1c-.2-3.1-.6-8.3-.6-13.7V5.9h5.9v29.5h-6.2l-5.3-11.2a86.6 86.6 0 0 1-3.5-8.9h-.1c.2 3 .5 7.5.5 13.4v6.7zM0 60.8a14 14 0 0 1 .8-4.7 9.3 9.3 0 0 1 2.1-3.5A8.4 8.4 0 0 1 6 50.4a8.9 8.9 0 0 1 3.6-.7 7 7 0 0 1 3.7.8 12 12 0 0 1 2.6 1.8l-1.2 1.3-2.2-1.6a6.7 6.7 0 0 0-2.8-.6 6 6 0 0 0-3 .7A6.7 6.7 0 0 0 4.2 54a10.6 10.6 0 0 0-1.6 3 12.3 12.3 0 0 0 0 7.6 10.5 10.5 0 0 0 1.5 3 8.8 8.8 0 0 0 2.4 1.9 8.3 8.3 0 0 0 3.2.6 6.7 6.7 0 0 0 3.1-.7 8.5 8.5 0 0 0 2.5-1.7l1 1.3a12.5 12.5 0 0 1-3 2.1 9.1 9.1 0 0 1-3.7.8 9.2 9.2 0 0 1-3.8-.8 8.1 8.1 0 0 1-3-2.1 10.2 10.2 0 0 1-2.1-3.5 13.7 13.7 0 0 1-.7-4.7zM30.3 50.2H32l.2 3.9h.1a10.4 10.4 0 0 1 2.6-3.2 5.2 5.2 0 0 1 3.4-1.2h1.1a1.9 1.9 0 0 1 1 .3l-.4 1.9-.9-.3H38a4.8 4.8 0 0 0-2.9 1.2 9.3 9.3 0 0 0-2.8 4.2v14.3h-2zM50.9 60.8a14 14 0 0 1 .8-4.7 13.3 13.3 0 0 1 2-3.5 12.9 12.9 0 0 1 3-2.2 8 8 0 0 1 3.4-.7 7.2 7.2 0 0 1 5.9 2.5c1.5 1.7 2.2 4.1 2.2 7.2v.8a1.9 1.9 0 0 1-.1.8H52.9a10.6 10.6 0 0 0 .6 3.7 9 9 0 0 0 1.6 2.9 6.7 6.7 0 0 0 2.5 1.9 7 7 0 0 0 3.3.7 10.6 10.6 0 0 0 3.1-.5 12.3 12.3 0 0 0 2.5-1.4l.8 1.5-2.8 1.4a10.3 10.3 0 0 1-3.8.7 9.6 9.6 0 0 1-3.8-.8 7.7 7.7 0 0 1-3.1-2.2 9.8 9.8 0 0 1-2.1-3.4 14 14 0 0 1-.8-4.7zm15.5-1.3a9.6 9.6 0 0 0-1.7-6.1 5.5 5.5 0 0 0-4.6-2.1 5.4 5.4 0 0 0-2.5.6 7.3 7.3 0 0 0-2.3 1.6 11.3 11.3 0 0 0-1.6 2.6 12.1 12.1 0 0 0-.8 3.4zM80.9 66.1a5.9 5.9 0 0 1 3.3-5.4c2.2-1.2 5.6-2.1 10.3-2.6a9.7 9.7 0 0 0-.1-2.4 5.8 5.8 0 0 0-.8-2.2 3.6 3.6 0 0 0-1.5-1.5 4.9 4.9 0 0 0-2.5-.6 10.2 10.2 0 0 0-4 .8 17.2 17.2 0 0 0-2.8 1.7l-.9-1.5 1.4-.9 1.8-.9 2.2-.6a10.1 10.1 0 0 1 2.5-.3 7.9 7.9 0 0 1 3.2.6 4.9 4.9 0 0 1 2 1.8 5.2 5.2 0 0 1 1.1 2.5 11.2 11.2 0 0 1 .4 3.2v13.5h-1.7l-.2-2.7h-.1a17.7 17.7 0 0 1-3.5 2.3 8.7 8.7 0 0 1-3.9 1 8.6 8.6 0 0 1-2.4-.4 6.3 6.3 0 0 1-2-1 4.6 4.6 0 0 1-1.3-1.8 5.5 5.5 0 0 1-.5-2.6zm2-.1a3.8 3.8 0 0 0 1.3 3.2 5.1 5.1 0 0 0 3.2 1 7.3 7.3 0 0 0 3.5-.9 21.5 21.5 0 0 0 3.6-2.5v-7.2a46.4 46.4 0 0 0-5.4.9 15.9 15.9 0 0 0-3.6 1.4 5.1 5.1 0 0 0-2 1.8 4.4 4.4 0 0 0-.6 2.3zM113.3 51.9H110v-1.5l3.4-.2.2-6.1h1.7v6.1h6.1v1.7h-6.1v13.8a11 11 0 0 0 .2 1.8 5.8 5.8 0 0 0 .5 1.4 3.1 3.1 0 0 0 1.1.9 4.8 4.8 0 0 0 1.8.3h1.3l1.3-.5.6 1.6-1.9.5-1.6.3a5.8 5.8 0 0 1-2.5-.5 4.3 4.3 0 0 1-1.7-1.3 4.4 4.4 0 0 1-.8-2 10.9 10.9 0 0 1-.3-2.6zM136.4 45.1a1.7 1.7 0 0 1-1.2-.5 1.3 1.3 0 0 1-.5-1.2 1.4 1.4 0 0 1 .5-1.3 1.7 1.7 0 0 1 1.2-.5 2.1 2.1 0 0 1 1.3.5 1.7 1.7 0 0 1 .5 1.3 1.7 1.7 0 0 1-.5 1.2 2.1 2.1 0 0 1-1.3.5zm-1 5.1h1.9v21.1h-1.9zM150.8 50.2h2.1l4.7 13.3 1.1 3c.4 1.1.7 2.1 1.1 3h.1c.4-.9.7-1.9 1.1-3l1.1-3 4.7-13.3h2L161 71.3h-2.3zM180.4 60.8a14 14 0 0 1 .8-4.7 11.3 11.3 0 0 1 2.1-3.5 12.3 12.3 0 0 1 2.9-2.2 8.4 8.4 0 0 1 3.5-.7 7.2 7.2 0 0 1 5.9 2.5 11 11 0 0 1 2.2 7.2v.8c0 .3-.1.6-.1.8h-15.3a19.1 19.1 0 0 0 .6 3.7 9.2 9.2 0 0 0 1.7 2.9 6.3 6.3 0 0 0 2.4 1.9 7.2 7.2 0 0 0 3.3.7 10.1 10.1 0 0 0 3.1-.5 13 13 0 0 0 2.6-1.4l.8 1.5-2.8 1.4a10.5 10.5 0 0 1-3.9.7 10 10 0 0 1-3.8-.8 8.4 8.4 0 0 1-3.1-2.2 9.8 9.8 0 0 1-2.1-3.4 14 14 0 0 1-.8-4.7zm15.5-1.3a9.6 9.6 0 0 0-1.7-6.1 5.4 5.4 0 0 0-4.5-2.1 5.8 5.8 0 0 0-2.6.6 6.9 6.9 0 0 0-2.2 1.6 11.7 11.7 0 0 0-1.7 2.6 12.1 12.1 0 0 0-.8 3.4z"/></svg><svg width="244.9" height="67.5" viewBox="-1 -1 244.9 67.5" id="roc-logo" y="258" xmlns="http://www.w3.org/2000/svg"><defs><style>.da{fill:#1282a2}.db{fill:#e6e6ea}</style></defs><title>roc-logo</title><path class="da" d="M23.2.8a40.1 40.1 0 0 1 6.9-.5c3.5 0 6.7.4 8.7 2a6.7 6.7 0 0 1 2.7 5.8 7.4 7.4 0 0 1-5.1 7c2.3.7 3.4 2.5 4 5.5a40.5 40.5 0 0 0 2 7.6h-6.6a31.1 31.1 0 0 1-1.6-6.7c-.6-3.4-1.6-4.5-3.7-4.5h-.9v11.3h-6.4zM29.6 13h1.1a4.2 4.2 0 0 0 4.4-4v-.4c0-2.4-1.2-4.1-4-4.2l-1.5.2zM52.4.4v27.9H46V.4zM58.1.4h6.3v12.5h.1l1.6-3.6L70.4.4h7l-7.3 12.1 7.4 15.8h-7l-4.7-11.6-1.4 2.3v9.3h-6.3zM80.3.4h6.3v12.5h.1c.6-1.2 1.1-2.4 1.6-3.6L92.7.4h7l-7.4 12.1 7.5 15.8h-7L88 16.7 86.6 19v9.3h-6.3z"/><path class="db" d="M121.2 13.8c0 10.5-4.4 14.8-10.6 14.8s-10.3-6.7-10.3-14.4S103.8 0 111 0s10.2 7.5 10.2 13.8zm-14.3.5c0 6.3 1.4 9.5 4 9.5s3.6-4 3.6-9.7-.8-9.4-3.6-9.4-4 3.6-4 9.6zM143.3 27.5a22.4 22.4 0 0 1-6.8 1c-3.7 0-6.5-.9-8.7-2.8s-4.3-6.4-4.2-11.2C123.7 4.4 130.5.1 137.4.1a19.1 19.1 0 0 1 5.4.8l-1.1 4.7a12.1 12.1 0 0 0-3.8-.6c-4.2 0-7.7 2.6-7.7 9.9s3.1 9 6 9h1.2V17h-2.9v-4.4h8.8zM148 .8a35.6 35.6 0 0 1 6.5-.5c4.1 0 7 .7 9.1 2.4s4.2 5.9 4.2 11.3-1.7 9.7-4.5 11.8-5.4 2.7-10 2.7c-2 0-3.9-.2-5.3-.3zm6.4 23.1h1.1c3.1 0 5.8-2.5 5.8-10.2 0-5.8-1.8-9.2-5.6-9.2h-1.3zM185.7 16h-7.5v7.6h8.4v4.7h-14.7V.4h14.2v4.7h-7.9v6.4h7.5zM191 28.3V.4h5.8l5 10.9c1 2.1 2.6 5.7 3.5 8.2h.1c-.2-2.9-.6-7.9-.6-13V.4h5.6v27.9h-5.9l-5-10.6a86 86 0 0 1-3.3-8.4h-.1c.2 2.8.5 7.1.5 12.7v6.3zM23.2 53.6c0-4.3 2.2-6.8 4.5-6.8a3.1 3.1 0 0 1 2.6 1.4h.1l-.2-2v-4.4h3.1V60h-2.5l-.2-1.3h-.1a3.9 3.9 0 0 1-2.9 1.6c-2.6 0-4.4-2.5-4.4-6.7zm7 2.4v-5.2a2.2 2.2 0 0 0-1.7-.9c-1.1 0-2.1 1.2-2.1 3.6s.8 3.7 2 3.7a2.1 2.1 0 0 0 1.8-1.2zM39.9 50.1h-4.2v-3H43V60h-3.1zm-.7-7.3a2.2 2.2 0 0 1 2.1-2.4c1.2 0 2 1 2 2.4a2 2 0 0 1-2 2.3 2.1 2.1 0 0 1-2.1-2.3zM46.9 62.2a2.9 2.9 0 0 1 1.6-2.6 2.6 2.6 0 0 1-1-2.2 3.3 3.3 0 0 1 1.2-2.4 4.3 4.3 0 0 1-1.4-3.3 4.4 4.4 0 0 1 4.5-4.7 4.7 4.7 0 0 1 1.7.3h4.2v2.8h-2.1a2.9 2.9 0 0 1 .5 1.7 3.9 3.9 0 0 1-4.3 4.3l-1.4-.2a.9.9 0 0 0-.5.9c0 .7.5 1 1.8 1h1.9c2.7 0 4.2.9 4.2 3.2s-2.4 4.7-6.2 4.7-4.7-1.2-4.7-3.5zm8-.7c0-.8-.7-1-1.8-1h-1.4l-1.5-.2a1.5 1.5 0 0 0-.8 1.3c0 .9 1 1.4 2.7 1.4s2.8-.6 2.8-1.5zm-1.5-10c0-1.4-.7-2.1-1.6-2.1s-1.6.7-1.6 2.1.7 2.1 1.6 2.1 1.6-.7 1.6-2.1zM63.4 50.1h-4.2v-3h7.3V60h-3.1zm-.6-7.3c0-1.4.8-2.4 2-2.4a2.2 2.2 0 0 1 2.1 2.4 2.1 2.1 0 0 1-2.1 2.3 2 2 0 0 1-2-2.3zM73 54.7v-4.6h-2.6v-2.8l2.8-.2.4-3.9h2.5v3.9h4.4v3h-4.4v4.5c0 2 .7 2.7 2.2 2.7a5 5 0 0 0 2.1-.5l.5 2.8a10.2 10.2 0 0 1-3.4.7c-3.3 0-4.5-2.3-4.5-5.6zM82.4 56.4c0-2.9 1.9-4.3 6.9-4.7a1.9 1.9 0 0 0-2.2-1.9 6.7 6.7 0 0 0-3.2 1.2l-1.1-2.5a8.5 8.5 0 0 1 4.9-1.7c2.9 0 4.7 1.9 4.7 5.8V60h-2.6l-.2-1.5h-.1a5.5 5.5 0 0 1-3.7 1.8c-2.1 0-3.4-1.7-3.4-3.9zm6.9-.3V54c-3.1.2-3.9 1-3.9 2.1s.5 1.2 1.4 1.2a3.7 3.7 0 0 0 2.5-1.2zM97.2 55V44.8h-3.3v-3h6.4v13.3c0 1.6.9 2.1 1.7 2.1a3.4 3.4 0 0 0 1.6-.4l.7 2.8a7.8 7.8 0 0 1-3.1.7c-2.6 0-4-2.1-4-5.3zM117.9 53.6c0-4.3 2.8-6.8 6-6.8a5 5 0 0 1 3.9 1.8l-1.4 2.3a3.4 3.4 0 0 0-2.3-1c-1.8 0-3.1 1.4-3.1 3.7s1.3 3.6 3 3.6a4.2 4.2 0 0 0 2.7-1.2l1.3 2.4a6.2 6.2 0 0 1-4.3 1.9c-3.3 0-5.8-2.5-5.8-6.7zM130.7 47.1h2.5l.3 2.8a4.8 4.8 0 0 1 4.3-3.1 3.9 3.9 0 0 1 2 .5l-.7 3.2a5.2 5.2 0 0 0-1.8-.3c-1.3 0-2.6.8-3.5 3.1V60h-3.1zM141.2 53.5c0-4.2 2.6-6.7 5.4-6.7s4.9 2.7 4.9 6.2c0 .7-.1 1.4-.1 1.7h-7.9v-2.6h5.8l-.5.8c0-2.1-.7-3.2-2.1-3.2s-2.5 1.3-2.5 3.8 1.1 3.9 3.2 3.9a5.1 5.1 0 0 0 2.7-.9l1 2.3a7.4 7.4 0 0 1-4.1 1.5c-3.3 0-5.8-2.5-5.8-6.8zM153.1 56.4c0-2.9 1.9-4.3 6.8-4.7a1.9 1.9 0 0 0-2.2-1.9 6.7 6.7 0 0 0-3.2 1.2l-1.1-2.5a9.1 9.1 0 0 1 4.9-1.7c3 0 4.7 1.9 4.7 5.8V60h-2.5l-.2-1.5h-.1a5.7 5.7 0 0 1-3.7 1.8c-2.1 0-3.4-1.7-3.4-3.9zm6.8-.3V54c-3 .2-3.9 1-3.9 2.1s.6 1.2 1.5 1.2a3.5 3.5 0 0 0 2.4-1.2zM167.2 54.7v-4.6h-2.6v-2.8l2.8-.2.4-3.9h2.5v3.9h4.4v3h-4.4v4.5c0 2 .7 2.7 2.2 2.7a4.6 4.6 0 0 0 2.1-.5l.5 2.8a10.2 10.2 0 0 1-3.4.7c-3.3 0-4.5-2.3-4.5-5.6zM181.2 50.1H177v-3h7.3V60h-3.1zm-.7-7.3a2.1 2.1 0 1 1 4.2 0 2.1 2.1 0 1 1-4.2 0zM187.8 47.1h3.1l1.6 6.1c.4 1.3.7 2.6 1 3.9h.1c.3-1.3.5-2.6.9-3.9l1.6-6.1h3L195.3 60h-3.6zM200.1 53.5c0-4.2 2.6-6.7 5.4-6.7s4.9 2.7 4.9 6.2c0 .7-.1 1.4-.1 1.7h-8v-2.6h5.9l-.5.8c0-2.1-.7-3.2-2.1-3.2s-2.5 1.3-2.5 3.8 1.1 3.9 3.2 3.9a4.5 4.5 0 0 0 2.6-.9l1.1 2.3a7.4 7.4 0 0 1-4.2 1.5c-3.2 0-5.7-2.5-5.7-6.8z"/><path class="da" d="M0 55.2v-3.6l13.9-9.1v4.9l-9.5 5.9v.2l9.5 5.9v4.8zM222.3 42.5h4.4l-11.9 21.7h-4.4zM229 59.4l9.6-5.9v-.2l-9.6-5.9v-4.9l13.9 9.1v3.6l-13.9 9z"/></svg></svg>