<svg xmlns="http://www.w3.org/2000/svg" width="242.9" height="65.4" viewBox="0 0 242.9 65.4"><defs><style>.a{fill:#1282a2;}.b{fill:#e6e6ea;}</style></defs><title>Artboard 1</title><path class="a" d="M19.2.8A53.4,53.4,0,0,1,26.1.3c3.5,0,6.6.4,8.7,2a6.7,6.7,0,0,1,2.6,5.9,7.4,7.4,0,0,1-5.1,7h0c2.3.7,3.4,2.5,4,5.5a50.4,50.4,0,0,0,2.1,7.6H31.8a31.1,31.1,0,0,1-1.6-6.7c-.6-3.4-1.6-4.4-3.7-4.4h-.9V28.5H19.3V.8ZM25.6,13h1.1a4.3,4.3,0,0,0,4.4-4V8.6c0-2.4-1.1-4.1-4-4.2l-1.5.2Z"/><path class="a" d="M48.4.4V28.3H42V.4Z"/><path class="a" d="M54.1.4h6.3V12.9h.1l1.6-3.6L66.5.4h7L66.1,12.5l7.5,15.8h-7L61.9,16.8,60.4,19v9.3H54.1Z"/><path class="a" d="M76.3.4h6.3V12.9h.1c.6-1.1,1-2.4,1.6-3.6L88.7.4h7L88.3,12.5l7.5,15.8h-7L84,16.7,82.6,19v9.3H76.3Z"/><path class="b" d="M117.2,13.8c0,10.5-4.4,14.8-10.6,14.8S96.3,21.9,96.3,14.2,99.8,0,107,0,117.2,7.5,117.2,13.8Zm-14.3.5c0,6.3,1.4,9.6,4,9.6s3.7-4.1,3.7-9.7-.9-9.4-3.7-9.4S102.9,8.3,102.9,14.3Z"/><path class="b" d="M139.3,27.5a25.9,25.9,0,0,1-6.8.9c-3.7,0-6.5-.9-8.7-2.7s-4.3-6.4-4.2-11.3C119.7,4.3,126.5,0,133.4,0a16.5,16.5,0,0,1,5.4.9l-1.1,4.6a12.1,12.1,0,0,0-3.8-.6c-4.3,0-7.8,2.6-7.8,9.8s3.1,9.1,6.1,9.1h1.2V17h-2.9V12.6h8.8Z"/><path class="b" d="M144,.8a46,46,0,0,1,6.4-.5c4.2,0,7,.8,9.1,2.5s4.3,5.9,4.3,11.3-1.7,9.7-4.5,11.8-5.4,2.6-9.9,2.6c-2,0-4-.2-5.3-.3V.8Zm6.4,23.1h1.1c3.1,0,5.8-2.6,5.8-10.2,0-5.8-1.8-9.2-5.6-9.2h-1.3Z"/><path class="b" d="M181.7,16h-7.5v7.6h8.4v4.7H167.8V.4H182V5.1h-7.9v6.4h7.5V16Z"/><path class="b" d="M187,28.3V.4h5.8l5,10.9c1,2.2,2.6,5.8,3.5,8.2h.1c-.2-2.9-.6-7.9-.6-13V.4h5.6V28.3h-5.9l-5-10.6a66.5,66.5,0,0,1-3.3-8.4h-.1c.2,2.8.5,7.1.5,12.7v6.3Z"/><path class="b" d="M19.2,53.6c0-4.2,2.2-6.8,4.5-6.8a3.1,3.1,0,0,1,2.6,1.4h.1V41.8h3.1V60H26.9l-.2-1.3h-.1a4.1,4.1,0,0,1-2.9,1.6C21,60.3,19.2,57.8,19.2,53.6Zm7,2.4V50.8a2.4,2.4,0,0,0-1.7-.9c-1.1,0-2.1,1.1-2.1,3.6s.8,3.7,2,3.7A2.1,2.1,0,0,0,26.2,56Z"/><path class="b" d="M35.9,50.1H31.7v-3H39V60H35.9Zm-.7-7.3a2.1,2.1,0,1,1,4.2,0,2.1,2.1,0,1,1-4.2,0Z"/><path class="b" d="M42.9,62.2a3.3,3.3,0,0,1,1.6-2.6h0a2.5,2.5,0,0,1-1.1-2.2,3.1,3.1,0,0,1,1.3-2.4h0a4.1,4.1,0,0,1-1.4-3.3,4.4,4.4,0,0,1,4.5-4.7,4.7,4.7,0,0,1,1.7.3h4.2v2.8H51.6a3.8,3.8,0,0,1,.5,1.7,3.9,3.9,0,0,1-4.3,4.3l-1.4-.3c-.3.3-.5.5-.5.9s.6,1,1.8,1h1.9c2.7,0,4.2.9,4.2,3.3s-2.4,4.6-6.2,4.6S42.9,64.5,42.9,62.2Zm8-.7c0-.8-.6-1-1.8-1H47.8a5.7,5.7,0,0,1-1.6-.2,1.6,1.6,0,0,0-.7,1.3c0,1,1,1.5,2.6,1.5S50.9,62.4,50.9,61.5Zm-1.5-10c0-1.4-.7-2.1-1.6-2.1s-1.6.7-1.6,2.1.7,2.1,1.6,2.1S49.4,52.9,49.4,51.5Z"/><path class="b" d="M59.4,50.1H55.2v-3h7.3V60H59.4Zm-.6-7.3a2.1,2.1,0,1,1,4.2,0,2.1,2.1,0,0,1-2.1,2.3A2.1,2.1,0,0,1,58.8,42.8Z"/><path class="b" d="M69,54.7V50.2H66.4V47.4h2.8l.4-3.9h2.6v3.9h4.4v3H72.2v4.5c0,2,.7,2.7,2.2,2.7a5,5,0,0,0,2.1-.5l.6,2.8a10.2,10.2,0,0,1-3.4.7C70.2,60.3,69,58,69,54.7Z"/><path class="b" d="M78.4,56.4c0-2.9,1.9-4.4,6.9-4.7a1.9,1.9,0,0,0-2.2-1.9A6.7,6.7,0,0,0,79.9,51l-1.1-2.5a8.5,8.5,0,0,1,4.9-1.7c2.9,0,4.7,1.9,4.7,5.8V60H85.9l-.2-1.5h-.1a5.9,5.9,0,0,1-3.7,1.8C79.7,60.3,78.4,58.6,78.4,56.4Zm6.9-.3V54c-3.1.2-3.9,1-3.9,2.1s.6,1.2,1.4,1.2A3.7,3.7,0,0,0,85.3,56.1Z"/><path class="b" d="M93.2,55V44.8H89.9v-3h6.4V55.1c0,1.6.8,2.1,1.7,2.1a3.4,3.4,0,0,0,1.6-.4l.7,2.8a7.8,7.8,0,0,1-3.1.7C94.6,60.3,93.2,58.2,93.2,55Z"/><path class="b" d="M113.9,53.6c0-4.3,2.8-6.8,6-6.8a5.3,5.3,0,0,1,3.9,1.7l-1.4,2.4a3.4,3.4,0,0,0-2.3-1c-1.8,0-3,1.4-3,3.7s1.2,3.7,2.9,3.7a4.2,4.2,0,0,0,2.7-1.2l1.2,2.4a6.2,6.2,0,0,1-4.3,1.9C116.4,60.3,113.9,57.8,113.9,53.6Z"/><path class="b" d="M126.7,47.1h2.5l.2,2.8h.1c1-2.1,2.6-3.1,4.2-3.1a3.9,3.9,0,0,1,2,.5l-.6,3.2a5.8,5.8,0,0,0-1.8-.4c-1.3,0-2.6.8-3.5,3.1V60h-3.1V47.1Z"/><path class="b" d="M137.2,53.5c0-4.2,2.6-6.7,5.4-6.7s4.9,2.7,4.9,6.2c0,.7-.1,1.4-.1,1.7h-7.9V52.1h5.8l-.5.7c0-2.1-.7-3.2-2.1-3.2s-2.5,1.3-2.5,3.8,1.2,3.8,3.2,3.8a4.8,4.8,0,0,0,2.7-.9l1,2.3a7.1,7.1,0,0,1-4.1,1.5C139.7,60.3,137.2,57.8,137.2,53.5Z"/><path class="b" d="M149.1,56.4c0-2.9,1.9-4.4,6.9-4.7a1.9,1.9,0,0,0-2.2-1.9,6.7,6.7,0,0,0-3.2,1.2l-1.1-2.5a8.5,8.5,0,0,1,4.9-1.7c2.9,0,4.7,1.9,4.7,5.8V60h-2.5l-.2-1.5h-.1a5.9,5.9,0,0,1-3.7,1.8C150.4,60.3,149.1,58.6,149.1,56.4Zm6.8-.3V54c-3.1.2-3.9,1-3.9,2.1s.6,1.2,1.4,1.2A3.5,3.5,0,0,0,155.9,56.1Z"/><path class="b" d="M163.2,54.7V50.2h-2.6V47.4h2.8l.4-3.9h2.6v3.9h4.4v3h-4.4v4.5c0,2,.7,2.7,2.2,2.7a5,5,0,0,0,2.1-.5l.6,2.8a10.2,10.2,0,0,1-3.4.7C164.4,60.3,163.2,58,163.2,54.7Z"/><path class="b" d="M177.2,50.1H173v-3h7.3V60h-3.1Zm-.7-7.3a2.1,2.1,0,1,1,4.2,0,2.1,2.1,0,1,1-4.2,0Z"/><path class="b" d="M183.8,47.1h3.1l1.6,6.1.9,4h.1l.9-4,1.6-6.1h3L191.3,60h-3.5Z"/><path class="b" d="M196.1,53.5c0-4.2,2.6-6.7,5.4-6.7s4.9,2.7,4.9,6.2c0,.7-.1,1.4-.1,1.7h-7.9V52.1h5.8l-.5.7c0-2.1-.7-3.2-2.1-3.2s-2.5,1.3-2.5,3.8,1.2,3.8,3.2,3.8a4.8,4.8,0,0,0,2.7-.9l1,2.3a7.1,7.1,0,0,1-4.1,1.5C198.6,60.3,196.1,57.8,196.1,53.5Z"/><path class="a" d="M0,55.2V51.5l13.9-9v4.8l-9.6,6h0l9.6,6v4.8Z"/><path class="a" d="M222.3,42.5h4.4L214.8,64.2h-4.4Z"/><path class="a" d="M229,59.4l9.6-6h0l-9.6-6V42.5l13.9,9v3.7l-13.9,9Z"/></svg>